M48
;Layer_Color=9474304
;FILE_FORMAT=4:4
METRIC,LZ
;TYPE=PLATED
T1F00S00C0.2000
T2F00S00C0.3000
T3F00S00C0.6500
T5F00S00C0.7140
T6F00S00C1.0000
T8F00S00C3.0000
%
T01
X015975Y009865
Y009975
Y010085
X016085
Y009975
Y009865
X015865
Y009975
Y010085
T02
X00025Y00025
X001
X002
X003
X004
X005
X006
X007
X008
X009
X01
X011
X012
X013
X014
X013925Y00085
X01375
X01345
X01425
X014425
X014775
X015Y00025
X016
X017
X01775
Y001
X017
Y002
X016975Y002175
X01725Y002275
X017Y003
X017275Y003375
X0165Y003325
X0161Y003225
X0159Y003275
X016Y003
Y004
X01665Y003925
X0166Y003875
X016975Y004025
X01775Y004
X0173339Y0045536
X01655Y004425
X0165Y00465
X01775Y003
X016Y002
Y001
X014
Y002
Y003
Y004
X013925Y00455
X01345Y0046
X014425Y00465
X013Y004
Y003
Y002
Y001
X012
Y002
Y003
Y004
X0155Y003625
X0109Y003675
X01085Y003725
X0108Y003775
X011Y004
X010675Y0043
Y004375
X0106
Y0043
X010525Y004175
Y0045
X01035Y00455
X0103Y0046
X01025Y00465
X010825Y0047
X010775Y00475
X010725Y0048
Y0049
X01081Y00485
X01092
X01104
X011475Y0049
X011525Y0048
X011575Y00475
X011625Y0047
X0103Y003925
X01025Y003875
X01015
X0101Y003925
X01005Y003975
X01Y004025
X00995Y004075
X0099Y004125
X00985Y004175
X0098Y004225
X00975Y00445
X00959Y00456
X00938
X0093Y00455
X0092Y00445
X009125Y004425
Y00435
X00905
Y004425
X008975Y0046
X008925Y00465
Y004775
X008975Y004725
X009175
X00919Y0048
Y0049
X00931
X00959
X008775Y004725
X0087
X008575Y0048
X008475Y0046
Y004525
X0084
Y0046
X0087Y004325
X008775Y004275
X008825Y003375
X008925Y003275
X008975Y003225
X009Y003
X00935Y003325
X00955Y003475
X0096Y003425
X0095Y003525
X00945Y003575
X0094Y003625
X0097
X0102Y003825
X01Y003
X011
Y002
X011175Y001725
X011125Y001675
X011Y001
X01
Y002
X009
X008875Y002275
X008Y002
Y001
X009
X008Y003
X0081Y003825
X00785Y003875
X0076Y003925
X007325Y003975
X0071Y004025
X006825Y004075
X006575Y004125
X0063Y004175
X00608171Y00422818
X006Y004
Y003
Y002
Y001
X007
Y002
Y003
X0074Y003625
X0076Y004375
X005Y004
X00475Y003775
X0046Y003725
X004325Y003675
X004Y004
Y003
Y002
Y001
X005
Y002
Y003
X003025Y003525
X00277854Y00357438
X003Y004
X002
Y003
X001
X001075Y003425
X001125Y003475
X001275Y004275
X001325Y004325
X001225Y004475
X001175Y004425
X001325Y004825
X00065
X00025Y004
Y003
Y002
X001
Y001
X00025
X002
X003
X002275Y001975
X002Y002
Y005
X002075Y0051
X002275Y00505
X00245Y005175
X002175Y005275
X001825Y0052
X00165Y00505
X001275Y005075
X00065Y005275
X00025Y005
Y006
Y00625
Y007
X001
X001175Y007175
X001225Y007425
X001Y008
X00025
Y00875
X001
X0017Y0089
X002Y00875
Y008
Y007
X00244802Y0068054
X002375Y0063
X002Y006
X001625Y00605
Y00625
X00175Y0062
X001075Y006175
X001125Y006425
X003Y006
Y005
Y007
Y008
Y00875
X004Y008
Y007
Y006
X004275Y006025
X00454271Y00596999
X0048Y005725
X00505Y005675
X0053Y005625
X00555Y005575
X0058Y005525
X006Y007
X007
X0076Y006875
X007Y008
X006
X005
Y007
X004Y005
X007675Y00505
X008Y005
X0082Y004975
X008375Y00525
X00845
Y005325
X008375
X0087Y00535
X00878128Y00544783
X0089Y0054
X008975Y00535
Y0055
X008925Y00555
X008875Y0056
X008825Y00565
X008775Y0057
X008675Y005775
X008625Y005825
X00875Y00591
Y00609
X008575Y00615
X00868Y00651
X00903
X008975Y006425
X00903Y00636
X009125Y006425
X00935099Y00651243
X0095Y00651
Y006425
Y0066
Y006775
X009275Y006875
X00955Y0072
X0098Y00715
X00985Y007025
X0099Y006975
X00995Y006925
X01Y006875
X01015Y006775
X010275Y006625
X010325Y00645
X01025Y0063998
X01015Y0064
X0101Y00635
X01005Y0063
Y0064
X0101Y0062
Y0061
X01015Y00605
X0102Y006
X01016328Y00625199
X01005Y00615
X00975
X00965Y0062
X0097Y00625
X0096Y0063
X00945Y0061
X0094Y006025
X00935Y005975
X0092Y005875
Y0058
X00919Y00569
X00931
Y00551
X00919
Y00522
X00931
X00959
Y00552
Y00569
X00965Y00575
X00904Y00591
X00903659Y00609043
X009175Y0061
X00884Y00528
X008875Y0052
X008775Y005175
X0087Y005125
X00876Y00498
X008975Y00505
X00895Y005125
X008575Y005475
X008225Y005775
X008Y007
Y008
X009
X009125Y007425
X009075Y007325
X009025Y007275
X0102
X0105Y007325
X01055Y007425
X011225Y007375
X011025Y0071
X011075Y0078
X011Y008
X01
X01035Y0063
Y0062
X0105Y00595
X01051Y00573
X01046Y00568
X0104Y00545
X010775Y0055
X010725Y00555
X010875Y00545
X010925Y0054
X010975Y00535
X011025Y0053
Y0052
X011075Y00525
X010975Y00515
X010925Y0051
X010875Y00505
X010825Y005
X010775Y00495
X011325Y005
X011375Y00495
X011275Y00505
X011225Y0053
X011175Y00535
X011125Y0054
X011075Y00545
X011025Y0055
X010775Y005775
X01079Y00585
X01142943Y00600466
X011675Y00605
X011925Y0061
X012Y006
X012175Y00615
X013Y006
Y005
X0137Y0051
X014Y005
X0142Y00525
X014725Y0052
X014975Y00515
X01525Y00555
X01535Y00595
X015Y006
X0157Y0061
X01575Y00615
X0155Y006875
X015175Y006975
X015Y007
X0153Y00715
X014375Y0072
X014Y007
X0132Y007025
X01295Y006975
X012696Y006929
X012425Y006875
X012Y008
X013
X014
X015
X01575Y00865
X0157Y008875
X014Y006
X012Y005
X016
X017
X01775
Y006
X01735Y005975
Y00615
X01705Y005825
X01695Y005775
X01665
X0166Y005825
Y00595
Y00605
X0161Y00615
X016Y006
X0159Y0061
X016Y008
X0161Y00865
X0159Y008875
X016775
Y00865
X017125Y008625
Y00885
X017Y008375
Y008
X01775
Y006975
Y009
X01785Y009225
Y009675
X017425
X017325Y009825
Y009925
X01715Y01015
X01685Y010025
X01665
X01645Y01015
Y0103
Y0104
X016525
Y010475
X01645
X0163Y01017728
Y0101
Y010025
Y0098
X01665Y0097
X01685Y0098
X0171Y009225
X016Y009
X016125Y0103
X015875Y01075
X01615Y0111
X016275Y01105
X01625Y01175
X015875Y011625
X017Y01175
Y011
X01775
Y01175
Y011825
X017825
Y01175
X0155
X01535Y011575
X0153Y01105
X01525Y0111
X0155Y011
X015175Y01065
X015Y01
X015575Y01015
X01557Y00983
X015775Y010375
X01395Y01065
X014Y011
Y0113
Y01175
X01325
X0125
Y011
X01275Y01075
X0132
X01325Y011
X0135Y0109
X013Y01
X012
X012225Y01065
X012Y009
X013
X014
X015
X01475Y01175
X01175
X011
Y011
X01175
X011625Y0102
X011575Y01025
X011525Y0103
X011475Y009975
X011325Y00985
X011375Y0096
X011275Y0095
X011Y009
X01
X009
X008
Y011
Y01175
X009
Y011
X01
Y01175
X0104Y01155
X007675Y01075
X007525Y010075
Y0099
Y009725
X0074Y00945
X007225Y0096
X00721Y00985
X007325Y009975
X007Y01
X006975Y009925
X00685Y01015
X00695Y00955
X007Y009
X006
X006375Y00945
X00605Y01
X0057Y01025
X005775Y01075
X006175
X006Y011
X00525
X005Y0111
X004925
X00500393Y01058276
X00495Y01005
X00494956Y00986869
X00494871Y00968711
X005275Y0095
X00553Y00955
X00559Y0096
X005Y009
X004
Y009425
Y0095
X0041
Y009425
X0042
Y0095
X0043
Y009425
X004225Y009625
Y0098
X0042Y01
X0041
X004125Y010475
X00405
X00415Y01095
X00435Y0112
X0043Y01125
X004275Y011775
X00435
Y01185
X004275
X00415Y01175
X00485
Y011825
X004925
Y01175
X00525
X006
X007
X00345Y01185
X003375
X0026
X002525
Y011175
X0026
Y0111
X002525
X00275Y010625
X002825
Y01055
X00275
X002625Y0102925
X00256
Y0102275
Y0101625
X002495
Y0102275
X002625
X002725Y010075
Y01
X0028
Y010075
X00285Y009875
Y0098
X00275Y009725
X0026Y00955
X0024Y0095
Y009325
X0025Y009375
X0026Y00915
X003
X003275Y00925
X003Y00955
X003225Y009975
Y01005
X0033
Y009975
X003175Y0101
Y01025
Y01045
X003275Y010525
X00335
Y0106
X003275
X00325Y010675
X0032Y010725
X0033Y011025
X00355
X003725Y010525
Y01045
Y010375
Y010125
Y01005
Y009975
Y0099
X003675Y009525
X0039Y0095
Y009425
Y009
X00389206Y01047648
X00396706
X002475Y0104
X0023975Y01037
Y0100175
X002275Y01
X002025
X00200895Y01020157
X00197Y01045
X001975Y010675
X00205
X001825Y011125
X00175
Y0112
X001825
Y011475
X00175
Y01155
X001825
X0014Y010875
X001325
Y0108
X0014
X000225Y010825
X00015
Y0109
X000225
Y011775
Y01185
X00015
Y011775
Y009875
Y0098
X000225
Y009875
X00025Y0095
X001
X001725Y0098
X0018
Y009875
X001725
X002075Y009775
X00215
X00227Y00964
X002Y00915
X0017Y009125
T03
X017355Y009611
Y010189
X016531Y011273
Y0114
X016404
Y011273
X016277
Y0114
X01615
Y011273
X016023
T05
X01195Y01156335
X012204Y01130935
X011696
T06
X013456Y0006
X01371
X013964
X014218
X014472
X014726
X01498
X008096Y0015
X007842
X007588
X007334
X00708
X006826
X006572
X006318
X006064
X00581
X005556
X005302
X005048
X004794
X00454
X004286
X004032
X003778
X003524
X00327
X003016
X002762
X002508
X002254
X002
X00045Y0032
Y00395
X0005Y004825
Y005075
X0005Y0058
Y00605
Y0063
Y00655
Y0068
Y00705
Y0073
Y00755
Y0078
Y0085
Y00875
X002Y0076
X002254
X002508
X002762
X003016
X00327
X003524
X003778
X004032
X004286
X00454
X004794
X005048
X005302
X005556
X00581
X006064
X006318
X006572
X006826
X017242Y006675
X017496
X01775
X0175Y005425
Y005175
X013708Y01045
X013454
X0132
X012946
X012692
X012438
X012184
X01193
X011676
X011422
X011168
X010914
X01066
X010406
X010152
X009898
X0067Y011
Y0115
X00155
X0013
X0005Y0095
Y00925
Y009
T08
X0005Y0005
X012436Y00045
X016
X0175Y0005
X012436Y00655
X016
X0175Y0115
X0005
X00046312Y0105
M30
