G04*
G04 #@! TF.GenerationSoftware,Altium Limited,Altium Designer,21.4.1 (30)*
G04*
G04 Layer_Color=16711935*
%FSLAX44Y44*%
%MOMM*%
G71*
G04*
G04 #@! TF.SameCoordinates,A141D3DD-4A5E-4641-B441-74F08AAE2887*
G04*
G04*
G04 #@! TF.FilePolarity,Negative*
G04*
G01*
G75*
%ADD70R,1.0532X1.1532*%
%ADD79R,1.2032X1.1032*%
%ADD90C,0.2032*%
%ADD91C,1.0800*%
%ADD92P,2.5569X8X112.5*%
%ADD93C,2.0032*%
%ADD94R,2.0032X2.0032*%
%ADD95R,1.4252X1.4252*%
%ADD96C,1.4252*%
%ADD97R,1.7272X1.7272*%
%ADD98C,1.7272*%
%ADD99C,3.2032*%
%ADD100C,2.2032*%
%ADD101R,1.7272X1.7272*%
G04:AMPARAMS|DCode=102|XSize=5.2032mm|YSize=3.7032mm|CornerRadius=0mm|HoleSize=0mm|Usage=FLASHONLY|Rotation=0.000|XOffset=0mm|YOffset=0mm|HoleType=Round|Shape=Octagon|*
%AMOCTAGOND102*
4,1,8,2.6016,-0.9258,2.6016,0.9258,1.6758,1.8516,-1.6758,1.8516,-2.6016,0.9258,-2.6016,-0.9258,-1.6758,-1.8516,1.6758,-1.8516,2.6016,-0.9258,0.0*
%
%ADD102OCTAGOND102*%

G04:AMPARAMS|DCode=103|XSize=5.2032mm|YSize=3.7032mm|CornerRadius=0mm|HoleSize=0mm|Usage=FLASHONLY|Rotation=270.000|XOffset=0mm|YOffset=0mm|HoleType=Round|Shape=Octagon|*
%AMOCTAGOND103*
4,1,8,-0.9258,-2.6016,0.9258,-2.6016,1.8516,-1.6758,1.8516,1.6758,0.9258,2.6016,-0.9258,2.6016,-1.8516,1.6758,-1.8516,-1.6758,-0.9258,-2.6016,0.0*
%
%ADD103OCTAGOND103*%

%ADD104C,0.7032*%
G36*
X1658332Y1139750D02*
X1647870Y1139750D01*
X1653101Y1151956D01*
X1658332Y1139750D01*
D02*
G37*
G36*
X1645632D02*
X1635170Y1139750D01*
X1640401Y1151956D01*
X1645632Y1139750D01*
D02*
G37*
G36*
X1632932D02*
X1622470Y1139750D01*
X1627701Y1151956D01*
X1632932Y1139750D01*
D02*
G37*
G36*
X1620232D02*
X1609770Y1139750D01*
X1615001Y1151956D01*
X1620232Y1139750D01*
D02*
G37*
G36*
X1607529Y1139749D02*
X1597067Y1139749D01*
X1602298Y1151955D01*
X1607529Y1139749D01*
D02*
G37*
G36*
X1653099Y1115464D02*
X1647868Y1127670D01*
X1658330Y1127670D01*
X1653099Y1115464D01*
D02*
G37*
G36*
X1640399D02*
X1635168Y1127670D01*
X1645630Y1127670D01*
X1640399Y1115464D01*
D02*
G37*
G36*
X1614999D02*
X1609768Y1127670D01*
X1620230Y1127670D01*
X1614999Y1115464D01*
D02*
G37*
G36*
X1602221Y1115464D02*
X1596990Y1127670D01*
X1607452Y1127670D01*
X1602221Y1115464D01*
D02*
G37*
G36*
X1627701Y1115462D02*
X1622470Y1127668D01*
X1632932Y1127668D01*
X1627701Y1115462D01*
D02*
G37*
D70*
X1416500Y85000D02*
D03*
X1403500D02*
D03*
X1366500D02*
D03*
X1353500D02*
D03*
X1466500D02*
D03*
X1453500D02*
D03*
X1742500Y477500D02*
D03*
X1753000D02*
D03*
Y455000D02*
D03*
X1742500D02*
D03*
X1655000Y1085000D02*
D03*
X1644500D02*
D03*
X112500Y457500D02*
D03*
X102000D02*
D03*
Y482500D02*
D03*
X112500D02*
D03*
X102000Y507500D02*
D03*
X112500D02*
D03*
D79*
X1665000Y948250D02*
D03*
Y961750D02*
D03*
X1685000Y948250D02*
D03*
Y961750D02*
D03*
X857369Y525789D02*
D03*
Y539289D02*
D03*
X857500Y456750D02*
D03*
Y470250D02*
D03*
D90*
X1735500Y1018900D02*
D03*
Y961100D02*
D03*
X46312Y1050000D02*
D03*
D91*
X1653100Y1140000D02*
D03*
Y1127300D02*
D03*
X1640400Y1140000D02*
D03*
Y1127300D02*
D03*
X1627700Y1140000D02*
D03*
Y1127300D02*
D03*
X1615000Y1140000D02*
D03*
Y1127300D02*
D03*
X1602300D02*
D03*
Y1140000D02*
D03*
D92*
X670000Y1100000D02*
D03*
Y1150000D02*
D03*
D93*
X1015200Y1045000D02*
D03*
X1370800D02*
D03*
X1345400D02*
D03*
X1320000D02*
D03*
X1294600D02*
D03*
X1269200D02*
D03*
X1243800D02*
D03*
X1218400D02*
D03*
X1193000D02*
D03*
X1167600D02*
D03*
X1142200D02*
D03*
X1116800D02*
D03*
X1091400D02*
D03*
X1066000D02*
D03*
X1040600D02*
D03*
X1749600Y667500D02*
D03*
X1775000D02*
D03*
X809600Y150000D02*
D03*
X784200D02*
D03*
X758800D02*
D03*
X733400D02*
D03*
X708000D02*
D03*
X682600D02*
D03*
X657200D02*
D03*
X631800D02*
D03*
X606400D02*
D03*
X581000D02*
D03*
X555600D02*
D03*
X530200D02*
D03*
X504800D02*
D03*
X479400D02*
D03*
X454000D02*
D03*
X428600D02*
D03*
X403200D02*
D03*
X377800D02*
D03*
X352400D02*
D03*
X327000D02*
D03*
X301600D02*
D03*
X276200D02*
D03*
X250800D02*
D03*
X225400D02*
D03*
X682600Y760000D02*
D03*
X657200D02*
D03*
X631800D02*
D03*
X606400D02*
D03*
X581000D02*
D03*
X555600D02*
D03*
X530200D02*
D03*
X504800D02*
D03*
X479400D02*
D03*
X454000D02*
D03*
X428600D02*
D03*
X403200D02*
D03*
X377800D02*
D03*
X352400D02*
D03*
X327000D02*
D03*
X301600D02*
D03*
X276200D02*
D03*
X250800D02*
D03*
X225400D02*
D03*
X200000D02*
D03*
X1498000Y60000D02*
D03*
X1472600D02*
D03*
X1447200D02*
D03*
X1421800D02*
D03*
X1396400D02*
D03*
X1371000D02*
D03*
D94*
X989800Y1045000D02*
D03*
X1724200Y667500D02*
D03*
X200000Y150000D02*
D03*
X1345600Y60000D02*
D03*
D95*
X1169600Y1130935D02*
D03*
D96*
X1195000Y1156335D02*
D03*
X1220400Y1130935D02*
D03*
D97*
X1750000Y517500D02*
D03*
X50000Y780000D02*
D03*
X50000Y507500D02*
D03*
X50000Y950000D02*
D03*
D98*
X1750000Y542500D02*
D03*
X50000Y580000D02*
D03*
Y655000D02*
D03*
Y680000D02*
D03*
Y730000D02*
D03*
Y755000D02*
D03*
Y705000D02*
D03*
Y630000D02*
D03*
Y605000D02*
D03*
X50000Y482500D02*
D03*
X50000Y850000D02*
D03*
Y900000D02*
D03*
Y925000D02*
D03*
Y875000D02*
D03*
X130000Y1150000D02*
D03*
D99*
X1750000D02*
D03*
X1600000Y45000D02*
D03*
X1243600D02*
D03*
Y655000D02*
D03*
X1600000D02*
D03*
X50000Y50000D02*
D03*
Y1150000D02*
D03*
X1750000Y50000D02*
D03*
D100*
X45000Y395000D02*
D03*
Y320000D02*
D03*
D101*
X155000Y1150000D02*
D03*
D102*
X119972Y999962D02*
D03*
D103*
X90000Y1050000D02*
D03*
X151214D02*
D03*
D104*
X1586500Y1008500D02*
D03*
X1597500D02*
D03*
X1608500D02*
D03*
X1586500Y997500D02*
D03*
X1597500D02*
D03*
X1608500D02*
D03*
X1586500Y986500D02*
D03*
X1597500D02*
D03*
X1608500D02*
D03*
M02*
