G04*
G04 #@! TF.GenerationSoftware,Altium Limited,Altium Designer,21.4.1 (30)*
G04*
G04 Layer_Color=8421504*
%FSLAX44Y44*%
%MOMM*%
G71*
G04*
G04 #@! TF.SameCoordinates,A141D3DD-4A5E-4641-B441-74F08AAE2887*
G04*
G04*
G04 #@! TF.FilePolarity,Positive*
G04*
G01*
G75*
%ADD21R,1.3000X1.4000*%
%ADD22R,1.1500X0.6000*%
%ADD23R,2.0000X2.1800*%
%ADD24R,1.1500X0.3000*%
%ADD25R,0.9000X0.2500*%
%ADD26R,0.2500X0.9000*%
%ADD27R,3.2500X3.2500*%
%ADD28R,0.4000X0.3500*%
%ADD29R,0.3500X0.4000*%
%ADD30R,1.0000X0.5000*%
%ADD31R,1.0000X0.9000*%
%ADD32R,0.9000X1.0000*%
%ADD33R,0.6400X0.6000*%
%ADD34R,0.6000X0.6400*%
%ADD35C,0.3500*%
%ADD36R,0.8500X0.9500*%
%ADD37R,1.0000X0.5500*%
%ADD38R,0.9500X0.8500*%
%ADD39O,1.2000X0.3000*%
%ADD40O,0.3000X1.2000*%
%ADD41R,1.2000X2.5000*%
%ADD42R,1.9000X1.0000*%
%ADD43R,2.5000X1.7000*%
%ADD44R,1.1500X1.3500*%
%ADD45R,0.8000X0.9000*%
%ADD46R,1.7000X2.5000*%
%ADD47O,1.4500X0.6000*%
%ADD48O,1.5000X0.4500*%
%ADD49R,5.4000X1.8000*%
%ADD50R,3.2000X1.6000*%
%ADD51R,1.6000X1.2000*%
%ADD52R,1.6000X3.3000*%
%ADD53R,1.2000X1.6500*%
%ADD54R,4.6000X4.2400*%
D21*
X308000Y1045000D02*
D03*
X292000D02*
D03*
X308000Y1025000D02*
D03*
X292000D02*
D03*
X308000Y1005000D02*
D03*
X292000D02*
D03*
X197000Y1035000D02*
D03*
X213000D02*
D03*
X197000Y1055000D02*
D03*
X213000D02*
D03*
X255500D02*
D03*
X239500D02*
D03*
D22*
X1724000Y1022000D02*
D03*
Y1014000D02*
D03*
Y958000D02*
D03*
Y966000D02*
D03*
D23*
X1730500Y938900D02*
D03*
Y1041100D02*
D03*
X1769500Y938900D02*
D03*
Y1041100D02*
D03*
D24*
X1724000Y972500D02*
D03*
Y977500D02*
D03*
Y982500D02*
D03*
Y987500D02*
D03*
Y992500D02*
D03*
Y997500D02*
D03*
Y1002500D02*
D03*
Y1007500D02*
D03*
D25*
X1573500Y1012500D02*
D03*
Y1007500D02*
D03*
Y1002500D02*
D03*
Y997500D02*
D03*
Y992500D02*
D03*
Y982500D02*
D03*
Y987500D02*
D03*
X1621500Y1012500D02*
D03*
Y1007500D02*
D03*
Y1002500D02*
D03*
Y997500D02*
D03*
Y992500D02*
D03*
Y982500D02*
D03*
Y987500D02*
D03*
D26*
X1582500Y973500D02*
D03*
X1587500D02*
D03*
X1592500D02*
D03*
X1597500D02*
D03*
X1602500D02*
D03*
X1607500D02*
D03*
X1612500D02*
D03*
X1582500Y1021500D02*
D03*
X1587500D02*
D03*
X1592500D02*
D03*
X1597500D02*
D03*
X1602500D02*
D03*
X1607500D02*
D03*
X1612500D02*
D03*
D27*
X1597500Y997500D02*
D03*
D28*
X923800Y602500D02*
D03*
X930000D02*
D03*
X1046200Y417500D02*
D03*
X1040000D02*
D03*
X930000D02*
D03*
X923800D02*
D03*
D29*
X1077500Y570600D02*
D03*
Y564400D02*
D03*
X892500Y519400D02*
D03*
Y525600D02*
D03*
D30*
X466000Y1045000D02*
D03*
X445000D02*
D03*
Y1053000D02*
D03*
X466000D02*
D03*
X1045500Y630500D02*
D03*
X1024500D02*
D03*
Y622500D02*
D03*
X1045500D02*
D03*
Y654000D02*
D03*
X1024500D02*
D03*
Y646000D02*
D03*
X1045500D02*
D03*
X1743000Y914000D02*
D03*
X1722000D02*
D03*
Y906000D02*
D03*
X1743000D02*
D03*
Y891500D02*
D03*
X1722000D02*
D03*
Y883500D02*
D03*
X1743000D02*
D03*
Y869000D02*
D03*
X1722000D02*
D03*
Y861000D02*
D03*
X1743000D02*
D03*
X190000Y929000D02*
D03*
X169000D02*
D03*
Y921000D02*
D03*
X190000D02*
D03*
X190500Y954000D02*
D03*
X169500D02*
D03*
Y946000D02*
D03*
X190500D02*
D03*
X190000Y904000D02*
D03*
X169000D02*
D03*
Y896000D02*
D03*
X190000D02*
D03*
D31*
X1705450Y1033250D02*
D03*
Y1046750D02*
D03*
X1557500Y1007500D02*
D03*
Y994000D02*
D03*
X590000Y1074250D02*
D03*
Y1060750D02*
D03*
X1090000Y581000D02*
D03*
Y567500D02*
D03*
X785000Y556342D02*
D03*
Y542842D02*
D03*
Y487777D02*
D03*
Y474277D02*
D03*
X821500Y543500D02*
D03*
X838500D02*
D03*
X821500Y556500D02*
D03*
X838500D02*
D03*
X821500Y474777D02*
D03*
X838500D02*
D03*
X821500Y487777D02*
D03*
X838500D02*
D03*
D32*
X1686300Y847500D02*
D03*
X1699800D02*
D03*
X1615750Y1037500D02*
D03*
X1629250D02*
D03*
X228250Y175000D02*
D03*
X241750D02*
D03*
X228250Y735000D02*
D03*
X241750D02*
D03*
X1005250Y1007500D02*
D03*
X991750D02*
D03*
X1735750Y217500D02*
D03*
X1749250D02*
D03*
X1735750Y402500D02*
D03*
X1749250D02*
D03*
X1041750Y670000D02*
D03*
X1028250D02*
D03*
X1056750Y405000D02*
D03*
X1043250D02*
D03*
X1311750Y1090000D02*
D03*
X1298250D02*
D03*
X400000Y963000D02*
D03*
X413500D02*
D03*
X400000Y980000D02*
D03*
X413500D02*
D03*
X353250Y963000D02*
D03*
X366750D02*
D03*
X353250Y980000D02*
D03*
X366750D02*
D03*
D33*
X1637500Y1008800D02*
D03*
Y1000000D02*
D03*
X607500Y1075000D02*
D03*
Y1066200D02*
D03*
D34*
X571900Y1017500D02*
D03*
X563100D02*
D03*
X206900Y517500D02*
D03*
X198100D02*
D03*
X1677500Y632500D02*
D03*
X1686300D02*
D03*
X1781300Y642500D02*
D03*
X1772500D02*
D03*
X226600Y190000D02*
D03*
X235400D02*
D03*
X226600Y720000D02*
D03*
X235400D02*
D03*
X1006900Y1022500D02*
D03*
X998100D02*
D03*
X684400Y1007500D02*
D03*
X675600D02*
D03*
X926000Y612500D02*
D03*
X934800D02*
D03*
X244400Y985901D02*
D03*
X235600D02*
D03*
D35*
X265756Y1025905D02*
D03*
Y1019405D02*
D03*
Y1012905D02*
D03*
Y1006405D02*
D03*
X239756Y1025905D02*
D03*
X259256Y1019405D02*
D03*
Y1012905D02*
D03*
Y1006405D02*
D03*
X252756Y1012905D02*
D03*
Y1019405D02*
D03*
Y1025905D02*
D03*
Y1006405D02*
D03*
X246255Y1025905D02*
D03*
Y1019405D02*
D03*
Y1012905D02*
D03*
Y1006405D02*
D03*
X239756D02*
D03*
Y1012905D02*
D03*
Y1019405D02*
D03*
X259256Y1025905D02*
D03*
X265756Y1032405D02*
D03*
X239756D02*
D03*
X252756D02*
D03*
X246255D02*
D03*
X259256D02*
D03*
D36*
X889000Y677500D02*
D03*
X876000D02*
D03*
X889000Y660000D02*
D03*
X876000D02*
D03*
X889000Y642500D02*
D03*
X876000D02*
D03*
X941500Y677500D02*
D03*
X928500D02*
D03*
X941500Y660000D02*
D03*
X928500D02*
D03*
X941500Y642500D02*
D03*
X928500D02*
D03*
X1713500Y597500D02*
D03*
X1726500D02*
D03*
X1713500Y615000D02*
D03*
X1726500D02*
D03*
X1584500Y1037500D02*
D03*
X1597500D02*
D03*
X1686550Y887500D02*
D03*
X1699550D02*
D03*
X1686550Y865000D02*
D03*
X1699550D02*
D03*
X1328500Y1090000D02*
D03*
X1341500D02*
D03*
X1693250Y1015000D02*
D03*
X1706250D02*
D03*
X1706250Y997500D02*
D03*
X1693250D02*
D03*
X1706250Y980000D02*
D03*
X1693250D02*
D03*
X310500Y985000D02*
D03*
X297500D02*
D03*
X1719000Y217500D02*
D03*
X1706000D02*
D03*
X1719000Y402500D02*
D03*
X1706000D02*
D03*
X869869Y556750D02*
D03*
X856869D02*
D03*
X869869Y488027D02*
D03*
X856869D02*
D03*
X650000Y1040000D02*
D03*
X663000D02*
D03*
Y1060000D02*
D03*
X650000D02*
D03*
X745000Y1007500D02*
D03*
X732000D02*
D03*
X505000Y968697D02*
D03*
X518000D02*
D03*
X505000Y1005000D02*
D03*
X518000D02*
D03*
X505000Y986889D02*
D03*
X518000D02*
D03*
X745000Y990000D02*
D03*
X732000D02*
D03*
X745000Y972500D02*
D03*
X732000D02*
D03*
X200050Y988613D02*
D03*
X213050D02*
D03*
X260506Y983901D02*
D03*
X273505D02*
D03*
D37*
X1695400Y605000D02*
D03*
X1668400Y614500D02*
D03*
Y605000D02*
D03*
Y595500D02*
D03*
X1695400D02*
D03*
Y614500D02*
D03*
X210000Y501500D02*
D03*
Y482500D02*
D03*
X183000D02*
D03*
Y492000D02*
D03*
Y501500D02*
D03*
X210000Y492000D02*
D03*
D38*
X617500Y982500D02*
D03*
Y995500D02*
D03*
X1706250Y950000D02*
D03*
Y963000D02*
D03*
X1590000Y957500D02*
D03*
Y944500D02*
D03*
X1610000Y957500D02*
D03*
Y944500D02*
D03*
X1410000Y1116000D02*
D03*
Y1129000D02*
D03*
X1686950Y1045200D02*
D03*
Y1032200D02*
D03*
X802802Y544392D02*
D03*
Y557392D02*
D03*
Y475827D02*
D03*
Y488827D02*
D03*
X165000Y496500D02*
D03*
Y483500D02*
D03*
X227500Y497500D02*
D03*
Y484500D02*
D03*
D39*
X907500Y570000D02*
D03*
Y565000D02*
D03*
Y560000D02*
D03*
Y555000D02*
D03*
Y550000D02*
D03*
Y545000D02*
D03*
Y540000D02*
D03*
Y535000D02*
D03*
Y530000D02*
D03*
Y525000D02*
D03*
Y520000D02*
D03*
Y515000D02*
D03*
Y510000D02*
D03*
Y505000D02*
D03*
Y500000D02*
D03*
Y495000D02*
D03*
Y490000D02*
D03*
Y485000D02*
D03*
Y480000D02*
D03*
Y475000D02*
D03*
Y470000D02*
D03*
Y465000D02*
D03*
Y460000D02*
D03*
Y455000D02*
D03*
Y450000D02*
D03*
X1062500D02*
D03*
Y455000D02*
D03*
Y460000D02*
D03*
Y465000D02*
D03*
Y470000D02*
D03*
Y475000D02*
D03*
Y480000D02*
D03*
Y485000D02*
D03*
Y490000D02*
D03*
Y495000D02*
D03*
Y500000D02*
D03*
Y505000D02*
D03*
Y510000D02*
D03*
Y515000D02*
D03*
Y520000D02*
D03*
Y525000D02*
D03*
Y530000D02*
D03*
Y535000D02*
D03*
Y540000D02*
D03*
Y545000D02*
D03*
Y550000D02*
D03*
Y555000D02*
D03*
Y560000D02*
D03*
Y565000D02*
D03*
Y570000D02*
D03*
D40*
X925000Y432500D02*
D03*
X930000D02*
D03*
X935000D02*
D03*
X940000D02*
D03*
X945000D02*
D03*
X950000D02*
D03*
X955000D02*
D03*
X960000D02*
D03*
X965000D02*
D03*
X970000D02*
D03*
X975000D02*
D03*
X980000D02*
D03*
X985000D02*
D03*
X990000D02*
D03*
X995000D02*
D03*
X1000000D02*
D03*
X1005000D02*
D03*
X1010000D02*
D03*
X1015000D02*
D03*
X1020000D02*
D03*
X1025000D02*
D03*
X1030000D02*
D03*
X1035000D02*
D03*
X1040000D02*
D03*
X1045000D02*
D03*
Y587500D02*
D03*
X1040000D02*
D03*
X1035000D02*
D03*
X1030000D02*
D03*
X1025000D02*
D03*
X1020000D02*
D03*
X1015000D02*
D03*
X1010000D02*
D03*
X1005000D02*
D03*
X1000000D02*
D03*
X995000D02*
D03*
X990000D02*
D03*
X985000D02*
D03*
X980000D02*
D03*
X975000D02*
D03*
X970000D02*
D03*
X965000D02*
D03*
X960000D02*
D03*
X955000D02*
D03*
X950000D02*
D03*
X945000D02*
D03*
X940000D02*
D03*
X935000D02*
D03*
X930000D02*
D03*
X925000D02*
D03*
D41*
X1475000Y1150000D02*
D03*
X1500000Y1095000D02*
D03*
X1450000Y1150000D02*
D03*
X1500000D02*
D03*
X1475000Y1095000D02*
D03*
X1450000D02*
D03*
D42*
X1274500Y1112500D02*
D03*
X1365500Y1157500D02*
D03*
X1274500D02*
D03*
X1365500Y1112500D02*
D03*
X1773000Y197500D02*
D03*
X1682000Y152500D02*
D03*
X1773000D02*
D03*
X1682000Y197500D02*
D03*
X1773000Y382500D02*
D03*
X1682000Y337500D02*
D03*
X1773000D02*
D03*
X1682000Y382500D02*
D03*
D43*
X1355000Y1010000D02*
D03*
X1395000D02*
D03*
X190000Y1090000D02*
D03*
X230000D02*
D03*
X270000D02*
D03*
X310000D02*
D03*
D44*
X1680000Y910000D02*
D03*
X1697500D02*
D03*
X463750Y1025000D02*
D03*
X446250D02*
D03*
X211250Y900000D02*
D03*
X228750D02*
D03*
X228750Y925000D02*
D03*
X211250D02*
D03*
X211250Y950000D02*
D03*
X228750D02*
D03*
D45*
X680500Y1040000D02*
D03*
X699500D02*
D03*
X690000Y1060000D02*
D03*
D46*
X750000Y1100000D02*
D03*
Y1140000D02*
D03*
D47*
X540250Y1001550D02*
D03*
Y988850D02*
D03*
Y976150D02*
D03*
Y963450D02*
D03*
X594750Y1001550D02*
D03*
Y988850D02*
D03*
Y976150D02*
D03*
Y963450D02*
D03*
D48*
X709000Y972750D02*
D03*
Y979250D02*
D03*
Y985750D02*
D03*
Y992250D02*
D03*
X651000Y972750D02*
D03*
Y979250D02*
D03*
Y985750D02*
D03*
Y992250D02*
D03*
D49*
X379000Y1120000D02*
D03*
X471000D02*
D03*
D50*
X580462Y1135203D02*
D03*
X530462D02*
D03*
D51*
X353000Y1048000D02*
D03*
Y1025000D02*
D03*
Y1002000D02*
D03*
D52*
X417000Y1025000D02*
D03*
D53*
X184750Y1010000D02*
D03*
X212750D02*
D03*
D54*
X225000Y1140000D02*
D03*
X300000D02*
D03*
M02*
