G04*
G04 #@! TF.GenerationSoftware,Altium Limited,Altium Designer,21.4.1 (30)*
G04*
G04 Layer_Color=16711935*
%FSLAX44Y44*%
%MOMM*%
G71*
G04*
G04 #@! TF.SameCoordinates,A141D3DD-4A5E-4641-B441-74F08AAE2887*
G04*
G04*
G04 #@! TF.FilePolarity,Positive*
G04*
G01*
G75*
%ADD10C,0.2000*%
%ADD14C,0.2540*%
%ADD15C,0.1500*%
%ADD17C,0.1000*%
%ADD18C,0.1270*%
%ADD123C,0.0500*%
%ADD124R,0.6187X2.9200*%
%ADD125R,2.9200X0.6187*%
D10*
X1615700Y1108650D02*
Y1116650D01*
X1564200Y1158650D02*
X1691200D01*
Y1108650D02*
Y1158650D01*
X1639700Y1108650D02*
X1691200D01*
X1639700D02*
Y1116650D01*
X1683200D01*
Y1150650D01*
X1572200D02*
X1683200D01*
X1572200Y1116650D02*
Y1150650D01*
Y1116650D02*
X1615700D01*
X1564200Y1108650D02*
X1615700D01*
X1564200D02*
Y1158650D01*
X1430000Y1105500D02*
X1520000D01*
X1430000Y1141500D02*
X1520000D01*
Y1105500D02*
Y1141500D01*
X1430000Y1105500D02*
Y1141500D01*
D14*
X1724250Y945300D02*
X1797750D01*
X1724250Y1034700D02*
X1797750D01*
X1724250Y945300D02*
Y1034700D01*
X1797750Y945300D02*
Y1034700D01*
X908800Y705000D02*
Y1067000D01*
X1710800Y705000D02*
Y1067000D01*
X908800D02*
X1710800D01*
X908800Y705000D02*
X1710800D01*
X1712200Y655500D02*
X1786200D01*
X1712200Y679500D02*
X1786200D01*
Y655500D02*
Y679500D01*
X1712200Y655500D02*
Y679500D01*
D15*
X1622500Y972500D02*
Y1022500D01*
X1572500Y972500D02*
Y1022500D01*
Y972500D02*
X1622500D01*
X1572500Y1022500D02*
X1622500D01*
D17*
X929000Y571000D02*
X928330Y573500D01*
X926500Y575330D01*
X924000Y576000D01*
X921500Y575330D01*
X919670Y573500D01*
X919000Y571000D01*
X919670Y568500D01*
X921500Y566670D01*
X924000Y566000D01*
X926500Y566670D01*
X928330Y568500D01*
X929000Y571000D01*
X561500Y998500D02*
X560830Y1001000D01*
X559000Y1002830D01*
X556500Y1003500D01*
X554000Y1002830D01*
X552170Y1001000D01*
X551500Y998500D01*
X552170Y996000D01*
X554000Y994170D01*
X556500Y993500D01*
X559000Y994170D01*
X560830Y996000D01*
X561500Y998500D01*
X671500Y989000D02*
X670830Y991500D01*
X669000Y993330D01*
X666500Y994000D01*
X664000Y993330D01*
X662170Y991500D01*
X661500Y989000D01*
X662170Y986500D01*
X664000Y984670D01*
X666500Y984000D01*
X669000Y984670D01*
X670830Y986500D01*
X671500Y989000D01*
X311000Y1038000D02*
Y1052000D01*
X289000Y1038000D02*
Y1052000D01*
Y1038000D02*
X311000D01*
X289000Y1052000D02*
X311000D01*
Y1018000D02*
Y1032000D01*
X289000Y1018000D02*
Y1032000D01*
Y1018000D02*
X311000D01*
X289000Y1032000D02*
X311000D01*
Y998000D02*
Y1012000D01*
X289000Y998000D02*
Y1012000D01*
Y998000D02*
X311000D01*
X289000Y1012000D02*
X311000D01*
X194000Y1028000D02*
Y1042000D01*
X216000Y1028000D02*
Y1042000D01*
X194000D02*
X216000D01*
X194000Y1028000D02*
X216000D01*
X194000Y1048000D02*
Y1062000D01*
X216000Y1048000D02*
Y1062000D01*
X194000D02*
X216000D01*
X194000Y1048000D02*
X216000D01*
X258500Y1048000D02*
Y1062000D01*
X236500Y1048000D02*
Y1062000D01*
Y1048000D02*
X258500D01*
X236500Y1062000D02*
X258500D01*
X923750Y604150D02*
X930050D01*
X923750Y600850D02*
X930050D01*
X923750D02*
Y604150D01*
X930050Y600850D02*
Y604150D01*
X1079150Y564350D02*
Y570650D01*
X1075850Y564350D02*
Y570650D01*
X1079150D01*
X1075850Y564350D02*
X1079150D01*
X1039950Y415850D02*
X1046250D01*
X1039950Y419150D02*
X1046250D01*
Y415850D02*
Y419150D01*
X1039950Y415850D02*
Y419150D01*
X923750Y415850D02*
X930050D01*
X923750Y419150D02*
X930050D01*
Y415850D02*
Y419150D01*
X923750Y415850D02*
Y419150D01*
X890850Y519350D02*
Y525650D01*
X894150Y519350D02*
Y525650D01*
X890850Y519350D02*
X894150D01*
X890850Y525650D02*
X894150D01*
X1700700Y1031250D02*
Y1048750D01*
X1710200Y1031250D02*
Y1048750D01*
X1700700Y1031250D02*
X1710200D01*
X1700700Y1048750D02*
X1710200D01*
X1562250Y992000D02*
Y1009500D01*
X1552750Y992000D02*
Y1009500D01*
X1562250D01*
X1552750Y992000D02*
X1562250D01*
X1684300Y852250D02*
X1701800D01*
X1684300Y842750D02*
X1701800D01*
X1684300D02*
Y852250D01*
X1701800Y842750D02*
Y852250D01*
X1613750Y1042250D02*
X1631250D01*
X1613750Y1032750D02*
X1631250D01*
X1613750D02*
Y1042250D01*
X1631250Y1032750D02*
Y1042250D01*
X594750Y1058750D02*
Y1076250D01*
X585250Y1058750D02*
Y1076250D01*
X594750D01*
X585250Y1058750D02*
X594750D01*
X226250Y179750D02*
X243750D01*
X226250Y170250D02*
X243750D01*
X226250D02*
Y179750D01*
X243750Y170250D02*
Y179750D01*
X226250Y739750D02*
X243750D01*
X226250Y730250D02*
X243750D01*
X226250D02*
Y739750D01*
X243750Y730250D02*
Y739750D01*
X989750Y1002750D02*
X1007250D01*
X989750Y1012250D02*
X1007250D01*
Y1002750D02*
Y1012250D01*
X989750Y1002750D02*
Y1012250D01*
X1733750Y222250D02*
X1751250D01*
X1733750Y212750D02*
X1751250D01*
X1733750D02*
Y222250D01*
X1751250Y212750D02*
Y222250D01*
X1733750Y407250D02*
X1751250D01*
X1733750Y397750D02*
X1751250D01*
X1733750D02*
Y407250D01*
X1751250Y397750D02*
Y407250D01*
X1026250Y665250D02*
X1043750D01*
X1026250Y674750D02*
X1043750D01*
Y665250D02*
Y674750D01*
X1026250Y665250D02*
Y674750D01*
X1094750Y565500D02*
Y583000D01*
X1085250Y565500D02*
Y583000D01*
X1094750D01*
X1085250Y565500D02*
X1094750D01*
X1041250Y400250D02*
X1058750D01*
X1041250Y409750D02*
X1058750D01*
Y400250D02*
Y409750D01*
X1041250Y400250D02*
Y409750D01*
X1296250Y1085250D02*
X1313750D01*
X1296250Y1094750D02*
X1313750D01*
Y1085250D02*
Y1094750D01*
X1296250Y1085250D02*
Y1094750D01*
X789750Y540842D02*
Y558342D01*
X780250Y540842D02*
Y558342D01*
X789750D01*
X780250Y540842D02*
X789750D01*
Y472277D02*
Y489777D01*
X780250Y472277D02*
Y489777D01*
X789750D01*
X780250Y472277D02*
X789750D01*
X398000Y967750D02*
X415500D01*
X398000Y958250D02*
X415500D01*
X398000D02*
Y967750D01*
X415500Y958250D02*
Y967750D01*
X398000Y984750D02*
X415500D01*
X398000Y975250D02*
X415500D01*
X398000D02*
Y984750D01*
X415500Y975250D02*
Y984750D01*
X351250Y967750D02*
X368750D01*
X351250Y958250D02*
X368750D01*
X351250D02*
Y967750D01*
X368750Y958250D02*
Y967750D01*
X351250Y984750D02*
X368750D01*
X351250Y975250D02*
X368750D01*
X351250D02*
Y984750D01*
X368750Y975250D02*
Y984750D01*
X1640100Y999250D02*
Y1009550D01*
X1634900Y999250D02*
Y1009550D01*
X1640100D01*
X1634900Y999250D02*
X1640100D01*
X562350Y1014900D02*
X572650D01*
X562350Y1020100D02*
X572650D01*
Y1014900D02*
Y1020100D01*
X562350Y1014900D02*
Y1020100D01*
X197350Y514900D02*
X207650D01*
X197350Y520100D02*
X207650D01*
Y514900D02*
Y520100D01*
X197350Y514900D02*
Y520100D01*
X1676750Y635100D02*
X1687050D01*
X1676750Y629900D02*
X1687050D01*
X1676750D02*
Y635100D01*
X1687050Y629900D02*
Y635100D01*
X610100Y1065450D02*
Y1075750D01*
X604900Y1065450D02*
Y1075750D01*
X610100D01*
X604900Y1065450D02*
X610100D01*
X1771750Y639900D02*
X1782050D01*
X1771750Y645100D02*
X1782050D01*
Y639900D02*
Y645100D01*
X1771750Y639900D02*
Y645100D01*
X225850Y192600D02*
X236150D01*
X225850Y187400D02*
X236150D01*
X225850D02*
Y192600D01*
X236150Y187400D02*
Y192600D01*
X225850Y722600D02*
X236150D01*
X225850Y717400D02*
X236150D01*
X225850D02*
Y722600D01*
X236150Y717400D02*
Y722600D01*
X997350Y1019900D02*
X1007650D01*
X997350Y1025100D02*
X1007650D01*
Y1019900D02*
Y1025100D01*
X997350Y1019900D02*
Y1025100D01*
X674850Y1004900D02*
X685150D01*
X674850Y1010100D02*
X685150D01*
Y1004900D02*
Y1010100D01*
X674850Y1004900D02*
Y1010100D01*
X925250Y615100D02*
X935550D01*
X925250Y609900D02*
X935550D01*
X925250D02*
Y615100D01*
X935550Y609900D02*
Y615100D01*
X234850Y983301D02*
X245150D01*
X234850Y988501D02*
X245150D01*
Y983301D02*
Y988501D01*
X234850Y983301D02*
Y988501D01*
X891250Y672750D02*
Y682250D01*
X873750Y672750D02*
Y682250D01*
Y672750D02*
X891250D01*
X873750Y682250D02*
X891250D01*
Y655250D02*
Y664750D01*
X873750Y655250D02*
Y664750D01*
Y655250D02*
X891250D01*
X873750Y664750D02*
X891250D01*
Y637750D02*
Y647250D01*
X873750Y637750D02*
Y647250D01*
Y637750D02*
X891250D01*
X873750Y647250D02*
X891250D01*
X943750Y672750D02*
Y682250D01*
X926250Y672750D02*
Y682250D01*
Y672750D02*
X943750D01*
X926250Y682250D02*
X943750D01*
Y655250D02*
Y664750D01*
X926250Y655250D02*
Y664750D01*
Y655250D02*
X943750D01*
X926250Y664750D02*
X943750D01*
Y637750D02*
Y647250D01*
X926250Y637750D02*
Y647250D01*
Y637750D02*
X943750D01*
X926250Y647250D02*
X943750D01*
X1418750Y80250D02*
Y89750D01*
X1401250Y80250D02*
Y89750D01*
X1418750D01*
X1401250Y80250D02*
X1418750D01*
X1368750D02*
Y89750D01*
X1351250Y80250D02*
Y89750D01*
X1368750D01*
X1351250Y80250D02*
X1368750D01*
X1468750D02*
Y89750D01*
X1451250Y80250D02*
Y89750D01*
X1468750D01*
X1451250Y80250D02*
X1468750D01*
X1756500Y472750D02*
Y482250D01*
X1739000Y472750D02*
Y482250D01*
X1756500D01*
X1739000Y472750D02*
X1756500D01*
X1739000Y450250D02*
X1756500D01*
X1739000Y459750D02*
X1756500D01*
X1739000Y450250D02*
Y459750D01*
X1756500Y450250D02*
Y459750D01*
X1711250Y592750D02*
Y602250D01*
X1728750Y592750D02*
Y602250D01*
X1711250D02*
X1728750D01*
X1711250Y592750D02*
X1728750D01*
X1711250Y610250D02*
Y619750D01*
X1728750Y610250D02*
Y619750D01*
X1711250D02*
X1728750D01*
X1711250Y610250D02*
X1728750D01*
X1673150Y589750D02*
Y620250D01*
X1690650Y589750D02*
Y620250D01*
X1673150D02*
X1690650D01*
X1673150Y589750D02*
X1690650D01*
X612750Y980250D02*
X622250D01*
X612750Y997750D02*
X622250D01*
X612750Y980250D02*
Y997750D01*
X622250Y980250D02*
Y997750D01*
X915000Y440000D02*
Y580000D01*
X1055000Y440000D02*
Y580000D01*
X915000D02*
X1055000D01*
X915000Y440000D02*
X1055000D01*
X1701500Y947750D02*
X1711000D01*
X1701500Y965250D02*
X1711000D01*
X1701500Y947750D02*
Y965250D01*
X1711000Y947750D02*
Y965250D01*
X1582250Y1032750D02*
Y1042250D01*
X1599750Y1032750D02*
Y1042250D01*
X1582250D02*
X1599750D01*
X1582250Y1032750D02*
X1599750D01*
X1585250Y959750D02*
X1594750D01*
X1585250Y942250D02*
X1594750D01*
Y959750D01*
X1585250Y942250D02*
Y959750D01*
X1352000Y1024600D02*
X1398000D01*
X1352000Y995400D02*
X1398000D01*
X1352000D02*
Y1024600D01*
X1398000Y995400D02*
Y1024600D01*
X1605250Y959750D02*
X1614750D01*
X1605250Y942250D02*
X1614750D01*
Y959750D01*
X1605250Y942250D02*
Y959750D01*
X1677750Y903250D02*
Y916750D01*
X1699750Y903250D02*
Y916750D01*
X1677750D02*
X1699750D01*
X1677750Y903250D02*
X1699750D01*
X1684300Y882750D02*
Y892250D01*
X1701800Y882750D02*
Y892250D01*
X1684300D02*
X1701800D01*
X1684300Y882750D02*
X1701800D01*
X1684300Y860250D02*
Y869750D01*
X1701800Y860250D02*
Y869750D01*
X1684300D02*
X1701800D01*
X1684300Y860250D02*
X1701800D01*
X1405250Y1113750D02*
X1414750D01*
X1405250Y1131250D02*
X1414750D01*
X1405250Y1113750D02*
Y1131250D01*
X1414750Y1113750D02*
Y1131250D01*
X1326250Y1085250D02*
Y1094750D01*
X1343750Y1085250D02*
Y1094750D01*
X1326250D02*
X1343750D01*
X1326250Y1085250D02*
X1343750D01*
X1691000Y1010250D02*
Y1019750D01*
X1708500Y1010250D02*
Y1019750D01*
X1691000D02*
X1708500D01*
X1691000Y1010250D02*
X1708500D01*
X1682200Y1047450D02*
X1691700D01*
X1682200Y1029950D02*
X1691700D01*
Y1047450D01*
X1682200Y1029950D02*
Y1047450D01*
X1708500Y992750D02*
Y1002250D01*
X1691000Y992750D02*
Y1002250D01*
Y992750D02*
X1708500D01*
X1691000Y1002250D02*
X1708500D01*
Y975250D02*
Y984750D01*
X1691000Y975250D02*
Y984750D01*
Y975250D02*
X1708500D01*
X1691000Y984750D02*
X1708500D01*
X1641000Y1080250D02*
Y1089750D01*
X1658500Y1080250D02*
Y1089750D01*
X1641000Y1080250D02*
X1658500D01*
X1641000Y1089750D02*
X1658500D01*
X1660250Y946250D02*
X1669750D01*
X1660250Y963750D02*
X1669750D01*
Y946250D02*
Y963750D01*
X1660250Y946250D02*
Y963750D01*
X1680250Y946250D02*
X1689750D01*
X1680250Y963750D02*
X1689750D01*
Y946250D02*
Y963750D01*
X1680250Y946250D02*
Y963750D01*
X312750Y980250D02*
Y989750D01*
X295250Y980250D02*
Y989750D01*
Y980250D02*
X312750D01*
X295250Y989750D02*
X312750D01*
X1721250Y212750D02*
Y222250D01*
X1703750Y212750D02*
Y222250D01*
Y212750D02*
X1721250D01*
X1703750Y222250D02*
X1721250D01*
Y397750D02*
Y407250D01*
X1703750Y397750D02*
Y407250D01*
Y397750D02*
X1721250D01*
X1703750Y407250D02*
X1721250D01*
X817500Y540000D02*
X842500D01*
X817500Y560000D02*
X842500D01*
Y540000D02*
Y560000D01*
X817500Y540000D02*
Y560000D01*
X852619Y523789D02*
X862119D01*
X852619Y541289D02*
X862119D01*
Y523789D02*
Y541289D01*
X852619Y523789D02*
Y541289D01*
X798052Y542142D02*
X807552D01*
X798052Y559642D02*
X807552D01*
X798052Y542142D02*
Y559642D01*
X807552Y542142D02*
Y559642D01*
X872119Y552000D02*
Y561500D01*
X854619Y552000D02*
Y561500D01*
Y552000D02*
X872119D01*
X854619Y561500D02*
X872119D01*
Y483277D02*
Y492777D01*
X854619Y483277D02*
Y492777D01*
Y483277D02*
X872119D01*
X854619Y492777D02*
X872119D01*
X817500Y471277D02*
X842500D01*
X817500Y491277D02*
X842500D01*
Y471277D02*
Y491277D01*
X817500Y471277D02*
Y491277D01*
X798052Y473577D02*
X807552D01*
X798052Y491077D02*
X807552D01*
X798052Y473577D02*
Y491077D01*
X807552Y473577D02*
Y491077D01*
X852750Y454750D02*
X862250D01*
X852750Y472250D02*
X862250D01*
Y454750D02*
Y472250D01*
X852750Y454750D02*
Y472250D01*
X676000Y1043000D02*
X704000D01*
X676000Y1057000D02*
X704000D01*
X676000Y1043000D02*
Y1057000D01*
X704000Y1043000D02*
Y1057000D01*
X647750Y1044750D02*
X665250D01*
X647750Y1035250D02*
X665250D01*
X647750D02*
Y1044750D01*
X665250Y1035250D02*
Y1044750D01*
X647750Y1055250D02*
X665250D01*
X647750Y1064750D02*
X665250D01*
Y1055250D02*
Y1064750D01*
X647750Y1055250D02*
Y1064750D01*
X735400Y1097000D02*
X764600D01*
X735400Y1143000D02*
X764600D01*
X735400Y1097000D02*
Y1143000D01*
X764600Y1097000D02*
Y1143000D01*
X98500Y452750D02*
X116000D01*
X98500Y462250D02*
X116000D01*
X98500Y452750D02*
Y462250D01*
X116000Y452750D02*
Y462250D01*
X98500Y487250D02*
X116000D01*
X98500Y477750D02*
X116000D01*
Y487250D01*
X98500Y477750D02*
Y487250D01*
Y512250D02*
X116000D01*
X98500Y502750D02*
X116000D01*
Y512250D01*
X98500Y502750D02*
Y512250D01*
X187750Y476750D02*
X205250D01*
X187750Y507250D02*
X205250D01*
Y476750D02*
Y507250D01*
X187750Y476750D02*
Y507250D01*
X169750Y481250D02*
Y498750D01*
X160250Y481250D02*
Y498750D01*
X169750D01*
X160250Y481250D02*
X169750D01*
X232250Y482250D02*
Y499750D01*
X222750Y482250D02*
Y499750D01*
X232250D01*
X222750Y482250D02*
X232250D01*
X547500Y957500D02*
Y1007500D01*
X587500Y957500D02*
Y1007500D01*
X547500D02*
X587500D01*
X547500Y957500D02*
X587500D01*
X657500Y967000D02*
X702500D01*
X657500Y998000D02*
X702500D01*
Y967000D02*
Y998000D01*
X657500Y967000D02*
Y998000D01*
X729750Y1002750D02*
X747250D01*
X729750Y1012250D02*
X747250D01*
Y1002750D02*
Y1012250D01*
X729750Y1002750D02*
Y1012250D01*
X502750Y973447D02*
X520250D01*
X502750Y963947D02*
X520250D01*
X502750D02*
Y973447D01*
X520250Y963947D02*
Y973447D01*
X502750Y1009750D02*
X520250D01*
X502750Y1000250D02*
X520250D01*
X502750D02*
Y1009750D01*
X520250Y1000250D02*
Y1009750D01*
X502750Y991639D02*
X520250D01*
X502750Y982139D02*
X520250D01*
X502750D02*
Y991639D01*
X520250Y982139D02*
Y991639D01*
X729750Y985250D02*
X747250D01*
X729750Y994750D02*
X747250D01*
Y985250D02*
Y994750D01*
X729750Y985250D02*
Y994750D01*
Y967750D02*
X747250D01*
X729750Y977250D02*
X747250D01*
Y967750D02*
Y977250D01*
X729750Y967750D02*
Y977250D01*
X444000Y1018250D02*
X466000D01*
X444000Y1031750D02*
X466000D01*
Y1018250D02*
Y1031750D01*
X444000Y1018250D02*
Y1031750D01*
X476500Y1068500D02*
Y1171500D01*
X373500Y1081000D02*
Y1159000D01*
X386000Y1171500D02*
X476500D01*
X386000Y1068500D02*
X476500D01*
X373500Y1159000D02*
X386000Y1171500D01*
X373500Y1081000D02*
X386000Y1068500D01*
X522462Y1113203D02*
Y1157203D01*
Y1113203D02*
X533462Y1102203D01*
X588462D01*
Y1168203D01*
X533462D02*
X588462D01*
X522462Y1157203D02*
X533462Y1168203D01*
X366500Y991500D02*
Y1058500D01*
X403500Y991500D02*
Y1058500D01*
X366500D02*
X403500D01*
X366500Y991500D02*
X403500D01*
X197800Y993363D02*
X215300D01*
X197800Y983863D02*
X215300D01*
X197800D02*
Y993363D01*
X215300Y983863D02*
Y993363D01*
X258256Y988651D02*
X275756D01*
X258256Y979151D02*
X275756D01*
X258256D02*
Y988651D01*
X275756Y979151D02*
Y988651D01*
X182500Y1001750D02*
Y1018250D01*
X215000Y1001750D02*
Y1018250D01*
X182500D02*
X215000D01*
X182500Y1001750D02*
X215000D01*
X209000Y906750D02*
X231000D01*
X209000Y893250D02*
X231000D01*
X209000D02*
Y906750D01*
X231000Y893250D02*
Y906750D01*
X209000Y918250D02*
X231000D01*
X209000Y931750D02*
X231000D01*
Y918250D02*
Y931750D01*
X209000Y918250D02*
Y931750D01*
X209000Y956750D02*
X231000D01*
X209000Y943250D02*
X231000D01*
X209000D02*
Y956750D01*
X231000Y943250D02*
Y956750D01*
X187000Y1075400D02*
Y1104600D01*
X233000Y1075400D02*
Y1104600D01*
X187000D02*
X233000D01*
X187000Y1075400D02*
X233000D01*
X267000D02*
Y1104600D01*
X313000Y1075400D02*
Y1104600D01*
X267000D02*
X313000D01*
X267000Y1075400D02*
X313000D01*
D18*
X1162000Y1095635D02*
Y1165635D01*
Y1095635D02*
X1228000D01*
Y1165635D01*
X1162000D02*
X1228000D01*
X184000Y137000D02*
Y163000D01*
X826000Y137000D02*
Y163000D01*
X184000D02*
X826000D01*
X184000Y137000D02*
X826000D01*
X184000Y747000D02*
Y773000D01*
X698000Y747000D02*
Y773000D01*
X184000D02*
X698000D01*
X184000Y747000D02*
X698000D01*
D123*
X445500Y1053770D02*
X447000Y1055270D01*
X465500Y1044230D02*
X464000Y1042730D01*
Y1055270D02*
X465500Y1053770D01*
X447000Y1042732D02*
X445500Y1044232D01*
X1026500Y620232D02*
X1025000Y621732D01*
X1043500Y632770D02*
X1045000Y631270D01*
Y621730D02*
X1043500Y620230D01*
X1025000Y631270D02*
X1026500Y632770D01*
Y643732D02*
X1025000Y645232D01*
X1043500Y656270D02*
X1045000Y654770D01*
Y645230D02*
X1043500Y643730D01*
X1025000Y654770D02*
X1026500Y656270D01*
X1724000Y903732D02*
X1722500Y905232D01*
X1741000Y916270D02*
X1742500Y914770D01*
Y905230D02*
X1741000Y903730D01*
X1722500Y914770D02*
X1724000Y916270D01*
Y881232D02*
X1722500Y882732D01*
X1741000Y893770D02*
X1742500Y892270D01*
Y882730D02*
X1741000Y881230D01*
X1722500Y892270D02*
X1724000Y893770D01*
Y858732D02*
X1722500Y860232D01*
X1741000Y871270D02*
X1742500Y869770D01*
Y860230D02*
X1741000Y858730D01*
X1722500Y869770D02*
X1724000Y871270D01*
X171000Y918732D02*
X169500Y920232D01*
X188000Y931270D02*
X189500Y929770D01*
Y920230D02*
X188000Y918730D01*
X169500Y929770D02*
X171000Y931270D01*
X171500Y943732D02*
X170000Y945232D01*
X188500Y956270D02*
X190000Y954770D01*
Y945230D02*
X188500Y943730D01*
X170000Y954770D02*
X171500Y956270D01*
X171000Y893732D02*
X169500Y895232D01*
X188000Y906270D02*
X189500Y904770D01*
Y895230D02*
X188000Y893730D01*
X169500Y904770D02*
X171000Y906270D01*
X448500Y1042750D02*
X462501D01*
X448500Y1055251D02*
X462501D01*
Y1042750D02*
Y1055251D01*
X448500Y1042750D02*
Y1055251D01*
X445500Y1044232D02*
Y1053770D01*
X447000Y1042732D02*
X464000D01*
X447000Y1055300D02*
X464000D01*
X465500Y1044230D02*
Y1053770D01*
X1045000Y621730D02*
Y631270D01*
X1026500Y632800D02*
X1043500D01*
X1026500Y620232D02*
X1043500D01*
X1025000Y621732D02*
Y631270D01*
X1028000Y620250D02*
Y632751D01*
X1042001Y620250D02*
Y632751D01*
X1028000D02*
X1042001D01*
X1028000Y620250D02*
X1042001D01*
X1045000Y645230D02*
Y654770D01*
X1026500Y656300D02*
X1043500D01*
X1026500Y643732D02*
X1043500D01*
X1025000Y645232D02*
Y654770D01*
X1028000Y643750D02*
Y656251D01*
X1042001Y643750D02*
Y656251D01*
X1028000D02*
X1042001D01*
X1028000Y643750D02*
X1042001D01*
X1742500Y905230D02*
Y914770D01*
X1724000Y916300D02*
X1741000D01*
X1724000Y903732D02*
X1741000D01*
X1722500Y905232D02*
Y914770D01*
X1725500Y903750D02*
Y916251D01*
X1739501Y903750D02*
Y916251D01*
X1725500D02*
X1739501D01*
X1725500Y903750D02*
X1739501D01*
X1742500Y882730D02*
Y892270D01*
X1724000Y893800D02*
X1741000D01*
X1724000Y881232D02*
X1741000D01*
X1722500Y882732D02*
Y892270D01*
X1725500Y881250D02*
Y893751D01*
X1739501Y881250D02*
Y893751D01*
X1725500D02*
X1739501D01*
X1725500Y881250D02*
X1739501D01*
X1742500Y860230D02*
Y869770D01*
X1724000Y871300D02*
X1741000D01*
X1724000Y858732D02*
X1741000D01*
X1722500Y860232D02*
Y869770D01*
X1725500Y858750D02*
Y871251D01*
X1739501Y858750D02*
Y871251D01*
X1725500D02*
X1739501D01*
X1725500Y858750D02*
X1739501D01*
X189500Y920230D02*
Y929770D01*
X171000Y931300D02*
X188000D01*
X171000Y918732D02*
X188000D01*
X169500Y920232D02*
Y929770D01*
X172500Y918750D02*
Y931251D01*
X186501Y918750D02*
Y931251D01*
X172500D02*
X186501D01*
X172500Y918750D02*
X186501D01*
X190000Y945230D02*
Y954770D01*
X171500Y956300D02*
X188500D01*
X171500Y943732D02*
X188500D01*
X170000Y945232D02*
Y954770D01*
X173000Y943750D02*
Y956251D01*
X187001Y943750D02*
Y956251D01*
X173000D02*
X187001D01*
X173000Y943750D02*
X187001D01*
X189500Y895230D02*
Y904770D01*
X171000Y906300D02*
X188000D01*
X171000Y893732D02*
X188000D01*
X169500Y895232D02*
Y904770D01*
X172500Y893750D02*
Y906251D01*
X186501Y893750D02*
Y906251D01*
X172500D02*
X186501D01*
X172500Y893750D02*
X186501D01*
D124*
X1355094Y1010000D02*
D03*
X229906Y1090000D02*
D03*
X309907D02*
D03*
D125*
X749999Y1139906D02*
D03*
M02*
