G04*
G04 #@! TF.GenerationSoftware,Altium Limited,Altium Designer,21.4.1 (30)*
G04*
G04 Layer_Physical_Order=4*
G04 Layer_Color=16711680*
%FSLAX44Y44*%
%MOMM*%
G71*
G04*
G04 #@! TF.SameCoordinates,A141D3DD-4A5E-4641-B441-74F08AAE2887*
G04*
G04*
G04 #@! TF.FilePolarity,Positive*
G04*
G01*
G75*
%ADD10C,0.2000*%
%ADD31R,1.0000X0.9000*%
%ADD36R,0.8500X0.9500*%
%ADD69C,0.4500*%
%ADD106C,0.5000*%
%ADD107C,1.0000*%
%ADD109C,1.0000*%
%ADD110P,2.3369X8X112.5*%
%ADD111C,1.8000*%
%ADD112R,1.8000X1.8000*%
%ADD113R,1.2220X1.2220*%
%ADD114C,1.2220*%
%ADD115R,1.5240X1.5240*%
%ADD116C,1.5240*%
%ADD117C,3.0000*%
%ADD118C,2.0000*%
%ADD119R,1.5240X1.5240*%
G04:AMPARAMS|DCode=120|XSize=5mm|YSize=3.5mm|CornerRadius=0mm|HoleSize=0mm|Usage=FLASHONLY|Rotation=0.000|XOffset=0mm|YOffset=0mm|HoleType=Round|Shape=Octagon|*
%AMOCTAGOND120*
4,1,8,2.5000,-0.8750,2.5000,0.8750,1.6250,1.7500,-1.6250,1.7500,-2.5000,0.8750,-2.5000,-0.8750,-1.6250,-1.7500,1.6250,-1.7500,2.5000,-0.8750,0.0*
%
%ADD120OCTAGOND120*%

G04:AMPARAMS|DCode=121|XSize=5mm|YSize=3.5mm|CornerRadius=0mm|HoleSize=0mm|Usage=FLASHONLY|Rotation=270.000|XOffset=0mm|YOffset=0mm|HoleType=Round|Shape=Octagon|*
%AMOCTAGOND121*
4,1,8,-0.8750,-2.5000,0.8750,-2.5000,1.7500,-1.6250,1.7500,1.6250,0.8750,2.5000,-0.8750,2.5000,-1.7500,1.6250,-1.7500,-1.6250,-0.8750,-2.5000,0.0*
%
%ADD121OCTAGOND121*%

%ADD122C,0.5000*%
G36*
X505000Y1185000D02*
Y1110000D01*
X500000Y1105000D01*
X418059D01*
Y1172048D01*
X418603Y1172593D01*
X419250Y1174155D01*
Y1175845D01*
X418603Y1177407D01*
X417407Y1178603D01*
X415845Y1179250D01*
X414155D01*
X412593Y1178603D01*
X411397Y1177407D01*
X410750Y1175845D01*
Y1174155D01*
X411397Y1172593D01*
X411941Y1172048D01*
Y1105000D01*
X358510D01*
X357407Y1106103D01*
X355845Y1106750D01*
X354155D01*
X352593Y1106103D01*
X352048Y1105559D01*
X332952D01*
X332407Y1106103D01*
X330845Y1106750D01*
X329155D01*
X327593Y1106103D01*
X326490Y1105000D01*
X190000D01*
X185000Y1100000D01*
Y980000D01*
X185000D01*
X180000Y975000D01*
X15000D01*
X10000Y980000D01*
Y1185000D01*
X15000Y1190000D01*
Y1190000D01*
X500000D01*
X505000Y1185000D01*
D02*
G37*
G36*
X1790000Y1185000D02*
Y969853D01*
X1788730Y969601D01*
X1788603Y969907D01*
X1787407Y971103D01*
X1785845Y971750D01*
X1784155D01*
X1782593Y971103D01*
X1782048Y970559D01*
X1745452D01*
X1744907Y971103D01*
X1743345Y971750D01*
X1741655D01*
X1740093Y971103D01*
X1738897Y969907D01*
X1738250Y968345D01*
Y967018D01*
X1737462Y966291D01*
X1737096Y966121D01*
X1736544Y966350D01*
X1734456D01*
X1732526Y965551D01*
X1731049Y964074D01*
X1730250Y962144D01*
Y960056D01*
X1731049Y958126D01*
X1732526Y956649D01*
X1734456Y955850D01*
X1736544D01*
X1738474Y956649D01*
X1739951Y958126D01*
X1740750Y960056D01*
Y962144D01*
X1740697Y962272D01*
X1741655Y963250D01*
X1743345D01*
X1744907Y963897D01*
X1745452Y964441D01*
X1782048D01*
X1782593Y963897D01*
X1784155Y963250D01*
X1785845D01*
X1787407Y963897D01*
X1788603Y965093D01*
X1788730Y965399D01*
X1790000Y965147D01*
Y924853D01*
X1788730Y924601D01*
X1788603Y924907D01*
X1787407Y926103D01*
X1785845Y926750D01*
X1784155D01*
X1782593Y926103D01*
X1782048Y925559D01*
X1712952D01*
X1712407Y926103D01*
X1710845Y926750D01*
X1709155D01*
X1707593Y926103D01*
X1706397Y924907D01*
X1705750Y923345D01*
Y921655D01*
X1706397Y920093D01*
X1707593Y918897D01*
X1709155Y918250D01*
X1710845D01*
X1712407Y918897D01*
X1712952Y919441D01*
X1782048D01*
X1782593Y918897D01*
X1784155Y918250D01*
X1785845D01*
X1787407Y918897D01*
X1788603Y920093D01*
X1788730Y920399D01*
X1790000Y920147D01*
Y15000D01*
X1785000Y10000D01*
X15000D01*
X10000Y15000D01*
Y960000D01*
X15000Y965000D01*
X185000D01*
X195000Y975000D01*
Y995000D01*
X200000Y1000000D01*
Y1020000D01*
X195000Y1025000D01*
X195000Y1070000D01*
X200000Y1075000D01*
X355000Y1075000D01*
X360000Y1080000D01*
Y1090000D01*
X365000Y1095000D01*
X410750D01*
Y1094155D01*
X411397Y1092593D01*
X412593Y1091397D01*
X414155Y1090750D01*
X415845D01*
X417407Y1091397D01*
X418603Y1092593D01*
X419250Y1094155D01*
Y1095000D01*
X505000D01*
X515000Y1105000D01*
Y1185000D01*
X520000Y1190000D01*
X1785000D01*
X1790000Y1185000D01*
D02*
G37*
%LPC*%
G36*
X131338Y1160160D02*
X131270D01*
Y1151270D01*
X140160D01*
Y1151338D01*
X139468Y1153922D01*
X138130Y1156238D01*
X136238Y1158130D01*
X133922Y1159468D01*
X131338Y1160160D01*
D02*
G37*
G36*
X128730D02*
X128662D01*
X126078Y1159468D01*
X123762Y1158130D01*
X121870Y1156238D01*
X120532Y1153922D01*
X119840Y1151338D01*
Y1151270D01*
X128730D01*
Y1160160D01*
D02*
G37*
G36*
X164620Y1159620D02*
X145380D01*
Y1140380D01*
X164620D01*
Y1159620D01*
D02*
G37*
G36*
X140160Y1148730D02*
X131270D01*
Y1139840D01*
X131338D01*
X133922Y1140532D01*
X136238Y1141870D01*
X138130Y1143762D01*
X139468Y1146078D01*
X140160Y1148662D01*
Y1148730D01*
D02*
G37*
G36*
X128730D02*
X119840D01*
Y1148662D01*
X120532Y1146078D01*
X121870Y1143762D01*
X123762Y1141870D01*
X126078Y1140532D01*
X128662Y1139840D01*
X128730D01*
Y1148730D01*
D02*
G37*
G36*
X51674Y1167000D02*
X48326D01*
X45041Y1166347D01*
X41947Y1165065D01*
X39163Y1163205D01*
X36795Y1160837D01*
X34935Y1158053D01*
X33653Y1154959D01*
X33000Y1151674D01*
Y1148326D01*
X33653Y1145041D01*
X34935Y1141947D01*
X36795Y1139163D01*
X39163Y1136795D01*
X41947Y1134935D01*
X45041Y1133653D01*
X48326Y1133000D01*
X51674D01*
X54959Y1133653D01*
X58053Y1134935D01*
X60837Y1136795D01*
X63205Y1139163D01*
X65065Y1141947D01*
X66347Y1145041D01*
X67000Y1148326D01*
Y1151674D01*
X66347Y1154959D01*
X65065Y1158053D01*
X63205Y1160837D01*
X60837Y1163205D01*
X58053Y1165065D01*
X54959Y1166347D01*
X51674Y1167000D01*
D02*
G37*
G36*
X100020Y1077540D02*
X91270D01*
Y1051270D01*
X110040D01*
Y1067520D01*
X100020Y1077540D01*
D02*
G37*
G36*
X88730D02*
X79980D01*
X69960Y1067520D01*
Y1051270D01*
X88730D01*
Y1077540D01*
D02*
G37*
G36*
X47986Y1067000D02*
X44638D01*
X41353Y1066347D01*
X38259Y1065065D01*
X35475Y1063205D01*
X33107Y1060837D01*
X31247Y1058053D01*
X29965Y1054959D01*
X29312Y1051674D01*
Y1048326D01*
X29965Y1045041D01*
X31247Y1041947D01*
X33107Y1039163D01*
X35475Y1036795D01*
X38259Y1034935D01*
X41353Y1033653D01*
X44638Y1033000D01*
X47986D01*
X51271Y1033653D01*
X54365Y1034935D01*
X57149Y1036795D01*
X59517Y1039163D01*
X61377Y1041947D01*
X62659Y1045041D01*
X63312Y1048326D01*
Y1051674D01*
X62659Y1054959D01*
X61377Y1058053D01*
X59517Y1060837D01*
X57149Y1063205D01*
X54365Y1065065D01*
X51271Y1066347D01*
X47986Y1067000D01*
D02*
G37*
G36*
X160964Y1077000D02*
X141464D01*
X131714Y1067250D01*
Y1032750D01*
X141464Y1023000D01*
X160964D01*
X170714Y1032750D01*
Y1067250D01*
X160964Y1077000D01*
D02*
G37*
G36*
X110040Y1048730D02*
X91270D01*
Y1022460D01*
X100020D01*
X110040Y1032480D01*
Y1048730D01*
D02*
G37*
G36*
X88730D02*
X69960D01*
Y1032480D01*
X79980Y1022460D01*
X88730D01*
Y1048730D01*
D02*
G37*
G36*
X137492Y1020002D02*
X121242D01*
Y1001232D01*
X147512D01*
Y1009982D01*
X137492Y1020002D01*
D02*
G37*
G36*
X118702D02*
X102452D01*
X92432Y1009982D01*
Y1001232D01*
X118702D01*
Y1020002D01*
D02*
G37*
G36*
X147512Y998692D02*
X121242D01*
Y979922D01*
X137492D01*
X147512Y989942D01*
Y998692D01*
D02*
G37*
G36*
X118702D02*
X92432D01*
Y989942D01*
X102452Y979922D01*
X118702D01*
Y998692D01*
D02*
G37*
G36*
X1588345Y1166750D02*
X1586655D01*
X1585093Y1166103D01*
X1583897Y1164907D01*
X1583250Y1163345D01*
Y1161655D01*
X1583267Y1161615D01*
X1582561Y1160559D01*
X1537952D01*
X1537407Y1161103D01*
X1535845Y1161750D01*
X1534155D01*
X1532593Y1161103D01*
X1531397Y1159907D01*
X1530750Y1158345D01*
Y1156655D01*
X1531397Y1155093D01*
X1532593Y1153897D01*
X1534155Y1153250D01*
X1535845D01*
X1537407Y1153897D01*
X1537952Y1154441D01*
X1600591D01*
X1600905Y1153850D01*
X1600976Y1153171D01*
X1600861Y1153095D01*
X1600859Y1153091D01*
X1600855Y1153089D01*
X1600636Y1152760D01*
X1600418Y1152434D01*
X1597263Y1144862D01*
X1596699Y1144298D01*
X1595777Y1142702D01*
X1595300Y1140922D01*
Y1139849D01*
X1595261Y1139654D01*
X1595261Y1139652D01*
X1595261Y1139650D01*
X1595300Y1139453D01*
Y1139078D01*
X1595777Y1137298D01*
X1596699Y1135702D01*
X1598002Y1134399D01*
X1598199Y1134285D01*
Y1133015D01*
X1598002Y1132901D01*
X1596699Y1131598D01*
X1595777Y1130002D01*
X1595383Y1128530D01*
X1595316Y1128430D01*
X1595316Y1128428D01*
X1595314Y1128426D01*
X1595238Y1128037D01*
X1595161Y1127650D01*
X1595161Y1127648D01*
X1595161Y1127646D01*
X1595238Y1127260D01*
X1595300Y1126950D01*
Y1126378D01*
X1595777Y1124598D01*
X1596699Y1123002D01*
X1597091Y1122609D01*
X1600318Y1114866D01*
X1600538Y1114537D01*
X1600677Y1114329D01*
X1600536Y1113752D01*
X1600191Y1113059D01*
X1527952D01*
X1527407Y1113603D01*
X1525845Y1114250D01*
X1524155D01*
X1522593Y1113603D01*
X1521397Y1112407D01*
X1520750Y1110845D01*
Y1109155D01*
X1521397Y1107593D01*
X1522593Y1106397D01*
X1524155Y1105750D01*
X1525750D01*
Y1104155D01*
X1526397Y1102593D01*
X1527593Y1101397D01*
X1529155Y1100750D01*
X1530845D01*
X1532407Y1101397D01*
X1532952Y1101941D01*
X1624548D01*
X1625093Y1101397D01*
X1626655Y1100750D01*
X1628345D01*
X1629907Y1101397D01*
X1630452Y1101941D01*
X1641233D01*
X1641441Y1101733D01*
Y1091750D01*
X1638250D01*
Y1078250D01*
X1661250D01*
Y1091750D01*
X1647559D01*
Y1103000D01*
X1647326Y1104171D01*
X1646663Y1105163D01*
X1644663Y1107163D01*
X1643671Y1107826D01*
X1642500Y1108059D01*
X1642500Y1108059D01*
X1630452D01*
X1629907Y1108603D01*
X1628345Y1109250D01*
X1626655D01*
X1625093Y1108603D01*
X1624548Y1108059D01*
X1619939D01*
X1619234Y1109115D01*
X1619250Y1109155D01*
Y1110845D01*
X1618603Y1112407D01*
X1617407Y1113603D01*
X1617372Y1113647D01*
X1617113Y1114292D01*
X1616999Y1115147D01*
X1620037Y1122438D01*
X1620601Y1123002D01*
X1620715Y1123199D01*
X1621985D01*
X1622099Y1123002D01*
X1622663Y1122438D01*
X1625818Y1114866D01*
X1626038Y1114537D01*
X1626255Y1114211D01*
X1626259Y1114209D01*
X1626261Y1114205D01*
X1626592Y1113985D01*
X1626916Y1113768D01*
X1626920Y1113767D01*
X1626924Y1113764D01*
X1627311Y1113688D01*
X1627696Y1113611D01*
X1627700Y1113612D01*
X1627704Y1113611D01*
X1628089Y1113688D01*
X1628476Y1113764D01*
X1628480Y1113767D01*
X1628484Y1113768D01*
X1628810Y1113986D01*
X1629139Y1114205D01*
X1629141Y1114209D01*
X1629145Y1114211D01*
X1629364Y1114540D01*
X1629582Y1114866D01*
X1632737Y1122438D01*
X1632926Y1122626D01*
X1634172Y1122664D01*
X1634500Y1122537D01*
X1635770Y1121266D01*
X1637490Y1120274D01*
X1638597Y1119977D01*
X1635400Y1127650D01*
X1645400D01*
X1642203Y1119977D01*
X1643310Y1120274D01*
X1645030Y1121266D01*
X1645905Y1122142D01*
X1646750Y1122526D01*
X1647595Y1122142D01*
X1648470Y1121266D01*
X1650190Y1120274D01*
X1651297Y1119977D01*
X1648100Y1127650D01*
X1653100D01*
Y1128570D01*
X1660566D01*
X1660126Y1130210D01*
X1659133Y1131930D01*
X1658258Y1132805D01*
X1657874Y1133650D01*
X1658258Y1134495D01*
X1659133Y1135370D01*
X1660126Y1137090D01*
X1660566Y1138730D01*
X1653100D01*
Y1139650D01*
X1648100D01*
X1651297Y1147323D01*
X1650190Y1147026D01*
X1648470Y1146033D01*
X1647595Y1145158D01*
X1646750Y1144774D01*
X1645905Y1145158D01*
X1645030Y1146033D01*
X1643310Y1147026D01*
X1642203Y1147323D01*
X1645400Y1139650D01*
X1635400D01*
X1638597Y1147323D01*
X1637490Y1147026D01*
X1635770Y1146033D01*
X1634500Y1144763D01*
X1634172Y1144636D01*
X1632926Y1144674D01*
X1632737Y1144862D01*
X1630759Y1149611D01*
Y1161328D01*
X1630759Y1161328D01*
X1630526Y1162499D01*
X1629863Y1163491D01*
X1629863Y1163491D01*
X1628691Y1164663D01*
X1627699Y1165326D01*
X1626528Y1165559D01*
X1626528Y1165559D01*
X1590452D01*
X1589907Y1166103D01*
X1588345Y1166750D01*
D02*
G37*
G36*
X1196068Y1164445D02*
X1193932D01*
X1191870Y1163892D01*
X1190020Y1162825D01*
X1188510Y1161315D01*
X1187443Y1159465D01*
X1187423Y1159394D01*
X1042012D01*
X1042011Y1159394D01*
X1040989Y1159190D01*
X1040845Y1159250D01*
X1039155D01*
X1037593Y1158603D01*
X1036397Y1157407D01*
X1035750Y1155845D01*
Y1154155D01*
X1036397Y1152593D01*
X1037593Y1151397D01*
X1039155Y1150750D01*
X1040845D01*
X1042407Y1151397D01*
X1043603Y1152593D01*
X1043886Y1153276D01*
X1187423D01*
X1187443Y1153205D01*
X1188510Y1151355D01*
X1190020Y1149845D01*
X1191870Y1148778D01*
X1193932Y1148225D01*
X1196068D01*
X1198130Y1148778D01*
X1199980Y1149845D01*
X1201490Y1151355D01*
X1202557Y1153205D01*
X1203110Y1155267D01*
Y1157403D01*
X1202557Y1159465D01*
X1201490Y1161315D01*
X1199980Y1162825D01*
X1198130Y1163892D01*
X1196068Y1164445D01*
D02*
G37*
G36*
X1654903Y1147323D02*
X1657425Y1141270D01*
X1660566D01*
X1660126Y1142910D01*
X1659133Y1144630D01*
X1657730Y1146033D01*
X1656010Y1147026D01*
X1654903Y1147323D01*
D02*
G37*
G36*
X676397Y1162795D02*
X663603D01*
X657205Y1156397D01*
Y1143603D01*
X663603Y1137205D01*
X676397D01*
X682795Y1143603D01*
Y1156397D01*
X676397Y1162795D01*
D02*
G37*
G36*
X1751674Y1167000D02*
X1748326D01*
X1745041Y1166347D01*
X1741947Y1165065D01*
X1739163Y1163205D01*
X1736795Y1160837D01*
X1734935Y1158053D01*
X1733653Y1154959D01*
X1733000Y1151674D01*
Y1148326D01*
X1733653Y1145041D01*
X1734935Y1141947D01*
X1736795Y1139163D01*
X1739163Y1136795D01*
X1741947Y1134935D01*
X1745041Y1133653D01*
X1748326Y1133000D01*
X1751674D01*
X1754959Y1133653D01*
X1758053Y1134935D01*
X1760837Y1136795D01*
X1763205Y1139163D01*
X1765065Y1141947D01*
X1766347Y1145041D01*
X1767000Y1148326D01*
Y1151674D01*
X1766347Y1154959D01*
X1765065Y1158053D01*
X1763205Y1160837D01*
X1760837Y1163205D01*
X1758053Y1165065D01*
X1754959Y1166347D01*
X1751674Y1167000D01*
D02*
G37*
G36*
X1178250Y1139585D02*
X1170870D01*
Y1132205D01*
X1178250D01*
Y1139585D01*
D02*
G37*
G36*
X1168330D02*
X1160950D01*
Y1132205D01*
X1168330D01*
Y1139585D01*
D02*
G37*
G36*
X1400845Y1134250D02*
X1399155D01*
X1397593Y1133603D01*
X1396397Y1132407D01*
X1395750Y1130845D01*
Y1129155D01*
X1396397Y1127593D01*
X1397593Y1126397D01*
X1399155Y1125750D01*
X1400845D01*
X1402407Y1126397D01*
X1403603Y1127593D01*
X1404250Y1129155D01*
Y1130845D01*
X1403603Y1132407D01*
X1402407Y1133603D01*
X1400845Y1134250D01*
D02*
G37*
G36*
X1221468Y1139045D02*
X1219332D01*
X1217270Y1138492D01*
X1215420Y1137425D01*
X1213910Y1135915D01*
X1212843Y1134065D01*
X1212290Y1132003D01*
Y1129867D01*
X1212843Y1127805D01*
X1213910Y1125955D01*
X1215420Y1124445D01*
X1217270Y1123378D01*
X1219332Y1122825D01*
X1221468D01*
X1223530Y1123378D01*
X1225380Y1124445D01*
X1226890Y1125955D01*
X1227957Y1127805D01*
X1228510Y1129867D01*
Y1132003D01*
X1227957Y1134065D01*
X1226890Y1135915D01*
X1225380Y1137425D01*
X1223530Y1138492D01*
X1221468Y1139045D01*
D02*
G37*
G36*
X1178250Y1129665D02*
X1170870D01*
Y1122285D01*
X1178250D01*
Y1129665D01*
D02*
G37*
G36*
X1168330D02*
X1160950D01*
Y1122285D01*
X1168330D01*
Y1129665D01*
D02*
G37*
G36*
X1660566Y1126030D02*
X1657425D01*
X1654903Y1119977D01*
X1656010Y1120274D01*
X1657730Y1121266D01*
X1659133Y1122670D01*
X1660126Y1124390D01*
X1660566Y1126030D01*
D02*
G37*
G36*
X676397Y1112795D02*
X663603D01*
X657205Y1106397D01*
Y1093603D01*
X663603Y1087205D01*
X676397D01*
X682795Y1093603D01*
Y1106397D01*
X676397Y1112795D01*
D02*
G37*
G36*
X1350845Y1094250D02*
X1349155D01*
X1347593Y1093603D01*
X1346397Y1092407D01*
X1345750Y1090845D01*
Y1089155D01*
X1346397Y1087593D01*
X1347593Y1086397D01*
X1349155Y1085750D01*
X1350845D01*
X1352407Y1086397D01*
X1353603Y1087593D01*
X1354250Y1089155D01*
Y1090845D01*
X1353603Y1092407D01*
X1352407Y1093603D01*
X1350845Y1094250D01*
D02*
G37*
G36*
X1588345Y1079250D02*
X1586655D01*
X1585093Y1078603D01*
X1584548Y1078059D01*
X1322952D01*
X1322407Y1078603D01*
X1320845Y1079250D01*
X1319155D01*
X1317593Y1078603D01*
X1317048Y1078059D01*
X1277952D01*
X1277407Y1078603D01*
X1275845Y1079250D01*
X1274155D01*
X1272593Y1078603D01*
X1272048Y1078059D01*
X770452D01*
X769907Y1078603D01*
X768345Y1079250D01*
X766655D01*
X765093Y1078603D01*
X763897Y1077407D01*
X763250Y1075845D01*
Y1074155D01*
X763897Y1072593D01*
X765093Y1071397D01*
X766655Y1070750D01*
X768345D01*
X769907Y1071397D01*
X770452Y1071941D01*
X1272048D01*
X1272593Y1071397D01*
X1273894Y1070858D01*
X1273641Y1069588D01*
X1222500D01*
X1220744Y1069239D01*
X1219256Y1068244D01*
X1218261Y1066756D01*
X1217912Y1065000D01*
X1218261Y1063244D01*
X1219256Y1061756D01*
X1220744Y1060761D01*
X1222500Y1060412D01*
X1517500D01*
X1519256Y1060761D01*
X1520744Y1061756D01*
X1521739Y1063244D01*
X1522088Y1065000D01*
X1521739Y1066756D01*
X1520744Y1068244D01*
X1519256Y1069239D01*
X1517500Y1069588D01*
X1321359D01*
X1321106Y1070858D01*
X1322407Y1071397D01*
X1322952Y1071941D01*
X1584548D01*
X1585093Y1071397D01*
X1586655Y1070750D01*
X1588345D01*
X1589907Y1071397D01*
X1591103Y1072593D01*
X1591750Y1074155D01*
Y1075845D01*
X1591103Y1077407D01*
X1589907Y1078603D01*
X1588345Y1079250D01*
D02*
G37*
G36*
X618345D02*
X616655D01*
X615093Y1078603D01*
X613897Y1077407D01*
X613250Y1075845D01*
Y1074155D01*
X613897Y1072593D01*
X615093Y1071397D01*
X616655Y1070750D01*
X618345D01*
X619907Y1071397D01*
X621103Y1072593D01*
X621750Y1074155D01*
Y1075845D01*
X621103Y1077407D01*
X619907Y1078603D01*
X618345Y1079250D01*
D02*
G37*
G36*
X578345D02*
X576655D01*
X575093Y1078603D01*
X573897Y1077407D01*
X573250Y1075845D01*
Y1074155D01*
X573897Y1072593D01*
X575093Y1071397D01*
X576655Y1070750D01*
X578345D01*
X579907Y1071397D01*
X581103Y1072593D01*
X581750Y1074155D01*
Y1075845D01*
X581103Y1077407D01*
X579907Y1078603D01*
X578345Y1079250D01*
D02*
G37*
G36*
X283345Y1066750D02*
X281655D01*
X280093Y1066103D01*
X279580Y1065590D01*
X278750Y1065010D01*
X277920Y1065590D01*
X277407Y1066103D01*
X275845Y1066750D01*
X274155D01*
X272593Y1066103D01*
X271397Y1064907D01*
X270750Y1063345D01*
Y1061655D01*
X271397Y1060093D01*
X271910Y1059580D01*
X272490Y1058750D01*
X271910Y1057920D01*
X271397Y1057407D01*
X270750Y1055845D01*
Y1054155D01*
X271397Y1052593D01*
X272593Y1051397D01*
X274155Y1050750D01*
X275845D01*
X277407Y1051397D01*
X277920Y1051910D01*
X278750Y1052490D01*
X279580Y1051910D01*
X280093Y1051397D01*
X281655Y1050750D01*
X283345D01*
X284907Y1051397D01*
X286103Y1052593D01*
X286750Y1054155D01*
Y1055845D01*
X286103Y1057407D01*
X285590Y1057920D01*
X285010Y1058750D01*
X285590Y1059580D01*
X286103Y1060093D01*
X286750Y1061655D01*
Y1063345D01*
X286103Y1064907D01*
X284907Y1066103D01*
X283345Y1066750D01*
D02*
G37*
G36*
X335845Y1064250D02*
X334155D01*
X332593Y1063603D01*
X332080Y1063090D01*
X331250Y1062510D01*
X330420Y1063090D01*
X329907Y1063603D01*
X328345Y1064250D01*
X326655D01*
X325093Y1063603D01*
X323897Y1062407D01*
X323250Y1060845D01*
Y1059155D01*
X323897Y1057593D01*
X324410Y1057080D01*
X324990Y1056250D01*
X324410Y1055420D01*
X323897Y1054907D01*
X323250Y1053345D01*
Y1051655D01*
X323897Y1050093D01*
X325093Y1048897D01*
X326655Y1048250D01*
X328345D01*
X329907Y1048897D01*
X330420Y1049410D01*
X331250Y1049990D01*
X332080Y1049410D01*
X332593Y1048897D01*
X334155Y1048250D01*
X335845D01*
X337407Y1048897D01*
X338603Y1050093D01*
X339250Y1051655D01*
Y1053345D01*
X338603Y1054907D01*
X338090Y1055420D01*
X337510Y1056250D01*
X338090Y1057080D01*
X338603Y1057593D01*
X339250Y1059155D01*
Y1060845D01*
X338603Y1062407D01*
X337407Y1063603D01*
X335845Y1064250D01*
D02*
G37*
G36*
X397551Y1051898D02*
X395861D01*
X394299Y1051251D01*
X393786Y1050738D01*
X392956Y1050158D01*
X392126Y1050738D01*
X391614Y1051251D01*
X390051Y1051898D01*
X388361D01*
X386799Y1051251D01*
X385603Y1050055D01*
X384956Y1048493D01*
Y1046802D01*
X385603Y1045240D01*
X386799Y1044045D01*
X388361Y1043398D01*
X390051D01*
X391614Y1044045D01*
X392126Y1044558D01*
X392956Y1045137D01*
X393786Y1044558D01*
X394299Y1044045D01*
X395861Y1043398D01*
X397551D01*
X399114Y1044045D01*
X400063Y1044994D01*
X401021Y1045065D01*
X401557Y1044933D01*
X402593Y1043897D01*
X404155Y1043250D01*
X405845D01*
X407407Y1043897D01*
X407920Y1044410D01*
X408750Y1044990D01*
X409580Y1044410D01*
X410093Y1043897D01*
X411655Y1043250D01*
X413345D01*
X414907Y1043897D01*
X416103Y1045093D01*
X416750Y1046655D01*
Y1048345D01*
X416103Y1049907D01*
X414907Y1051103D01*
X413345Y1051750D01*
X411655D01*
X410093Y1051103D01*
X409580Y1050590D01*
X408750Y1050010D01*
X407920Y1050590D01*
X407407Y1051103D01*
X405845Y1051750D01*
X404155D01*
X402593Y1051103D01*
X401643Y1050153D01*
X400685Y1050083D01*
X400150Y1050214D01*
X399114Y1051251D01*
X397551Y1051898D01*
D02*
G37*
G36*
X1372319Y1056540D02*
X1372070D01*
Y1046270D01*
X1382340D01*
Y1046519D01*
X1381553Y1049454D01*
X1380034Y1052086D01*
X1377886Y1054234D01*
X1375254Y1055753D01*
X1372319Y1056540D01*
D02*
G37*
G36*
X1369530D02*
X1369281D01*
X1366346Y1055753D01*
X1363714Y1054234D01*
X1361566Y1052086D01*
X1360047Y1049454D01*
X1359260Y1046519D01*
Y1046270D01*
X1369530D01*
Y1056540D01*
D02*
G37*
G36*
X1001340D02*
X991070D01*
Y1046270D01*
X1001340D01*
Y1056540D01*
D02*
G37*
G36*
X988530D02*
X978260D01*
Y1046270D01*
X988530D01*
Y1056540D01*
D02*
G37*
G36*
X1346848Y1056000D02*
X1343952D01*
X1341154Y1055250D01*
X1338646Y1053802D01*
X1336598Y1051754D01*
X1335150Y1049246D01*
X1334400Y1046448D01*
Y1043552D01*
X1335150Y1040754D01*
X1336598Y1038246D01*
X1338646Y1036198D01*
X1341154Y1034750D01*
X1343952Y1034000D01*
X1346848D01*
X1349646Y1034750D01*
X1352154Y1036198D01*
X1354202Y1038246D01*
X1355650Y1040754D01*
X1356400Y1043552D01*
Y1046448D01*
X1355650Y1049246D01*
X1354202Y1051754D01*
X1352154Y1053802D01*
X1349646Y1055250D01*
X1346848Y1056000D01*
D02*
G37*
G36*
X1321448D02*
X1318552D01*
X1315754Y1055250D01*
X1313246Y1053802D01*
X1311198Y1051754D01*
X1309750Y1049246D01*
X1309000Y1046448D01*
Y1043552D01*
X1309750Y1040754D01*
X1311198Y1038246D01*
X1313246Y1036198D01*
X1315754Y1034750D01*
X1318552Y1034000D01*
X1321448D01*
X1324246Y1034750D01*
X1326754Y1036198D01*
X1328802Y1038246D01*
X1330250Y1040754D01*
X1331000Y1043552D01*
Y1046448D01*
X1330250Y1049246D01*
X1328802Y1051754D01*
X1326754Y1053802D01*
X1324246Y1055250D01*
X1321448Y1056000D01*
D02*
G37*
G36*
X1296048D02*
X1293152D01*
X1290354Y1055250D01*
X1287846Y1053802D01*
X1285798Y1051754D01*
X1284350Y1049246D01*
X1283600Y1046448D01*
Y1043552D01*
X1284350Y1040754D01*
X1285798Y1038246D01*
X1287846Y1036198D01*
X1290354Y1034750D01*
X1293152Y1034000D01*
X1296048D01*
X1298846Y1034750D01*
X1301354Y1036198D01*
X1303402Y1038246D01*
X1304850Y1040754D01*
X1305600Y1043552D01*
Y1046448D01*
X1304850Y1049246D01*
X1303402Y1051754D01*
X1301354Y1053802D01*
X1298846Y1055250D01*
X1296048Y1056000D01*
D02*
G37*
G36*
X1270648D02*
X1267752D01*
X1264954Y1055250D01*
X1262446Y1053802D01*
X1260398Y1051754D01*
X1258950Y1049246D01*
X1258200Y1046448D01*
Y1043552D01*
X1258950Y1040754D01*
X1260398Y1038246D01*
X1262446Y1036198D01*
X1264954Y1034750D01*
X1267752Y1034000D01*
X1270648D01*
X1273446Y1034750D01*
X1275954Y1036198D01*
X1278002Y1038246D01*
X1279450Y1040754D01*
X1280200Y1043552D01*
Y1046448D01*
X1279450Y1049246D01*
X1278002Y1051754D01*
X1275954Y1053802D01*
X1273446Y1055250D01*
X1270648Y1056000D01*
D02*
G37*
G36*
X1245248D02*
X1242352D01*
X1239554Y1055250D01*
X1237046Y1053802D01*
X1234998Y1051754D01*
X1233550Y1049246D01*
X1232800Y1046448D01*
Y1043552D01*
X1233550Y1040754D01*
X1234998Y1038246D01*
X1237046Y1036198D01*
X1239554Y1034750D01*
X1242352Y1034000D01*
X1245248D01*
X1248046Y1034750D01*
X1250554Y1036198D01*
X1252602Y1038246D01*
X1254050Y1040754D01*
X1254800Y1043552D01*
Y1046448D01*
X1254050Y1049246D01*
X1252602Y1051754D01*
X1250554Y1053802D01*
X1248046Y1055250D01*
X1245248Y1056000D01*
D02*
G37*
G36*
X1219848D02*
X1216952D01*
X1214154Y1055250D01*
X1211646Y1053802D01*
X1209598Y1051754D01*
X1208150Y1049246D01*
X1207400Y1046448D01*
Y1043552D01*
X1208150Y1040754D01*
X1209598Y1038246D01*
X1211646Y1036198D01*
X1214154Y1034750D01*
X1216952Y1034000D01*
X1219848D01*
X1222646Y1034750D01*
X1225154Y1036198D01*
X1227202Y1038246D01*
X1228650Y1040754D01*
X1229400Y1043552D01*
Y1046448D01*
X1228650Y1049246D01*
X1227202Y1051754D01*
X1225154Y1053802D01*
X1222646Y1055250D01*
X1219848Y1056000D01*
D02*
G37*
G36*
X1194448D02*
X1191552D01*
X1188754Y1055250D01*
X1186246Y1053802D01*
X1184198Y1051754D01*
X1182750Y1049246D01*
X1182000Y1046448D01*
Y1043552D01*
X1182750Y1040754D01*
X1184198Y1038246D01*
X1186246Y1036198D01*
X1188754Y1034750D01*
X1191552Y1034000D01*
X1194448D01*
X1197246Y1034750D01*
X1199754Y1036198D01*
X1201802Y1038246D01*
X1203250Y1040754D01*
X1204000Y1043552D01*
Y1046448D01*
X1203250Y1049246D01*
X1201802Y1051754D01*
X1199754Y1053802D01*
X1197246Y1055250D01*
X1194448Y1056000D01*
D02*
G37*
G36*
X1169048D02*
X1166152D01*
X1163354Y1055250D01*
X1160846Y1053802D01*
X1158798Y1051754D01*
X1157350Y1049246D01*
X1156600Y1046448D01*
Y1043552D01*
X1157350Y1040754D01*
X1158798Y1038246D01*
X1160846Y1036198D01*
X1163354Y1034750D01*
X1166152Y1034000D01*
X1169048D01*
X1171846Y1034750D01*
X1174354Y1036198D01*
X1176402Y1038246D01*
X1177850Y1040754D01*
X1178600Y1043552D01*
Y1046448D01*
X1177850Y1049246D01*
X1176402Y1051754D01*
X1174354Y1053802D01*
X1171846Y1055250D01*
X1169048Y1056000D01*
D02*
G37*
G36*
X1042048D02*
X1039152D01*
X1036354Y1055250D01*
X1033846Y1053802D01*
X1031798Y1051754D01*
X1030350Y1049246D01*
X1029600Y1046448D01*
Y1043552D01*
X1030350Y1040754D01*
X1031798Y1038246D01*
X1033846Y1036198D01*
X1036354Y1034750D01*
X1039152Y1034000D01*
X1042048D01*
X1044846Y1034750D01*
X1047354Y1036198D01*
X1049402Y1038246D01*
X1050850Y1040754D01*
X1051600Y1043552D01*
Y1046448D01*
X1050850Y1049246D01*
X1049402Y1051754D01*
X1047354Y1053802D01*
X1044846Y1055250D01*
X1042048Y1056000D01*
D02*
G37*
G36*
X1016648D02*
X1013752D01*
X1010954Y1055250D01*
X1008446Y1053802D01*
X1006398Y1051754D01*
X1004950Y1049246D01*
X1004200Y1046448D01*
Y1043552D01*
X1004950Y1040754D01*
X1006398Y1038246D01*
X1008446Y1036198D01*
X1010954Y1034750D01*
X1013752Y1034000D01*
X1016648D01*
X1019446Y1034750D01*
X1021954Y1036198D01*
X1024002Y1038246D01*
X1025450Y1040754D01*
X1026200Y1043552D01*
Y1046448D01*
X1025450Y1049246D01*
X1024002Y1051754D01*
X1021954Y1053802D01*
X1019446Y1055250D01*
X1016648Y1056000D01*
D02*
G37*
G36*
X1382340Y1043730D02*
X1372070D01*
Y1033460D01*
X1372319D01*
X1375254Y1034246D01*
X1377886Y1035766D01*
X1380034Y1037914D01*
X1381553Y1040546D01*
X1382340Y1043481D01*
Y1043730D01*
D02*
G37*
G36*
X1369530D02*
X1359260D01*
Y1043481D01*
X1360047Y1040546D01*
X1361566Y1037914D01*
X1363714Y1035766D01*
X1366346Y1034246D01*
X1369281Y1033460D01*
X1369530D01*
Y1043730D01*
D02*
G37*
G36*
X1001340D02*
X991070D01*
Y1033460D01*
X1001340D01*
Y1043730D01*
D02*
G37*
G36*
X988530D02*
X978260D01*
Y1033460D01*
X988530D01*
Y1043730D01*
D02*
G37*
G36*
X1578345Y1041750D02*
X1576655D01*
X1575093Y1041103D01*
X1573897Y1039907D01*
X1573250Y1038345D01*
Y1036655D01*
X1573897Y1035093D01*
X1575093Y1033897D01*
X1576655Y1033250D01*
X1578345D01*
X1579907Y1033897D01*
X1581103Y1035093D01*
X1581750Y1036655D01*
Y1038345D01*
X1581103Y1039907D01*
X1579907Y1041103D01*
X1578345Y1041750D01*
D02*
G37*
G36*
X1645845Y1034250D02*
X1644155D01*
X1642593Y1033603D01*
X1642048Y1033059D01*
X1615452D01*
X1614907Y1033603D01*
X1613345Y1034250D01*
X1611655D01*
X1610093Y1033603D01*
X1608897Y1032407D01*
X1608250Y1030845D01*
Y1029155D01*
X1608897Y1027593D01*
X1610093Y1026397D01*
X1611655Y1025750D01*
X1613345D01*
X1614907Y1026397D01*
X1615452Y1026941D01*
X1642048D01*
X1642593Y1026397D01*
X1644155Y1025750D01*
X1645845D01*
X1647407Y1026397D01*
X1648603Y1027593D01*
X1649250Y1029155D01*
Y1030845D01*
X1648603Y1032407D01*
X1647407Y1033603D01*
X1645845Y1034250D01*
D02*
G37*
G36*
X1143648Y1056000D02*
X1140752D01*
X1137954Y1055250D01*
X1135446Y1053802D01*
X1133398Y1051754D01*
X1131950Y1049246D01*
X1131200Y1046448D01*
Y1043552D01*
X1131950Y1040754D01*
X1133398Y1038246D01*
X1135446Y1036198D01*
X1137954Y1034750D01*
X1139525Y1034329D01*
X1139358Y1033059D01*
X1119859D01*
Y1034432D01*
X1121046Y1034750D01*
X1123554Y1036198D01*
X1125602Y1038246D01*
X1127050Y1040754D01*
X1127800Y1043552D01*
Y1046448D01*
X1127050Y1049246D01*
X1125602Y1051754D01*
X1123554Y1053802D01*
X1121046Y1055250D01*
X1118248Y1056000D01*
X1115352D01*
X1112554Y1055250D01*
X1110046Y1053802D01*
X1107998Y1051754D01*
X1106550Y1049246D01*
X1105800Y1046448D01*
Y1043552D01*
X1106550Y1040754D01*
X1107998Y1038246D01*
X1110046Y1036198D01*
X1112554Y1034750D01*
X1113741Y1034432D01*
Y1031172D01*
X1113741Y1031172D01*
X1113974Y1030001D01*
X1114423Y1029329D01*
X1113947Y1028059D01*
X1094459D01*
Y1034432D01*
X1095646Y1034750D01*
X1098154Y1036198D01*
X1100202Y1038246D01*
X1101650Y1040754D01*
X1102400Y1043552D01*
Y1046448D01*
X1101650Y1049246D01*
X1100202Y1051754D01*
X1098154Y1053802D01*
X1095646Y1055250D01*
X1092848Y1056000D01*
X1089952D01*
X1087154Y1055250D01*
X1084646Y1053802D01*
X1082598Y1051754D01*
X1081150Y1049246D01*
X1080400Y1046448D01*
Y1043552D01*
X1081150Y1040754D01*
X1082598Y1038246D01*
X1084646Y1036198D01*
X1087154Y1034750D01*
X1088341Y1034432D01*
Y1026172D01*
X1088341Y1026172D01*
X1088574Y1025001D01*
X1089023Y1024329D01*
X1088547Y1023059D01*
X1069059D01*
Y1034432D01*
X1070246Y1034750D01*
X1072754Y1036198D01*
X1074802Y1038246D01*
X1076250Y1040754D01*
X1077000Y1043552D01*
Y1046448D01*
X1076250Y1049246D01*
X1074802Y1051754D01*
X1072754Y1053802D01*
X1070246Y1055250D01*
X1067448Y1056000D01*
X1064552D01*
X1061754Y1055250D01*
X1059246Y1053802D01*
X1057198Y1051754D01*
X1055750Y1049246D01*
X1055000Y1046448D01*
Y1043552D01*
X1055750Y1040754D01*
X1057198Y1038246D01*
X1059246Y1036198D01*
X1061754Y1034750D01*
X1062941Y1034432D01*
Y1021500D01*
X1062941Y1021500D01*
X1063174Y1020330D01*
X1063837Y1019337D01*
X1065337Y1017837D01*
X1065337Y1017837D01*
X1066329Y1017174D01*
X1067500Y1016941D01*
X1159548D01*
X1160093Y1016397D01*
X1161655Y1015750D01*
X1163345D01*
X1164907Y1016397D01*
X1166103Y1017593D01*
X1166750Y1019155D01*
Y1020845D01*
X1166103Y1022407D01*
X1164907Y1023603D01*
X1163345Y1024250D01*
X1161750D01*
Y1025845D01*
X1161103Y1027407D01*
X1159907Y1028603D01*
X1158345Y1029250D01*
X1156750D01*
Y1030845D01*
X1156103Y1032407D01*
X1154907Y1033603D01*
X1153345Y1034250D01*
X1151655D01*
X1150093Y1033603D01*
X1149548Y1033059D01*
X1145042D01*
X1144875Y1034329D01*
X1146446Y1034750D01*
X1148954Y1036198D01*
X1151002Y1038246D01*
X1152450Y1040754D01*
X1153200Y1043552D01*
Y1046448D01*
X1152450Y1049246D01*
X1151002Y1051754D01*
X1148954Y1053802D01*
X1146446Y1055250D01*
X1143648Y1056000D01*
D02*
G37*
G36*
X570845Y1029250D02*
X569155D01*
X567593Y1028603D01*
X566397Y1027407D01*
X565750Y1025845D01*
Y1024155D01*
X566397Y1022593D01*
X567593Y1021397D01*
X569155Y1020750D01*
X570845D01*
X572407Y1021397D01*
X573603Y1022593D01*
X574250Y1024155D01*
Y1025845D01*
X573603Y1027407D01*
X572407Y1028603D01*
X570845Y1029250D01*
D02*
G37*
G36*
X1715845Y1019250D02*
X1714155D01*
X1712593Y1018603D01*
X1712048Y1018059D01*
X1647952D01*
X1647407Y1018603D01*
X1645845Y1019250D01*
X1644155D01*
X1642593Y1018603D01*
X1641397Y1017407D01*
X1640750Y1015845D01*
Y1014155D01*
X1641397Y1012593D01*
X1642593Y1011397D01*
X1644155Y1010750D01*
X1645845D01*
X1647407Y1011397D01*
X1647952Y1011941D01*
X1712048D01*
X1712593Y1011397D01*
X1714155Y1010750D01*
X1715845D01*
X1717407Y1011397D01*
X1718603Y1012593D01*
X1719250Y1014155D01*
Y1015845D01*
X1718603Y1017407D01*
X1717407Y1018603D01*
X1715845Y1019250D01*
D02*
G37*
G36*
X1736544Y1024150D02*
X1734456D01*
X1732526Y1023351D01*
X1731049Y1021874D01*
X1730250Y1019944D01*
Y1017856D01*
X1731049Y1015926D01*
X1732526Y1014449D01*
X1734456Y1013650D01*
X1736544D01*
X1738474Y1014449D01*
X1739951Y1015926D01*
X1740750Y1017856D01*
Y1019944D01*
X1739951Y1021874D01*
X1738474Y1023351D01*
X1736544Y1024150D01*
D02*
G37*
G36*
X248345Y1044250D02*
X246655D01*
X245093Y1043603D01*
X243897Y1042407D01*
X243250Y1040845D01*
Y1039155D01*
X243897Y1037593D01*
X245093Y1036397D01*
X246655Y1035750D01*
X248345D01*
X249907Y1036397D01*
X250452Y1036941D01*
X280621D01*
X281941Y1035621D01*
Y1012439D01*
X280885Y1011733D01*
X280845Y1011750D01*
X279155D01*
X277593Y1011103D01*
X277080Y1010590D01*
X276250Y1010010D01*
X275420Y1010590D01*
X274907Y1011103D01*
X273345Y1011750D01*
X271655D01*
X270093Y1011103D01*
X268897Y1009907D01*
X268250Y1008345D01*
Y1006655D01*
X268897Y1005093D01*
X269410Y1004580D01*
X269990Y1003750D01*
X269410Y1002920D01*
X268897Y1002407D01*
X268250Y1000845D01*
Y999155D01*
X268897Y997593D01*
X270093Y996397D01*
X271655Y995750D01*
X273345D01*
X274907Y996397D01*
X275420Y996910D01*
X276250Y997490D01*
X277080Y996910D01*
X277593Y996397D01*
X279155Y995750D01*
X280845D01*
X280885Y995767D01*
X281941Y995061D01*
Y990452D01*
X281397Y989907D01*
X280750Y988345D01*
Y986655D01*
X281397Y985093D01*
X282593Y983897D01*
X284155Y983250D01*
X285845D01*
X287407Y983897D01*
X288603Y985093D01*
X289250Y986655D01*
Y988345D01*
X288603Y989907D01*
X288059Y990452D01*
Y1036888D01*
X287826Y1038058D01*
X287163Y1039051D01*
X284051Y1042163D01*
X283058Y1042826D01*
X281888Y1043059D01*
X281888Y1043059D01*
X250452D01*
X249907Y1043603D01*
X248345Y1044250D01*
D02*
G37*
G36*
X1558345Y1019250D02*
X1556655D01*
X1555093Y1018603D01*
X1553897Y1017407D01*
X1553250Y1015845D01*
Y1014155D01*
X1553897Y1012593D01*
X1555093Y1011397D01*
X1556655Y1010750D01*
X1558345D01*
X1559907Y1011397D01*
X1561103Y1012593D01*
X1561750Y1014155D01*
Y1015845D01*
X1561103Y1017407D01*
X1559907Y1018603D01*
X1558345Y1019250D01*
D02*
G37*
G36*
X685845D02*
X684155D01*
X682593Y1018603D01*
X681397Y1017407D01*
X680750Y1015845D01*
Y1014155D01*
X681397Y1012593D01*
X682593Y1011397D01*
X684155Y1010750D01*
X685845D01*
X687407Y1011397D01*
X688603Y1012593D01*
X689250Y1014155D01*
Y1015845D01*
X688603Y1017407D01*
X687407Y1018603D01*
X685845Y1019250D01*
D02*
G37*
G36*
X330845Y1009250D02*
X329155D01*
X327593Y1008603D01*
X327080Y1008090D01*
X326250Y1007510D01*
X325420Y1008090D01*
X324907Y1008603D01*
X323345Y1009250D01*
X321655D01*
X320093Y1008603D01*
X318897Y1007407D01*
X318250Y1005845D01*
Y1004155D01*
X318897Y1002593D01*
X319410Y1002080D01*
X319990Y1001250D01*
X319410Y1000420D01*
X318897Y999907D01*
X318250Y998345D01*
Y996655D01*
X318897Y995093D01*
X320093Y993897D01*
X321655Y993250D01*
X323345D01*
X324907Y993897D01*
X325420Y994410D01*
X326250Y994990D01*
X327080Y994410D01*
X327593Y993897D01*
X329155Y993250D01*
X330845D01*
X332407Y993897D01*
X333603Y995093D01*
X334250Y996655D01*
Y998345D01*
X333603Y999907D01*
X333090Y1000420D01*
X332510Y1001250D01*
X333090Y1002080D01*
X333603Y1002593D01*
X334250Y1004155D01*
Y1005845D01*
X333603Y1007407D01*
X332407Y1008603D01*
X330845Y1009250D01*
D02*
G37*
G36*
X753345Y1011750D02*
X751655D01*
X750093Y1011103D01*
X748897Y1009907D01*
X748250Y1008345D01*
Y1006655D01*
X748897Y1005093D01*
X750093Y1003897D01*
X751655Y1003250D01*
X753345D01*
X754907Y1003897D01*
X756103Y1005093D01*
X756750Y1006655D01*
Y1008345D01*
X756103Y1009907D01*
X754907Y1011103D01*
X753345Y1011750D01*
D02*
G37*
G36*
X495845Y1009250D02*
X494155D01*
X492593Y1008603D01*
X491397Y1007407D01*
X490750Y1005845D01*
Y1004155D01*
X491397Y1002593D01*
X492593Y1001397D01*
X494155Y1000750D01*
X495845D01*
X497407Y1001397D01*
X498603Y1002593D01*
X499250Y1004155D01*
Y1005845D01*
X498603Y1007407D01*
X497407Y1008603D01*
X495845Y1009250D01*
D02*
G37*
G36*
X1148345Y1001750D02*
X1146655D01*
X1145093Y1001103D01*
X1144548Y1000559D01*
X735452D01*
X734907Y1001103D01*
X733345Y1001750D01*
X731655D01*
X730093Y1001103D01*
X728897Y999907D01*
X728250Y998345D01*
Y996655D01*
X728897Y995093D01*
X730093Y993897D01*
X731655Y993250D01*
X733345D01*
X734907Y993897D01*
X735452Y994441D01*
X749135D01*
X749661Y993171D01*
X748897Y992407D01*
X748250Y990845D01*
Y989155D01*
X748267Y989115D01*
X747561Y988059D01*
X723952D01*
X723407Y988603D01*
X721845Y989250D01*
X720155D01*
X718593Y988603D01*
X717397Y987407D01*
X716750Y985845D01*
Y984155D01*
X717397Y982593D01*
X718593Y981397D01*
X720155Y980750D01*
X721845D01*
X723407Y981397D01*
X723952Y981941D01*
X1129548D01*
X1130093Y981397D01*
X1131655Y980750D01*
X1133345D01*
X1134907Y981397D01*
X1136103Y982593D01*
X1136750Y984155D01*
Y985845D01*
X1136103Y987407D01*
X1134907Y988603D01*
X1133345Y989250D01*
X1131655D01*
X1130093Y988603D01*
X1129548Y988059D01*
X757439D01*
X756733Y989115D01*
X756750Y989155D01*
Y990845D01*
X756103Y992407D01*
X755339Y993171D01*
X755865Y994441D01*
X1144548D01*
X1145093Y993897D01*
X1146655Y993250D01*
X1148345D01*
X1149907Y993897D01*
X1151103Y995093D01*
X1151750Y996655D01*
Y998345D01*
X1151103Y999907D01*
X1149907Y1001103D01*
X1148345Y1001750D01*
D02*
G37*
G36*
X1630845Y1021978D02*
X1629155D01*
X1627593Y1021331D01*
X1626397Y1020135D01*
X1625750Y1018574D01*
Y1016883D01*
X1626397Y1015321D01*
X1627024Y1014694D01*
X1627457Y1013864D01*
X1627024Y1013034D01*
X1626397Y1012407D01*
X1625750Y1010845D01*
Y1009155D01*
X1626397Y1007593D01*
X1626910Y1007080D01*
X1627490Y1006250D01*
X1626910Y1005420D01*
X1626397Y1004907D01*
X1625750Y1003345D01*
Y1001655D01*
X1626397Y1000093D01*
X1627593Y998897D01*
X1629155Y998250D01*
X1630845D01*
X1632407Y998897D01*
X1632952Y999441D01*
X1662048D01*
X1662593Y998897D01*
X1664155Y998250D01*
X1665845D01*
X1667407Y998897D01*
X1667952Y999441D01*
X1682048D01*
X1682593Y998897D01*
X1684155Y998250D01*
X1685845D01*
X1687407Y998897D01*
X1688603Y1000093D01*
X1689250Y1001655D01*
Y1003345D01*
X1688603Y1004907D01*
X1687407Y1006103D01*
X1685845Y1006750D01*
X1684155D01*
X1682593Y1006103D01*
X1682048Y1005559D01*
X1667952D01*
X1667407Y1006103D01*
X1665845Y1006750D01*
X1664155D01*
X1662593Y1006103D01*
X1662048Y1005559D01*
X1633365D01*
X1632802Y1006667D01*
X1633090Y1007080D01*
X1633603Y1007593D01*
X1634250Y1009155D01*
Y1010845D01*
X1633603Y1012407D01*
X1632976Y1013034D01*
X1632543Y1013864D01*
X1632976Y1014694D01*
X1633603Y1015321D01*
X1634250Y1016883D01*
Y1018574D01*
X1633603Y1020135D01*
X1632407Y1021331D01*
X1630845Y1021978D01*
D02*
G37*
G36*
X605845Y1004250D02*
X604155D01*
X602593Y1003603D01*
X601397Y1002407D01*
X600750Y1000845D01*
Y999155D01*
X601397Y997593D01*
X602593Y996397D01*
X604155Y995750D01*
X605845D01*
X607407Y996397D01*
X608603Y997593D01*
X609250Y999155D01*
Y1000845D01*
X608603Y1002407D01*
X607407Y1003603D01*
X605845Y1004250D01*
D02*
G37*
G36*
X420845D02*
X419155D01*
X417593Y1003603D01*
X416397Y1002407D01*
X415750Y1000845D01*
Y999155D01*
X416397Y997593D01*
X417593Y996397D01*
X419155Y995750D01*
X420845D01*
X422407Y996397D01*
X423603Y997593D01*
X424250Y999155D01*
Y1000845D01*
X423603Y1002407D01*
X422407Y1003603D01*
X420845Y1004250D01*
D02*
G37*
G36*
X410845D02*
X409155D01*
X407593Y1003603D01*
X406397Y1002407D01*
X405750Y1000845D01*
Y999155D01*
X406397Y997593D01*
X407593Y996397D01*
X409155Y995750D01*
X410845D01*
X412407Y996397D01*
X413603Y997593D01*
X414250Y999155D01*
Y1000845D01*
X413603Y1002407D01*
X412407Y1003603D01*
X410845Y1004250D01*
D02*
G37*
G36*
X698345Y996750D02*
X696655D01*
X695093Y996103D01*
X693897Y994907D01*
X693250Y993345D01*
Y991655D01*
X693897Y990093D01*
X695093Y988897D01*
X696655Y988250D01*
X698345D01*
X699907Y988897D01*
X701103Y990093D01*
X701750Y991655D01*
Y993345D01*
X701103Y994907D01*
X699907Y996103D01*
X698345Y996750D01*
D02*
G37*
G36*
X1685845Y984250D02*
X1684155D01*
X1682593Y983603D01*
X1682048Y983059D01*
X1632952D01*
X1632407Y983603D01*
X1630845Y984250D01*
X1629155D01*
X1627593Y983603D01*
X1626397Y982407D01*
X1625750Y980845D01*
Y979155D01*
X1626397Y977593D01*
X1627593Y976397D01*
X1629155Y975750D01*
X1630845D01*
X1632407Y976397D01*
X1632952Y976941D01*
X1681941D01*
Y968250D01*
X1678000D01*
Y955290D01*
X1677460D01*
Y949520D01*
X1692540D01*
Y955290D01*
X1692000D01*
Y968250D01*
X1688059D01*
Y977048D01*
X1688603Y977593D01*
X1689250Y979155D01*
Y980845D01*
X1688603Y982407D01*
X1687407Y983603D01*
X1685845Y984250D01*
D02*
G37*
G36*
X495801Y991119D02*
X494110D01*
X492548Y990472D01*
X491353Y989276D01*
X490706Y987714D01*
Y986024D01*
X491353Y984462D01*
X492548Y983266D01*
X494110Y982619D01*
X495801D01*
X497363Y983266D01*
X498559Y984462D01*
X499206Y986024D01*
Y987714D01*
X498559Y989276D01*
X497363Y990472D01*
X495801Y991119D01*
D02*
G37*
G36*
X1733345Y996750D02*
X1731655D01*
X1730093Y996103D01*
X1728897Y994907D01*
X1728250Y993345D01*
Y991655D01*
X1728897Y990093D01*
X1729441Y989548D01*
Y985452D01*
X1728897Y984907D01*
X1728250Y983345D01*
Y981655D01*
X1728897Y980093D01*
X1730093Y978897D01*
X1731655Y978250D01*
X1733345D01*
X1734907Y978897D01*
X1736103Y980093D01*
X1736750Y981655D01*
Y983345D01*
X1736103Y984907D01*
X1735559Y985452D01*
Y989548D01*
X1736103Y990093D01*
X1736750Y991655D01*
Y993345D01*
X1736103Y994907D01*
X1734907Y996103D01*
X1733345Y996750D01*
D02*
G37*
G36*
X753345Y976750D02*
X751655D01*
X750093Y976103D01*
X748897Y974907D01*
X748250Y973345D01*
Y971655D01*
X748897Y970093D01*
X750093Y968897D01*
X751655Y968250D01*
X753345D01*
X754907Y968897D01*
X756103Y970093D01*
X756750Y971655D01*
Y973345D01*
X756103Y974907D01*
X754907Y976103D01*
X753345Y976750D01*
D02*
G37*
G36*
X495717Y972961D02*
X494026D01*
X492464Y972314D01*
X491268Y971118D01*
X490621Y969557D01*
Y967866D01*
X491268Y966304D01*
X492464Y965108D01*
X494026Y964461D01*
X495717D01*
X497279Y965108D01*
X498474Y966304D01*
X499121Y967866D01*
Y969557D01*
X498474Y971118D01*
X497279Y972314D01*
X495717Y972961D01*
D02*
G37*
G36*
X1138345Y964250D02*
X1136655D01*
X1135093Y963603D01*
X1134548Y963059D01*
X725452D01*
X724907Y963603D01*
X723345Y964250D01*
X721655D01*
X720093Y963603D01*
X719548Y963059D01*
X561952D01*
X561407Y963603D01*
X559845Y964250D01*
X558155D01*
X556593Y963603D01*
X555397Y962407D01*
X554750Y960845D01*
Y960250D01*
X553845Y959250D01*
X552155D01*
X550593Y958603D01*
X549397Y957407D01*
X548750Y955845D01*
Y954155D01*
X548767Y954115D01*
X548061Y953059D01*
X530452D01*
X529907Y953603D01*
X528345Y954250D01*
X526655D01*
X525093Y953603D01*
X523897Y952407D01*
X523250Y950845D01*
Y949155D01*
X523897Y947593D01*
X525093Y946397D01*
X526655Y945750D01*
X528345D01*
X529907Y946397D01*
X530452Y946941D01*
X632561D01*
X633267Y945885D01*
X633250Y945845D01*
Y944155D01*
X633897Y942593D01*
X635093Y941397D01*
X636655Y940750D01*
X638345D01*
X639907Y941397D01*
X640452Y941941D01*
X737048D01*
X737593Y941397D01*
X739155Y940750D01*
X740845D01*
X742407Y941397D01*
X743603Y942593D01*
X744250Y944155D01*
Y945845D01*
X744233Y945885D01*
X744939Y946941D01*
X1124548D01*
X1125093Y946397D01*
X1126655Y945750D01*
X1128345D01*
X1129907Y946397D01*
X1131103Y947593D01*
X1131750Y949155D01*
Y950845D01*
X1131103Y952407D01*
X1129907Y953603D01*
X1128345Y954250D01*
X1126655D01*
X1125093Y953603D01*
X1124548Y953059D01*
X699939D01*
X699233Y954115D01*
X699250Y954155D01*
Y955845D01*
X699233Y955885D01*
X699939Y956941D01*
X719548D01*
X720093Y956397D01*
X721655Y955750D01*
X723345D01*
X724907Y956397D01*
X725452Y956941D01*
X1134548D01*
X1135093Y956397D01*
X1136655Y955750D01*
X1138345D01*
X1139907Y956397D01*
X1141103Y957593D01*
X1141750Y959155D01*
Y960845D01*
X1141103Y962407D01*
X1139907Y963603D01*
X1138345Y964250D01*
D02*
G37*
G36*
X227500Y1004588D02*
X225744Y1004239D01*
X224256Y1003244D01*
X223261Y1001756D01*
X222912Y1000000D01*
Y965981D01*
X222761Y965756D01*
X222412Y964000D01*
X222761Y962244D01*
X223756Y960756D01*
X225244Y959761D01*
X227000Y959412D01*
X228756Y959761D01*
X230244Y960756D01*
X230744Y961256D01*
X231739Y962744D01*
X232088Y964500D01*
Y1000000D01*
X231739Y1001756D01*
X230744Y1003244D01*
X229256Y1004239D01*
X227500Y1004588D01*
D02*
G37*
G36*
X1665845Y974250D02*
X1664155D01*
X1662593Y973603D01*
X1661397Y972407D01*
X1660750Y970845D01*
Y969155D01*
X1660146Y968250D01*
X1658000D01*
Y955290D01*
X1657460D01*
Y949520D01*
X1672540D01*
Y955290D01*
X1672000D01*
Y968250D01*
X1669854D01*
X1669250Y969155D01*
Y970845D01*
X1668603Y972407D01*
X1667407Y973603D01*
X1665845Y974250D01*
D02*
G37*
G36*
X1692540Y946980D02*
X1686270D01*
Y941210D01*
X1692540D01*
Y946980D01*
D02*
G37*
G36*
X1683730D02*
X1677460D01*
Y941210D01*
X1683730D01*
Y946980D01*
D02*
G37*
G36*
X1672540D02*
X1666270D01*
Y941210D01*
X1672540D01*
Y946980D01*
D02*
G37*
G36*
X1663730D02*
X1657460D01*
Y941210D01*
X1663730D01*
Y946980D01*
D02*
G37*
G36*
X59620Y959620D02*
X40380D01*
Y940380D01*
X59620D01*
Y959620D01*
D02*
G37*
G36*
X430845Y954250D02*
X429155D01*
X427593Y953603D01*
X426397Y952407D01*
X425750Y950845D01*
Y949155D01*
X426397Y947593D01*
X426910Y947080D01*
X427490Y946250D01*
X426910Y945420D01*
X426397Y944907D01*
X425750Y943345D01*
Y941655D01*
X426397Y940093D01*
X427593Y938897D01*
X429155Y938250D01*
X430845D01*
X432407Y938897D01*
X433603Y940093D01*
X434250Y941655D01*
Y943345D01*
X433603Y944907D01*
X433090Y945420D01*
X432510Y946250D01*
X433090Y947080D01*
X433603Y947593D01*
X434250Y949155D01*
Y950845D01*
X433603Y952407D01*
X432407Y953603D01*
X430845Y954250D01*
D02*
G37*
G36*
X420845D02*
X419155D01*
X417593Y953603D01*
X416397Y952407D01*
X415750Y950845D01*
Y949155D01*
X416397Y947593D01*
X416910Y947080D01*
X417490Y946250D01*
X416910Y945420D01*
X416397Y944907D01*
X415750Y943345D01*
Y941655D01*
X416397Y940093D01*
X417593Y938897D01*
X419155Y938250D01*
X420845D01*
X422407Y938897D01*
X423603Y940093D01*
X424250Y941655D01*
Y943345D01*
X423603Y944907D01*
X423090Y945420D01*
X422510Y946250D01*
X423090Y947080D01*
X423603Y947593D01*
X424250Y949155D01*
Y950845D01*
X423603Y952407D01*
X422407Y953603D01*
X420845Y954250D01*
D02*
G37*
G36*
X410845D02*
X409155D01*
X407593Y953603D01*
X406397Y952407D01*
X405750Y950845D01*
Y949155D01*
X406397Y947593D01*
X406910Y947080D01*
X407490Y946250D01*
X406910Y945420D01*
X406397Y944907D01*
X405750Y943345D01*
Y941655D01*
X406397Y940093D01*
X407593Y938897D01*
X409155Y938250D01*
X410845D01*
X412407Y938897D01*
X413603Y940093D01*
X414250Y941655D01*
Y943345D01*
X413603Y944907D01*
X413090Y945420D01*
X412510Y946250D01*
X413090Y947080D01*
X413603Y947593D01*
X414250Y949155D01*
Y950845D01*
X413603Y952407D01*
X412407Y953603D01*
X410845Y954250D01*
D02*
G37*
G36*
X400845D02*
X399155D01*
X397593Y953603D01*
X396397Y952407D01*
X395750Y950845D01*
Y949155D01*
X396397Y947593D01*
X396910Y947080D01*
X397490Y946250D01*
X396910Y945420D01*
X396397Y944907D01*
X395750Y943345D01*
Y941655D01*
X396397Y940093D01*
X397593Y938897D01*
X399155Y938250D01*
X400845D01*
X402407Y938897D01*
X403603Y940093D01*
X404250Y941655D01*
Y943345D01*
X403603Y944907D01*
X403090Y945420D01*
X402510Y946250D01*
X403090Y947080D01*
X403603Y947593D01*
X404250Y949155D01*
Y950845D01*
X403603Y952407D01*
X402407Y953603D01*
X400845Y954250D01*
D02*
G37*
G36*
X390845D02*
X389155D01*
X387593Y953603D01*
X386397Y952407D01*
X385750Y950845D01*
Y949155D01*
X386397Y947593D01*
X386910Y947080D01*
X387490Y946250D01*
X386910Y945420D01*
X386397Y944907D01*
X385750Y943345D01*
Y941655D01*
X386397Y940093D01*
X387593Y938897D01*
X389155Y938250D01*
X390845D01*
X392407Y938897D01*
X393603Y940093D01*
X394250Y941655D01*
Y943345D01*
X393603Y944907D01*
X393090Y945420D01*
X392510Y946250D01*
X393090Y947080D01*
X393603Y947593D01*
X394250Y949155D01*
Y950845D01*
X393603Y952407D01*
X392407Y953603D01*
X390845Y954250D01*
D02*
G37*
G36*
X250845Y941750D02*
X249155D01*
X247593Y941103D01*
X246397Y939907D01*
X245750Y938345D01*
Y936655D01*
X246397Y935093D01*
X247593Y933897D01*
X249155Y933250D01*
X250845D01*
X252407Y933897D01*
X253603Y935093D01*
X254250Y936655D01*
Y938345D01*
X253603Y939907D01*
X252407Y941103D01*
X250845Y941750D01*
D02*
G37*
G36*
X51266Y934620D02*
X48734D01*
X46287Y933964D01*
X44093Y932698D01*
X42302Y930907D01*
X41036Y928713D01*
X40380Y926266D01*
Y923734D01*
X41036Y921287D01*
X42302Y919093D01*
X44093Y917302D01*
X46287Y916036D01*
X48734Y915380D01*
X51266D01*
X53713Y916036D01*
X55907Y917302D01*
X57698Y919093D01*
X58459Y920412D01*
X165412D01*
Y912500D01*
X165761Y910744D01*
X166756Y909256D01*
X167153Y908990D01*
X167482Y907265D01*
X167342Y907060D01*
X56544D01*
X55907Y907698D01*
X53713Y908964D01*
X51266Y909620D01*
X48734D01*
X46287Y908964D01*
X44093Y907698D01*
X42302Y905907D01*
X41036Y903713D01*
X40380Y901266D01*
Y898734D01*
X41036Y896287D01*
X42302Y894093D01*
X44093Y892302D01*
X46287Y891036D01*
X48734Y890380D01*
X51266D01*
X53713Y891036D01*
X55907Y892302D01*
X56544Y892940D01*
X165270D01*
X166091Y891670D01*
X165750Y890845D01*
Y889155D01*
X166397Y887593D01*
X167593Y886397D01*
X169155Y885750D01*
X170845D01*
X172407Y886397D01*
X173603Y887593D01*
X174250Y889155D01*
Y890845D01*
X173909Y891670D01*
X174730Y892940D01*
X390000D01*
X391827Y893180D01*
X393530Y893885D01*
X394992Y895007D01*
X396114Y896470D01*
X396820Y898173D01*
X397060Y900000D01*
X396820Y901827D01*
X396114Y903530D01*
X394992Y904992D01*
X393530Y906114D01*
X391827Y906820D01*
X390000Y907060D01*
X390000Y907060D01*
X172658D01*
X172518Y907265D01*
X172847Y908990D01*
X173244Y909256D01*
X174239Y910744D01*
X174588Y912500D01*
Y920412D01*
X327500D01*
X329256Y920761D01*
X330744Y921756D01*
X331739Y923244D01*
X332088Y925000D01*
X331739Y926756D01*
X330744Y928244D01*
X329256Y929239D01*
X327500Y929588D01*
X327500Y929588D01*
X58459D01*
X57698Y930907D01*
X55907Y932698D01*
X53713Y933964D01*
X51266Y934620D01*
D02*
G37*
G36*
X1678345Y891750D02*
X1676655D01*
X1675093Y891103D01*
X1674548Y890559D01*
X1592952D01*
X1592407Y891103D01*
X1590845Y891750D01*
X1589155D01*
X1587593Y891103D01*
X1587048Y890559D01*
X1572952D01*
X1572407Y891103D01*
X1570845Y891750D01*
X1569155D01*
X1567593Y891103D01*
X1566397Y889907D01*
X1565750Y888345D01*
Y886655D01*
X1566397Y885093D01*
X1567593Y883897D01*
X1569155Y883250D01*
X1570845D01*
X1572407Y883897D01*
X1572952Y884441D01*
X1587048D01*
X1587593Y883897D01*
X1589155Y883250D01*
X1590845D01*
X1592407Y883897D01*
X1592952Y884441D01*
X1674548D01*
X1675093Y883897D01*
X1676655Y883250D01*
X1678345D01*
X1679907Y883897D01*
X1681103Y885093D01*
X1681750Y886655D01*
Y888345D01*
X1681103Y889907D01*
X1679907Y891103D01*
X1678345Y891750D01*
D02*
G37*
G36*
X1713345Y889250D02*
X1711655D01*
X1710093Y888603D01*
X1708897Y887407D01*
X1708250Y885845D01*
Y884155D01*
X1708897Y882593D01*
X1710093Y881397D01*
X1711655Y880750D01*
X1713345D01*
X1714907Y881397D01*
X1716103Y882593D01*
X1716750Y884155D01*
Y885845D01*
X1716103Y887407D01*
X1714907Y888603D01*
X1713345Y889250D01*
D02*
G37*
G36*
X51338Y885160D02*
X51270D01*
Y876270D01*
X60160D01*
Y876338D01*
X59468Y878922D01*
X58130Y881238D01*
X56238Y883130D01*
X53922Y884468D01*
X51338Y885160D01*
D02*
G37*
G36*
X48730D02*
X48662D01*
X46078Y884468D01*
X43762Y883130D01*
X41870Y881238D01*
X40532Y878922D01*
X39840Y876338D01*
Y876270D01*
X48730D01*
Y885160D01*
D02*
G37*
G36*
X1678345Y869250D02*
X1676655D01*
X1675093Y868603D01*
X1674548Y868059D01*
X1612952D01*
X1612407Y868603D01*
X1610845Y869250D01*
X1609155D01*
X1607593Y868603D01*
X1607048Y868059D01*
X1577952D01*
X1577407Y868603D01*
X1575845Y869250D01*
X1574155D01*
X1572593Y868603D01*
X1571397Y867407D01*
X1570750Y865845D01*
Y864155D01*
X1571397Y862593D01*
X1572593Y861397D01*
X1574155Y860750D01*
X1575845D01*
X1577407Y861397D01*
X1577952Y861941D01*
X1607048D01*
X1607593Y861397D01*
X1609155Y860750D01*
X1610845D01*
X1612407Y861397D01*
X1612952Y861941D01*
X1674548D01*
X1675093Y861397D01*
X1676655Y860750D01*
X1678345D01*
X1679907Y861397D01*
X1681103Y862593D01*
X1681750Y864155D01*
Y865845D01*
X1681103Y867407D01*
X1679907Y868603D01*
X1678345Y869250D01*
D02*
G37*
G36*
X60160Y873730D02*
X51270D01*
Y864840D01*
X51338D01*
X53922Y865532D01*
X56238Y866870D01*
X58130Y868762D01*
X59468Y871078D01*
X60160Y873662D01*
Y873730D01*
D02*
G37*
G36*
X48730D02*
X39840D01*
Y873662D01*
X40532Y871078D01*
X41870Y868762D01*
X43762Y866870D01*
X46078Y865532D01*
X48662Y864840D01*
X48730D01*
Y873730D01*
D02*
G37*
G36*
X1713345Y866750D02*
X1711655D01*
X1710093Y866103D01*
X1708897Y864907D01*
X1708250Y863345D01*
Y861655D01*
X1708897Y860093D01*
X1710093Y858897D01*
X1711655Y858250D01*
X1713345D01*
X1714907Y858897D01*
X1716103Y860093D01*
X1716750Y861655D01*
Y863345D01*
X1716103Y864907D01*
X1714907Y866103D01*
X1713345Y866750D01*
D02*
G37*
G36*
X51338Y860160D02*
X51270D01*
Y851270D01*
X60160D01*
Y851338D01*
X59468Y853922D01*
X58130Y856238D01*
X56238Y858130D01*
X53922Y859468D01*
X51338Y860160D01*
D02*
G37*
G36*
X48730D02*
X48662D01*
X46078Y859468D01*
X43762Y858130D01*
X41870Y856238D01*
X40532Y853922D01*
X39840Y851338D01*
Y851270D01*
X48730D01*
Y860160D01*
D02*
G37*
G36*
X60160Y848730D02*
X51270D01*
Y839840D01*
X51338D01*
X53922Y840532D01*
X56238Y841870D01*
X58130Y843762D01*
X59468Y846078D01*
X60160Y848662D01*
Y848730D01*
D02*
G37*
G36*
X48730D02*
X39840D01*
Y848662D01*
X40532Y846078D01*
X41870Y843762D01*
X43762Y841870D01*
X46078Y840532D01*
X48662Y839840D01*
X48730D01*
Y848730D01*
D02*
G37*
G36*
X1700845Y841750D02*
X1699155D01*
X1697593Y841103D01*
X1696397Y839907D01*
X1695750Y838345D01*
Y836655D01*
X1696397Y835093D01*
X1697593Y833897D01*
X1699155Y833250D01*
X1700845D01*
X1702407Y833897D01*
X1703603Y835093D01*
X1704250Y836655D01*
Y838345D01*
X1703603Y839907D01*
X1702407Y841103D01*
X1700845Y841750D01*
D02*
G37*
G36*
X1108345Y784250D02*
X1106655D01*
X1105093Y783603D01*
X1104548Y783059D01*
X405000D01*
X405000Y783059D01*
X403829Y782826D01*
X402837Y782163D01*
X402837Y782163D01*
X401037Y780363D01*
X400374Y779370D01*
X400141Y778200D01*
X400141Y778200D01*
Y770568D01*
X398954Y770250D01*
X396446Y768802D01*
X394398Y766754D01*
X392950Y764246D01*
X392200Y761448D01*
Y758552D01*
X392950Y755754D01*
X394398Y753246D01*
X396446Y751198D01*
X398954Y749750D01*
X401752Y749000D01*
X404648D01*
X407446Y749750D01*
X409954Y751198D01*
X412002Y753246D01*
X413450Y755754D01*
X414200Y758552D01*
Y761448D01*
X413450Y764246D01*
X412002Y766754D01*
X409954Y768802D01*
X407446Y770250D01*
X406259Y770568D01*
Y776933D01*
X406267Y776941D01*
X1104548D01*
X1105093Y776397D01*
X1106655Y775750D01*
X1108345D01*
X1109907Y776397D01*
X1111103Y777593D01*
X1111750Y779155D01*
Y780845D01*
X1111103Y782407D01*
X1109907Y783603D01*
X1108345Y784250D01*
D02*
G37*
G36*
X59620Y789620D02*
X40380D01*
Y770380D01*
X59620D01*
Y789620D01*
D02*
G37*
G36*
X684119Y771540D02*
X683870D01*
Y761270D01*
X694140D01*
Y761519D01*
X693354Y764454D01*
X691834Y767086D01*
X689686Y769234D01*
X687054Y770753D01*
X684119Y771540D01*
D02*
G37*
G36*
X681330D02*
X681081D01*
X678146Y770753D01*
X675514Y769234D01*
X673366Y767086D01*
X671846Y764454D01*
X671060Y761519D01*
Y761270D01*
X681330D01*
Y771540D01*
D02*
G37*
G36*
X252319D02*
X252070D01*
Y761270D01*
X262340D01*
Y761519D01*
X261554Y764454D01*
X260034Y767086D01*
X257886Y769234D01*
X255254Y770753D01*
X252319Y771540D01*
D02*
G37*
G36*
X249530D02*
X249281D01*
X246346Y770753D01*
X243714Y769234D01*
X241566Y767086D01*
X240047Y764454D01*
X239260Y761519D01*
Y761270D01*
X249530D01*
Y771540D01*
D02*
G37*
G36*
X658648Y771000D02*
X655752D01*
X652954Y770250D01*
X650446Y768802D01*
X648398Y766754D01*
X646950Y764246D01*
X646200Y761448D01*
Y758552D01*
X646950Y755754D01*
X648398Y753246D01*
X650446Y751198D01*
X652954Y749750D01*
X655752Y749000D01*
X658648D01*
X661446Y749750D01*
X663954Y751198D01*
X666002Y753246D01*
X667450Y755754D01*
X668200Y758552D01*
Y761448D01*
X667450Y764246D01*
X666002Y766754D01*
X663954Y768802D01*
X661446Y770250D01*
X658648Y771000D01*
D02*
G37*
G36*
X633248D02*
X630352D01*
X627554Y770250D01*
X625046Y768802D01*
X622998Y766754D01*
X621550Y764246D01*
X620800Y761448D01*
Y758552D01*
X621550Y755754D01*
X622998Y753246D01*
X625046Y751198D01*
X627554Y749750D01*
X630352Y749000D01*
X633248D01*
X636046Y749750D01*
X638554Y751198D01*
X640602Y753246D01*
X642050Y755754D01*
X642800Y758552D01*
Y761448D01*
X642050Y764246D01*
X640602Y766754D01*
X638554Y768802D01*
X636046Y770250D01*
X633248Y771000D01*
D02*
G37*
G36*
X607848D02*
X604952D01*
X602154Y770250D01*
X599646Y768802D01*
X597598Y766754D01*
X596150Y764246D01*
X595400Y761448D01*
Y758552D01*
X596150Y755754D01*
X597598Y753246D01*
X599646Y751198D01*
X602154Y749750D01*
X604952Y749000D01*
X607848D01*
X610646Y749750D01*
X613154Y751198D01*
X615202Y753246D01*
X616650Y755754D01*
X617400Y758552D01*
Y761448D01*
X616650Y764246D01*
X615202Y766754D01*
X613154Y768802D01*
X610646Y770250D01*
X607848Y771000D01*
D02*
G37*
G36*
X582448D02*
X579552D01*
X576754Y770250D01*
X574246Y768802D01*
X572198Y766754D01*
X570750Y764246D01*
X570000Y761448D01*
Y758552D01*
X570750Y755754D01*
X572198Y753246D01*
X574246Y751198D01*
X576754Y749750D01*
X579552Y749000D01*
X582448D01*
X585246Y749750D01*
X587754Y751198D01*
X589802Y753246D01*
X591250Y755754D01*
X592000Y758552D01*
Y761448D01*
X591250Y764246D01*
X589802Y766754D01*
X587754Y768802D01*
X585246Y770250D01*
X582448Y771000D01*
D02*
G37*
G36*
X557048D02*
X554152D01*
X551354Y770250D01*
X548846Y768802D01*
X546798Y766754D01*
X545350Y764246D01*
X544600Y761448D01*
Y758552D01*
X545350Y755754D01*
X546798Y753246D01*
X548846Y751198D01*
X551354Y749750D01*
X554152Y749000D01*
X557048D01*
X559846Y749750D01*
X562354Y751198D01*
X564402Y753246D01*
X565850Y755754D01*
X566600Y758552D01*
Y761448D01*
X565850Y764246D01*
X564402Y766754D01*
X562354Y768802D01*
X559846Y770250D01*
X557048Y771000D01*
D02*
G37*
G36*
X531648D02*
X528752D01*
X525954Y770250D01*
X523446Y768802D01*
X521398Y766754D01*
X519950Y764246D01*
X519200Y761448D01*
Y758552D01*
X519950Y755754D01*
X521398Y753246D01*
X523446Y751198D01*
X525954Y749750D01*
X528752Y749000D01*
X531648D01*
X534446Y749750D01*
X536954Y751198D01*
X539002Y753246D01*
X540450Y755754D01*
X541200Y758552D01*
Y761448D01*
X540450Y764246D01*
X539002Y766754D01*
X536954Y768802D01*
X534446Y770250D01*
X531648Y771000D01*
D02*
G37*
G36*
X480848D02*
X477952D01*
X475154Y770250D01*
X472646Y768802D01*
X470598Y766754D01*
X469150Y764246D01*
X468400Y761448D01*
Y758552D01*
X469150Y755754D01*
X470598Y753246D01*
X472646Y751198D01*
X475154Y749750D01*
X477952Y749000D01*
X480848D01*
X483646Y749750D01*
X486154Y751198D01*
X488202Y753246D01*
X489650Y755754D01*
X490400Y758552D01*
Y761448D01*
X489650Y764246D01*
X488202Y766754D01*
X486154Y768802D01*
X483646Y770250D01*
X480848Y771000D01*
D02*
G37*
G36*
X455448D02*
X452552D01*
X449754Y770250D01*
X447246Y768802D01*
X445198Y766754D01*
X443750Y764246D01*
X443000Y761448D01*
Y758552D01*
X443750Y755754D01*
X445198Y753246D01*
X447246Y751198D01*
X449754Y749750D01*
X452552Y749000D01*
X455448D01*
X458246Y749750D01*
X460754Y751198D01*
X462802Y753246D01*
X464250Y755754D01*
X465000Y758552D01*
Y761448D01*
X464250Y764246D01*
X462802Y766754D01*
X460754Y768802D01*
X458246Y770250D01*
X455448Y771000D01*
D02*
G37*
G36*
X430048D02*
X427152D01*
X424354Y770250D01*
X421846Y768802D01*
X419798Y766754D01*
X418350Y764246D01*
X417600Y761448D01*
Y758552D01*
X418350Y755754D01*
X419798Y753246D01*
X421846Y751198D01*
X424354Y749750D01*
X427152Y749000D01*
X430048D01*
X432846Y749750D01*
X435354Y751198D01*
X437402Y753246D01*
X438850Y755754D01*
X439600Y758552D01*
Y761448D01*
X438850Y764246D01*
X437402Y766754D01*
X435354Y768802D01*
X432846Y770250D01*
X430048Y771000D01*
D02*
G37*
G36*
X379248D02*
X376352D01*
X373554Y770250D01*
X371046Y768802D01*
X368998Y766754D01*
X367550Y764246D01*
X366800Y761448D01*
Y758552D01*
X367550Y755754D01*
X368998Y753246D01*
X371046Y751198D01*
X373554Y749750D01*
X376352Y749000D01*
X379248D01*
X382046Y749750D01*
X384554Y751198D01*
X386602Y753246D01*
X388050Y755754D01*
X388800Y758552D01*
Y761448D01*
X388050Y764246D01*
X386602Y766754D01*
X384554Y768802D01*
X382046Y770250D01*
X379248Y771000D01*
D02*
G37*
G36*
X353848D02*
X350952D01*
X348154Y770250D01*
X345646Y768802D01*
X343598Y766754D01*
X342150Y764246D01*
X341400Y761448D01*
Y758552D01*
X342150Y755754D01*
X343598Y753246D01*
X345646Y751198D01*
X348154Y749750D01*
X350952Y749000D01*
X353848D01*
X356646Y749750D01*
X359154Y751198D01*
X361202Y753246D01*
X362650Y755754D01*
X363400Y758552D01*
Y761448D01*
X362650Y764246D01*
X361202Y766754D01*
X359154Y768802D01*
X356646Y770250D01*
X353848Y771000D01*
D02*
G37*
G36*
X328448D02*
X325552D01*
X322754Y770250D01*
X320246Y768802D01*
X318198Y766754D01*
X316750Y764246D01*
X316000Y761448D01*
Y758552D01*
X316750Y755754D01*
X318198Y753246D01*
X320246Y751198D01*
X322754Y749750D01*
X325552Y749000D01*
X328448D01*
X331246Y749750D01*
X333754Y751198D01*
X335802Y753246D01*
X337250Y755754D01*
X338000Y758552D01*
Y761448D01*
X337250Y764246D01*
X335802Y766754D01*
X333754Y768802D01*
X331246Y770250D01*
X328448Y771000D01*
D02*
G37*
G36*
X303048D02*
X300152D01*
X297354Y770250D01*
X294846Y768802D01*
X292798Y766754D01*
X291350Y764246D01*
X290600Y761448D01*
Y758552D01*
X291350Y755754D01*
X292798Y753246D01*
X294846Y751198D01*
X297354Y749750D01*
X300152Y749000D01*
X303048D01*
X305846Y749750D01*
X308354Y751198D01*
X310402Y753246D01*
X311850Y755754D01*
X312600Y758552D01*
Y761448D01*
X311850Y764246D01*
X310402Y766754D01*
X308354Y768802D01*
X305846Y770250D01*
X303048Y771000D01*
D02*
G37*
G36*
X277648D02*
X274752D01*
X271954Y770250D01*
X269446Y768802D01*
X267398Y766754D01*
X265950Y764246D01*
X265200Y761448D01*
Y758552D01*
X265950Y755754D01*
X267398Y753246D01*
X269446Y751198D01*
X271954Y749750D01*
X274752Y749000D01*
X277648D01*
X280446Y749750D01*
X282954Y751198D01*
X285002Y753246D01*
X286450Y755754D01*
X287200Y758552D01*
Y761448D01*
X286450Y764246D01*
X285002Y766754D01*
X282954Y768802D01*
X280446Y770250D01*
X277648Y771000D01*
D02*
G37*
G36*
X226848D02*
X223952D01*
X221154Y770250D01*
X218646Y768802D01*
X216598Y766754D01*
X215150Y764246D01*
X214400Y761448D01*
Y758552D01*
X215150Y755754D01*
X216598Y753246D01*
X218646Y751198D01*
X221154Y749750D01*
X223952Y749000D01*
X226848D01*
X229646Y749750D01*
X232154Y751198D01*
X234202Y753246D01*
X235650Y755754D01*
X236400Y758552D01*
Y761448D01*
X235650Y764246D01*
X234202Y766754D01*
X232154Y768802D01*
X229646Y770250D01*
X226848Y771000D01*
D02*
G37*
G36*
X201448D02*
X198552D01*
X195754Y770250D01*
X193246Y768802D01*
X191198Y766754D01*
X189750Y764246D01*
X189000Y761448D01*
Y758552D01*
X189750Y755754D01*
X191198Y753246D01*
X193246Y751198D01*
X195754Y749750D01*
X198552Y749000D01*
X201448D01*
X204246Y749750D01*
X206754Y751198D01*
X208802Y753246D01*
X210250Y755754D01*
X211000Y758552D01*
Y761448D01*
X210250Y764246D01*
X208802Y766754D01*
X206754Y768802D01*
X204246Y770250D01*
X201448Y771000D01*
D02*
G37*
G36*
X694140Y758730D02*
X683870D01*
Y748460D01*
X684119D01*
X687054Y749246D01*
X689686Y750766D01*
X691834Y752914D01*
X693354Y755546D01*
X694140Y758481D01*
Y758730D01*
D02*
G37*
G36*
X681330D02*
X671060D01*
Y758481D01*
X671846Y755546D01*
X673366Y752914D01*
X675514Y750766D01*
X678146Y749246D01*
X681081Y748460D01*
X681330D01*
Y758730D01*
D02*
G37*
G36*
X262340D02*
X252070D01*
Y748460D01*
X252319D01*
X255254Y749246D01*
X257886Y750766D01*
X260034Y752914D01*
X261554Y755546D01*
X262340Y758481D01*
Y758730D01*
D02*
G37*
G36*
X249530D02*
X239260D01*
Y758481D01*
X240047Y755546D01*
X241566Y752914D01*
X243714Y750766D01*
X246346Y749246D01*
X249281Y748460D01*
X249530D01*
Y758730D01*
D02*
G37*
G36*
X51266Y764620D02*
X48734D01*
X46287Y763964D01*
X44093Y762698D01*
X42302Y760907D01*
X41036Y758713D01*
X40380Y756266D01*
Y753734D01*
X41036Y751287D01*
X42302Y749093D01*
X44093Y747302D01*
X46287Y746036D01*
X48734Y745380D01*
X51266D01*
X53713Y746036D01*
X54300Y746374D01*
X60337Y740337D01*
X60337Y740337D01*
X61329Y739674D01*
X62500Y739441D01*
X119548D01*
X120093Y738897D01*
X121655Y738250D01*
X123345D01*
X124907Y738897D01*
X126103Y740093D01*
X126750Y741655D01*
Y743345D01*
X126103Y744907D01*
X124907Y746103D01*
X123345Y746750D01*
X121655D01*
X120093Y746103D01*
X119548Y745559D01*
X63767D01*
X58626Y750700D01*
X58964Y751287D01*
X59620Y753734D01*
Y756266D01*
X58964Y758713D01*
X57698Y760907D01*
X55907Y762698D01*
X53713Y763964D01*
X51266Y764620D01*
D02*
G37*
G36*
X506248Y771000D02*
X503352D01*
X500554Y770250D01*
X498046Y768802D01*
X495998Y766754D01*
X494550Y764246D01*
X493800Y761448D01*
Y758552D01*
X494550Y755754D01*
X495998Y753246D01*
X498046Y751198D01*
X500554Y749750D01*
X501741Y749432D01*
Y738672D01*
X501741Y738672D01*
X501974Y737501D01*
X502637Y736509D01*
X503809Y735337D01*
X503809Y735337D01*
X504801Y734674D01*
X505972Y734441D01*
X505972Y734441D01*
X902561D01*
X903267Y733385D01*
X903250Y733345D01*
Y731750D01*
X901655D01*
X900093Y731103D01*
X898897Y729907D01*
X898250Y728345D01*
Y726655D01*
X898897Y725093D01*
X900093Y723897D01*
X901655Y723250D01*
X903345D01*
X904907Y723897D01*
X905452Y724441D01*
X951635D01*
X952161Y723171D01*
X951397Y722407D01*
X950750Y720845D01*
Y719155D01*
X951397Y717593D01*
X952593Y716397D01*
X954155Y715750D01*
X955845D01*
X957407Y716397D01*
X957952Y716941D01*
X975061D01*
X975767Y715885D01*
X975750Y715845D01*
Y714155D01*
X975767Y714115D01*
X975061Y713059D01*
X120865D01*
X120339Y714329D01*
X121103Y715093D01*
X121750Y716655D01*
Y718345D01*
X121103Y719907D01*
X119907Y721103D01*
X118345Y721750D01*
X116655D01*
X115093Y721103D01*
X114548Y720559D01*
X63767D01*
X58626Y725700D01*
X58964Y726287D01*
X59620Y728734D01*
Y731266D01*
X58964Y733713D01*
X57698Y735907D01*
X55907Y737698D01*
X53713Y738964D01*
X51266Y739620D01*
X48734D01*
X46287Y738964D01*
X44093Y737698D01*
X42302Y735907D01*
X41036Y733713D01*
X40380Y731266D01*
Y728734D01*
X41036Y726287D01*
X42302Y724093D01*
X44093Y722302D01*
X46287Y721036D01*
X48734Y720380D01*
X51266D01*
X53713Y721036D01*
X54300Y721374D01*
X60337Y715337D01*
X60337Y715337D01*
X61329Y714674D01*
X62500Y714441D01*
X113333D01*
X113408Y714329D01*
X112729Y713059D01*
X58583D01*
X57412Y712826D01*
X56433Y712172D01*
X55907Y712698D01*
X53713Y713964D01*
X51266Y714620D01*
X48734D01*
X46287Y713964D01*
X44093Y712698D01*
X42302Y710907D01*
X41036Y708713D01*
X40380Y706266D01*
Y703734D01*
X41036Y701287D01*
X42302Y699093D01*
X44093Y697302D01*
X46287Y696036D01*
X48734Y695380D01*
X51266D01*
X53713Y696036D01*
X55907Y697302D01*
X57698Y699093D01*
X58964Y701287D01*
X59620Y703734D01*
Y706266D01*
X60754Y706941D01*
X981635D01*
X982161Y705671D01*
X981397Y704907D01*
X980750Y703345D01*
Y701655D01*
X981397Y700093D01*
X982593Y698897D01*
X984155Y698250D01*
X985750D01*
Y696655D01*
X986397Y695093D01*
X987593Y693897D01*
X989155Y693250D01*
X990750D01*
Y691655D01*
X991397Y690093D01*
X992593Y688897D01*
X994155Y688250D01*
X995750D01*
Y686655D01*
X996397Y685093D01*
X997593Y683897D01*
X999155Y683250D01*
X1000845D01*
X1002407Y683897D01*
X1002952Y684441D01*
X1239548D01*
X1240093Y683897D01*
X1241655Y683250D01*
X1243345D01*
X1244907Y683897D01*
X1246103Y685093D01*
X1246750Y686655D01*
Y688345D01*
X1246651Y688585D01*
X1247356Y689641D01*
X1266848D01*
X1267193Y689297D01*
X1268755Y688650D01*
X1270445D01*
X1272007Y689297D01*
X1273203Y690493D01*
X1273850Y692055D01*
Y693745D01*
X1274315Y694441D01*
X1292048D01*
X1292593Y693897D01*
X1294155Y693250D01*
X1295845D01*
X1297407Y693897D01*
X1298603Y695093D01*
X1299250Y696655D01*
Y698345D01*
X1299234Y698385D01*
X1299939Y699441D01*
X1317048D01*
X1317593Y698897D01*
X1319155Y698250D01*
X1320845D01*
X1322407Y698897D01*
X1323603Y700093D01*
X1324250Y701655D01*
Y703345D01*
X1323603Y704907D01*
X1322407Y706103D01*
X1320845Y706750D01*
X1319155D01*
X1317593Y706103D01*
X1317048Y705559D01*
X1105865D01*
X1105339Y706829D01*
X1106103Y707593D01*
X1106750Y709155D01*
Y710845D01*
X1106733Y710885D01*
X1107439Y711941D01*
X1527048D01*
X1527593Y711397D01*
X1529155Y710750D01*
X1530845D01*
X1532407Y711397D01*
X1533603Y712593D01*
X1534250Y714155D01*
Y715845D01*
X1533603Y717407D01*
X1532407Y718603D01*
X1530845Y719250D01*
X1529155D01*
X1527593Y718603D01*
X1527048Y718059D01*
X1442439D01*
X1441733Y719115D01*
X1441750Y719155D01*
Y720845D01*
X1441103Y722407D01*
X1439907Y723603D01*
X1438345Y724250D01*
X1436655D01*
X1435093Y723603D01*
X1434548Y723059D01*
X1023365D01*
X1022839Y724329D01*
X1023603Y725093D01*
X1024250Y726655D01*
Y728345D01*
X1024233Y728385D01*
X1024939Y729441D01*
X1047048D01*
X1047593Y728897D01*
X1049155Y728250D01*
X1050845D01*
X1052407Y728897D01*
X1053603Y730093D01*
X1054250Y731655D01*
Y733345D01*
X1054233Y733385D01*
X1054939Y734441D01*
X1119548D01*
X1120093Y733897D01*
X1121655Y733250D01*
X1123345D01*
X1124907Y733897D01*
X1126103Y735093D01*
X1126750Y736655D01*
Y738345D01*
X1126103Y739907D01*
X1124907Y741103D01*
X1123345Y741750D01*
X1121655D01*
X1120093Y741103D01*
X1119548Y740559D01*
X1059939D01*
X1059233Y741615D01*
X1059250Y741655D01*
Y743345D01*
X1058603Y744907D01*
X1057407Y746103D01*
X1055845Y746750D01*
X1054155D01*
X1052593Y746103D01*
X1052048Y745559D01*
X915452D01*
X914907Y746103D01*
X913345Y746750D01*
X911655D01*
X910093Y746103D01*
X908897Y744907D01*
X908250Y743345D01*
Y741655D01*
X908267Y741615D01*
X907561Y740559D01*
X507859D01*
Y749432D01*
X509046Y749750D01*
X511554Y751198D01*
X513602Y753246D01*
X515050Y755754D01*
X515800Y758552D01*
Y761448D01*
X515050Y764246D01*
X513602Y766754D01*
X511554Y768802D01*
X509046Y770250D01*
X506248Y771000D01*
D02*
G37*
G36*
X928345Y691750D02*
X926655D01*
X925093Y691103D01*
X924548Y690559D01*
X762952D01*
X762407Y691103D01*
X760845Y691750D01*
X759155D01*
X757593Y691103D01*
X756397Y689907D01*
X755750Y688345D01*
Y686655D01*
X756397Y685093D01*
X757593Y683897D01*
X759155Y683250D01*
X760845D01*
X762407Y683897D01*
X762952Y684441D01*
X924548D01*
X925093Y683897D01*
X926655Y683250D01*
X928345D01*
X929907Y683897D01*
X931103Y685093D01*
X931750Y686655D01*
Y688345D01*
X931103Y689907D01*
X929907Y691103D01*
X928345Y691750D01*
D02*
G37*
G36*
X1015845Y681750D02*
X1014155D01*
X1012593Y681103D01*
X1012048Y680559D01*
X952952D01*
X952407Y681103D01*
X950845Y681750D01*
X949155D01*
X947593Y681103D01*
X946397Y679907D01*
X945750Y678345D01*
Y676655D01*
X946397Y675093D01*
X947593Y673897D01*
X949155Y673250D01*
X950845D01*
X952407Y673897D01*
X952952Y674441D01*
X1012048D01*
X1012593Y673897D01*
X1014155Y673250D01*
X1015845D01*
X1017407Y673897D01*
X1018603Y675093D01*
X1019250Y676655D01*
Y678345D01*
X1018603Y679907D01*
X1017407Y681103D01*
X1015845Y681750D01*
D02*
G37*
G36*
X51266Y689620D02*
X48734D01*
X46287Y688964D01*
X44093Y687698D01*
X42302Y685907D01*
X41036Y683713D01*
X40380Y681266D01*
Y678734D01*
X41036Y676287D01*
X42302Y674093D01*
X44093Y672302D01*
X46287Y671036D01*
X48734Y670380D01*
X51266D01*
X53713Y671036D01*
X55907Y672302D01*
X57698Y674093D01*
X58964Y676287D01*
X59212Y677211D01*
X242120D01*
X242394Y676937D01*
X243957Y676290D01*
X245647D01*
X247209Y676937D01*
X248405Y678132D01*
X249052Y679694D01*
Y681385D01*
X248405Y682947D01*
X247209Y684143D01*
X245647Y684790D01*
X243957D01*
X242394Y684143D01*
X241580Y683329D01*
X59067D01*
X58964Y683713D01*
X57698Y685907D01*
X55907Y687698D01*
X53713Y688964D01*
X51266Y689620D01*
D02*
G37*
G36*
X1751119Y679040D02*
X1750870D01*
Y668770D01*
X1761140D01*
Y669019D01*
X1760354Y671954D01*
X1758834Y674586D01*
X1756686Y676734D01*
X1754054Y678254D01*
X1751119Y679040D01*
D02*
G37*
G36*
X1748330D02*
X1748081D01*
X1745146Y678254D01*
X1742514Y676734D01*
X1740366Y674586D01*
X1738846Y671954D01*
X1738060Y669019D01*
Y668770D01*
X1748330D01*
Y679040D01*
D02*
G37*
G36*
X1028345Y666750D02*
X1026655D01*
X1025093Y666103D01*
X1023897Y664907D01*
X1023250Y663345D01*
Y661655D01*
X1023897Y660093D01*
X1025093Y658897D01*
X1026655Y658250D01*
X1028345D01*
X1029907Y658897D01*
X1031103Y660093D01*
X1031750Y661655D01*
Y663345D01*
X1031103Y664907D01*
X1029907Y666103D01*
X1028345Y666750D01*
D02*
G37*
G36*
X1776448Y678500D02*
X1773552D01*
X1770754Y677750D01*
X1768246Y676302D01*
X1766198Y674254D01*
X1764750Y671746D01*
X1764000Y668948D01*
Y666052D01*
X1764750Y663254D01*
X1766198Y660746D01*
X1768246Y658698D01*
X1770754Y657250D01*
X1773552Y656500D01*
X1776448D01*
X1779246Y657250D01*
X1781754Y658698D01*
X1783802Y660746D01*
X1785250Y663254D01*
X1786000Y666052D01*
Y668948D01*
X1785250Y671746D01*
X1783802Y674254D01*
X1781754Y676302D01*
X1779246Y677750D01*
X1776448Y678500D01*
D02*
G37*
G36*
X1775000Y702088D02*
X1517500D01*
X1515744Y701739D01*
X1514256Y700744D01*
X1513261Y699256D01*
X1512912Y697500D01*
X1513261Y695744D01*
X1514256Y694256D01*
X1515744Y693261D01*
X1517500Y692912D01*
X1548641D01*
X1548894Y691642D01*
X1547593Y691103D01*
X1546397Y689907D01*
X1545750Y688345D01*
Y686655D01*
X1546397Y685093D01*
X1547593Y683897D01*
X1549155Y683250D01*
X1550845D01*
X1552407Y683897D01*
X1552952Y684441D01*
X1721141D01*
Y678500D01*
X1713200D01*
Y656500D01*
X1735200D01*
Y678500D01*
X1727259D01*
Y685800D01*
X1727259Y685800D01*
X1727026Y686971D01*
X1726363Y687963D01*
X1724663Y689663D01*
X1723671Y690326D01*
X1722500Y690559D01*
X1722500Y690559D01*
X1552952D01*
X1552407Y691103D01*
X1551106Y691642D01*
X1551359Y692912D01*
X1775000D01*
X1776756Y693261D01*
X1778244Y694256D01*
X1779239Y695744D01*
X1779588Y697500D01*
X1779239Y699256D01*
X1778244Y700744D01*
X1776756Y701739D01*
X1775000Y702088D01*
D02*
G37*
G36*
X1761140Y666230D02*
X1750870D01*
Y655960D01*
X1751119D01*
X1754054Y656747D01*
X1756686Y658266D01*
X1758834Y660414D01*
X1760354Y663046D01*
X1761140Y665981D01*
Y666230D01*
D02*
G37*
G36*
X1748330D02*
X1738060D01*
Y665981D01*
X1738846Y663046D01*
X1740366Y660414D01*
X1742514Y658266D01*
X1745146Y656747D01*
X1748081Y655960D01*
X1748330D01*
Y666230D01*
D02*
G37*
G36*
X913345Y646750D02*
X911655D01*
X910093Y646103D01*
X909548Y645559D01*
X900452D01*
X899907Y646103D01*
X898345Y646750D01*
X896655D01*
X895093Y646103D01*
X893897Y644907D01*
X893250Y643345D01*
Y641655D01*
X893897Y640093D01*
X895093Y638897D01*
X896655Y638250D01*
X898345D01*
X899907Y638897D01*
X900452Y639441D01*
X909548D01*
X910093Y638897D01*
X911655Y638250D01*
X913345D01*
X914907Y638897D01*
X916103Y640093D01*
X916750Y641655D01*
Y643345D01*
X916103Y644907D01*
X914907Y646103D01*
X913345Y646750D01*
D02*
G37*
G36*
X950845Y664250D02*
X949155D01*
X947593Y663603D01*
X946397Y662407D01*
X945750Y660845D01*
Y659155D01*
X946397Y657593D01*
X947593Y656397D01*
X949155Y655750D01*
X949924D01*
X951941Y653733D01*
Y647671D01*
X951489Y647191D01*
X950853Y646755D01*
X950796Y646750D01*
X949155D01*
X947593Y646103D01*
X946397Y644907D01*
X945750Y643345D01*
Y641655D01*
X946397Y640093D01*
X947593Y638897D01*
X949155Y638250D01*
X949924D01*
X953942Y634232D01*
X953456Y633059D01*
X240452D01*
X239907Y633603D01*
X238345Y634250D01*
X236655D01*
X235093Y633603D01*
X233897Y632407D01*
X233250Y630845D01*
Y629155D01*
X233267Y629115D01*
X232561Y628059D01*
X165452D01*
X164907Y628603D01*
X163345Y629250D01*
X161655D01*
X160093Y628603D01*
X158897Y627407D01*
X158250Y625845D01*
Y624155D01*
X158897Y622593D01*
X160093Y621397D01*
X161655Y620750D01*
X163345D01*
X164907Y621397D01*
X165452Y621941D01*
X170061D01*
X170767Y620885D01*
X170750Y620845D01*
Y619155D01*
X171397Y617593D01*
X172593Y616397D01*
X174155Y615750D01*
X175845D01*
X177407Y616397D01*
X177952Y616941D01*
X852561D01*
X853267Y615885D01*
X853250Y615845D01*
Y614155D01*
X853897Y612593D01*
X855093Y611397D01*
X856655Y610750D01*
X858345D01*
X859907Y611397D01*
X860452Y611941D01*
X912561D01*
X913267Y610885D01*
X913250Y610845D01*
Y609155D01*
X913897Y607593D01*
X914661Y606829D01*
X914135Y605559D01*
X430452D01*
X429907Y606103D01*
X428345Y606750D01*
X426655D01*
X425093Y606103D01*
X423897Y604907D01*
X423250Y603345D01*
Y601655D01*
X423897Y600093D01*
X425093Y598897D01*
X426655Y598250D01*
X428345D01*
X429907Y598897D01*
X430452Y599441D01*
X449307D01*
X450156Y598171D01*
X450020Y597845D01*
Y596154D01*
X450667Y594592D01*
X451863Y593396D01*
X453425Y592749D01*
X455116D01*
X456678Y593396D01*
X457472Y594191D01*
X932299D01*
X932593Y593897D01*
X934155Y593250D01*
X935845D01*
X937407Y593897D01*
X938603Y595093D01*
X939250Y596655D01*
Y598250D01*
X940845D01*
X942407Y598897D01*
X943603Y600093D01*
X944250Y601655D01*
Y603345D01*
X943740Y604577D01*
X943852Y604893D01*
X944259Y605508D01*
X944524Y605750D01*
X945845D01*
X947407Y606397D01*
X948603Y607593D01*
X949250Y609155D01*
Y610845D01*
X949233Y610885D01*
X949939Y611941D01*
X972048D01*
X972593Y611397D01*
X974155Y610750D01*
X975845D01*
X977407Y611397D01*
X978603Y612593D01*
X979250Y614155D01*
Y615845D01*
X978603Y617407D01*
X977407Y618603D01*
X975845Y619250D01*
X974155D01*
X972593Y618603D01*
X972048Y618059D01*
X969939D01*
X969233Y619115D01*
X969250Y619155D01*
Y620750D01*
X970845D01*
X972407Y621397D01*
X973603Y622593D01*
X974250Y624155D01*
Y625845D01*
X973603Y627407D01*
X972407Y628603D01*
X970845Y629250D01*
X969155D01*
X967593Y628603D01*
X967048Y628059D01*
X964939D01*
X964233Y629115D01*
X964250Y629155D01*
Y630845D01*
X964233Y630885D01*
X964939Y631941D01*
X1000061D01*
X1000767Y630885D01*
X1000750Y630845D01*
Y629155D01*
X1001397Y627593D01*
X1002593Y626397D01*
X1004155Y625750D01*
X1005845D01*
X1007407Y626397D01*
X1007952Y626941D01*
X1011478D01*
X1012077Y626045D01*
Y625114D01*
X1010852Y624247D01*
X1010845Y624250D01*
X1009155D01*
X1007593Y623603D01*
X1006397Y622407D01*
X1005750Y620845D01*
Y619250D01*
X1004155D01*
X1002593Y618603D01*
X1001397Y617407D01*
X1000750Y615845D01*
Y614155D01*
X1001397Y612593D01*
X1002593Y611397D01*
X1004155Y610750D01*
X1005750D01*
Y609155D01*
X1006397Y607593D01*
X1007593Y606397D01*
X1009155Y605750D01*
X1010750D01*
Y604155D01*
X1011397Y602593D01*
X1012593Y601397D01*
X1014155Y600750D01*
X1015750D01*
Y599155D01*
X1016397Y597593D01*
X1017593Y596397D01*
X1019155Y595750D01*
X1020845D01*
X1022407Y596397D01*
X1023185Y597174D01*
X1045157D01*
X1045863Y596118D01*
X1045750Y595845D01*
Y594155D01*
X1046397Y592593D01*
X1047593Y591397D01*
X1049155Y590750D01*
X1050845D01*
X1052407Y591397D01*
X1052952Y591941D01*
X1532048D01*
X1532593Y591397D01*
X1534155Y590750D01*
X1535845D01*
X1537407Y591397D01*
X1538603Y592593D01*
X1539250Y594155D01*
Y595845D01*
X1538603Y597407D01*
X1537407Y598603D01*
X1535845Y599250D01*
X1534155D01*
X1532593Y598603D01*
X1532048Y598059D01*
X1147689D01*
X1146984Y599115D01*
X1147193Y599621D01*
Y601311D01*
X1147614Y601941D01*
X1164548D01*
X1165093Y601397D01*
X1166655Y600750D01*
X1168345D01*
X1169907Y601397D01*
X1171103Y602593D01*
X1171750Y604155D01*
Y605845D01*
X1171733Y605885D01*
X1172439Y606941D01*
X1189548D01*
X1190093Y606397D01*
X1191655Y605750D01*
X1193345D01*
X1194907Y606397D01*
X1196103Y607593D01*
X1196750Y609155D01*
Y610845D01*
X1196733Y610885D01*
X1197439Y611941D01*
X1214548D01*
X1215093Y611397D01*
X1216655Y610750D01*
X1218345D01*
X1219907Y611397D01*
X1221103Y612593D01*
X1221750Y614155D01*
Y615845D01*
X1221103Y617407D01*
X1219907Y618603D01*
X1218345Y619250D01*
X1216655D01*
X1215093Y618603D01*
X1214548Y618059D01*
X1039939D01*
X1039233Y619115D01*
X1039250Y619155D01*
Y620845D01*
X1038603Y622407D01*
X1037407Y623603D01*
X1035845Y624250D01*
X1034155D01*
X1032593Y623603D01*
X1032048Y623059D01*
X1021184D01*
X1020478Y624115D01*
X1020577Y624354D01*
Y626045D01*
X1021177Y626941D01*
X1032048D01*
X1032593Y626397D01*
X1034155Y625750D01*
X1035845D01*
X1037407Y626397D01*
X1038603Y627593D01*
X1039250Y629155D01*
Y630845D01*
X1038603Y632407D01*
X1037407Y633603D01*
X1035845Y634250D01*
X1034155D01*
X1032593Y633603D01*
X1032048Y633059D01*
X1014939D01*
X1014233Y634115D01*
X1014250Y634155D01*
Y635750D01*
X1015845D01*
X1017407Y636397D01*
X1017942Y636931D01*
X1022038D01*
X1022593Y636377D01*
X1024155Y635730D01*
X1025845D01*
X1027407Y636377D01*
X1028603Y637573D01*
X1029250Y639135D01*
Y640476D01*
X1029498Y640747D01*
X1030061Y641126D01*
X1030423Y641260D01*
X1031655Y640750D01*
X1033345D01*
X1034907Y641397D01*
X1036103Y642593D01*
X1036750Y644155D01*
Y645845D01*
X1036103Y647407D01*
X1034907Y648603D01*
X1033345Y649250D01*
X1031655D01*
X1030093Y648603D01*
X1028897Y647407D01*
X1028250Y645845D01*
Y644504D01*
X1028002Y644233D01*
X1027439Y643854D01*
X1027077Y643720D01*
X1025845Y644230D01*
X1024155D01*
X1022593Y643583D01*
X1022058Y643049D01*
X1017962D01*
X1017407Y643603D01*
X1015845Y644250D01*
X1014155D01*
X1012593Y643603D01*
X1011397Y642407D01*
X1010750Y640845D01*
Y639250D01*
X1009250D01*
Y640845D01*
X1008603Y642407D01*
X1007407Y643603D01*
X1005845Y644250D01*
X1004155D01*
X1002593Y643603D01*
X1002048Y643059D01*
X963767D01*
X958059Y648767D01*
Y655000D01*
X958059Y655000D01*
X957826Y656171D01*
X957163Y657163D01*
X954250Y660076D01*
Y660845D01*
X953603Y662407D01*
X952407Y663603D01*
X950845Y664250D01*
D02*
G37*
G36*
X51266Y664620D02*
X48734D01*
X46287Y663964D01*
X44093Y662698D01*
X42302Y660907D01*
X41036Y658713D01*
X40380Y656266D01*
Y653734D01*
X41036Y651287D01*
X42302Y649093D01*
X44093Y647302D01*
X46287Y646036D01*
X48734Y645380D01*
X51266D01*
X53713Y646036D01*
X54300Y646374D01*
X60337Y640337D01*
X61329Y639674D01*
X62500Y639441D01*
X62500Y639441D01*
X109548D01*
X110093Y638897D01*
X111655Y638250D01*
X113345D01*
X114907Y638897D01*
X116103Y640093D01*
X116750Y641655D01*
Y643345D01*
X116103Y644907D01*
X114907Y646103D01*
X113345Y646750D01*
X111655D01*
X110093Y646103D01*
X109548Y645559D01*
X63767D01*
X58626Y650700D01*
X58964Y651287D01*
X59620Y653734D01*
Y656266D01*
X58964Y658713D01*
X57698Y660907D01*
X55907Y662698D01*
X53713Y663964D01*
X51266Y664620D01*
D02*
G37*
G36*
X1601674Y672000D02*
X1598326D01*
X1595041Y671347D01*
X1591947Y670065D01*
X1589163Y668205D01*
X1586795Y665837D01*
X1584935Y663053D01*
X1583653Y659959D01*
X1583000Y656674D01*
Y653326D01*
X1583653Y650041D01*
X1584935Y646947D01*
X1586795Y644163D01*
X1589163Y641795D01*
X1591947Y639935D01*
X1595041Y638653D01*
X1598326Y638000D01*
X1601674D01*
X1604959Y638653D01*
X1608053Y639935D01*
X1610837Y641795D01*
X1613205Y644163D01*
X1615065Y646947D01*
X1616347Y650041D01*
X1617000Y653326D01*
Y656674D01*
X1616347Y659959D01*
X1615065Y663053D01*
X1613205Y665837D01*
X1610837Y668205D01*
X1608053Y670065D01*
X1604959Y671347D01*
X1601674Y672000D01*
D02*
G37*
G36*
X1245274D02*
X1241926D01*
X1238641Y671347D01*
X1235547Y670065D01*
X1232763Y668205D01*
X1230395Y665837D01*
X1228535Y663053D01*
X1227253Y659959D01*
X1226600Y656674D01*
Y653326D01*
X1227253Y650041D01*
X1228535Y646947D01*
X1230395Y644163D01*
X1232763Y641795D01*
X1235547Y639935D01*
X1238641Y638653D01*
X1241926Y638000D01*
X1245274D01*
X1248559Y638653D01*
X1251653Y639935D01*
X1254437Y641795D01*
X1256805Y644163D01*
X1258665Y646947D01*
X1259947Y650041D01*
X1260600Y653326D01*
Y656674D01*
X1259947Y659959D01*
X1258665Y663053D01*
X1256805Y665837D01*
X1254437Y668205D01*
X1251653Y670065D01*
X1248559Y671347D01*
X1245274Y672000D01*
D02*
G37*
G36*
X1610845Y619250D02*
X1609155D01*
X1607593Y618603D01*
X1607048Y618059D01*
X1577952D01*
X1577407Y618603D01*
X1575845Y619250D01*
X1574155D01*
X1572593Y618603D01*
X1571397Y617407D01*
X1570750Y615845D01*
Y614250D01*
X1569155D01*
X1567593Y613603D01*
X1566397Y612407D01*
X1565750Y610845D01*
Y609155D01*
X1566397Y607593D01*
X1567593Y606397D01*
X1569155Y605750D01*
X1570845D01*
X1572407Y606397D01*
X1572952Y606941D01*
X1587048D01*
X1587593Y606397D01*
X1589155Y605750D01*
X1590845D01*
X1592407Y606397D01*
X1593603Y607593D01*
X1594250Y609155D01*
Y610845D01*
X1594234Y610885D01*
X1594939Y611941D01*
X1607048D01*
X1607593Y611397D01*
X1609155Y610750D01*
X1610845D01*
X1612407Y611397D01*
X1613603Y612593D01*
X1614250Y614155D01*
Y615845D01*
X1613603Y617407D01*
X1612407Y618603D01*
X1610845Y619250D01*
D02*
G37*
G36*
X51266Y639620D02*
X48734D01*
X46287Y638964D01*
X44093Y637698D01*
X42302Y635907D01*
X41036Y633713D01*
X40380Y631267D01*
Y628733D01*
X41036Y626287D01*
X42302Y624093D01*
X44093Y622302D01*
X46287Y621036D01*
X48734Y620380D01*
X51266D01*
X53713Y621036D01*
X54300Y621374D01*
X60337Y615337D01*
X61329Y614674D01*
X62500Y614441D01*
X62500Y614441D01*
X104548D01*
X105093Y613897D01*
X106655Y613250D01*
X108345D01*
X109907Y613897D01*
X111103Y615093D01*
X111750Y616655D01*
Y618345D01*
X111103Y619907D01*
X109907Y621103D01*
X108345Y621750D01*
X106655D01*
X105093Y621103D01*
X104548Y620559D01*
X63767D01*
X58626Y625700D01*
X58964Y626287D01*
X59620Y628733D01*
Y631267D01*
X58964Y633713D01*
X57698Y635907D01*
X55907Y637698D01*
X53713Y638964D01*
X51266Y639620D01*
D02*
G37*
G36*
X1735845Y619250D02*
X1734155D01*
X1732593Y618603D01*
X1731397Y617407D01*
X1730750Y615845D01*
Y614155D01*
X1731397Y612593D01*
X1732593Y611397D01*
X1734155Y610750D01*
X1735845D01*
X1737407Y611397D01*
X1738603Y612593D01*
X1739250Y614155D01*
Y615845D01*
X1738603Y617407D01*
X1737407Y618603D01*
X1735845Y619250D01*
D02*
G37*
G36*
X51266Y614620D02*
X48734D01*
X46287Y613964D01*
X44093Y612698D01*
X42302Y610907D01*
X41036Y608713D01*
X40380Y606267D01*
Y603733D01*
X41036Y601287D01*
X42302Y599093D01*
X44093Y597302D01*
X46287Y596036D01*
X48734Y595380D01*
X51266D01*
X53713Y596036D01*
X55907Y597302D01*
X57698Y599093D01*
X58964Y601287D01*
X59140Y601941D01*
X159548D01*
X160093Y601397D01*
X161655Y600750D01*
X163345D01*
X164907Y601397D01*
X166103Y602593D01*
X166750Y604155D01*
Y605845D01*
X166103Y607407D01*
X164907Y608603D01*
X163345Y609250D01*
X161655D01*
X160093Y608603D01*
X159548Y608059D01*
X59140D01*
X58964Y608713D01*
X57698Y610907D01*
X55907Y612698D01*
X53713Y613964D01*
X51266Y614620D01*
D02*
G37*
G36*
X1735845Y601750D02*
X1734155D01*
X1732593Y601103D01*
X1731397Y599907D01*
X1730750Y598345D01*
Y596655D01*
X1731397Y595093D01*
X1732593Y593897D01*
X1734155Y593250D01*
X1735845D01*
X1737407Y593897D01*
X1738603Y595093D01*
X1739250Y596655D01*
Y598345D01*
X1738603Y599907D01*
X1737407Y601103D01*
X1735845Y601750D01*
D02*
G37*
G36*
X1660845Y599250D02*
X1659155D01*
X1657593Y598603D01*
X1656397Y597407D01*
X1655750Y595845D01*
Y594155D01*
X1656397Y592593D01*
X1657593Y591397D01*
X1659155Y590750D01*
X1660845D01*
X1662407Y591397D01*
X1663603Y592593D01*
X1664250Y594155D01*
Y595845D01*
X1663603Y597407D01*
X1662407Y598603D01*
X1660845Y599250D01*
D02*
G37*
G36*
X1705845Y586750D02*
X1704155D01*
X1702593Y586103D01*
X1702048Y585559D01*
X1662952D01*
X1662407Y586103D01*
X1660845Y586750D01*
X1659155D01*
X1657593Y586103D01*
X1656397Y584907D01*
X1655750Y583345D01*
Y581655D01*
X1656397Y580093D01*
X1657593Y578897D01*
X1659155Y578250D01*
X1660750D01*
Y576655D01*
X1661397Y575093D01*
X1662593Y573897D01*
X1664155Y573250D01*
X1665845D01*
X1667407Y573897D01*
X1667952Y574441D01*
X1692048D01*
X1692593Y573897D01*
X1694155Y573250D01*
X1695845D01*
X1697407Y573897D01*
X1698603Y575093D01*
X1699250Y576655D01*
Y578345D01*
X1699233Y578385D01*
X1699939Y579441D01*
X1702048D01*
X1702593Y578897D01*
X1704155Y578250D01*
X1705845D01*
X1707407Y578897D01*
X1708603Y580093D01*
X1709250Y581655D01*
Y583345D01*
X1708603Y584907D01*
X1707407Y586103D01*
X1705845Y586750D01*
D02*
G37*
G36*
X920845Y591750D02*
X919155D01*
X917593Y591103D01*
X916397Y589907D01*
X915750Y588345D01*
Y586655D01*
X916397Y585093D01*
X916910Y584580D01*
X917198Y584167D01*
X916635Y583059D01*
X883767D01*
X882163Y584663D01*
X881171Y585326D01*
X880000Y585559D01*
X880000Y585559D01*
X865452D01*
X864907Y586103D01*
X863345Y586750D01*
X861655D01*
X860093Y586103D01*
X858897Y584907D01*
X858250Y583345D01*
Y581655D01*
X858897Y580093D01*
X860093Y578897D01*
X861655Y578250D01*
X863250D01*
Y576655D01*
X863267Y576615D01*
X862561Y575559D01*
X827439D01*
X826733Y576615D01*
X826750Y576655D01*
Y578345D01*
X826103Y579907D01*
X824907Y581103D01*
X823345Y581750D01*
X821655D01*
X820093Y581103D01*
X818897Y579907D01*
X818250Y578345D01*
Y576655D01*
X818267Y576615D01*
X817561Y575559D01*
X482952D01*
X482407Y576103D01*
X480845Y576750D01*
X479155D01*
X477593Y576103D01*
X476397Y574907D01*
X475750Y573345D01*
Y571655D01*
X476397Y570093D01*
X477593Y568897D01*
X479155Y568250D01*
X480845D01*
X482407Y568897D01*
X482952Y569441D01*
X500061D01*
X500766Y568385D01*
X500750Y568345D01*
Y566655D01*
X501397Y565093D01*
X502593Y563897D01*
X504155Y563250D01*
X505845D01*
X507407Y563897D01*
X507952Y564441D01*
X525061D01*
X525767Y563385D01*
X525750Y563345D01*
Y561655D01*
X526397Y560093D01*
X527593Y558897D01*
X529155Y558250D01*
X530845D01*
X532407Y558897D01*
X532952Y559441D01*
X550061D01*
X550766Y558385D01*
X550750Y558345D01*
Y556655D01*
X551397Y555093D01*
X552593Y553897D01*
X554155Y553250D01*
X555845D01*
X557407Y553897D01*
X557952Y554441D01*
X575061D01*
X575766Y553385D01*
X575750Y553345D01*
Y551655D01*
X576397Y550093D01*
X577593Y548897D01*
X579155Y548250D01*
X580845D01*
X582407Y548897D01*
X582952Y549441D01*
X852561D01*
X853267Y548385D01*
X853250Y548345D01*
Y546655D01*
X852671Y545789D01*
X850369D01*
Y532829D01*
X849829D01*
Y527059D01*
X864909D01*
Y532829D01*
X864369D01*
Y545789D01*
X863397D01*
X862476Y546849D01*
X863232Y547264D01*
X863656Y547290D01*
X863829Y547174D01*
X865000Y546941D01*
X873279D01*
X873984Y545885D01*
X873878Y545628D01*
Y543937D01*
X874525Y542375D01*
X875720Y541180D01*
X877282Y540533D01*
X878973D01*
X880535Y541180D01*
X881188Y541833D01*
X885090D01*
X885750Y540845D01*
Y539155D01*
X885767Y539115D01*
X885061Y538059D01*
X872952D01*
X872407Y538603D01*
X870845Y539250D01*
X869155D01*
X867593Y538603D01*
X866397Y537407D01*
X865750Y535845D01*
Y534155D01*
X866397Y532593D01*
X867593Y531397D01*
X869155Y530750D01*
X870845D01*
X872407Y531397D01*
X872952Y531941D01*
X894548D01*
X895093Y531397D01*
X896655Y530750D01*
X898345D01*
X899907Y531397D01*
X901103Y532593D01*
X901750Y534155D01*
Y535845D01*
X901103Y537407D01*
X899907Y538603D01*
X898345Y539250D01*
X896655D01*
X895423Y538740D01*
X895107Y538852D01*
X894492Y539259D01*
X894250Y539524D01*
Y540845D01*
X894910Y541833D01*
X1037157D01*
X1037593Y541397D01*
X1039155Y540750D01*
X1040845D01*
X1042407Y541397D01*
X1043603Y542593D01*
X1044250Y544155D01*
Y545845D01*
X1043603Y547407D01*
X1042407Y548603D01*
X1040845Y549250D01*
X1039155D01*
X1037593Y548603D01*
X1036940Y547950D01*
X902394D01*
X901688Y549006D01*
X901750Y549155D01*
Y550845D01*
X901103Y552407D01*
X899907Y553603D01*
X898345Y554250D01*
X896750D01*
Y555845D01*
X896103Y557407D01*
X894907Y558603D01*
X893345Y559250D01*
X891750D01*
Y560845D01*
X891103Y562407D01*
X889907Y563603D01*
X888345Y564250D01*
X886750D01*
Y565845D01*
X886103Y567407D01*
X884907Y568603D01*
X883345Y569250D01*
X881750D01*
Y570845D01*
X881733Y570885D01*
X882439Y571941D01*
X962048D01*
X962593Y571397D01*
X964155Y570750D01*
X965845D01*
X967407Y571397D01*
X968603Y572593D01*
X969250Y574155D01*
Y575845D01*
X968603Y577407D01*
X967407Y578603D01*
X965845Y579250D01*
X964155D01*
X962593Y578603D01*
X962048Y578059D01*
X924939D01*
X924233Y579115D01*
X924250Y579155D01*
Y580845D01*
X923603Y582407D01*
X923090Y582920D01*
X922510Y583750D01*
X923090Y584580D01*
X923603Y585093D01*
X924250Y586655D01*
Y588345D01*
X923603Y589907D01*
X922407Y591103D01*
X920845Y591750D01*
D02*
G37*
G36*
X51338Y590160D02*
X51270D01*
Y581270D01*
X60160D01*
Y581338D01*
X59468Y583922D01*
X58130Y586238D01*
X56238Y588130D01*
X53922Y589468D01*
X51338Y590160D01*
D02*
G37*
G36*
X48730D02*
X48662D01*
X46078Y589468D01*
X43762Y588130D01*
X41870Y586238D01*
X40532Y583922D01*
X39840Y581338D01*
Y581270D01*
X48730D01*
Y590160D01*
D02*
G37*
G36*
X1078345Y581750D02*
X1076655D01*
X1075093Y581103D01*
X1073897Y579907D01*
X1073250Y578345D01*
Y576655D01*
X1073897Y575093D01*
X1075093Y573897D01*
X1076655Y573250D01*
X1078345D01*
X1079907Y573897D01*
X1081103Y575093D01*
X1081750Y576655D01*
Y578345D01*
X1081103Y579907D01*
X1079907Y581103D01*
X1078345Y581750D01*
D02*
G37*
G36*
X60160Y578730D02*
X51270D01*
Y569840D01*
X51338D01*
X53922Y570532D01*
X56238Y571870D01*
X58130Y573762D01*
X59468Y576078D01*
X60160Y578662D01*
Y578730D01*
D02*
G37*
G36*
X48730D02*
X39840D01*
Y578662D01*
X40532Y576078D01*
X41870Y573762D01*
X43762Y571870D01*
X46078Y570532D01*
X48662Y569840D01*
X48730D01*
Y578730D01*
D02*
G37*
G36*
X1525845Y559250D02*
X1524155D01*
X1522593Y558603D01*
X1522048Y558059D01*
X1075452D01*
X1074907Y558603D01*
X1073345Y559250D01*
X1071655D01*
X1070093Y558603D01*
X1068897Y557407D01*
X1068250Y555845D01*
Y554155D01*
X1068897Y552593D01*
X1070093Y551397D01*
X1071655Y550750D01*
X1073250D01*
Y549155D01*
X1073897Y547593D01*
X1075093Y546397D01*
X1076655Y545750D01*
X1078345D01*
X1079907Y546397D01*
X1080452Y546941D01*
X1082561D01*
X1083267Y545885D01*
X1083250Y545845D01*
Y544155D01*
X1083897Y542593D01*
X1085093Y541397D01*
X1086655Y540750D01*
X1088250D01*
Y539155D01*
X1088897Y537593D01*
X1090093Y536397D01*
X1091655Y535750D01*
X1093250D01*
Y534155D01*
X1093897Y532593D01*
X1095093Y531397D01*
X1096655Y530750D01*
X1098250D01*
Y529155D01*
X1098897Y527593D01*
X1100093Y526397D01*
X1101655Y525750D01*
X1103250D01*
Y524250D01*
X1101655D01*
X1100093Y523603D01*
X1098897Y522407D01*
X1098250Y520845D01*
Y519250D01*
X1096655D01*
X1095093Y518603D01*
X1093897Y517407D01*
X1093250Y515845D01*
Y514250D01*
X1091655D01*
X1090093Y513603D01*
X1088897Y512407D01*
X1088250Y510845D01*
Y509250D01*
X1086655D01*
X1085093Y508603D01*
X1083897Y507407D01*
X1083250Y505845D01*
Y504250D01*
X1081655D01*
X1080093Y503603D01*
X1078897Y502407D01*
X1078250Y500845D01*
Y499250D01*
X1076655D01*
X1075093Y498603D01*
X1073897Y497407D01*
X1073250Y495845D01*
Y494250D01*
X1071655D01*
X1070093Y493603D01*
X1068897Y492407D01*
X1068250Y490845D01*
Y489155D01*
X1068897Y487593D01*
X1070093Y486397D01*
X1071655Y485750D01*
X1073345D01*
X1074907Y486397D01*
X1075452Y486941D01*
X1144548D01*
X1145093Y486397D01*
X1146655Y485750D01*
X1148345D01*
X1149907Y486397D01*
X1151103Y487593D01*
X1151750Y489155D01*
Y490845D01*
X1151103Y492407D01*
X1149907Y493603D01*
X1148345Y494250D01*
X1146655D01*
X1145093Y493603D01*
X1144548Y493059D01*
X1142439D01*
X1141733Y494115D01*
X1141750Y494155D01*
Y495845D01*
X1141103Y497407D01*
X1139907Y498603D01*
X1138345Y499250D01*
X1136750D01*
Y500845D01*
X1136103Y502407D01*
X1134907Y503603D01*
X1133345Y504250D01*
X1131750D01*
Y505845D01*
X1131733Y505885D01*
X1132439Y506941D01*
X1367048D01*
X1367593Y506397D01*
X1369155Y505750D01*
X1370845D01*
X1372407Y506397D01*
X1373603Y507593D01*
X1374250Y509155D01*
Y510845D01*
X1374233Y510885D01*
X1374939Y511941D01*
X1494548D01*
X1495093Y511397D01*
X1496655Y510750D01*
X1498345D01*
X1499907Y511397D01*
X1501103Y512593D01*
X1501750Y514155D01*
Y515845D01*
X1501103Y517407D01*
X1499907Y518603D01*
X1498345Y519250D01*
X1496655D01*
X1495093Y518603D01*
X1494548Y518059D01*
X1477439D01*
X1476734Y519115D01*
X1476750Y519155D01*
Y520845D01*
X1476103Y522407D01*
X1474907Y523603D01*
X1473345Y524250D01*
X1471655D01*
X1470093Y523603D01*
X1469548Y523059D01*
X1424939D01*
X1424234Y524115D01*
X1424250Y524155D01*
Y525845D01*
X1423603Y527407D01*
X1422407Y528603D01*
X1420845Y529250D01*
X1419155D01*
X1417593Y528603D01*
X1417048Y528059D01*
X1127439D01*
X1126733Y529115D01*
X1126750Y529155D01*
Y530845D01*
X1126103Y532407D01*
X1124907Y533603D01*
X1123345Y534250D01*
X1121750D01*
Y535845D01*
X1121103Y537407D01*
X1119907Y538603D01*
X1118345Y539250D01*
X1116750D01*
Y540845D01*
X1116103Y542407D01*
X1114907Y543603D01*
X1113345Y544250D01*
X1111750D01*
Y545845D01*
X1111103Y547407D01*
X1109907Y548603D01*
X1108345Y549250D01*
X1106750D01*
Y550845D01*
X1106733Y550885D01*
X1107439Y551941D01*
X1522048D01*
X1522593Y551397D01*
X1524155Y550750D01*
X1525845D01*
X1527407Y551397D01*
X1528603Y552593D01*
X1529250Y554155D01*
Y555845D01*
X1528603Y557407D01*
X1527407Y558603D01*
X1525845Y559250D01*
D02*
G37*
G36*
X1751338Y552660D02*
X1751270D01*
Y543770D01*
X1760160D01*
Y543838D01*
X1759468Y546422D01*
X1758130Y548738D01*
X1756238Y550630D01*
X1753922Y551968D01*
X1751338Y552660D01*
D02*
G37*
G36*
X1748730D02*
X1748662D01*
X1746078Y551968D01*
X1743762Y550630D01*
X1741870Y548738D01*
X1740532Y546422D01*
X1739840Y543838D01*
Y543770D01*
X1748730D01*
Y552660D01*
D02*
G37*
G36*
X1760160Y541230D02*
X1751270D01*
Y532340D01*
X1751338D01*
X1753922Y533032D01*
X1756238Y534370D01*
X1758130Y536262D01*
X1759468Y538578D01*
X1760160Y541162D01*
Y541230D01*
D02*
G37*
G36*
X1748730D02*
X1739840D01*
Y541162D01*
X1740532Y538578D01*
X1741870Y536262D01*
X1743762Y534370D01*
X1746078Y533032D01*
X1748662Y532340D01*
X1748730D01*
Y541230D01*
D02*
G37*
G36*
X218345Y531750D02*
X216655D01*
X215093Y531103D01*
X214548Y530559D01*
X67952D01*
X67407Y531103D01*
X65845Y531750D01*
X64155D01*
X62593Y531103D01*
X61397Y529907D01*
X60750Y528345D01*
Y526655D01*
X61397Y525093D01*
X62593Y523897D01*
X64155Y523250D01*
X65845D01*
X67407Y523897D01*
X67952Y524441D01*
X177729D01*
X178408Y523171D01*
X178333Y523059D01*
X93672D01*
X93672Y523059D01*
X92501Y522826D01*
X91509Y522163D01*
X91509Y522163D01*
X90337Y520991D01*
X89674Y519999D01*
X89441Y518828D01*
X89441Y518828D01*
Y510559D01*
X59620D01*
Y517120D01*
X40380D01*
Y497880D01*
X59620D01*
Y504441D01*
X95750D01*
Y500750D01*
X118750D01*
Y504441D01*
X124548D01*
X125093Y503897D01*
X126655Y503250D01*
X128345D01*
X129907Y503897D01*
X131103Y505093D01*
X131750Y506655D01*
Y508345D01*
X131103Y509907D01*
X129907Y511103D01*
X128345Y511750D01*
X126655D01*
X125093Y511103D01*
X124548Y510559D01*
X118750D01*
Y514250D01*
X95750D01*
X95559Y515441D01*
Y516941D01*
X179548D01*
X180093Y516397D01*
X181655Y515750D01*
X183345D01*
X184907Y516397D01*
X186103Y517593D01*
X186750Y519155D01*
Y520845D01*
X186103Y522407D01*
X185339Y523171D01*
X185865Y524441D01*
X214548D01*
X215093Y523897D01*
X216655Y523250D01*
X218345D01*
X219907Y523897D01*
X221103Y525093D01*
X221750Y526655D01*
Y528345D01*
X221103Y529907D01*
X219907Y531103D01*
X218345Y531750D01*
D02*
G37*
G36*
X864909Y524519D02*
X849829D01*
Y520559D01*
X247952D01*
X247407Y521103D01*
X245845Y521750D01*
X244155D01*
X242593Y521103D01*
X241397Y519907D01*
X240750Y518345D01*
Y516655D01*
X241397Y515093D01*
X242593Y513897D01*
X244155Y513250D01*
X245845D01*
X247407Y513897D01*
X247952Y514441D01*
X865061D01*
X865767Y513385D01*
X865750Y513345D01*
Y511655D01*
X866397Y510093D01*
X867161Y509329D01*
X866635Y508059D01*
X770452D01*
X769907Y508603D01*
X768345Y509250D01*
X766655D01*
X765093Y508603D01*
X763897Y507407D01*
X763250Y505845D01*
Y504155D01*
X763897Y502593D01*
X765093Y501397D01*
X766655Y500750D01*
X768345D01*
X769907Y501397D01*
X770452Y501941D01*
X816635D01*
X817161Y500671D01*
X816397Y499907D01*
X815750Y498345D01*
Y496655D01*
X816397Y495093D01*
X817593Y493897D01*
X819155Y493250D01*
X820845D01*
X822407Y493897D01*
X823603Y495093D01*
X824250Y496655D01*
Y498345D01*
X823603Y499907D01*
X822839Y500671D01*
X823365Y501941D01*
X894548D01*
X895093Y501397D01*
X896655Y500750D01*
X898345D01*
X899907Y501397D01*
X901103Y502593D01*
X901750Y504155D01*
Y505845D01*
X901103Y507407D01*
X899907Y508603D01*
X899202Y508895D01*
X898616Y510066D01*
X898716Y510366D01*
X899250Y511655D01*
Y513345D01*
X898603Y514907D01*
X897407Y516103D01*
X895845Y516750D01*
X894155D01*
X892593Y516103D01*
X892048Y515559D01*
X890865D01*
X890339Y516829D01*
X891103Y517593D01*
X891750Y519155D01*
Y520845D01*
X891103Y522407D01*
X889907Y523603D01*
X888345Y524250D01*
X886655D01*
X885093Y523603D01*
X883897Y522407D01*
X883250Y520845D01*
Y519155D01*
X883897Y517593D01*
X884661Y516829D01*
X884135Y515559D01*
X882439D01*
X881733Y516615D01*
X881750Y516655D01*
Y518345D01*
X881103Y519907D01*
X879907Y521103D01*
X878345Y521750D01*
X876655D01*
X875093Y521103D01*
X874548Y520559D01*
X864909D01*
Y524519D01*
D02*
G37*
G36*
X208345Y514250D02*
X206655D01*
X205093Y513603D01*
X203897Y512407D01*
X203250Y510845D01*
Y509155D01*
X203897Y507593D01*
X205093Y506397D01*
X206655Y505750D01*
X208345D01*
X209907Y506397D01*
X211103Y507593D01*
X211750Y509155D01*
Y510845D01*
X211103Y512407D01*
X209907Y513603D01*
X208345Y514250D01*
D02*
G37*
G36*
X228345Y509250D02*
X226655D01*
X225093Y508603D01*
X223897Y507407D01*
X223250Y505845D01*
Y504155D01*
X223897Y502593D01*
X225093Y501397D01*
X226655Y500750D01*
X228345D01*
X229907Y501397D01*
X231103Y502593D01*
X231750Y504155D01*
Y505845D01*
X231103Y507407D01*
X229907Y508603D01*
X228345Y509250D01*
D02*
G37*
G36*
X165845D02*
X164155D01*
X162593Y508603D01*
X161397Y507407D01*
X160750Y505845D01*
Y504155D01*
X161397Y502593D01*
X162593Y501397D01*
X164155Y500750D01*
X165845D01*
X167407Y501397D01*
X168603Y502593D01*
X169250Y504155D01*
Y505845D01*
X168603Y507407D01*
X167407Y508603D01*
X165845Y509250D01*
D02*
G37*
G36*
X1153345Y484250D02*
X1151655D01*
X1150093Y483603D01*
X1149548Y483059D01*
X1075452D01*
X1074907Y483603D01*
X1073345Y484250D01*
X1071655D01*
X1070093Y483603D01*
X1068897Y482407D01*
X1068250Y480845D01*
Y479155D01*
X1068897Y477593D01*
X1070093Y476397D01*
X1071655Y475750D01*
X1073250D01*
Y474155D01*
X1073897Y472593D01*
X1075093Y471397D01*
X1076655Y470750D01*
X1078250D01*
Y469155D01*
X1078267Y469115D01*
X1077561Y468059D01*
X1027952D01*
X1027407Y468603D01*
X1025845Y469250D01*
X1024155D01*
X1022593Y468603D01*
X1021397Y467407D01*
X1020750Y465845D01*
Y464155D01*
X1021397Y462593D01*
X1022593Y461397D01*
X1024155Y460750D01*
X1025750D01*
Y459155D01*
X1026397Y457593D01*
X1027593Y456397D01*
X1029155Y455750D01*
X1030750D01*
Y454155D01*
X1030767Y454115D01*
X1030061Y453059D01*
X934939D01*
X934233Y454115D01*
X934250Y454155D01*
Y455845D01*
X933603Y457407D01*
X932407Y458603D01*
X930845Y459250D01*
X929155D01*
X927593Y458603D01*
X926397Y457407D01*
X925750Y455845D01*
Y454155D01*
X925767Y454115D01*
X925061Y453059D01*
X878672D01*
X878672Y453059D01*
X877501Y452826D01*
X876829Y452377D01*
X875754Y452780D01*
X875559Y452939D01*
Y456941D01*
X894548D01*
X895093Y456397D01*
X896655Y455750D01*
X898345D01*
X899907Y456397D01*
X901103Y457593D01*
X901750Y459155D01*
Y460845D01*
X901103Y462407D01*
X899907Y463603D01*
X898345Y464250D01*
X896750D01*
Y465845D01*
X896240Y467077D01*
X896352Y467393D01*
X896759Y468008D01*
X897024Y468250D01*
X898345D01*
X899907Y468897D01*
X901103Y470093D01*
X901750Y471655D01*
Y473345D01*
X901103Y474907D01*
X899907Y476103D01*
X898345Y476750D01*
X896750D01*
Y478345D01*
X896103Y479907D01*
X894907Y481103D01*
X893345Y481750D01*
X891655D01*
X890093Y481103D01*
X889548Y480559D01*
X872500D01*
X871329Y480326D01*
X870337Y479663D01*
X870337Y479663D01*
X868299Y477625D01*
X867636Y476633D01*
X867516Y476026D01*
X866397Y474907D01*
X865750Y473345D01*
X864500Y473394D01*
Y476750D01*
X862024D01*
X861831Y476927D01*
X861280Y478020D01*
X861750Y479155D01*
Y480845D01*
X861103Y482407D01*
X859907Y483603D01*
X858345Y484250D01*
X856655D01*
X855093Y483603D01*
X853897Y482407D01*
X853250Y480845D01*
Y479155D01*
X853720Y478020D01*
X853169Y476927D01*
X852976Y476750D01*
X850500D01*
Y463790D01*
X849960D01*
Y458020D01*
X857500D01*
Y455480D01*
X849960D01*
Y450559D01*
X125452D01*
X124907Y451103D01*
X123345Y451750D01*
X121655D01*
X120560Y451297D01*
X119290Y451960D01*
Y456230D01*
X113770D01*
Y450210D01*
X117648D01*
X118496Y448940D01*
X118250Y448345D01*
Y446750D01*
X116655D01*
X115093Y446103D01*
X113897Y444907D01*
X113250Y443345D01*
Y441655D01*
X113897Y440093D01*
X115093Y438897D01*
X116655Y438250D01*
X118345D01*
X119907Y438897D01*
X120452Y439441D01*
X755061D01*
X755767Y438385D01*
X755750Y438345D01*
Y436655D01*
X755767Y436615D01*
X755061Y435559D01*
X135452D01*
X134907Y436103D01*
X133345Y436750D01*
X131655D01*
X130093Y436103D01*
X128897Y434907D01*
X128250Y433345D01*
Y431750D01*
X126655D01*
X125093Y431103D01*
X123897Y429907D01*
X123250Y428345D01*
Y426655D01*
X123897Y425093D01*
X125093Y423897D01*
X126655Y423250D01*
X128345D01*
X129907Y423897D01*
X130452Y424441D01*
X603401D01*
X603921Y423663D01*
Y421973D01*
X604568Y420410D01*
X605764Y419215D01*
X607326Y418568D01*
X609016D01*
X610578Y419215D01*
X610964Y419600D01*
X625127D01*
X625832Y418544D01*
X625750Y418345D01*
Y416655D01*
X626397Y415093D01*
X627593Y413897D01*
X629155Y413250D01*
X630845D01*
X632407Y413897D01*
X632952Y414441D01*
X652561D01*
X653267Y413385D01*
X653250Y413345D01*
Y411655D01*
X653897Y410093D01*
X655093Y408897D01*
X656655Y408250D01*
X658345D01*
X659907Y408897D01*
X660452Y409441D01*
X677561D01*
X678267Y408385D01*
X678250Y408345D01*
Y406655D01*
X678897Y405093D01*
X680093Y403897D01*
X681655Y403250D01*
X683345D01*
X684907Y403897D01*
X685452Y404441D01*
X705061D01*
X705767Y403385D01*
X705750Y403345D01*
Y401655D01*
X706397Y400093D01*
X707593Y398897D01*
X709155Y398250D01*
X710845D01*
X712407Y398897D01*
X712952Y399441D01*
X727561D01*
X728267Y398385D01*
X728250Y398345D01*
Y396655D01*
X728897Y395093D01*
X730093Y393897D01*
X731655Y393250D01*
X733345D01*
X734907Y393897D01*
X735452Y394441D01*
X755061D01*
X755767Y393385D01*
X755750Y393345D01*
Y391655D01*
X756397Y390093D01*
X757593Y388897D01*
X759155Y388250D01*
X760845D01*
X762407Y388897D01*
X762952Y389441D01*
X780061D01*
X780767Y388385D01*
X780750Y388345D01*
Y386655D01*
X781397Y385093D01*
X782593Y383897D01*
X784155Y383250D01*
X785845D01*
X787407Y383897D01*
X787952Y384441D01*
X805061D01*
X805767Y383385D01*
X805750Y383345D01*
Y381655D01*
X805767Y381615D01*
X805061Y380559D01*
X477952D01*
X477407Y381103D01*
X475845Y381750D01*
X474155D01*
X472593Y381103D01*
X471397Y379907D01*
X470750Y378345D01*
Y376655D01*
X470766Y376615D01*
X470061Y375559D01*
X462952D01*
X462407Y376103D01*
X460845Y376750D01*
X459155D01*
X457593Y376103D01*
X456397Y374907D01*
X455750Y373345D01*
Y371655D01*
X455766Y371615D01*
X455061Y370559D01*
X435452D01*
X434907Y371103D01*
X433345Y371750D01*
X431655D01*
X430093Y371103D01*
X428897Y369907D01*
X428250Y368345D01*
Y366655D01*
X428897Y365093D01*
X430093Y363897D01*
X431655Y363250D01*
X433345D01*
X434907Y363897D01*
X435452Y364441D01*
X735061D01*
X735767Y363385D01*
X735750Y363345D01*
Y361655D01*
X735779Y361584D01*
X735074Y360527D01*
X280774D01*
X280261Y361040D01*
X278699Y361688D01*
X277008D01*
X275446Y361040D01*
X274251Y359845D01*
X273604Y358283D01*
Y356592D01*
X274251Y355030D01*
X275446Y353835D01*
X277008Y353188D01*
X278699D01*
X280261Y353835D01*
X280836Y354410D01*
X297548D01*
X298254Y353354D01*
X298250Y353345D01*
Y351655D01*
X298267Y351615D01*
X297561Y350559D01*
X115452D01*
X114907Y351103D01*
X113345Y351750D01*
X111655D01*
X110093Y351103D01*
X108897Y349907D01*
X108250Y348345D01*
Y346750D01*
X106655D01*
X105093Y346103D01*
X103897Y344907D01*
X103250Y343345D01*
Y341655D01*
X103897Y340093D01*
X105093Y338897D01*
X106655Y338250D01*
X108345D01*
X109907Y338897D01*
X110452Y339441D01*
X877561D01*
X878267Y338385D01*
X878250Y338345D01*
Y336655D01*
X878897Y335093D01*
X880093Y333897D01*
X881655Y333250D01*
X883345D01*
X884907Y333897D01*
X885452Y334441D01*
X930061D01*
X930767Y333385D01*
X930750Y333345D01*
Y331655D01*
X930767Y331615D01*
X930061Y330559D01*
X895452D01*
X894907Y331103D01*
X893345Y331750D01*
X891655D01*
X890093Y331103D01*
X888897Y329907D01*
X888250Y328345D01*
Y326655D01*
X888897Y325093D01*
X890093Y323897D01*
X891655Y323250D01*
X893250D01*
Y321655D01*
X893897Y320093D01*
X895093Y318897D01*
X896655Y318250D01*
X898345D01*
X899907Y318897D01*
X900452Y319441D01*
X1607048D01*
X1607593Y318897D01*
X1609155Y318250D01*
X1610845D01*
X1612407Y318897D01*
X1613603Y320093D01*
X1614250Y321655D01*
Y323345D01*
X1613603Y324907D01*
X1612407Y326103D01*
X1610845Y326750D01*
X1609155D01*
X1607593Y326103D01*
X1607048Y325559D01*
X1594939D01*
X1594233Y326615D01*
X1594250Y326655D01*
Y328345D01*
X1594234Y328385D01*
X1594939Y329441D01*
X1647048D01*
X1647593Y328897D01*
X1649155Y328250D01*
X1650845D01*
X1652407Y328897D01*
X1653603Y330093D01*
X1654250Y331655D01*
Y333345D01*
X1654233Y333385D01*
X1654939Y334441D01*
X1724548D01*
X1725093Y333897D01*
X1726655Y333250D01*
X1728345D01*
X1729907Y333897D01*
X1731103Y335093D01*
X1731750Y336655D01*
Y338345D01*
X1731103Y339907D01*
X1729907Y341103D01*
X1728345Y341750D01*
X1726655D01*
X1725093Y341103D01*
X1724548Y340559D01*
X964939D01*
X964233Y341615D01*
X964250Y341655D01*
Y343345D01*
X963603Y344907D01*
X962407Y346103D01*
X960845Y346750D01*
X959250D01*
Y348345D01*
X958603Y349907D01*
X957407Y351103D01*
X955845Y351750D01*
X954250D01*
Y353345D01*
X953603Y354907D01*
X952407Y356103D01*
X950845Y356750D01*
X949250D01*
Y358345D01*
X948603Y359907D01*
X947407Y361103D01*
X945845Y361750D01*
X944250D01*
Y363345D01*
X944233Y363385D01*
X944939Y364441D01*
X965061D01*
X965767Y363385D01*
X965750Y363345D01*
Y361655D01*
X966397Y360093D01*
X967593Y358897D01*
X969155Y358250D01*
X970845D01*
X972407Y358897D01*
X972952Y359441D01*
X1547048D01*
X1547593Y358897D01*
X1549155Y358250D01*
X1550845D01*
X1552407Y358897D01*
X1553603Y360093D01*
X1554250Y361655D01*
Y363345D01*
X1553603Y364907D01*
X1552407Y366103D01*
X1550845Y366750D01*
X1549155D01*
X1547593Y366103D01*
X1547048Y365559D01*
X1094939D01*
X1094233Y366615D01*
X1094250Y366655D01*
Y368345D01*
X1093603Y369907D01*
X1092407Y371103D01*
X1090845Y371750D01*
X1089250D01*
Y373345D01*
X1088603Y374907D01*
X1087407Y376103D01*
X1085845Y376750D01*
X1084250D01*
Y378345D01*
X1083603Y379907D01*
X1082407Y381103D01*
X1080845Y381750D01*
X1079155D01*
X1077593Y381103D01*
X1077048Y380559D01*
X1024939D01*
X1024233Y381615D01*
X1024250Y381655D01*
Y383250D01*
X1025845D01*
X1027407Y383897D01*
X1027952Y384441D01*
X1657048D01*
X1657593Y383897D01*
X1659155Y383250D01*
X1660845D01*
X1662407Y383897D01*
X1663603Y385093D01*
X1664250Y386655D01*
Y388250D01*
X1665845D01*
X1667407Y388897D01*
X1668603Y390093D01*
X1669250Y391655D01*
Y393345D01*
X1668603Y394907D01*
X1667407Y396103D01*
X1665845Y396750D01*
X1664155D01*
X1662593Y396103D01*
X1662048Y395559D01*
X1032952D01*
X1032407Y396103D01*
X1030845Y396750D01*
X1029155D01*
X1027593Y396103D01*
X1026397Y394907D01*
X1025750Y393345D01*
Y391750D01*
X1024155D01*
X1022593Y391103D01*
X1021397Y389907D01*
X1020750Y388345D01*
Y386750D01*
X1019250D01*
Y388345D01*
X1018603Y389907D01*
X1017407Y391103D01*
X1015845Y391750D01*
X1014250D01*
Y393345D01*
X1013603Y394907D01*
X1012407Y396103D01*
X1010845Y396750D01*
X1009250D01*
Y398345D01*
X1008603Y399907D01*
X1007407Y401103D01*
X1005845Y401750D01*
X1004250D01*
Y403345D01*
X1003603Y404907D01*
X1002407Y406103D01*
X1000845Y406750D01*
X999250D01*
Y408345D01*
X998603Y409907D01*
X997407Y411103D01*
X995845Y411750D01*
X994250D01*
Y413345D01*
X993603Y414907D01*
X992407Y416103D01*
X990845Y416750D01*
X989250D01*
Y418345D01*
X988603Y419907D01*
X987407Y421103D01*
X985845Y421750D01*
X984250D01*
Y423345D01*
X983603Y424907D01*
X982407Y426103D01*
X980845Y426750D01*
X979155D01*
X977593Y426103D01*
X977207Y425718D01*
X882376D01*
X881750Y426655D01*
Y428345D01*
X881103Y429907D01*
X879907Y431103D01*
X878345Y431750D01*
X876655D01*
X875423Y431240D01*
X875108Y431352D01*
X874492Y431759D01*
X874250Y432024D01*
Y433345D01*
X873693Y434689D01*
X874663Y435337D01*
X879663Y440337D01*
X880326Y441329D01*
X880559Y442500D01*
X880559Y442500D01*
Y446941D01*
X915061D01*
X915767Y445885D01*
X915750Y445845D01*
Y444155D01*
X916397Y442593D01*
X917593Y441397D01*
X919155Y440750D01*
X920845D01*
X922407Y441397D01*
X922952Y441941D01*
X972048D01*
X972593Y441397D01*
X974155Y440750D01*
X975845D01*
X977407Y441397D01*
X978603Y442593D01*
X979250Y444155D01*
Y445845D01*
X979233Y445885D01*
X979939Y446941D01*
X1049548D01*
X1050093Y446397D01*
X1051655Y445750D01*
X1053345D01*
X1054907Y446397D01*
X1056103Y447593D01*
X1056750Y449155D01*
Y450845D01*
X1056733Y450885D01*
X1057439Y451941D01*
X1389548D01*
X1390093Y451397D01*
X1391655Y450750D01*
X1393345D01*
X1394907Y451397D01*
X1396103Y452593D01*
X1396750Y454155D01*
Y455845D01*
X1396103Y457407D01*
X1394907Y458603D01*
X1393345Y459250D01*
X1391655D01*
X1390093Y458603D01*
X1389548Y458059D01*
X1349939D01*
X1349234Y459115D01*
X1349250Y459155D01*
Y460845D01*
X1349233Y460885D01*
X1349939Y461941D01*
X1439548D01*
X1440093Y461397D01*
X1441655Y460750D01*
X1443345D01*
X1444907Y461397D01*
X1446103Y462593D01*
X1446750Y464155D01*
Y465845D01*
X1446103Y467407D01*
X1444907Y468603D01*
X1443345Y469250D01*
X1441655D01*
X1440093Y468603D01*
X1439548Y468059D01*
X1167439D01*
X1166733Y469115D01*
X1166750Y469155D01*
Y470845D01*
X1166103Y472407D01*
X1164907Y473603D01*
X1163345Y474250D01*
X1161750D01*
Y475845D01*
X1161103Y477407D01*
X1159907Y478603D01*
X1158345Y479250D01*
X1156750D01*
Y480845D01*
X1156103Y482407D01*
X1154907Y483603D01*
X1153345Y484250D01*
D02*
G37*
G36*
X51266Y492120D02*
X48734D01*
X46287Y491464D01*
X44093Y490198D01*
X42302Y488407D01*
X41036Y486213D01*
X40380Y483767D01*
Y481233D01*
X41036Y478787D01*
X42302Y476593D01*
X44093Y474802D01*
X46287Y473536D01*
X48734Y472880D01*
X51266D01*
X53713Y473536D01*
X55907Y474802D01*
X57698Y476593D01*
X58964Y478787D01*
X59140Y479441D01*
X62048D01*
X62593Y478897D01*
X64155Y478250D01*
X65845D01*
X67407Y478897D01*
X67952Y479441D01*
X89441D01*
Y458672D01*
X89441Y458672D01*
X89674Y457501D01*
X90337Y456509D01*
X91509Y455337D01*
X91509Y455337D01*
X92501Y454674D01*
X93672Y454441D01*
X93672Y454441D01*
X95750D01*
Y450750D01*
X105710D01*
Y450210D01*
X111230D01*
Y457500D01*
Y464790D01*
X105710D01*
Y464250D01*
X95750D01*
X95559Y465441D01*
Y474559D01*
X95750Y475750D01*
X118750D01*
Y479441D01*
X129548D01*
X130093Y478897D01*
X131655Y478250D01*
X133345D01*
X134907Y478897D01*
X136103Y480093D01*
X136750Y481655D01*
Y483345D01*
X136103Y484907D01*
X134907Y486103D01*
X133345Y486750D01*
X131655D01*
X130093Y486103D01*
X129548Y485559D01*
X118750D01*
Y489250D01*
X95750D01*
Y485559D01*
X67952D01*
X67407Y486103D01*
X65845Y486750D01*
X64155D01*
X62593Y486103D01*
X62048Y485559D01*
X59140D01*
X58964Y486213D01*
X57698Y488407D01*
X55907Y490198D01*
X53713Y491464D01*
X51266Y492120D01*
D02*
G37*
G36*
X918345Y476750D02*
X916655D01*
X915093Y476103D01*
X913897Y474907D01*
X913250Y473345D01*
Y471655D01*
X913897Y470093D01*
X915093Y468897D01*
X916655Y468250D01*
X918345D01*
X919907Y468897D01*
X921103Y470093D01*
X921750Y471655D01*
Y473345D01*
X921103Y474907D01*
X919907Y476103D01*
X918345Y476750D01*
D02*
G37*
G36*
X1759620Y527120D02*
X1740380D01*
Y512206D01*
X1740337Y512163D01*
X1739674Y511171D01*
X1739441Y510000D01*
X1739441Y510000D01*
Y484250D01*
X1736250D01*
Y470750D01*
X1749441D01*
Y468767D01*
X1748733Y468059D01*
X1652952D01*
X1652407Y468603D01*
X1650845Y469250D01*
X1649155D01*
X1647593Y468603D01*
X1646397Y467407D01*
X1645750Y465845D01*
Y464155D01*
X1646397Y462593D01*
X1647593Y461397D01*
X1649155Y460750D01*
X1650845D01*
X1652407Y461397D01*
X1652952Y461941D01*
X1735059D01*
X1736250Y461750D01*
X1736250Y460150D01*
X1734980Y459301D01*
X1734235Y459610D01*
X1732544D01*
X1730982Y458963D01*
X1729787Y457767D01*
X1729140Y456205D01*
Y454515D01*
X1729787Y452952D01*
X1730982Y451757D01*
X1732544Y451110D01*
X1734235D01*
X1734980Y451418D01*
X1736250Y450570D01*
Y448250D01*
X1749941D01*
Y446767D01*
X1748733Y445559D01*
X1657952D01*
X1657407Y446103D01*
X1655845Y446750D01*
X1654155D01*
X1652593Y446103D01*
X1651397Y444907D01*
X1650750Y443345D01*
Y441655D01*
X1651397Y440093D01*
X1652593Y438897D01*
X1654155Y438250D01*
X1655845D01*
X1657407Y438897D01*
X1657952Y439441D01*
X1750000D01*
X1750000Y439441D01*
X1751171Y439674D01*
X1752163Y440337D01*
X1755163Y443337D01*
X1755163Y443337D01*
X1755826Y444329D01*
X1756059Y445500D01*
X1756059Y445500D01*
Y448250D01*
X1759250D01*
Y461750D01*
X1752822D01*
X1752494Y462290D01*
X1752346Y463020D01*
X1754663Y465337D01*
X1755326Y466329D01*
X1755559Y467500D01*
X1755559Y467500D01*
Y470750D01*
X1759250D01*
Y484250D01*
X1745559D01*
Y507880D01*
X1759620D01*
Y527120D01*
D02*
G37*
G36*
X119290Y464790D02*
X113770D01*
Y458770D01*
X119290D01*
Y464790D01*
D02*
G37*
G36*
X1053345Y421750D02*
X1051655D01*
X1050093Y421103D01*
X1048897Y419907D01*
X1048250Y418345D01*
Y416655D01*
X1048897Y415093D01*
X1050093Y413897D01*
X1051655Y413250D01*
X1053345D01*
X1054907Y413897D01*
X1056103Y415093D01*
X1056750Y416655D01*
Y418345D01*
X1056103Y419907D01*
X1054907Y421103D01*
X1053345Y421750D01*
D02*
G37*
G36*
X1698345Y406750D02*
X1696655D01*
X1695093Y406103D01*
X1693897Y404907D01*
X1693250Y403345D01*
Y401655D01*
X1693897Y400093D01*
X1695093Y398897D01*
X1696655Y398250D01*
X1698345D01*
X1699907Y398897D01*
X1701103Y400093D01*
X1701750Y401655D01*
Y403345D01*
X1701103Y404907D01*
X1699907Y406103D01*
X1698345Y406750D01*
D02*
G37*
G36*
X46580Y407000D02*
X43420D01*
X40368Y406182D01*
X37632Y404602D01*
X35398Y402368D01*
X33818Y399632D01*
X33000Y396580D01*
Y393420D01*
X33818Y390368D01*
X35398Y387632D01*
X37632Y385398D01*
X40368Y383818D01*
X43420Y383000D01*
X46580D01*
X49632Y383818D01*
X52368Y385398D01*
X54602Y387632D01*
X56182Y390368D01*
X57000Y393420D01*
Y396580D01*
X56182Y399632D01*
X54602Y402368D01*
X52368Y404602D01*
X49632Y406182D01*
X46580Y407000D01*
D02*
G37*
G36*
Y332000D02*
X43420D01*
X40368Y331182D01*
X37632Y329602D01*
X35398Y327368D01*
X33818Y324632D01*
X33000Y321580D01*
Y318420D01*
X33818Y315368D01*
X35398Y312632D01*
X37632Y310398D01*
X40368Y308818D01*
X43420Y308000D01*
X46580D01*
X49632Y308818D01*
X52368Y310398D01*
X54602Y312632D01*
X56182Y315368D01*
X57000Y318420D01*
Y321580D01*
X56182Y324632D01*
X54602Y327368D01*
X52368Y329602D01*
X49632Y331182D01*
X46580Y332000D01*
D02*
G37*
G36*
X1725845Y231750D02*
X1724155D01*
X1722593Y231103D01*
X1722048Y230559D01*
X890452D01*
X889907Y231103D01*
X888345Y231750D01*
X886655D01*
X885093Y231103D01*
X883897Y229907D01*
X883250Y228345D01*
Y226655D01*
X883897Y225093D01*
X885093Y223897D01*
X886655Y223250D01*
X888345D01*
X889907Y223897D01*
X890452Y224441D01*
X1722048D01*
X1722593Y223897D01*
X1724155Y223250D01*
X1725845D01*
X1727407Y223897D01*
X1728603Y225093D01*
X1729250Y226655D01*
Y228345D01*
X1728603Y229907D01*
X1727407Y231103D01*
X1725845Y231750D01*
D02*
G37*
G36*
X1698345Y221750D02*
X1696655D01*
X1695093Y221103D01*
X1693897Y219907D01*
X1693250Y218345D01*
Y216655D01*
X1693897Y215093D01*
X1695093Y213897D01*
X1696655Y213250D01*
X1698345D01*
X1699907Y213897D01*
X1701103Y215093D01*
X1701750Y216655D01*
Y218345D01*
X1701103Y219907D01*
X1699907Y221103D01*
X1698345Y221750D01*
D02*
G37*
G36*
X228345Y201750D02*
X226655D01*
X225093Y201103D01*
X223897Y199907D01*
X223250Y198345D01*
Y196655D01*
X223897Y195093D01*
X225093Y193897D01*
X226655Y193250D01*
X228345D01*
X229907Y193897D01*
X231103Y195093D01*
X231750Y196655D01*
Y198345D01*
X231103Y199907D01*
X229907Y201103D01*
X228345Y201750D01*
D02*
G37*
G36*
X1118345Y176750D02*
X1116655D01*
X1115093Y176103D01*
X1114548Y175559D01*
X328672D01*
X328672Y175559D01*
X327501Y175326D01*
X326509Y174663D01*
X326509Y174663D01*
X325337Y173491D01*
X324674Y172499D01*
X324441Y171328D01*
X324441Y171328D01*
Y160702D01*
X322754Y160250D01*
X320246Y158802D01*
X318198Y156754D01*
X316750Y154246D01*
X316000Y151448D01*
Y148552D01*
X316750Y145754D01*
X318198Y143246D01*
X320246Y141198D01*
X322754Y139750D01*
X325552Y139000D01*
X328448D01*
X331246Y139750D01*
X333754Y141198D01*
X335802Y143246D01*
X337250Y145754D01*
X338000Y148552D01*
Y151448D01*
X337250Y154246D01*
X335802Y156754D01*
X333754Y158802D01*
X331246Y160250D01*
X330559Y160434D01*
Y169441D01*
X349647D01*
X350123Y168171D01*
X349674Y167499D01*
X349441Y166328D01*
X349441Y166328D01*
Y160595D01*
X348154Y160250D01*
X345646Y158802D01*
X343598Y156754D01*
X342150Y154246D01*
X341400Y151448D01*
Y148552D01*
X342150Y145754D01*
X343598Y143246D01*
X345646Y141198D01*
X348154Y139750D01*
X350952Y139000D01*
X353848D01*
X356646Y139750D01*
X359154Y141198D01*
X361202Y143246D01*
X362650Y145754D01*
X363400Y148552D01*
Y151448D01*
X362650Y154246D01*
X361202Y156754D01*
X359154Y158802D01*
X356646Y160250D01*
X355559Y160542D01*
Y164441D01*
X1109548D01*
X1110093Y163897D01*
X1111655Y163250D01*
X1113345D01*
X1114907Y163897D01*
X1116103Y165093D01*
X1116750Y166655D01*
Y168250D01*
X1118345D01*
X1119907Y168897D01*
X1121103Y170093D01*
X1121750Y171655D01*
Y173345D01*
X1121103Y174907D01*
X1119907Y176103D01*
X1118345Y176750D01*
D02*
G37*
G36*
X252319Y161540D02*
X252070D01*
Y151270D01*
X262340D01*
Y151519D01*
X261554Y154454D01*
X260034Y157086D01*
X257886Y159234D01*
X255254Y160753D01*
X252319Y161540D01*
D02*
G37*
G36*
X249530D02*
X249281D01*
X246346Y160753D01*
X243714Y159234D01*
X241566Y157086D01*
X240047Y154454D01*
X239260Y151519D01*
Y151270D01*
X249530D01*
Y161540D01*
D02*
G37*
G36*
X811048Y161000D02*
X808152D01*
X805354Y160250D01*
X802846Y158802D01*
X800798Y156754D01*
X799350Y154246D01*
X798600Y151448D01*
Y148552D01*
X799350Y145754D01*
X800798Y143246D01*
X802846Y141198D01*
X805354Y139750D01*
X808152Y139000D01*
X811048D01*
X813846Y139750D01*
X816354Y141198D01*
X818402Y143246D01*
X819850Y145754D01*
X820600Y148552D01*
Y151448D01*
X819850Y154246D01*
X818402Y156754D01*
X816354Y158802D01*
X813846Y160250D01*
X811048Y161000D01*
D02*
G37*
G36*
X785648D02*
X782752D01*
X779954Y160250D01*
X777446Y158802D01*
X775398Y156754D01*
X773950Y154246D01*
X773200Y151448D01*
Y148552D01*
X773950Y145754D01*
X775398Y143246D01*
X777446Y141198D01*
X779954Y139750D01*
X782752Y139000D01*
X785648D01*
X788446Y139750D01*
X790954Y141198D01*
X793002Y143246D01*
X794450Y145754D01*
X795200Y148552D01*
Y151448D01*
X794450Y154246D01*
X793002Y156754D01*
X790954Y158802D01*
X788446Y160250D01*
X785648Y161000D01*
D02*
G37*
G36*
X760248D02*
X757352D01*
X754554Y160250D01*
X752046Y158802D01*
X749998Y156754D01*
X748550Y154246D01*
X747800Y151448D01*
Y148552D01*
X748550Y145754D01*
X749998Y143246D01*
X752046Y141198D01*
X754554Y139750D01*
X757352Y139000D01*
X760248D01*
X763046Y139750D01*
X765554Y141198D01*
X767602Y143246D01*
X769050Y145754D01*
X769800Y148552D01*
Y151448D01*
X769050Y154246D01*
X767602Y156754D01*
X765554Y158802D01*
X763046Y160250D01*
X760248Y161000D01*
D02*
G37*
G36*
X734848D02*
X731952D01*
X729154Y160250D01*
X726646Y158802D01*
X724598Y156754D01*
X723150Y154246D01*
X722400Y151448D01*
Y148552D01*
X723150Y145754D01*
X724598Y143246D01*
X726646Y141198D01*
X729154Y139750D01*
X731952Y139000D01*
X734848D01*
X737646Y139750D01*
X740154Y141198D01*
X742202Y143246D01*
X743650Y145754D01*
X744400Y148552D01*
Y151448D01*
X743650Y154246D01*
X742202Y156754D01*
X740154Y158802D01*
X737646Y160250D01*
X734848Y161000D01*
D02*
G37*
G36*
X709448D02*
X706552D01*
X703754Y160250D01*
X701246Y158802D01*
X699198Y156754D01*
X697750Y154246D01*
X697000Y151448D01*
Y148552D01*
X697750Y145754D01*
X699198Y143246D01*
X701246Y141198D01*
X703754Y139750D01*
X706552Y139000D01*
X709448D01*
X712246Y139750D01*
X714754Y141198D01*
X716802Y143246D01*
X718250Y145754D01*
X719000Y148552D01*
Y151448D01*
X718250Y154246D01*
X716802Y156754D01*
X714754Y158802D01*
X712246Y160250D01*
X709448Y161000D01*
D02*
G37*
G36*
X684048D02*
X681152D01*
X678354Y160250D01*
X675846Y158802D01*
X673798Y156754D01*
X672350Y154246D01*
X671600Y151448D01*
Y148552D01*
X672350Y145754D01*
X673798Y143246D01*
X675846Y141198D01*
X678354Y139750D01*
X681152Y139000D01*
X684048D01*
X686846Y139750D01*
X689354Y141198D01*
X691402Y143246D01*
X692850Y145754D01*
X693600Y148552D01*
Y151448D01*
X692850Y154246D01*
X691402Y156754D01*
X689354Y158802D01*
X686846Y160250D01*
X684048Y161000D01*
D02*
G37*
G36*
X658648D02*
X655752D01*
X652954Y160250D01*
X650446Y158802D01*
X648398Y156754D01*
X646950Y154246D01*
X646200Y151448D01*
Y148552D01*
X646950Y145754D01*
X648398Y143246D01*
X650446Y141198D01*
X652954Y139750D01*
X655752Y139000D01*
X658648D01*
X661446Y139750D01*
X663954Y141198D01*
X666002Y143246D01*
X667450Y145754D01*
X668200Y148552D01*
Y151448D01*
X667450Y154246D01*
X666002Y156754D01*
X663954Y158802D01*
X661446Y160250D01*
X658648Y161000D01*
D02*
G37*
G36*
X633248D02*
X630352D01*
X627554Y160250D01*
X625046Y158802D01*
X622998Y156754D01*
X621550Y154246D01*
X620800Y151448D01*
Y148552D01*
X621550Y145754D01*
X622998Y143246D01*
X625046Y141198D01*
X627554Y139750D01*
X630352Y139000D01*
X633248D01*
X636046Y139750D01*
X638554Y141198D01*
X640602Y143246D01*
X642050Y145754D01*
X642800Y148552D01*
Y151448D01*
X642050Y154246D01*
X640602Y156754D01*
X638554Y158802D01*
X636046Y160250D01*
X633248Y161000D01*
D02*
G37*
G36*
X607848D02*
X604952D01*
X602154Y160250D01*
X599646Y158802D01*
X597598Y156754D01*
X596150Y154246D01*
X595400Y151448D01*
Y148552D01*
X596150Y145754D01*
X597598Y143246D01*
X599646Y141198D01*
X602154Y139750D01*
X604952Y139000D01*
X607848D01*
X610646Y139750D01*
X613154Y141198D01*
X615202Y143246D01*
X616650Y145754D01*
X617400Y148552D01*
Y151448D01*
X616650Y154246D01*
X615202Y156754D01*
X613154Y158802D01*
X610646Y160250D01*
X607848Y161000D01*
D02*
G37*
G36*
X582448D02*
X579552D01*
X576754Y160250D01*
X574246Y158802D01*
X572198Y156754D01*
X570750Y154246D01*
X570000Y151448D01*
Y148552D01*
X570750Y145754D01*
X572198Y143246D01*
X574246Y141198D01*
X576754Y139750D01*
X579552Y139000D01*
X582448D01*
X585246Y139750D01*
X587754Y141198D01*
X589802Y143246D01*
X591250Y145754D01*
X592000Y148552D01*
Y151448D01*
X591250Y154246D01*
X589802Y156754D01*
X587754Y158802D01*
X585246Y160250D01*
X582448Y161000D01*
D02*
G37*
G36*
X557048D02*
X554152D01*
X551354Y160250D01*
X548846Y158802D01*
X546798Y156754D01*
X545350Y154246D01*
X544600Y151448D01*
Y148552D01*
X545350Y145754D01*
X546798Y143246D01*
X548846Y141198D01*
X551354Y139750D01*
X554152Y139000D01*
X557048D01*
X559846Y139750D01*
X562354Y141198D01*
X564402Y143246D01*
X565850Y145754D01*
X566600Y148552D01*
Y151448D01*
X565850Y154246D01*
X564402Y156754D01*
X562354Y158802D01*
X559846Y160250D01*
X557048Y161000D01*
D02*
G37*
G36*
X531648D02*
X528752D01*
X525954Y160250D01*
X523446Y158802D01*
X521398Y156754D01*
X519950Y154246D01*
X519200Y151448D01*
Y148552D01*
X519950Y145754D01*
X521398Y143246D01*
X523446Y141198D01*
X525954Y139750D01*
X528752Y139000D01*
X531648D01*
X534446Y139750D01*
X536954Y141198D01*
X539002Y143246D01*
X540450Y145754D01*
X541200Y148552D01*
Y151448D01*
X540450Y154246D01*
X539002Y156754D01*
X536954Y158802D01*
X534446Y160250D01*
X531648Y161000D01*
D02*
G37*
G36*
X506248D02*
X503352D01*
X500554Y160250D01*
X498046Y158802D01*
X495998Y156754D01*
X494550Y154246D01*
X493800Y151448D01*
Y148552D01*
X494550Y145754D01*
X495998Y143246D01*
X498046Y141198D01*
X500554Y139750D01*
X503352Y139000D01*
X506248D01*
X509046Y139750D01*
X511554Y141198D01*
X513602Y143246D01*
X515050Y145754D01*
X515800Y148552D01*
Y151448D01*
X515050Y154246D01*
X513602Y156754D01*
X511554Y158802D01*
X509046Y160250D01*
X506248Y161000D01*
D02*
G37*
G36*
X480848D02*
X477952D01*
X475154Y160250D01*
X472646Y158802D01*
X470598Y156754D01*
X469150Y154246D01*
X468400Y151448D01*
Y148552D01*
X469150Y145754D01*
X470598Y143246D01*
X472646Y141198D01*
X475154Y139750D01*
X477952Y139000D01*
X480848D01*
X483646Y139750D01*
X486154Y141198D01*
X488202Y143246D01*
X489650Y145754D01*
X490400Y148552D01*
Y151448D01*
X489650Y154246D01*
X488202Y156754D01*
X486154Y158802D01*
X483646Y160250D01*
X480848Y161000D01*
D02*
G37*
G36*
X455448D02*
X452552D01*
X449754Y160250D01*
X447246Y158802D01*
X445198Y156754D01*
X443750Y154246D01*
X443000Y151448D01*
Y148552D01*
X443750Y145754D01*
X445198Y143246D01*
X447246Y141198D01*
X449754Y139750D01*
X452552Y139000D01*
X455448D01*
X458246Y139750D01*
X460754Y141198D01*
X462802Y143246D01*
X464250Y145754D01*
X465000Y148552D01*
Y151448D01*
X464250Y154246D01*
X462802Y156754D01*
X460754Y158802D01*
X458246Y160250D01*
X455448Y161000D01*
D02*
G37*
G36*
X430048D02*
X427152D01*
X424354Y160250D01*
X421846Y158802D01*
X419798Y156754D01*
X418350Y154246D01*
X417600Y151448D01*
Y148552D01*
X418350Y145754D01*
X419798Y143246D01*
X421846Y141198D01*
X424354Y139750D01*
X427152Y139000D01*
X430048D01*
X432846Y139750D01*
X435354Y141198D01*
X437402Y143246D01*
X438850Y145754D01*
X439600Y148552D01*
Y151448D01*
X438850Y154246D01*
X437402Y156754D01*
X435354Y158802D01*
X432846Y160250D01*
X430048Y161000D01*
D02*
G37*
G36*
X404648D02*
X401752D01*
X398954Y160250D01*
X396446Y158802D01*
X394398Y156754D01*
X392950Y154246D01*
X392200Y151448D01*
Y148552D01*
X392950Y145754D01*
X394398Y143246D01*
X396446Y141198D01*
X398954Y139750D01*
X401752Y139000D01*
X404648D01*
X407446Y139750D01*
X409954Y141198D01*
X412002Y143246D01*
X413450Y145754D01*
X414200Y148552D01*
Y151448D01*
X413450Y154246D01*
X412002Y156754D01*
X409954Y158802D01*
X407446Y160250D01*
X404648Y161000D01*
D02*
G37*
G36*
X379248D02*
X376352D01*
X373554Y160250D01*
X371046Y158802D01*
X368998Y156754D01*
X367550Y154246D01*
X366800Y151448D01*
Y148552D01*
X367550Y145754D01*
X368998Y143246D01*
X371046Y141198D01*
X373554Y139750D01*
X376352Y139000D01*
X379248D01*
X382046Y139750D01*
X384554Y141198D01*
X386602Y143246D01*
X388050Y145754D01*
X388800Y148552D01*
Y151448D01*
X388050Y154246D01*
X386602Y156754D01*
X384554Y158802D01*
X382046Y160250D01*
X379248Y161000D01*
D02*
G37*
G36*
X303048D02*
X300152D01*
X297354Y160250D01*
X294846Y158802D01*
X292798Y156754D01*
X291350Y154246D01*
X290600Y151448D01*
Y148552D01*
X291350Y145754D01*
X292798Y143246D01*
X294846Y141198D01*
X297354Y139750D01*
X300152Y139000D01*
X303048D01*
X305846Y139750D01*
X308354Y141198D01*
X310402Y143246D01*
X311850Y145754D01*
X312600Y148552D01*
Y151448D01*
X311850Y154246D01*
X310402Y156754D01*
X308354Y158802D01*
X305846Y160250D01*
X303048Y161000D01*
D02*
G37*
G36*
X277648D02*
X274752D01*
X271954Y160250D01*
X269446Y158802D01*
X267398Y156754D01*
X265950Y154246D01*
X265200Y151448D01*
Y148552D01*
X265950Y145754D01*
X267398Y143246D01*
X269446Y141198D01*
X271954Y139750D01*
X274752Y139000D01*
X277648D01*
X280446Y139750D01*
X282954Y141198D01*
X285002Y143246D01*
X286450Y145754D01*
X287200Y148552D01*
Y151448D01*
X286450Y154246D01*
X285002Y156754D01*
X282954Y158802D01*
X280446Y160250D01*
X277648Y161000D01*
D02*
G37*
G36*
X226848D02*
X223952D01*
X221154Y160250D01*
X218646Y158802D01*
X216598Y156754D01*
X215150Y154246D01*
X214400Y151448D01*
Y148552D01*
X215150Y145754D01*
X216598Y143246D01*
X218646Y141198D01*
X221154Y139750D01*
X223952Y139000D01*
X226848D01*
X229646Y139750D01*
X232154Y141198D01*
X234202Y143246D01*
X235650Y145754D01*
X236400Y148552D01*
Y151448D01*
X235650Y154246D01*
X234202Y156754D01*
X232154Y158802D01*
X229646Y160250D01*
X226848Y161000D01*
D02*
G37*
G36*
X211000D02*
X189000D01*
Y139000D01*
X211000D01*
Y161000D01*
D02*
G37*
G36*
X262340Y148730D02*
X252070D01*
Y138460D01*
X252319D01*
X255254Y139246D01*
X257886Y140766D01*
X260034Y142914D01*
X261554Y145546D01*
X262340Y148481D01*
Y148730D01*
D02*
G37*
G36*
X249530D02*
X239260D01*
Y148481D01*
X240047Y145546D01*
X241566Y142914D01*
X243714Y140766D01*
X246346Y139246D01*
X249281Y138460D01*
X249530D01*
Y148730D01*
D02*
G37*
G36*
X1360250Y91750D02*
X1358980Y91750D01*
X1347250D01*
Y89811D01*
X1346194Y89106D01*
X1345845Y89250D01*
X1344155D01*
X1342593Y88603D01*
X1341397Y87407D01*
X1340750Y85845D01*
Y84155D01*
X1341397Y82593D01*
X1342593Y81397D01*
X1344155Y80750D01*
X1345845D01*
X1346194Y80894D01*
X1347250Y80189D01*
Y78250D01*
X1358980D01*
X1359750Y78250D01*
X1361020Y78250D01*
X1372750D01*
Y80189D01*
X1373806Y80894D01*
X1374155Y80750D01*
X1375845D01*
X1377407Y81397D01*
X1378603Y82593D01*
X1379250Y84155D01*
Y85845D01*
X1378603Y87407D01*
X1377407Y88603D01*
X1375845Y89250D01*
X1374155D01*
X1373806Y89106D01*
X1372750Y89811D01*
Y91750D01*
X1361020D01*
X1360250Y91750D01*
D02*
G37*
G36*
X1460250D02*
X1458980Y91750D01*
X1447250D01*
Y88059D01*
X1445452D01*
X1444907Y88603D01*
X1443345Y89250D01*
X1441655D01*
X1440093Y88603D01*
X1438897Y87407D01*
X1438250Y85845D01*
Y84155D01*
X1438897Y82593D01*
X1440093Y81397D01*
X1441655Y80750D01*
X1443345D01*
X1444907Y81397D01*
X1445452Y81941D01*
X1447250D01*
Y78250D01*
X1458980D01*
X1459750Y78250D01*
X1461020Y78250D01*
X1472750D01*
Y81941D01*
X1474548D01*
X1475093Y81397D01*
X1476655Y80750D01*
X1478345D01*
X1479907Y81397D01*
X1481103Y82593D01*
X1481750Y84155D01*
Y85845D01*
X1481103Y87407D01*
X1479907Y88603D01*
X1478345Y89250D01*
X1476655D01*
X1475093Y88603D01*
X1474548Y88059D01*
X1472750D01*
Y91750D01*
X1461020D01*
X1460250Y91750D01*
D02*
G37*
G36*
X1410250D02*
X1408980Y91750D01*
X1397250D01*
Y88059D01*
X1395452D01*
X1394907Y88603D01*
X1393345Y89250D01*
X1391655D01*
X1390093Y88603D01*
X1388897Y87407D01*
X1388250Y85845D01*
Y84155D01*
X1388897Y82593D01*
X1390093Y81397D01*
X1391655Y80750D01*
X1393345D01*
X1394907Y81397D01*
X1395452Y81941D01*
X1397250D01*
Y78250D01*
X1408980D01*
X1409750Y78250D01*
X1411020Y78250D01*
X1422750D01*
Y80189D01*
X1423806Y80894D01*
X1424155Y80750D01*
X1425845D01*
X1427407Y81397D01*
X1428603Y82593D01*
X1429250Y84155D01*
Y85845D01*
X1428603Y87407D01*
X1427407Y88603D01*
X1425845Y89250D01*
X1424155D01*
X1423806Y89106D01*
X1422750Y89811D01*
Y91750D01*
X1411020D01*
X1410250Y91750D01*
D02*
G37*
G36*
X1499448Y71000D02*
X1496552D01*
X1493754Y70250D01*
X1491246Y68802D01*
X1489198Y66754D01*
X1487750Y64246D01*
X1487000Y61448D01*
Y58552D01*
X1487750Y55754D01*
X1489198Y53246D01*
X1491246Y51198D01*
X1493754Y49750D01*
X1496552Y49000D01*
X1499448D01*
X1502246Y49750D01*
X1504754Y51198D01*
X1506802Y53246D01*
X1508250Y55754D01*
X1509000Y58552D01*
Y61448D01*
X1508250Y64246D01*
X1506802Y66754D01*
X1504754Y68802D01*
X1502246Y70250D01*
X1499448Y71000D01*
D02*
G37*
G36*
X1474048D02*
X1471152D01*
X1468354Y70250D01*
X1465846Y68802D01*
X1463798Y66754D01*
X1462350Y64246D01*
X1461600Y61448D01*
Y58552D01*
X1462350Y55754D01*
X1463798Y53246D01*
X1465846Y51198D01*
X1468354Y49750D01*
X1471152Y49000D01*
X1474048D01*
X1476846Y49750D01*
X1479354Y51198D01*
X1481402Y53246D01*
X1482850Y55754D01*
X1483600Y58552D01*
Y61448D01*
X1482850Y64246D01*
X1481402Y66754D01*
X1479354Y68802D01*
X1476846Y70250D01*
X1474048Y71000D01*
D02*
G37*
G36*
X1448648D02*
X1445752D01*
X1442954Y70250D01*
X1440446Y68802D01*
X1438398Y66754D01*
X1436950Y64246D01*
X1436200Y61448D01*
Y58552D01*
X1436950Y55754D01*
X1438398Y53246D01*
X1440446Y51198D01*
X1442954Y49750D01*
X1445752Y49000D01*
X1448648D01*
X1451446Y49750D01*
X1453954Y51198D01*
X1456002Y53246D01*
X1457450Y55754D01*
X1458200Y58552D01*
Y61448D01*
X1457450Y64246D01*
X1456002Y66754D01*
X1453954Y68802D01*
X1451446Y70250D01*
X1448648Y71000D01*
D02*
G37*
G36*
X1423248D02*
X1420352D01*
X1417554Y70250D01*
X1415046Y68802D01*
X1412998Y66754D01*
X1411550Y64246D01*
X1410800Y61448D01*
Y58552D01*
X1411550Y55754D01*
X1412998Y53246D01*
X1415046Y51198D01*
X1417554Y49750D01*
X1420352Y49000D01*
X1423248D01*
X1426046Y49750D01*
X1428554Y51198D01*
X1430602Y53246D01*
X1432050Y55754D01*
X1432800Y58552D01*
Y61448D01*
X1432050Y64246D01*
X1430602Y66754D01*
X1428554Y68802D01*
X1426046Y70250D01*
X1423248Y71000D01*
D02*
G37*
G36*
X1397848D02*
X1394952D01*
X1392154Y70250D01*
X1389646Y68802D01*
X1387598Y66754D01*
X1386150Y64246D01*
X1385400Y61448D01*
Y58552D01*
X1386150Y55754D01*
X1387598Y53246D01*
X1389646Y51198D01*
X1392154Y49750D01*
X1394952Y49000D01*
X1397848D01*
X1400646Y49750D01*
X1403154Y51198D01*
X1405202Y53246D01*
X1406650Y55754D01*
X1407400Y58552D01*
Y61448D01*
X1406650Y64246D01*
X1405202Y66754D01*
X1403154Y68802D01*
X1400646Y70250D01*
X1397848Y71000D01*
D02*
G37*
G36*
X1372448D02*
X1369552D01*
X1366754Y70250D01*
X1364246Y68802D01*
X1362198Y66754D01*
X1360750Y64246D01*
X1360000Y61448D01*
Y58552D01*
X1360750Y55754D01*
X1362198Y53246D01*
X1364246Y51198D01*
X1366754Y49750D01*
X1369552Y49000D01*
X1372448D01*
X1375246Y49750D01*
X1377754Y51198D01*
X1379802Y53246D01*
X1381250Y55754D01*
X1382000Y58552D01*
Y61448D01*
X1381250Y64246D01*
X1379802Y66754D01*
X1377754Y68802D01*
X1375246Y70250D01*
X1372448Y71000D01*
D02*
G37*
G36*
X1356600D02*
X1334600D01*
Y49000D01*
X1356600D01*
Y71000D01*
D02*
G37*
G36*
X1751674Y67000D02*
X1748326D01*
X1745041Y66347D01*
X1741947Y65065D01*
X1739163Y63205D01*
X1736795Y60837D01*
X1734935Y58053D01*
X1733653Y54959D01*
X1733000Y51674D01*
Y48326D01*
X1733653Y45041D01*
X1734935Y41947D01*
X1736795Y39163D01*
X1739163Y36795D01*
X1741947Y34935D01*
X1745041Y33653D01*
X1748326Y33000D01*
X1751674D01*
X1754959Y33653D01*
X1758053Y34935D01*
X1760837Y36795D01*
X1763205Y39163D01*
X1765065Y41947D01*
X1766347Y45041D01*
X1767000Y48326D01*
Y51674D01*
X1766347Y54959D01*
X1765065Y58053D01*
X1763205Y60837D01*
X1760837Y63205D01*
X1758053Y65065D01*
X1754959Y66347D01*
X1751674Y67000D01*
D02*
G37*
G36*
X51674D02*
X48326D01*
X45041Y66347D01*
X41947Y65065D01*
X39163Y63205D01*
X36795Y60837D01*
X34935Y58053D01*
X33653Y54959D01*
X33000Y51674D01*
Y48326D01*
X33653Y45041D01*
X34935Y41947D01*
X36795Y39163D01*
X39163Y36795D01*
X41947Y34935D01*
X45041Y33653D01*
X48326Y33000D01*
X51674D01*
X54959Y33653D01*
X58053Y34935D01*
X60837Y36795D01*
X63205Y39163D01*
X65065Y41947D01*
X66347Y45041D01*
X67000Y48326D01*
Y51674D01*
X66347Y54959D01*
X65065Y58053D01*
X63205Y60837D01*
X60837Y63205D01*
X58053Y65065D01*
X54959Y66347D01*
X51674Y67000D01*
D02*
G37*
G36*
X1601674Y62000D02*
X1598326D01*
X1595041Y61347D01*
X1591947Y60065D01*
X1589163Y58205D01*
X1586795Y55837D01*
X1584935Y53053D01*
X1583653Y49959D01*
X1583000Y46674D01*
Y43326D01*
X1583653Y40041D01*
X1584935Y36948D01*
X1586795Y34163D01*
X1589163Y31795D01*
X1591947Y29935D01*
X1595041Y28653D01*
X1598326Y28000D01*
X1601674D01*
X1604959Y28653D01*
X1608053Y29935D01*
X1610837Y31795D01*
X1613205Y34163D01*
X1615065Y36948D01*
X1616347Y40041D01*
X1617000Y43326D01*
Y46674D01*
X1616347Y49959D01*
X1615065Y53053D01*
X1613205Y55837D01*
X1610837Y58205D01*
X1608053Y60065D01*
X1604959Y61347D01*
X1601674Y62000D01*
D02*
G37*
G36*
X1245274D02*
X1241926D01*
X1238641Y61347D01*
X1235547Y60065D01*
X1232763Y58205D01*
X1230395Y55837D01*
X1228535Y53053D01*
X1227253Y49959D01*
X1226600Y46674D01*
Y43326D01*
X1227253Y40041D01*
X1228535Y36948D01*
X1230395Y34163D01*
X1232763Y31795D01*
X1235547Y29935D01*
X1238641Y28653D01*
X1241926Y28000D01*
X1245274D01*
X1248559Y28653D01*
X1251653Y29935D01*
X1254437Y31795D01*
X1256805Y34163D01*
X1258665Y36948D01*
X1259947Y40041D01*
X1260600Y43326D01*
Y46674D01*
X1259947Y49959D01*
X1258665Y53053D01*
X1256805Y55837D01*
X1254437Y58205D01*
X1251653Y60065D01*
X1248559Y61347D01*
X1245274Y62000D01*
D02*
G37*
%LPD*%
G36*
X1632700Y1139650D02*
X1622700D01*
X1627700Y1151650D01*
X1632700Y1139650D01*
D02*
G37*
G36*
X1620000D02*
X1610000D01*
X1615000Y1151650D01*
X1620000Y1139650D01*
D02*
G37*
G36*
X1607300D02*
X1597300D01*
X1602300Y1151650D01*
X1607300Y1139650D01*
D02*
G37*
G36*
X1627700Y1115650D02*
X1622700Y1127650D01*
X1632700D01*
X1627700Y1115650D01*
D02*
G37*
G36*
X1615000D02*
X1610000Y1127650D01*
X1620000D01*
X1615000Y1115650D01*
D02*
G37*
G36*
X1602200D02*
X1597200Y1127650D01*
X1607200D01*
X1602200Y1115650D01*
D02*
G37*
D10*
X1732500Y982500D02*
Y992500D01*
X1627700Y1140000D02*
Y1161328D01*
X1615000Y1140000D02*
Y1155828D01*
X1530000Y1105000D02*
X1627500D01*
X1642500D01*
X1366500Y85000D02*
X1375000D01*
X1416500D02*
X1425000D01*
X1466500D02*
X1477500D01*
X415000Y1095000D02*
Y1175000D01*
X553000Y955000D02*
X695000D01*
X559000Y960000D02*
X722500D01*
X721000Y985000D02*
X1132500D01*
X285000Y987500D02*
Y1036888D01*
X247500Y1040000D02*
X281888D01*
X285000Y1036888D01*
X50000Y680000D02*
X50270Y680270D01*
X244532D01*
X244802Y680540D01*
X245000Y517500D02*
X877500D01*
X870000Y535000D02*
X897500D01*
X870000Y512500D02*
X895000D01*
X878128Y544783D02*
X878236Y544891D01*
X1039891D02*
X1040000Y545000D01*
X878236Y544891D02*
X1039891D01*
X330000Y1102500D02*
X355000D01*
X1612500Y1030000D02*
X1645000D01*
Y1015000D02*
X1715000D01*
X1710000Y922500D02*
X1785000D01*
X1742500Y967500D02*
X1785000D01*
X872500Y477500D02*
X892500D01*
X870462Y475462D02*
X872500Y477500D01*
X870000Y472500D02*
X870462Y472962D01*
Y475462D01*
X877500Y472500D02*
X897500D01*
X112500Y482500D02*
X132500D01*
Y432500D02*
X870000D01*
X112500Y507500D02*
X127500D01*
Y427500D02*
X877500D01*
X1575000Y865000D02*
X1610000D01*
X1575000Y615000D02*
X1610000D01*
X897500Y322500D02*
X1610000D01*
X1570000Y887500D02*
X1590000D01*
X1570000Y610000D02*
X1590000D01*
X892500Y327500D02*
X1590000D01*
X1610000Y865000D02*
X1677500D01*
X1590000Y887500D02*
X1677500D01*
X1685000Y961750D02*
X1685000Y961750D01*
Y980000D01*
X1665000Y1002500D02*
X1685000D01*
X1630000D02*
X1665000D01*
Y961750D02*
Y970000D01*
X1630000Y980000D02*
X1685000D01*
X1613328Y1157500D02*
X1615000Y1155828D01*
X1535000Y1157500D02*
X1613328D01*
X1587500Y1162500D02*
X1626528D01*
X1627700Y1161328D01*
X902500Y727500D02*
X1020000D01*
X907500Y732500D02*
X1050000D01*
X912500Y742500D02*
X1055000D01*
X897500Y642500D02*
X912500D01*
X950000Y677500D02*
X1015000D01*
X1024990Y639990D02*
X1025000Y639980D01*
X1015010Y639990D02*
X1024990D01*
X1015000Y640000D02*
X1015010Y639990D01*
X1005000Y630000D02*
X1035000D01*
X962500Y640000D02*
X1005000D01*
X955000Y647500D02*
X962500Y640000D01*
X955000Y647500D02*
Y655000D01*
X950000Y660000D02*
X955000Y655000D01*
X1010000Y620000D02*
X1035000D01*
X957500Y635000D02*
X1010000D01*
X950000Y642500D02*
Y642500D01*
Y642500D02*
X957500Y635000D01*
X760000Y687500D02*
X927500D01*
X760000Y437500D02*
X872500D01*
X877500Y448828D02*
X878672Y450000D01*
X877500Y442500D02*
Y448828D01*
X872500Y437500D02*
X877500Y442500D01*
X878672Y450000D02*
X1052500D01*
X454521Y597250D02*
X934750D01*
X454271Y596999D02*
X454521Y597250D01*
X934750D02*
X935000Y597500D01*
X917500Y610000D02*
X945000D01*
X857500Y615000D02*
X975000D01*
X862500Y582500D02*
X880000D01*
X882500Y580000D02*
X920000D01*
X880000Y582500D02*
X882500Y580000D01*
X920000Y445000D02*
X975000D01*
X880000Y575000D02*
X965000D01*
X867500Y577500D02*
X877500D01*
X880000Y575000D01*
X1040676Y1155000D02*
X1042011Y1156335D01*
X1040000Y1155000D02*
X1040676D01*
X1042011Y1156335D02*
X1195000D01*
X1320000Y1075000D02*
X1587500D01*
X1275000D02*
X1320000D01*
X767500D02*
X1275000D01*
X767500Y505000D02*
X897500D01*
X1392500Y85000D02*
X1403500D01*
X1035000Y455000D02*
X1392500D01*
X1345000Y85000D02*
X1353500D01*
X1030000Y460000D02*
X1345000D01*
X1442500Y85000D02*
X1453500D01*
X1025000Y465000D02*
X1442500D01*
X1050000Y595000D02*
X1535000D01*
X1752500Y477000D02*
X1753000Y477500D01*
X1752500Y467500D02*
Y477000D01*
X1650000Y465000D02*
X1750000D01*
X1752500Y467500D01*
X1753000Y445500D02*
Y455000D01*
X1750000Y442500D02*
X1753000Y445500D01*
X1655000Y442500D02*
X1750000D01*
X935000Y332500D02*
X1650000D01*
X1742500Y510000D02*
X1750000Y517500D01*
X1742500Y477500D02*
Y510000D01*
X1742140Y455360D02*
X1742500Y455000D01*
X1733390Y455360D02*
X1742140D01*
X1665000Y577500D02*
X1695000D01*
X1030000Y392500D02*
X1665000D01*
X1660000Y582500D02*
X1705000D01*
X1025000Y387500D02*
X1660000D01*
X1724200Y667500D02*
Y685800D01*
X1722500Y687500D02*
X1724200Y685800D01*
X1550000Y687500D02*
X1722500D01*
X970000Y362500D02*
X1550000D01*
X65000Y527500D02*
X217500D01*
X65000Y482500D02*
X92500D01*
X50000D02*
X65000D01*
X92500Y507500D02*
X102000D01*
X50000D02*
X92500D01*
Y518828D01*
X93672Y520000D02*
X182500D01*
X92500Y518828D02*
X93672Y520000D01*
X92500Y482500D02*
X102000D01*
X92500Y458672D02*
Y482500D01*
X93672Y457500D02*
X102000D01*
X92500Y458672D02*
X93672Y457500D01*
X102000Y507500D02*
X102500Y508000D01*
X175000Y620000D02*
X965000D01*
X237500Y630000D02*
X960000D01*
X162500Y625000D02*
X970000D01*
X162500Y605000D02*
X162500Y605000D01*
X50000Y605000D02*
X162500D01*
X955000Y720000D02*
X1437500D01*
X1644500Y1085000D02*
Y1103000D01*
X1642500Y1105000D02*
X1644500Y1103000D01*
X980000Y715000D02*
X1530000D01*
X882500Y337500D02*
X1727500D01*
X887500Y227500D02*
X1725000D01*
X870000Y465000D02*
X892500D01*
X873672Y460000D02*
X897500D01*
X62500Y742500D02*
X122500D01*
X50000Y755000D02*
X62500Y742500D01*
X122500Y447500D02*
X865000D01*
X867500Y450000D01*
Y462500D01*
X870000Y465000D01*
X117500Y442500D02*
X870000D01*
X872500Y445000D01*
Y458828D01*
X873672Y460000D01*
X62500Y717500D02*
X117500D01*
X50000Y730000D02*
X62500Y717500D01*
X50000Y630000D02*
X62500Y617500D01*
X107500D01*
Y342500D02*
X960000D01*
X62500Y642500D02*
X112500D01*
X50000Y655000D02*
X62500Y642500D01*
X112500Y347500D02*
X955000D01*
X302500Y352500D02*
X950000D01*
X277854Y357438D02*
X277885Y357469D01*
X944969D02*
X945000Y357500D01*
X277885Y357469D02*
X944969D01*
X637500Y945000D02*
X740000D01*
Y362500D02*
X940000D01*
X1066000Y1021500D02*
X1067500Y1020000D01*
X1066000Y1021500D02*
Y1045000D01*
X1067500Y1020000D02*
X1162500D01*
X1082500Y470000D02*
X1162500D01*
X1091400Y1026172D02*
X1092572Y1025000D01*
X1157500D01*
X1091400Y1026172D02*
Y1045000D01*
X1077500Y475000D02*
X1157500D01*
X1117972Y1030000D02*
X1152500D01*
X1116800Y1031172D02*
Y1045000D01*
Y1031172D02*
X1117972Y1030000D01*
X1072500Y480000D02*
X1152500D01*
X732500Y997500D02*
X1147500D01*
X1072500Y490000D02*
X1147500D01*
X722500Y960000D02*
X1137500D01*
X1077500Y495000D02*
X1137500D01*
X1082500Y500000D02*
X1132500D01*
X1087500Y505000D02*
X1127500D01*
X1092500Y510000D02*
X1370000D01*
X1097500Y515000D02*
X1497500D01*
X1102500Y520000D02*
X1472500D01*
X1087500Y545000D02*
X1107500D01*
X1092500Y540000D02*
X1112500D01*
X1097500Y535000D02*
X1117500D01*
X1102500Y530000D02*
X1122500D01*
X1107500Y525000D02*
X1420000D01*
X527500Y950000D02*
X1127500D01*
X504800Y738672D02*
Y760000D01*
X505972Y737500D02*
X1122500D01*
X504800Y738672D02*
X505972Y737500D01*
X328672Y172500D02*
X1117500D01*
X327000Y150000D02*
X327500Y150500D01*
Y171328D01*
X328672Y172500D01*
X352500Y150100D02*
Y166328D01*
X353672Y167500D02*
X1112500D01*
X352400Y150000D02*
X352500Y150100D01*
Y166328D02*
X353672Y167500D01*
X403200Y778200D02*
X405000Y780000D01*
X403200Y760000D02*
Y778200D01*
X405000Y780000D02*
X1107500D01*
X53583Y705000D02*
X58583Y710000D01*
X50000Y705000D02*
X53583D01*
X58583Y710000D02*
X1102500D01*
X1077500Y550000D02*
X1102500D01*
X1525000Y1110000D02*
X1615000D01*
X1072500Y555000D02*
X1525000D01*
X432500Y367500D02*
X1090000D01*
X460000Y372500D02*
X1085000D01*
X475000Y377500D02*
X1080000D01*
X480000Y572500D02*
X874324D01*
X876824Y570000D02*
X877500D01*
X874324Y572500D02*
X876824Y570000D01*
X505000Y567500D02*
X870000D01*
X872500Y565000D02*
X882500D01*
X870000Y567500D02*
X872500Y565000D01*
X530000Y562500D02*
X867500D01*
X870000Y560000D01*
X887500D01*
X555000Y557500D02*
X865000D01*
X867500Y555000D01*
X892500D01*
X580000Y552500D02*
X862500D01*
X865000Y550000D01*
X897500D01*
X427500Y602500D02*
X940000D01*
X985000Y702500D02*
X1320000D01*
X990000Y697500D02*
X1295000D01*
X1000000Y687500D02*
X1242500D01*
X995200Y692700D02*
X1269400D01*
X995000Y692500D02*
X995200Y692700D01*
X1269400D02*
X1269600Y692900D01*
X1005000Y615000D02*
X1217500D01*
X1010000Y610000D02*
X1192500D01*
X1015000Y605000D02*
X1167500D01*
X1142710Y600233D02*
X1142943Y600466D01*
X1020000Y600000D02*
X1020233Y600233D01*
X1142710D01*
X810000Y382500D02*
X1020000D01*
X785000Y387500D02*
X1015000D01*
X760000Y392500D02*
X1010000D01*
X732500Y397500D02*
X1005000D01*
X710000Y402500D02*
X1000000D01*
X682500Y407500D02*
X995000D01*
X657500Y412500D02*
X990000D01*
X630000Y417500D02*
X985000D01*
X608171Y422818D02*
X608330Y422659D01*
X979841D02*
X980000Y422500D01*
X608330Y422659D02*
X979841D01*
X857500Y470250D02*
Y480000D01*
X857369Y539289D02*
X857500Y539420D01*
Y547500D01*
D31*
X1665000Y948250D02*
D03*
Y961750D02*
D03*
X1685000Y948250D02*
D03*
Y961750D02*
D03*
X857369Y525789D02*
D03*
Y539289D02*
D03*
X857500Y456750D02*
D03*
Y470250D02*
D03*
D36*
X1416500Y85000D02*
D03*
X1403500D02*
D03*
X1366500D02*
D03*
X1353500D02*
D03*
X1466500D02*
D03*
X1453500D02*
D03*
X1742500Y477500D02*
D03*
X1753000D02*
D03*
Y455000D02*
D03*
X1742500D02*
D03*
X1655000Y1085000D02*
D03*
X1644500D02*
D03*
X112500Y457500D02*
D03*
X102000D02*
D03*
Y482500D02*
D03*
X112500D02*
D03*
X102000Y507500D02*
D03*
X112500D02*
D03*
D69*
X205000Y1067500D02*
D03*
X197500D02*
D03*
X1630000Y1017728D02*
D03*
X1732500Y982500D02*
D03*
Y992500D02*
D03*
X330000Y997500D02*
D03*
X492500Y1110000D02*
D03*
X180000Y987500D02*
D03*
X172500Y980000D02*
D03*
Y987500D02*
D03*
X227500Y197500D02*
D03*
X412500Y1047500D02*
D03*
X405000D02*
D03*
X430000Y942500D02*
D03*
Y950000D02*
D03*
X420000Y942500D02*
D03*
X410000D02*
D03*
X390000D02*
D03*
Y950000D02*
D03*
X400000Y942500D02*
D03*
X197000Y1045000D02*
D03*
X202500Y1000000D02*
D03*
X200895Y1020157D02*
D03*
X215000Y977500D02*
D03*
X207500D02*
D03*
X285000Y980000D02*
D03*
X260000Y915000D02*
D03*
Y955000D02*
D03*
X300000D02*
D03*
X200000Y915000D02*
D03*
Y875000D02*
D03*
X300000Y915000D02*
D03*
Y875000D02*
D03*
X325000Y1067500D02*
D03*
X320000Y1072500D02*
D03*
X372500Y1052500D02*
D03*
Y990000D02*
D03*
Y997500D02*
D03*
Y1005000D02*
D03*
Y1012500D02*
D03*
Y1045000D02*
D03*
Y1037500D02*
D03*
X25000Y100000D02*
D03*
Y200000D02*
D03*
Y300000D02*
D03*
Y400000D02*
D03*
Y500000D02*
D03*
Y600000D02*
D03*
Y625000D02*
D03*
Y700000D02*
D03*
Y800000D02*
D03*
Y875000D02*
D03*
Y950000D02*
D03*
X100000D02*
D03*
Y875000D02*
D03*
X525000Y1100000D02*
D03*
Y1175000D02*
D03*
X600000D02*
D03*
X700000D02*
D03*
X800000D02*
D03*
X900000D02*
D03*
X1000000D02*
D03*
X1100000D02*
D03*
X1175000Y1100000D02*
D03*
Y1175000D02*
D03*
X1250000Y1100000D02*
D03*
Y1175000D02*
D03*
X1400000Y1100000D02*
D03*
X1325000D02*
D03*
Y1175000D02*
D03*
X1400000D02*
D03*
X1475000D02*
D03*
X1550000Y1100000D02*
D03*
Y1175000D02*
D03*
X1625000D02*
D03*
X1700000D02*
D03*
Y1100000D02*
D03*
X1775000D02*
D03*
Y900000D02*
D03*
Y800000D02*
D03*
Y600000D02*
D03*
Y500000D02*
D03*
Y400000D02*
D03*
Y300000D02*
D03*
Y100000D02*
D03*
Y25000D02*
D03*
X1700000D02*
D03*
X1600000D02*
D03*
X1500000D02*
D03*
X1400000D02*
D03*
X1300000D02*
D03*
X1200000D02*
D03*
X1100000D02*
D03*
X1000000D02*
D03*
X900000D02*
D03*
X800000D02*
D03*
X700000D02*
D03*
X600000D02*
D03*
X500000D02*
D03*
X400000D02*
D03*
X300000D02*
D03*
X200000D02*
D03*
X100000D02*
D03*
X25000D02*
D03*
X1775000Y1175000D02*
D03*
Y1182500D02*
D03*
X1782500Y1175000D02*
D03*
Y1182500D02*
D03*
X1557000Y983000D02*
D03*
X1652500Y1040000D02*
D03*
X1645000D02*
D03*
X1652500Y1047500D02*
D03*
X1645000D02*
D03*
X884000Y528000D02*
D03*
X876000Y498000D02*
D03*
X1079000Y585000D02*
D03*
X1051000Y573000D02*
D03*
X1046000Y568000D02*
D03*
X1104000Y485000D02*
D03*
X1092000D02*
D03*
X1081000D02*
D03*
X1067500Y430000D02*
D03*
X1060000D02*
D03*
X1067500Y437500D02*
D03*
X1060000D02*
D03*
X912500Y435000D02*
D03*
X905000D02*
D03*
X912500Y442500D02*
D03*
X905000D02*
D03*
X847500Y460000D02*
D03*
X840000Y452500D02*
D03*
Y460000D02*
D03*
X847500Y452500D02*
D03*
X845000Y525000D02*
D03*
X837500D02*
D03*
X845000Y532500D02*
D03*
X837500D02*
D03*
X919000Y490000D02*
D03*
Y522000D02*
D03*
Y551000D02*
D03*
Y569000D02*
D03*
X875000Y591000D02*
D03*
X904000D02*
D03*
X875000Y609000D02*
D03*
X903659Y609043D02*
D03*
X903000Y636000D02*
D03*
Y651000D02*
D03*
X868000D02*
D03*
X935099Y651243D02*
D03*
X950000Y651000D02*
D03*
X959000Y490000D02*
D03*
X931000D02*
D03*
X959000Y522000D02*
D03*
X931000D02*
D03*
X959000Y456000D02*
D03*
X938000D02*
D03*
X959000Y552000D02*
D03*
X931000Y551000D02*
D03*
X959000Y569000D02*
D03*
X931000D02*
D03*
X919000Y480000D02*
D03*
X1700000Y500000D02*
D03*
X1600000Y600000D02*
D03*
X1200000Y500000D02*
D03*
X1300000D02*
D03*
X1400000D02*
D03*
X1600000D02*
D03*
X1100000Y400000D02*
D03*
X1200000D02*
D03*
X1300000D02*
D03*
X1400000D02*
D03*
X1600000D02*
D03*
X1700000Y100000D02*
D03*
Y200000D02*
D03*
Y300000D02*
D03*
X1600000Y100000D02*
D03*
Y200000D02*
D03*
Y300000D02*
D03*
X1400000D02*
D03*
Y200000D02*
D03*
Y100000D02*
D03*
X1300000Y300000D02*
D03*
Y200000D02*
D03*
Y100000D02*
D03*
X1200000D02*
D03*
Y200000D02*
D03*
Y300000D02*
D03*
X1100000D02*
D03*
Y200000D02*
D03*
Y100000D02*
D03*
X1000000Y200000D02*
D03*
Y300000D02*
D03*
X900000D02*
D03*
Y200000D02*
D03*
X1000000Y100000D02*
D03*
X900000D02*
D03*
X800000D02*
D03*
X700000D02*
D03*
X600000D02*
D03*
X500000D02*
D03*
X400000D02*
D03*
X300000D02*
D03*
X200000D02*
D03*
X100000D02*
D03*
Y200000D02*
D03*
Y300000D02*
D03*
X800000Y200000D02*
D03*
X700000D02*
D03*
X600000D02*
D03*
X500000D02*
D03*
X400000D02*
D03*
X200000D02*
D03*
Y600000D02*
D03*
Y500000D02*
D03*
Y400000D02*
D03*
Y300000D02*
D03*
X300000Y400000D02*
D03*
Y600000D02*
D03*
Y500000D02*
D03*
X400000Y600000D02*
D03*
Y500000D02*
D03*
X600000Y400000D02*
D03*
X500000D02*
D03*
X400000D02*
D03*
Y300000D02*
D03*
X500000D02*
D03*
X600000D02*
D03*
X700000D02*
D03*
X800000D02*
D03*
Y500000D02*
D03*
X1200000Y600000D02*
D03*
X1300000D02*
D03*
X1500000D02*
D03*
X1400000D02*
D03*
X1500000Y700000D02*
D03*
X1400000D02*
D03*
X800000D02*
D03*
X700000D02*
D03*
X600000D02*
D03*
X500000D02*
D03*
X400000D02*
D03*
X300000D02*
D03*
X200000D02*
D03*
X100000D02*
D03*
X1100000Y1100000D02*
D03*
X1000000D02*
D03*
X900000D02*
D03*
X800000D02*
D03*
X500393Y1058276D02*
D03*
X600000Y1100000D02*
D03*
X700000Y1000000D02*
D03*
X1200000D02*
D03*
X1300000D02*
D03*
X1500000D02*
D03*
X1600000Y900000D02*
D03*
X1500000D02*
D03*
X1400000D02*
D03*
X1300000D02*
D03*
X1200000D02*
D03*
X1100000D02*
D03*
X1000000D02*
D03*
X900000D02*
D03*
X800000D02*
D03*
X700000D02*
D03*
X600000D02*
D03*
X500000D02*
D03*
X400000D02*
D03*
X1700000Y800000D02*
D03*
X1600000D02*
D03*
X1500000D02*
D03*
X1400000D02*
D03*
X1300000D02*
D03*
X1200000D02*
D03*
X1100000D02*
D03*
X1000000D02*
D03*
X900000D02*
D03*
X800000D02*
D03*
X700000D02*
D03*
X600000D02*
D03*
X500000D02*
D03*
X400000D02*
D03*
X300000D02*
D03*
X200000D02*
D03*
X100000D02*
D03*
X240000Y932500D02*
D03*
Y950000D02*
D03*
X275000Y972500D02*
D03*
X367500Y952500D02*
D03*
X422500Y980000D02*
D03*
Y962500D02*
D03*
X1660000Y605000D02*
D03*
X170000Y912500D02*
D03*
X390000Y900000D02*
D03*
X327500Y925000D02*
D03*
X227000Y964000D02*
D03*
X1627500Y1105000D02*
D03*
X256000Y1016250D02*
D03*
X249500D02*
D03*
X239750Y1001750D02*
D03*
Y1037000D02*
D03*
X262500Y1029250D02*
D03*
X256000D02*
D03*
X262500Y1022750D02*
D03*
X256000D02*
D03*
X249500D02*
D03*
X317500Y1010000D02*
D03*
Y1045000D02*
D03*
Y1025000D02*
D03*
X272500Y1007500D02*
D03*
X280000D02*
D03*
Y1000000D02*
D03*
X272500D02*
D03*
X15000Y1185000D02*
D03*
Y1177500D02*
D03*
Y1090000D02*
D03*
Y1082500D02*
D03*
Y987500D02*
D03*
Y980000D02*
D03*
X22500Y1185000D02*
D03*
X182500Y1155000D02*
D03*
X175000D02*
D03*
Y1147500D02*
D03*
X182500Y1112500D02*
D03*
X175000D02*
D03*
Y1120000D02*
D03*
X140000Y1087500D02*
D03*
X132500D02*
D03*
Y1080000D02*
D03*
X22500Y987500D02*
D03*
Y1082500D02*
D03*
X252500Y1110000D02*
D03*
Y1117500D02*
D03*
X260000D02*
D03*
Y1110000D02*
D03*
Y1185000D02*
D03*
X252500D02*
D03*
X337500D02*
D03*
X345000D02*
D03*
X435000Y1177500D02*
D03*
X427500D02*
D03*
Y1185000D02*
D03*
X435000D02*
D03*
X500000Y1110000D02*
D03*
X492500Y1175000D02*
D03*
X485000D02*
D03*
Y1182500D02*
D03*
X492500D02*
D03*
X182500Y1147500D02*
D03*
Y1120000D02*
D03*
X180000Y980000D02*
D03*
X140000Y1080000D02*
D03*
X22500Y980000D02*
D03*
Y1090000D02*
D03*
Y1177500D02*
D03*
X420000Y1000000D02*
D03*
X410000D02*
D03*
X420000Y950000D02*
D03*
X400000D02*
D03*
X410000D02*
D03*
X1395000Y1065000D02*
D03*
X396706Y1047648D02*
D03*
X389206D02*
D03*
X335000Y1052500D02*
D03*
X275000Y1055000D02*
D03*
X282500D02*
D03*
Y1062500D02*
D03*
X275000D02*
D03*
X327500Y1052500D02*
D03*
Y1060000D02*
D03*
X335000D02*
D03*
X322500Y997500D02*
D03*
Y1005000D02*
D03*
X330000D02*
D03*
X577500Y1075000D02*
D03*
X617500D02*
D03*
X1775000Y697500D02*
D03*
X1517500D02*
D03*
Y1065000D02*
D03*
X1222500D02*
D03*
X250000Y937500D02*
D03*
X170000Y890000D02*
D03*
X1350000Y1090000D02*
D03*
X1400000Y1130000D02*
D03*
X1630000Y1010000D02*
D03*
X1577500Y1037500D02*
D03*
X1557500Y1015000D02*
D03*
X1712500Y885000D02*
D03*
Y862500D02*
D03*
X1700000Y837500D02*
D03*
X1735000Y615000D02*
D03*
Y597500D02*
D03*
X1660000Y595000D02*
D03*
X1697500Y402500D02*
D03*
Y217500D02*
D03*
X1477500Y85000D02*
D03*
X1425000D02*
D03*
X1375000D02*
D03*
X1077500Y577500D02*
D03*
X1027500Y662500D02*
D03*
X1032500Y645000D02*
D03*
X1016328Y625199D02*
D03*
X920000Y587500D02*
D03*
X165000Y505000D02*
D03*
X227500D02*
D03*
X207500Y510000D02*
D03*
X1052500Y417500D02*
D03*
X930000Y455000D02*
D03*
X917500Y472500D02*
D03*
X887500Y520000D02*
D03*
X890000Y540000D02*
D03*
X820000Y497500D02*
D03*
X822500Y577500D02*
D03*
X752500Y972500D02*
D03*
Y1007500D02*
D03*
Y990000D02*
D03*
X697500Y992500D02*
D03*
X685000Y1015000D02*
D03*
X605000Y1000000D02*
D03*
X570000Y1025000D02*
D03*
X494871Y968711D02*
D03*
X494956Y986869D02*
D03*
X495000Y1005000D02*
D03*
X435000Y1120000D02*
D03*
X430000Y1125000D02*
D03*
X415000Y1175000D02*
D03*
Y1095000D02*
D03*
X695000Y955000D02*
D03*
X553000D02*
D03*
X559000Y960000D02*
D03*
X721000Y985000D02*
D03*
X227500Y1000000D02*
D03*
X244802Y680540D02*
D03*
X245000Y517500D02*
D03*
X877500D02*
D03*
X897500Y535000D02*
D03*
X870000D02*
D03*
Y512500D02*
D03*
X895000D02*
D03*
X878128Y544783D02*
D03*
X1040000Y545000D02*
D03*
X330000Y1102500D02*
D03*
X355000D02*
D03*
X1645000Y1015000D02*
D03*
Y1030000D02*
D03*
X1612500D02*
D03*
X1715000Y1015000D02*
D03*
X1785000Y922500D02*
D03*
Y967500D02*
D03*
X1742500D02*
D03*
X1710000Y922500D02*
D03*
X892500Y477500D02*
D03*
X897500Y472500D02*
D03*
X132500Y482500D02*
D03*
Y432500D02*
D03*
X870000D02*
D03*
Y472500D02*
D03*
X127500Y507500D02*
D03*
Y427500D02*
D03*
X877500D02*
D03*
Y472500D02*
D03*
X1575000Y865000D02*
D03*
Y615000D02*
D03*
X1610000D02*
D03*
Y322500D02*
D03*
X897500D02*
D03*
X1570000Y887500D02*
D03*
Y610000D02*
D03*
X1590000D02*
D03*
Y327500D02*
D03*
X892500D02*
D03*
X1677500Y865000D02*
D03*
X1610000D02*
D03*
X1590000Y887500D02*
D03*
X1677500D02*
D03*
X1665000Y1002500D02*
D03*
Y970000D02*
D03*
X1685000Y1002500D02*
D03*
X1630000D02*
D03*
X1685000Y980000D02*
D03*
X1630000D02*
D03*
X1535000Y1157500D02*
D03*
X1587500Y1162500D02*
D03*
X1020000Y727500D02*
D03*
X902500D02*
D03*
X1050000Y732500D02*
D03*
X907500D02*
D03*
X1055000Y742500D02*
D03*
X912500D02*
D03*
Y642500D02*
D03*
X897500D02*
D03*
X950000Y677500D02*
D03*
X1015000D02*
D03*
Y640000D02*
D03*
X1025000Y639980D02*
D03*
X1035000Y630000D02*
D03*
X1005000D02*
D03*
Y640000D02*
D03*
X950000Y660000D02*
D03*
X1035000Y620000D02*
D03*
X1010000D02*
D03*
Y635000D02*
D03*
X950000Y642500D02*
D03*
X927500Y687500D02*
D03*
X760000D02*
D03*
Y437500D02*
D03*
X1052500Y450000D02*
D03*
X935000Y597500D02*
D03*
X940000Y602500D02*
D03*
X917500Y610000D02*
D03*
X945000D02*
D03*
X857500Y615000D02*
D03*
X975000D02*
D03*
X862500Y582500D02*
D03*
X920000Y580000D02*
D03*
Y445000D02*
D03*
X975000D02*
D03*
X965000Y575000D02*
D03*
X867500Y577500D02*
D03*
X1040000Y1155000D02*
D03*
X1320000Y1075000D02*
D03*
X1275000D02*
D03*
X1587500D02*
D03*
X767500D02*
D03*
Y505000D02*
D03*
X897500D02*
D03*
X1392500Y85000D02*
D03*
Y455000D02*
D03*
X1035000D02*
D03*
X1345000Y85000D02*
D03*
Y460000D02*
D03*
X1030000D02*
D03*
X1442500Y85000D02*
D03*
Y465000D02*
D03*
X1025000D02*
D03*
X1535000Y595000D02*
D03*
X1050000D02*
D03*
X1650000Y465000D02*
D03*
X1655000Y442500D02*
D03*
X1650000Y332500D02*
D03*
X935000D02*
D03*
X1733390Y455360D02*
D03*
X1695000Y577500D02*
D03*
X1665000D02*
D03*
Y392500D02*
D03*
X1030000D02*
D03*
X1705000Y582500D02*
D03*
X1660000D02*
D03*
Y387500D02*
D03*
X1025000D02*
D03*
X1550000Y687500D02*
D03*
Y362500D02*
D03*
X970000D02*
D03*
X65000Y527500D02*
D03*
X217500D02*
D03*
X65000Y482500D02*
D03*
X182500Y520000D02*
D03*
X175000Y620000D02*
D03*
X965000D02*
D03*
X237500Y630000D02*
D03*
X960000D02*
D03*
X970000Y625000D02*
D03*
X162500D02*
D03*
Y605000D02*
D03*
X1437500Y720000D02*
D03*
X955000D02*
D03*
X1530000Y1105000D02*
D03*
Y715000D02*
D03*
X980000D02*
D03*
X1727500Y337500D02*
D03*
X882500D02*
D03*
X887500Y227500D02*
D03*
X1725000D02*
D03*
X892500Y465000D02*
D03*
X897500Y460000D02*
D03*
X122500Y742500D02*
D03*
Y447500D02*
D03*
X117500Y442500D02*
D03*
Y717500D02*
D03*
X107500Y617500D02*
D03*
Y342500D02*
D03*
X960000D02*
D03*
X112500Y642500D02*
D03*
Y347500D02*
D03*
X955000D02*
D03*
X302500Y352500D02*
D03*
X950000D02*
D03*
X277854Y357438D02*
D03*
X945000Y357500D02*
D03*
X637500Y945000D02*
D03*
X740000D02*
D03*
Y362500D02*
D03*
X940000D02*
D03*
X1162500Y1020000D02*
D03*
Y470000D02*
D03*
X1082500D02*
D03*
X1157500Y1025000D02*
D03*
Y475000D02*
D03*
X1077500D02*
D03*
X1152500Y1030000D02*
D03*
Y480000D02*
D03*
X1072500D02*
D03*
X1147500Y997500D02*
D03*
X732500D02*
D03*
X1147500Y490000D02*
D03*
X1072500D02*
D03*
X722500Y960000D02*
D03*
X1137500D02*
D03*
Y495000D02*
D03*
X1077500D02*
D03*
X1082500Y500000D02*
D03*
X1087500Y505000D02*
D03*
X1092500Y510000D02*
D03*
X1097500Y515000D02*
D03*
X1102500Y520000D02*
D03*
X1087500Y545000D02*
D03*
X1092500Y540000D02*
D03*
X1097500Y535000D02*
D03*
X1102500Y530000D02*
D03*
X1107500Y525000D02*
D03*
X1132500Y985000D02*
D03*
Y500000D02*
D03*
X527500Y950000D02*
D03*
X1127500D02*
D03*
Y505000D02*
D03*
X1370000Y510000D02*
D03*
X1497500Y515000D02*
D03*
X1472500Y520000D02*
D03*
X1420000Y525000D02*
D03*
X1122500Y737500D02*
D03*
Y530000D02*
D03*
X1117500Y172500D02*
D03*
Y535000D02*
D03*
X1112500Y167500D02*
D03*
Y540000D02*
D03*
X1107500Y780000D02*
D03*
Y545000D02*
D03*
X1102500Y710000D02*
D03*
Y550000D02*
D03*
X1077500D02*
D03*
X1615000Y1110000D02*
D03*
X1525000D02*
D03*
Y555000D02*
D03*
X1072500D02*
D03*
X432500Y367500D02*
D03*
X1090000D02*
D03*
X460000Y372500D02*
D03*
X1085000D02*
D03*
X475000Y377500D02*
D03*
X1080000D02*
D03*
X480000Y572500D02*
D03*
X877500Y570000D02*
D03*
X505000Y567500D02*
D03*
X882500Y565000D02*
D03*
X530000Y562500D02*
D03*
X887500Y560000D02*
D03*
X555000Y557500D02*
D03*
X892500Y555000D02*
D03*
X580000Y552500D02*
D03*
X897500Y550000D02*
D03*
X427500Y602500D02*
D03*
X454271Y596999D02*
D03*
X1320000Y702500D02*
D03*
X985000D02*
D03*
X1295000Y697500D02*
D03*
X990000D02*
D03*
X1242500Y687500D02*
D03*
X1269600Y692900D02*
D03*
X995000Y692500D02*
D03*
X1000000Y687500D02*
D03*
X1217500Y615000D02*
D03*
X1005000D02*
D03*
X1192500Y610000D02*
D03*
X1010000D02*
D03*
X1167500Y605000D02*
D03*
X1015000D02*
D03*
X1142943Y600466D02*
D03*
X1020000Y600000D02*
D03*
X810000Y382500D02*
D03*
X785000Y387500D02*
D03*
X760000Y392500D02*
D03*
X732500Y397500D02*
D03*
X710000Y402500D02*
D03*
X682500Y407500D02*
D03*
X657500Y412500D02*
D03*
X630000Y417500D02*
D03*
X608171Y422818D02*
D03*
X1020000Y382500D02*
D03*
X1015000Y387500D02*
D03*
X1010000Y392500D02*
D03*
X1005000Y397500D02*
D03*
X1000000Y402500D02*
D03*
X995000Y407500D02*
D03*
X990000Y412500D02*
D03*
X985000Y417500D02*
D03*
X980000Y422500D02*
D03*
X857500Y480000D02*
D03*
Y547500D02*
D03*
X285000Y987500D02*
D03*
X247500Y1040000D02*
D03*
D106*
X170000Y925000D02*
X327500D01*
X50000D02*
X170000D01*
Y912500D02*
Y925000D01*
X327500D02*
X327500Y925000D01*
X227500Y964500D02*
Y1000000D01*
X227000Y964000D02*
X227500Y964500D01*
X1395000Y1065000D02*
X1517500D01*
X1222500D02*
X1395000D01*
X1517500Y697500D02*
X1775000D01*
D107*
X390000Y900000D02*
X390000Y900000D01*
X50000Y900000D02*
X390000D01*
D109*
X1653100Y1140000D02*
D03*
Y1127300D02*
D03*
X1640400Y1140000D02*
D03*
Y1127300D02*
D03*
X1627700Y1140000D02*
D03*
Y1127300D02*
D03*
X1615000Y1140000D02*
D03*
Y1127300D02*
D03*
X1602300D02*
D03*
Y1140000D02*
D03*
D110*
X670000Y1100000D02*
D03*
Y1150000D02*
D03*
D111*
X1015200Y1045000D02*
D03*
X1370800D02*
D03*
X1345400D02*
D03*
X1320000D02*
D03*
X1294600D02*
D03*
X1269200D02*
D03*
X1243800D02*
D03*
X1218400D02*
D03*
X1193000D02*
D03*
X1167600D02*
D03*
X1142200D02*
D03*
X1116800D02*
D03*
X1091400D02*
D03*
X1066000D02*
D03*
X1040600D02*
D03*
X1749600Y667500D02*
D03*
X1775000D02*
D03*
X809600Y150000D02*
D03*
X784200D02*
D03*
X758800D02*
D03*
X733400D02*
D03*
X708000D02*
D03*
X682600D02*
D03*
X657200D02*
D03*
X631800D02*
D03*
X606400D02*
D03*
X581000D02*
D03*
X555600D02*
D03*
X530200D02*
D03*
X504800D02*
D03*
X479400D02*
D03*
X454000D02*
D03*
X428600D02*
D03*
X403200D02*
D03*
X377800D02*
D03*
X352400D02*
D03*
X327000D02*
D03*
X301600D02*
D03*
X276200D02*
D03*
X250800D02*
D03*
X225400D02*
D03*
X682600Y760000D02*
D03*
X657200D02*
D03*
X631800D02*
D03*
X606400D02*
D03*
X581000D02*
D03*
X555600D02*
D03*
X530200D02*
D03*
X504800D02*
D03*
X479400D02*
D03*
X454000D02*
D03*
X428600D02*
D03*
X403200D02*
D03*
X377800D02*
D03*
X352400D02*
D03*
X327000D02*
D03*
X301600D02*
D03*
X276200D02*
D03*
X250800D02*
D03*
X225400D02*
D03*
X200000D02*
D03*
X1498000Y60000D02*
D03*
X1472600D02*
D03*
X1447200D02*
D03*
X1421800D02*
D03*
X1396400D02*
D03*
X1371000D02*
D03*
D112*
X989800Y1045000D02*
D03*
X1724200Y667500D02*
D03*
X200000Y150000D02*
D03*
X1345600Y60000D02*
D03*
D113*
X1169600Y1130935D02*
D03*
D114*
X1195000Y1156335D02*
D03*
X1220400Y1130935D02*
D03*
D115*
X1750000Y517500D02*
D03*
X50000Y780000D02*
D03*
X50000Y507500D02*
D03*
X50000Y950000D02*
D03*
D116*
X1750000Y542500D02*
D03*
X50000Y580000D02*
D03*
Y655000D02*
D03*
Y680000D02*
D03*
Y730000D02*
D03*
Y755000D02*
D03*
Y705000D02*
D03*
Y630000D02*
D03*
Y605000D02*
D03*
X50000Y482500D02*
D03*
X50000Y850000D02*
D03*
Y900000D02*
D03*
Y925000D02*
D03*
Y875000D02*
D03*
X130000Y1150000D02*
D03*
D117*
X1750000D02*
D03*
X1600000Y45000D02*
D03*
X1243600D02*
D03*
Y655000D02*
D03*
X1600000D02*
D03*
X50000Y50000D02*
D03*
Y1150000D02*
D03*
X1750000Y50000D02*
D03*
D118*
X45000Y395000D02*
D03*
Y320000D02*
D03*
D119*
X155000Y1150000D02*
D03*
D120*
X119972Y999962D02*
D03*
D121*
X90000Y1050000D02*
D03*
X151214D02*
D03*
D122*
X1586500Y1008500D02*
D03*
X1597500D02*
D03*
X1608500D02*
D03*
X1586500Y997500D02*
D03*
X1597500D02*
D03*
X1608500D02*
D03*
X1586500Y986500D02*
D03*
X1597500D02*
D03*
X1608500D02*
D03*
M02*
