G04*
G04 #@! TF.GenerationSoftware,Altium Limited,Altium Designer,21.4.1 (30)*
G04*
G04 Layer_Color=8388736*
%FSLAX44Y44*%
%MOMM*%
G71*
G04*
G04 #@! TF.SameCoordinates,A141D3DD-4A5E-4641-B441-74F08AAE2887*
G04*
G04*
G04 #@! TF.FilePolarity,Negative*
G04*
G01*
G75*
%ADD55R,1.3800X1.4800*%
%ADD56R,1.2100X0.6600*%
%ADD57R,2.0600X2.2400*%
%ADD58R,1.2100X0.3600*%
%ADD59R,0.9800X0.3300*%
%ADD60R,0.3300X0.9800*%
%ADD61R,3.3300X3.3300*%
%ADD62R,0.4800X0.4300*%
%ADD63R,0.4300X0.4800*%
%ADD64R,1.0800X0.5800*%
%ADD65R,1.0800X0.9800*%
%ADD66R,0.9800X1.0800*%
%ADD67R,0.7200X0.6800*%
%ADD68R,0.6800X0.7200*%
%ADD69C,0.4500*%
%ADD70R,1.0532X1.1532*%
%ADD71R,1.2032X0.7532*%
%ADD72R,1.1532X1.0532*%
%ADD73O,1.4032X0.5032*%
%ADD74O,0.5032X1.4032*%
%ADD75R,1.4032X2.7032*%
%ADD76R,2.1032X1.2032*%
%ADD77R,2.7032X1.9032*%
%ADD78R,1.3532X1.5532*%
%ADD79R,1.2032X1.1032*%
%ADD80R,1.0032X1.1032*%
%ADD81R,1.9032X2.7032*%
%ADD82O,1.6532X0.8032*%
%ADD83O,1.7032X0.6532*%
%ADD84R,5.6032X2.0032*%
%ADD85R,3.4032X1.8032*%
%ADD86R,1.8032X1.4032*%
%ADD87R,1.8032X3.5032*%
%ADD88R,1.4032X1.8532*%
%ADD89R,4.8032X4.4432*%
%ADD90C,0.2032*%
%ADD91C,1.0800*%
%ADD92P,2.5569X8X112.5*%
%ADD93C,2.0032*%
%ADD94R,2.0032X2.0032*%
%ADD95R,1.4252X1.4252*%
%ADD96C,1.4252*%
%ADD97R,1.7272X1.7272*%
%ADD98C,1.7272*%
%ADD99C,3.2032*%
%ADD100C,2.2032*%
%ADD101R,1.7272X1.7272*%
G04:AMPARAMS|DCode=102|XSize=5.2032mm|YSize=3.7032mm|CornerRadius=0mm|HoleSize=0mm|Usage=FLASHONLY|Rotation=0.000|XOffset=0mm|YOffset=0mm|HoleType=Round|Shape=Octagon|*
%AMOCTAGOND102*
4,1,8,2.6016,-0.9258,2.6016,0.9258,1.6758,1.8516,-1.6758,1.8516,-2.6016,0.9258,-2.6016,-0.9258,-1.6758,-1.8516,1.6758,-1.8516,2.6016,-0.9258,0.0*
%
%ADD102OCTAGOND102*%

G04:AMPARAMS|DCode=103|XSize=5.2032mm|YSize=3.7032mm|CornerRadius=0mm|HoleSize=0mm|Usage=FLASHONLY|Rotation=270.000|XOffset=0mm|YOffset=0mm|HoleType=Round|Shape=Octagon|*
%AMOCTAGOND103*
4,1,8,-0.9258,-2.6016,0.9258,-2.6016,1.8516,-1.6758,1.8516,1.6758,0.9258,2.6016,-0.9258,2.6016,-1.8516,1.6758,-1.8516,-1.6758,-0.9258,-2.6016,0.0*
%
%ADD103OCTAGOND103*%

%ADD104C,0.7032*%
D55*
X308000Y1045000D02*
D03*
X292000D02*
D03*
X308000Y1025000D02*
D03*
X292000D02*
D03*
X308000Y1005000D02*
D03*
X292000D02*
D03*
X197000Y1035000D02*
D03*
X213000D02*
D03*
X197000Y1055000D02*
D03*
X213000D02*
D03*
X255500D02*
D03*
X239500D02*
D03*
D56*
X1724000Y1022000D02*
D03*
Y1014000D02*
D03*
Y958000D02*
D03*
Y966000D02*
D03*
D57*
X1730500Y938900D02*
D03*
Y1041100D02*
D03*
X1769500Y938900D02*
D03*
Y1041100D02*
D03*
D58*
X1724000Y972500D02*
D03*
Y977500D02*
D03*
Y982500D02*
D03*
Y987500D02*
D03*
Y992500D02*
D03*
Y997500D02*
D03*
Y1002500D02*
D03*
Y1007500D02*
D03*
D59*
X1573500Y1012500D02*
D03*
Y1007500D02*
D03*
Y1002500D02*
D03*
Y997500D02*
D03*
Y992500D02*
D03*
Y982500D02*
D03*
Y987500D02*
D03*
X1621500Y1012500D02*
D03*
Y1007500D02*
D03*
Y1002500D02*
D03*
Y997500D02*
D03*
Y992500D02*
D03*
Y982500D02*
D03*
Y987500D02*
D03*
D60*
X1582500Y973500D02*
D03*
X1587500D02*
D03*
X1592500D02*
D03*
X1597500D02*
D03*
X1602500D02*
D03*
X1607500D02*
D03*
X1612500D02*
D03*
X1582500Y1021500D02*
D03*
X1587500D02*
D03*
X1592500D02*
D03*
X1597500D02*
D03*
X1602500D02*
D03*
X1607500D02*
D03*
X1612500D02*
D03*
D61*
X1597500Y997500D02*
D03*
D62*
X923800Y602500D02*
D03*
X930000D02*
D03*
X1046200Y417500D02*
D03*
X1040000D02*
D03*
X930000D02*
D03*
X923800D02*
D03*
D63*
X1077500Y570600D02*
D03*
Y564400D02*
D03*
X892500Y519400D02*
D03*
Y525600D02*
D03*
D64*
X466000Y1045000D02*
D03*
X445000D02*
D03*
Y1053000D02*
D03*
X466000D02*
D03*
X1045500Y630500D02*
D03*
X1024500D02*
D03*
Y622500D02*
D03*
X1045500D02*
D03*
Y654000D02*
D03*
X1024500D02*
D03*
Y646000D02*
D03*
X1045500D02*
D03*
X1743000Y914000D02*
D03*
X1722000D02*
D03*
Y906000D02*
D03*
X1743000D02*
D03*
Y891500D02*
D03*
X1722000D02*
D03*
Y883500D02*
D03*
X1743000D02*
D03*
Y869000D02*
D03*
X1722000D02*
D03*
Y861000D02*
D03*
X1743000D02*
D03*
X190000Y929000D02*
D03*
X169000D02*
D03*
Y921000D02*
D03*
X190000D02*
D03*
X190500Y954000D02*
D03*
X169500D02*
D03*
Y946000D02*
D03*
X190500D02*
D03*
X190000Y904000D02*
D03*
X169000D02*
D03*
Y896000D02*
D03*
X190000D02*
D03*
D65*
X1705450Y1033250D02*
D03*
Y1046750D02*
D03*
X1557500Y1007500D02*
D03*
Y994000D02*
D03*
X590000Y1074250D02*
D03*
Y1060750D02*
D03*
X1090000Y581000D02*
D03*
Y567500D02*
D03*
X785000Y556342D02*
D03*
Y542842D02*
D03*
Y487777D02*
D03*
Y474277D02*
D03*
D66*
X1686300Y847500D02*
D03*
X1699800D02*
D03*
X1615750Y1037500D02*
D03*
X1629250D02*
D03*
X228250Y175000D02*
D03*
X241750D02*
D03*
X228250Y735000D02*
D03*
X241750D02*
D03*
X1005250Y1007500D02*
D03*
X991750D02*
D03*
X1735750Y217500D02*
D03*
X1749250D02*
D03*
X1735750Y402500D02*
D03*
X1749250D02*
D03*
X1041750Y670000D02*
D03*
X1028250D02*
D03*
X1056750Y405000D02*
D03*
X1043250D02*
D03*
X1311750Y1090000D02*
D03*
X1298250D02*
D03*
X400000Y963000D02*
D03*
X413500D02*
D03*
X400000Y980000D02*
D03*
X413500D02*
D03*
X353250Y963000D02*
D03*
X366750D02*
D03*
X353250Y980000D02*
D03*
X366750D02*
D03*
D67*
X1637500Y1008800D02*
D03*
Y1000000D02*
D03*
X607500Y1075000D02*
D03*
Y1066200D02*
D03*
D68*
X571900Y1017500D02*
D03*
X563100D02*
D03*
X206900Y517500D02*
D03*
X198100D02*
D03*
X1677500Y632500D02*
D03*
X1686300D02*
D03*
X1781300Y642500D02*
D03*
X1772500D02*
D03*
X226600Y190000D02*
D03*
X235400D02*
D03*
X226600Y720000D02*
D03*
X235400D02*
D03*
X1006900Y1022500D02*
D03*
X998100D02*
D03*
X684400Y1007500D02*
D03*
X675600D02*
D03*
X926000Y612500D02*
D03*
X934800D02*
D03*
X244400Y985901D02*
D03*
X235600D02*
D03*
D69*
X265756Y1025905D02*
D03*
Y1019405D02*
D03*
Y1012905D02*
D03*
Y1006405D02*
D03*
X239756Y1025905D02*
D03*
X259256Y1019405D02*
D03*
Y1012905D02*
D03*
Y1006405D02*
D03*
X252756Y1012905D02*
D03*
Y1019405D02*
D03*
Y1025905D02*
D03*
Y1006405D02*
D03*
X246255Y1025905D02*
D03*
Y1019405D02*
D03*
Y1012905D02*
D03*
Y1006405D02*
D03*
X239756D02*
D03*
Y1012905D02*
D03*
Y1019405D02*
D03*
X259256Y1025905D02*
D03*
X265756Y1032405D02*
D03*
X239756D02*
D03*
X252756D02*
D03*
X246255D02*
D03*
X259256D02*
D03*
D70*
X889000Y677500D02*
D03*
X876000D02*
D03*
X889000Y660000D02*
D03*
X876000D02*
D03*
X889000Y642500D02*
D03*
X876000D02*
D03*
X941500Y677500D02*
D03*
X928500D02*
D03*
X941500Y660000D02*
D03*
X928500D02*
D03*
X941500Y642500D02*
D03*
X928500D02*
D03*
X1713500Y597500D02*
D03*
X1726500D02*
D03*
X1713500Y615000D02*
D03*
X1726500D02*
D03*
X1584500Y1037500D02*
D03*
X1597500D02*
D03*
X1686550Y887500D02*
D03*
X1699550D02*
D03*
X1686550Y865000D02*
D03*
X1699550D02*
D03*
X1328500Y1090000D02*
D03*
X1341500D02*
D03*
X1693250Y1015000D02*
D03*
X1706250D02*
D03*
X1706250Y997500D02*
D03*
X1693250D02*
D03*
X1706250Y980000D02*
D03*
X1693250D02*
D03*
X310500Y985000D02*
D03*
X297500D02*
D03*
X1719000Y217500D02*
D03*
X1706000D02*
D03*
X1719000Y402500D02*
D03*
X1706000D02*
D03*
X869869Y556750D02*
D03*
X856869D02*
D03*
X869869Y488027D02*
D03*
X856869D02*
D03*
X650000Y1040000D02*
D03*
X663000D02*
D03*
Y1060000D02*
D03*
X650000D02*
D03*
X745000Y1007500D02*
D03*
X732000D02*
D03*
X505000Y968697D02*
D03*
X518000D02*
D03*
X505000Y1005000D02*
D03*
X518000D02*
D03*
X505000Y986889D02*
D03*
X518000D02*
D03*
X745000Y990000D02*
D03*
X732000D02*
D03*
X745000Y972500D02*
D03*
X732000D02*
D03*
X200050Y988613D02*
D03*
X213050D02*
D03*
X260506Y983901D02*
D03*
X273505D02*
D03*
D71*
X1695400Y605000D02*
D03*
X1668400Y614500D02*
D03*
Y605000D02*
D03*
Y595500D02*
D03*
X1695400D02*
D03*
Y614500D02*
D03*
X210000Y501500D02*
D03*
Y482500D02*
D03*
X183000D02*
D03*
Y492000D02*
D03*
Y501500D02*
D03*
X210000Y492000D02*
D03*
D72*
X617500Y982500D02*
D03*
Y995500D02*
D03*
X1706250Y950000D02*
D03*
Y963000D02*
D03*
X1590000Y957500D02*
D03*
Y944500D02*
D03*
X1610000Y957500D02*
D03*
Y944500D02*
D03*
X1410000Y1116000D02*
D03*
Y1129000D02*
D03*
X1686950Y1045200D02*
D03*
Y1032200D02*
D03*
X802802Y544392D02*
D03*
Y557392D02*
D03*
Y475827D02*
D03*
Y488827D02*
D03*
X165000Y496500D02*
D03*
Y483500D02*
D03*
X227500Y497500D02*
D03*
Y484500D02*
D03*
D73*
X907500Y570000D02*
D03*
Y565000D02*
D03*
Y560000D02*
D03*
Y555000D02*
D03*
Y550000D02*
D03*
Y545000D02*
D03*
Y540000D02*
D03*
Y535000D02*
D03*
Y530000D02*
D03*
Y525000D02*
D03*
Y520000D02*
D03*
Y515000D02*
D03*
Y510000D02*
D03*
Y505000D02*
D03*
Y500000D02*
D03*
Y495000D02*
D03*
Y490000D02*
D03*
Y485000D02*
D03*
Y480000D02*
D03*
Y475000D02*
D03*
Y470000D02*
D03*
Y465000D02*
D03*
Y460000D02*
D03*
Y455000D02*
D03*
Y450000D02*
D03*
X1062500D02*
D03*
Y455000D02*
D03*
Y460000D02*
D03*
Y465000D02*
D03*
Y470000D02*
D03*
Y475000D02*
D03*
Y480000D02*
D03*
Y485000D02*
D03*
Y490000D02*
D03*
Y495000D02*
D03*
Y500000D02*
D03*
Y505000D02*
D03*
Y510000D02*
D03*
Y515000D02*
D03*
Y520000D02*
D03*
Y525000D02*
D03*
Y530000D02*
D03*
Y535000D02*
D03*
Y540000D02*
D03*
Y545000D02*
D03*
Y550000D02*
D03*
Y555000D02*
D03*
Y560000D02*
D03*
Y565000D02*
D03*
Y570000D02*
D03*
D74*
X925000Y432500D02*
D03*
X930000D02*
D03*
X935000D02*
D03*
X940000D02*
D03*
X945000D02*
D03*
X950000D02*
D03*
X955000D02*
D03*
X960000D02*
D03*
X965000D02*
D03*
X970000D02*
D03*
X975000D02*
D03*
X980000D02*
D03*
X985000D02*
D03*
X990000D02*
D03*
X995000D02*
D03*
X1000000D02*
D03*
X1005000D02*
D03*
X1010000D02*
D03*
X1015000D02*
D03*
X1020000D02*
D03*
X1025000D02*
D03*
X1030000D02*
D03*
X1035000D02*
D03*
X1040000D02*
D03*
X1045000D02*
D03*
Y587500D02*
D03*
X1040000D02*
D03*
X1035000D02*
D03*
X1030000D02*
D03*
X1025000D02*
D03*
X1020000D02*
D03*
X1015000D02*
D03*
X1010000D02*
D03*
X1005000D02*
D03*
X1000000D02*
D03*
X995000D02*
D03*
X990000D02*
D03*
X985000D02*
D03*
X980000D02*
D03*
X975000D02*
D03*
X970000D02*
D03*
X965000D02*
D03*
X960000D02*
D03*
X955000D02*
D03*
X950000D02*
D03*
X945000D02*
D03*
X940000D02*
D03*
X935000D02*
D03*
X930000D02*
D03*
X925000D02*
D03*
D75*
X1475000Y1150000D02*
D03*
X1500000Y1095000D02*
D03*
X1450000Y1150000D02*
D03*
X1500000D02*
D03*
X1475000Y1095000D02*
D03*
X1450000D02*
D03*
D76*
X1274500Y1112500D02*
D03*
X1365500Y1157500D02*
D03*
X1274500D02*
D03*
X1365500Y1112500D02*
D03*
X1773000Y197500D02*
D03*
X1682000Y152500D02*
D03*
X1773000D02*
D03*
X1682000Y197500D02*
D03*
X1773000Y382500D02*
D03*
X1682000Y337500D02*
D03*
X1773000D02*
D03*
X1682000Y382500D02*
D03*
D77*
X1355000Y1010000D02*
D03*
X1395000D02*
D03*
X190000Y1090000D02*
D03*
X230000D02*
D03*
X270000D02*
D03*
X310000D02*
D03*
D78*
X1680000Y910000D02*
D03*
X1697500D02*
D03*
X463750Y1025000D02*
D03*
X446250D02*
D03*
X211250Y900000D02*
D03*
X228750D02*
D03*
X228750Y925000D02*
D03*
X211250D02*
D03*
X211250Y950000D02*
D03*
X228750D02*
D03*
D79*
X821500Y543500D02*
D03*
X838500D02*
D03*
X821500Y556500D02*
D03*
X838500D02*
D03*
X821500Y474777D02*
D03*
X838500D02*
D03*
X821500Y487777D02*
D03*
X838500D02*
D03*
D80*
X680500Y1040000D02*
D03*
X699500D02*
D03*
X690000Y1060000D02*
D03*
D81*
X750000Y1100000D02*
D03*
Y1140000D02*
D03*
D82*
X540250Y1001550D02*
D03*
Y988850D02*
D03*
Y976150D02*
D03*
Y963450D02*
D03*
X594750Y1001550D02*
D03*
Y988850D02*
D03*
Y976150D02*
D03*
Y963450D02*
D03*
D83*
X709000Y972750D02*
D03*
Y979250D02*
D03*
Y985750D02*
D03*
Y992250D02*
D03*
X651000Y972750D02*
D03*
Y979250D02*
D03*
Y985750D02*
D03*
Y992250D02*
D03*
D84*
X379000Y1120000D02*
D03*
X471000D02*
D03*
D85*
X580462Y1135203D02*
D03*
X530462D02*
D03*
D86*
X353000Y1048000D02*
D03*
Y1025000D02*
D03*
Y1002000D02*
D03*
D87*
X417000Y1025000D02*
D03*
D88*
X184750Y1010000D02*
D03*
X212750D02*
D03*
D89*
X225000Y1140000D02*
D03*
X300000D02*
D03*
D90*
X1735500Y1018900D02*
D03*
Y961100D02*
D03*
X46312Y1050000D02*
D03*
D91*
X1653100Y1140000D02*
D03*
Y1127300D02*
D03*
X1640400Y1140000D02*
D03*
Y1127300D02*
D03*
X1627700Y1140000D02*
D03*
Y1127300D02*
D03*
X1615000Y1140000D02*
D03*
Y1127300D02*
D03*
X1602300D02*
D03*
Y1140000D02*
D03*
D92*
X670000Y1100000D02*
D03*
Y1150000D02*
D03*
D93*
X1015200Y1045000D02*
D03*
X1370800D02*
D03*
X1345400D02*
D03*
X1320000D02*
D03*
X1294600D02*
D03*
X1269200D02*
D03*
X1243800D02*
D03*
X1218400D02*
D03*
X1193000D02*
D03*
X1167600D02*
D03*
X1142200D02*
D03*
X1116800D02*
D03*
X1091400D02*
D03*
X1066000D02*
D03*
X1040600D02*
D03*
X1749600Y667500D02*
D03*
X1775000D02*
D03*
X809600Y150000D02*
D03*
X784200D02*
D03*
X758800D02*
D03*
X733400D02*
D03*
X708000D02*
D03*
X682600D02*
D03*
X657200D02*
D03*
X631800D02*
D03*
X606400D02*
D03*
X581000D02*
D03*
X555600D02*
D03*
X530200D02*
D03*
X504800D02*
D03*
X479400D02*
D03*
X454000D02*
D03*
X428600D02*
D03*
X403200D02*
D03*
X377800D02*
D03*
X352400D02*
D03*
X327000D02*
D03*
X301600D02*
D03*
X276200D02*
D03*
X250800D02*
D03*
X225400D02*
D03*
X682600Y760000D02*
D03*
X657200D02*
D03*
X631800D02*
D03*
X606400D02*
D03*
X581000D02*
D03*
X555600D02*
D03*
X530200D02*
D03*
X504800D02*
D03*
X479400D02*
D03*
X454000D02*
D03*
X428600D02*
D03*
X403200D02*
D03*
X377800D02*
D03*
X352400D02*
D03*
X327000D02*
D03*
X301600D02*
D03*
X276200D02*
D03*
X250800D02*
D03*
X225400D02*
D03*
X200000D02*
D03*
X1498000Y60000D02*
D03*
X1472600D02*
D03*
X1447200D02*
D03*
X1421800D02*
D03*
X1396400D02*
D03*
X1371000D02*
D03*
D94*
X989800Y1045000D02*
D03*
X1724200Y667500D02*
D03*
X200000Y150000D02*
D03*
X1345600Y60000D02*
D03*
D95*
X1169600Y1130935D02*
D03*
D96*
X1195000Y1156335D02*
D03*
X1220400Y1130935D02*
D03*
D97*
X1750000Y517500D02*
D03*
X50000Y780000D02*
D03*
X50000Y507500D02*
D03*
X50000Y950000D02*
D03*
D98*
X1750000Y542500D02*
D03*
X50000Y580000D02*
D03*
Y655000D02*
D03*
Y680000D02*
D03*
Y730000D02*
D03*
Y755000D02*
D03*
Y705000D02*
D03*
Y630000D02*
D03*
Y605000D02*
D03*
X50000Y482500D02*
D03*
X50000Y850000D02*
D03*
Y900000D02*
D03*
Y925000D02*
D03*
Y875000D02*
D03*
X130000Y1150000D02*
D03*
D99*
X1750000D02*
D03*
X1600000Y45000D02*
D03*
X1243600D02*
D03*
Y655000D02*
D03*
X1600000D02*
D03*
X50000Y50000D02*
D03*
Y1150000D02*
D03*
X1750000Y50000D02*
D03*
D100*
X45000Y395000D02*
D03*
Y320000D02*
D03*
D101*
X155000Y1150000D02*
D03*
D102*
X119972Y999962D02*
D03*
D103*
X90000Y1050000D02*
D03*
X151214D02*
D03*
D104*
X1586500Y1008500D02*
D03*
X1597500D02*
D03*
X1608500D02*
D03*
X1586500Y997500D02*
D03*
X1597500D02*
D03*
X1608500D02*
D03*
X1586500Y986500D02*
D03*
X1597500D02*
D03*
X1608500D02*
D03*
M02*
