G04*
G04 #@! TF.GenerationSoftware,Altium Limited,Altium Designer,21.4.1 (30)*
G04*
G04 Layer_Color=128*
%FSLAX44Y44*%
%MOMM*%
G71*
G04*
G04 #@! TF.SameCoordinates,A141D3DD-4A5E-4641-B441-74F08AAE2887*
G04*
G04*
G04 #@! TF.FilePolarity,Positive*
G04*
G01*
G75*
%ADD126C,0.0508*%
D126*
X1732250Y1018900D02*
X1738750D01*
X1735500Y1015650D02*
Y1022150D01*
X1732250Y961100D02*
X1738750D01*
X1735500Y957850D02*
Y964350D01*
X1649850Y1140000D02*
X1656350D01*
X1653100Y1136750D02*
Y1143250D01*
X1649850Y1127300D02*
X1656350D01*
X1653100Y1124050D02*
Y1130550D01*
X1637150Y1140000D02*
X1643650D01*
X1640400Y1136750D02*
Y1143250D01*
X1637150Y1127300D02*
X1643650D01*
X1640400Y1124050D02*
Y1130550D01*
X1624450Y1140000D02*
X1630950D01*
X1627700Y1136750D02*
Y1143250D01*
X1624450Y1127300D02*
X1630950D01*
X1627700Y1124050D02*
Y1130550D01*
X1611750Y1140000D02*
X1618250D01*
X1615000Y1136750D02*
Y1143250D01*
X1611750Y1127300D02*
X1618250D01*
X1615000Y1124050D02*
Y1130550D01*
X1599050Y1127300D02*
X1605550D01*
X1602300Y1124050D02*
Y1130550D01*
X1599050Y1140000D02*
X1605550D01*
X1602300Y1136750D02*
Y1143250D01*
X665000Y1100000D02*
X675000D01*
X670000Y1095000D02*
Y1105000D01*
X665000Y1150000D02*
X675000D01*
X670000Y1145000D02*
Y1155000D01*
X1010200Y1045000D02*
X1020200D01*
X1015200Y1040000D02*
Y1050000D01*
X1365800Y1045000D02*
X1375800D01*
X1370800Y1040000D02*
Y1050000D01*
X1340400Y1045000D02*
X1350400D01*
X1345400Y1040000D02*
Y1050000D01*
X1315000Y1045000D02*
X1325000D01*
X1320000Y1040000D02*
Y1050000D01*
X1289600Y1045000D02*
X1299600D01*
X1294600Y1040000D02*
Y1050000D01*
X1264200Y1045000D02*
X1274200D01*
X1269200Y1040000D02*
Y1050000D01*
X1238800Y1045000D02*
X1248800D01*
X1243800Y1040000D02*
Y1050000D01*
X1213400Y1045000D02*
X1223400D01*
X1218400Y1040000D02*
Y1050000D01*
X1188000Y1045000D02*
X1198000D01*
X1193000Y1040000D02*
Y1050000D01*
X1162600Y1045000D02*
X1172600D01*
X1167600Y1040000D02*
Y1050000D01*
X1137200Y1045000D02*
X1147200D01*
X1142200Y1040000D02*
Y1050000D01*
X1111800Y1045000D02*
X1121800D01*
X1116800Y1040000D02*
Y1050000D01*
X1086400Y1045000D02*
X1096400D01*
X1091400Y1040000D02*
Y1050000D01*
X1061000Y1045000D02*
X1071000D01*
X1066000Y1040000D02*
Y1050000D01*
X1035600Y1045000D02*
X1045600D01*
X1040600Y1040000D02*
Y1050000D01*
X984800Y1045000D02*
X994800D01*
X989800Y1040000D02*
Y1050000D01*
X1166030Y1130935D02*
X1173170D01*
X1169600Y1127365D02*
Y1134505D01*
X1191430Y1156335D02*
X1198570D01*
X1195000Y1152765D02*
Y1159905D01*
X1216830Y1130935D02*
X1223970D01*
X1220400Y1127365D02*
Y1134505D01*
X1744600Y667500D02*
X1754600D01*
X1749600Y662500D02*
Y672500D01*
X1719200Y667500D02*
X1729200D01*
X1724200Y662500D02*
Y672500D01*
X1770000Y667500D02*
X1780000D01*
X1775000Y662500D02*
Y672500D01*
X1745000Y517500D02*
X1755000D01*
X1750000Y512500D02*
Y522500D01*
X1745000Y542500D02*
X1755000D01*
X1750000Y537500D02*
Y547500D01*
X1735000Y1150000D02*
X1765000D01*
X1750000Y1135000D02*
Y1165000D01*
X45000Y580000D02*
X55000D01*
X50000Y575000D02*
Y585000D01*
X45000Y655000D02*
X55000D01*
X50000Y650000D02*
Y660000D01*
X45000Y680000D02*
X55000D01*
X50000Y675000D02*
Y685000D01*
X45000Y730000D02*
X55000D01*
X50000Y725000D02*
Y735000D01*
X45000Y780000D02*
X55000D01*
X50000Y775000D02*
Y785000D01*
X45000Y755000D02*
X55000D01*
X50000Y750000D02*
Y760000D01*
X45000Y705000D02*
X55000D01*
X50000Y700000D02*
Y710000D01*
X45000Y630000D02*
X55000D01*
X50000Y625000D02*
Y635000D01*
X45000Y605000D02*
X55000D01*
X50000Y600000D02*
Y610000D01*
X45000Y482500D02*
X55000D01*
X50000Y477500D02*
Y487500D01*
X45000Y507500D02*
X55000D01*
X50000Y502500D02*
Y512500D01*
X40000Y395000D02*
X50000D01*
X45000Y390000D02*
Y400000D01*
X40000Y320000D02*
X50000D01*
X45000Y315000D02*
Y325000D01*
X45000Y850000D02*
X55000D01*
X50000Y845000D02*
Y855000D01*
X45000Y900000D02*
X55000D01*
X50000Y895000D02*
Y905000D01*
X45000Y950000D02*
X55000D01*
X50000Y945000D02*
Y955000D01*
X45000Y925000D02*
X55000D01*
X50000Y920000D02*
Y930000D01*
X45000Y875000D02*
X55000D01*
X50000Y870000D02*
Y880000D01*
X804600Y150000D02*
X814600D01*
X809600Y145000D02*
Y155000D01*
X779200Y150000D02*
X789200D01*
X784200Y145000D02*
Y155000D01*
X753800Y150000D02*
X763800D01*
X758800Y145000D02*
Y155000D01*
X728400Y150000D02*
X738400D01*
X733400Y145000D02*
Y155000D01*
X703000Y150000D02*
X713000D01*
X708000Y145000D02*
Y155000D01*
X677600Y150000D02*
X687600D01*
X682600Y145000D02*
Y155000D01*
X652200Y150000D02*
X662200D01*
X657200Y145000D02*
Y155000D01*
X626800Y150000D02*
X636800D01*
X631800Y145000D02*
Y155000D01*
X601400Y150000D02*
X611400D01*
X606400Y145000D02*
Y155000D01*
X576000Y150000D02*
X586000D01*
X581000Y145000D02*
Y155000D01*
X550600Y150000D02*
X560600D01*
X555600Y145000D02*
Y155000D01*
X525200Y150000D02*
X535200D01*
X530200Y145000D02*
Y155000D01*
X499800Y150000D02*
X509800D01*
X504800Y145000D02*
Y155000D01*
X474400Y150000D02*
X484400D01*
X479400Y145000D02*
Y155000D01*
X449000Y150000D02*
X459000D01*
X454000Y145000D02*
Y155000D01*
X423600Y150000D02*
X433600D01*
X428600Y145000D02*
Y155000D01*
X398200Y150000D02*
X408200D01*
X403200Y145000D02*
Y155000D01*
X372800Y150000D02*
X382800D01*
X377800Y145000D02*
Y155000D01*
X347400Y150000D02*
X357400D01*
X352400Y145000D02*
Y155000D01*
X322000Y150000D02*
X332000D01*
X327000Y145000D02*
Y155000D01*
X296600Y150000D02*
X306600D01*
X301600Y145000D02*
Y155000D01*
X271200Y150000D02*
X281200D01*
X276200Y145000D02*
Y155000D01*
X245800Y150000D02*
X255800D01*
X250800Y145000D02*
Y155000D01*
X220400Y150000D02*
X230400D01*
X225400Y145000D02*
Y155000D01*
X195000Y150000D02*
X205000D01*
X200000Y145000D02*
Y155000D01*
X677600Y760000D02*
X687600D01*
X682600Y755000D02*
Y765000D01*
X652200Y760000D02*
X662200D01*
X657200Y755000D02*
Y765000D01*
X626800Y760000D02*
X636800D01*
X631800Y755000D02*
Y765000D01*
X601400Y760000D02*
X611400D01*
X606400Y755000D02*
Y765000D01*
X576000Y760000D02*
X586000D01*
X581000Y755000D02*
Y765000D01*
X550600Y760000D02*
X560600D01*
X555600Y755000D02*
Y765000D01*
X525200Y760000D02*
X535200D01*
X530200Y755000D02*
Y765000D01*
X499800Y760000D02*
X509800D01*
X504800Y755000D02*
Y765000D01*
X474400Y760000D02*
X484400D01*
X479400Y755000D02*
Y765000D01*
X449000Y760000D02*
X459000D01*
X454000Y755000D02*
Y765000D01*
X423600Y760000D02*
X433600D01*
X428600Y755000D02*
Y765000D01*
X398200Y760000D02*
X408200D01*
X403200Y755000D02*
Y765000D01*
X372800Y760000D02*
X382800D01*
X377800Y755000D02*
Y765000D01*
X347400Y760000D02*
X357400D01*
X352400Y755000D02*
Y765000D01*
X322000Y760000D02*
X332000D01*
X327000Y755000D02*
Y765000D01*
X296600Y760000D02*
X306600D01*
X301600Y755000D02*
Y765000D01*
X271200Y760000D02*
X281200D01*
X276200Y755000D02*
Y765000D01*
X245800Y760000D02*
X255800D01*
X250800Y755000D02*
Y765000D01*
X220400Y760000D02*
X230400D01*
X225400Y755000D02*
Y765000D01*
X195000Y760000D02*
X205000D01*
X200000Y755000D02*
Y765000D01*
X125000Y1150000D02*
X135000D01*
X130000Y1145000D02*
Y1155000D01*
X150000Y1150000D02*
X160000D01*
X155000Y1145000D02*
Y1155000D01*
X1585000Y45000D02*
X1615000D01*
X1600000Y30000D02*
Y60000D01*
X1228600Y45000D02*
X1258600D01*
X1243600Y30000D02*
Y60000D01*
X1493000D02*
X1503000D01*
X1498000Y55000D02*
Y65000D01*
X1467600Y60000D02*
X1477600D01*
X1472600Y55000D02*
Y65000D01*
X1442200Y60000D02*
X1452200D01*
X1447200Y55000D02*
Y65000D01*
X1416800Y60000D02*
X1426800D01*
X1421800Y55000D02*
Y65000D01*
X1391400Y60000D02*
X1401400D01*
X1396400Y55000D02*
Y65000D01*
X1340600Y60000D02*
X1350600D01*
X1345600Y55000D02*
Y65000D01*
X1366000Y60000D02*
X1376000D01*
X1371000Y55000D02*
Y65000D01*
X1228600Y655000D02*
X1258600D01*
X1243600Y640000D02*
Y670000D01*
X1585000Y655000D02*
X1615000D01*
X1600000Y640000D02*
Y670000D01*
X112472Y999962D02*
X127472D01*
X119972Y992462D02*
Y1007462D01*
X82500Y1050000D02*
X97500D01*
X90000Y1042500D02*
Y1057500D01*
X143714Y1050000D02*
X158714D01*
X151214Y1042500D02*
Y1057500D01*
X31312Y1050000D02*
X61312D01*
X46312Y1035000D02*
Y1065000D01*
X35000Y50000D02*
X65000D01*
X50000Y35000D02*
Y65000D01*
X35000Y1150000D02*
X65000D01*
X50000Y1135000D02*
Y1165000D01*
X1735000Y50000D02*
X1765000D01*
X1750000Y35000D02*
Y65000D01*
X1585500Y1008500D02*
X1587500D01*
X1586500Y1007500D02*
Y1009500D01*
X1596500Y1008500D02*
X1598500D01*
X1597500Y1007500D02*
Y1009500D01*
X1607500Y1008500D02*
X1609500D01*
X1608500Y1007500D02*
Y1009500D01*
X1585500Y997500D02*
X1587500D01*
X1586500Y996500D02*
Y998500D01*
X1596500Y997500D02*
X1598500D01*
X1597500Y996500D02*
Y998500D01*
X1607500Y997500D02*
X1609500D01*
X1608500Y996500D02*
Y998500D01*
X1585500Y986500D02*
X1587500D01*
X1586500Y985500D02*
Y987500D01*
X1596500Y986500D02*
X1598500D01*
X1597500Y985500D02*
Y987500D01*
X1607500Y986500D02*
X1609500D01*
X1608500Y985500D02*
Y987500D01*
X203500Y1067500D02*
X206500D01*
X205000Y1066000D02*
Y1069000D01*
X196000Y1067500D02*
X199000D01*
X197500Y1066000D02*
Y1069000D01*
X1628500Y1017728D02*
X1631500D01*
X1630000Y1016228D02*
Y1019228D01*
X1731000Y982500D02*
X1734000D01*
X1732500Y981000D02*
Y984000D01*
X1731000Y992500D02*
X1734000D01*
X1732500Y991000D02*
Y994000D01*
X328500Y997500D02*
X331500D01*
X330000Y996000D02*
Y999000D01*
X491000Y1110000D02*
X494000D01*
X492500Y1108500D02*
Y1111500D01*
X178500Y987500D02*
X181500D01*
X180000Y986000D02*
Y989000D01*
X171000Y980000D02*
X174000D01*
X172500Y978500D02*
Y981500D01*
X171000Y987500D02*
X174000D01*
X172500Y986000D02*
Y989000D01*
X226000Y197500D02*
X229000D01*
X227500Y196000D02*
Y199000D01*
X411000Y1047500D02*
X414000D01*
X412500Y1046000D02*
Y1049000D01*
X403500Y1047500D02*
X406500D01*
X405000Y1046000D02*
Y1049000D01*
X428500Y942500D02*
X431500D01*
X430000Y941000D02*
Y944000D01*
X428500Y950000D02*
X431500D01*
X430000Y948500D02*
Y951500D01*
X418500Y942500D02*
X421500D01*
X420000Y941000D02*
Y944000D01*
X408500Y942500D02*
X411500D01*
X410000Y941000D02*
Y944000D01*
X388500Y942500D02*
X391500D01*
X390000Y941000D02*
Y944000D01*
X388500Y950000D02*
X391500D01*
X390000Y948500D02*
Y951500D01*
X398500Y942500D02*
X401500D01*
X400000Y941000D02*
Y944000D01*
X195500Y1045000D02*
X198500D01*
X197000Y1043500D02*
Y1046500D01*
X201000Y1000000D02*
X204000D01*
X202500Y998500D02*
Y1001500D01*
X199395Y1020157D02*
X202395D01*
X200895Y1018657D02*
Y1021657D01*
X213500Y977500D02*
X216500D01*
X215000Y976000D02*
Y979000D01*
X206000Y977500D02*
X209000D01*
X207500Y976000D02*
Y979000D01*
X283500Y980000D02*
X286500D01*
X285000Y978500D02*
Y981500D01*
X258500Y915000D02*
X261500D01*
X260000Y913500D02*
Y916500D01*
X258500Y955000D02*
X261500D01*
X260000Y953500D02*
Y956500D01*
X298500Y955000D02*
X301500D01*
X300000Y953500D02*
Y956500D01*
X198500Y915000D02*
X201500D01*
X200000Y913500D02*
Y916500D01*
X198500Y875000D02*
X201500D01*
X200000Y873500D02*
Y876500D01*
X298500Y915000D02*
X301500D01*
X300000Y913500D02*
Y916500D01*
X298500Y875000D02*
X301500D01*
X300000Y873500D02*
Y876500D01*
X323500Y1067500D02*
X326500D01*
X325000Y1066000D02*
Y1069000D01*
X318500Y1072500D02*
X321500D01*
X320000Y1071000D02*
Y1074000D01*
X371000Y1052500D02*
X374000D01*
X372500Y1051000D02*
Y1054000D01*
X371000Y990000D02*
X374000D01*
X372500Y988500D02*
Y991500D01*
X371000Y997500D02*
X374000D01*
X372500Y996000D02*
Y999000D01*
X371000Y1005000D02*
X374000D01*
X372500Y1003500D02*
Y1006500D01*
X371000Y1012500D02*
X374000D01*
X372500Y1011000D02*
Y1014000D01*
X371000Y1045000D02*
X374000D01*
X372500Y1043500D02*
Y1046500D01*
X371000Y1037500D02*
X374000D01*
X372500Y1036000D02*
Y1039000D01*
X23500Y100000D02*
X26500D01*
X25000Y98500D02*
Y101500D01*
X23500Y200000D02*
X26500D01*
X25000Y198500D02*
Y201500D01*
X23500Y300000D02*
X26500D01*
X25000Y298500D02*
Y301500D01*
X23500Y400000D02*
X26500D01*
X25000Y398500D02*
Y401500D01*
X23500Y500000D02*
X26500D01*
X25000Y498500D02*
Y501500D01*
X23500Y600000D02*
X26500D01*
X25000Y598500D02*
Y601500D01*
X23500Y625000D02*
X26500D01*
X25000Y623500D02*
Y626500D01*
X23500Y700000D02*
X26500D01*
X25000Y698500D02*
Y701500D01*
X23500Y800000D02*
X26500D01*
X25000Y798500D02*
Y801500D01*
X23500Y875000D02*
X26500D01*
X25000Y873500D02*
Y876500D01*
X23500Y950000D02*
X26500D01*
X25000Y948500D02*
Y951500D01*
X98500Y950000D02*
X101500D01*
X100000Y948500D02*
Y951500D01*
X98500Y875000D02*
X101500D01*
X100000Y873500D02*
Y876500D01*
X523500Y1100000D02*
X526500D01*
X525000Y1098500D02*
Y1101500D01*
X523500Y1175000D02*
X526500D01*
X525000Y1173500D02*
Y1176500D01*
X598500Y1175000D02*
X601500D01*
X600000Y1173500D02*
Y1176500D01*
X698500Y1175000D02*
X701500D01*
X700000Y1173500D02*
Y1176500D01*
X798500Y1175000D02*
X801500D01*
X800000Y1173500D02*
Y1176500D01*
X898500Y1175000D02*
X901500D01*
X900000Y1173500D02*
Y1176500D01*
X998500Y1175000D02*
X1001500D01*
X1000000Y1173500D02*
Y1176500D01*
X1098500Y1175000D02*
X1101500D01*
X1100000Y1173500D02*
Y1176500D01*
X1173500Y1100000D02*
X1176500D01*
X1175000Y1098500D02*
Y1101500D01*
X1173500Y1175000D02*
X1176500D01*
X1175000Y1173500D02*
Y1176500D01*
X1248500Y1100000D02*
X1251500D01*
X1250000Y1098500D02*
Y1101500D01*
X1248500Y1175000D02*
X1251500D01*
X1250000Y1173500D02*
Y1176500D01*
X1398500Y1100000D02*
X1401500D01*
X1400000Y1098500D02*
Y1101500D01*
X1323500Y1100000D02*
X1326500D01*
X1325000Y1098500D02*
Y1101500D01*
X1323500Y1175000D02*
X1326500D01*
X1325000Y1173500D02*
Y1176500D01*
X1398500Y1175000D02*
X1401500D01*
X1400000Y1173500D02*
Y1176500D01*
X1473500Y1175000D02*
X1476500D01*
X1475000Y1173500D02*
Y1176500D01*
X1548500Y1100000D02*
X1551500D01*
X1550000Y1098500D02*
Y1101500D01*
X1548500Y1175000D02*
X1551500D01*
X1550000Y1173500D02*
Y1176500D01*
X1623500Y1175000D02*
X1626500D01*
X1625000Y1173500D02*
Y1176500D01*
X1698500Y1175000D02*
X1701500D01*
X1700000Y1173500D02*
Y1176500D01*
X1698500Y1100000D02*
X1701500D01*
X1700000Y1098500D02*
Y1101500D01*
X1773500Y1100000D02*
X1776500D01*
X1775000Y1098500D02*
Y1101500D01*
X1773500Y900000D02*
X1776500D01*
X1775000Y898500D02*
Y901500D01*
X1773500Y800000D02*
X1776500D01*
X1775000Y798500D02*
Y801500D01*
X1773500Y600000D02*
X1776500D01*
X1775000Y598500D02*
Y601500D01*
X1773500Y500000D02*
X1776500D01*
X1775000Y498500D02*
Y501500D01*
X1773500Y400000D02*
X1776500D01*
X1775000Y398500D02*
Y401500D01*
X1773500Y300000D02*
X1776500D01*
X1775000Y298500D02*
Y301500D01*
X1773500Y100000D02*
X1776500D01*
X1775000Y98500D02*
Y101500D01*
X1773500Y25000D02*
X1776500D01*
X1775000Y23500D02*
Y26500D01*
X1698500Y25000D02*
X1701500D01*
X1700000Y23500D02*
Y26500D01*
X1598500Y25000D02*
X1601500D01*
X1600000Y23500D02*
Y26500D01*
X1498500Y25000D02*
X1501500D01*
X1500000Y23500D02*
Y26500D01*
X1398500Y25000D02*
X1401500D01*
X1400000Y23500D02*
Y26500D01*
X1298500Y25000D02*
X1301500D01*
X1300000Y23500D02*
Y26500D01*
X1198500Y25000D02*
X1201500D01*
X1200000Y23500D02*
Y26500D01*
X1098500Y25000D02*
X1101500D01*
X1100000Y23500D02*
Y26500D01*
X998500Y25000D02*
X1001500D01*
X1000000Y23500D02*
Y26500D01*
X898500Y25000D02*
X901500D01*
X900000Y23500D02*
Y26500D01*
X798500Y25000D02*
X801500D01*
X800000Y23500D02*
Y26500D01*
X698500Y25000D02*
X701500D01*
X700000Y23500D02*
Y26500D01*
X598500Y25000D02*
X601500D01*
X600000Y23500D02*
Y26500D01*
X498500Y25000D02*
X501500D01*
X500000Y23500D02*
Y26500D01*
X398500Y25000D02*
X401500D01*
X400000Y23500D02*
Y26500D01*
X298500Y25000D02*
X301500D01*
X300000Y23500D02*
Y26500D01*
X198500Y25000D02*
X201500D01*
X200000Y23500D02*
Y26500D01*
X98500Y25000D02*
X101500D01*
X100000Y23500D02*
Y26500D01*
X23500Y25000D02*
X26500D01*
X25000Y23500D02*
Y26500D01*
X1773500Y1175000D02*
X1776500D01*
X1775000Y1173500D02*
Y1176500D01*
X1773500Y1182500D02*
X1776500D01*
X1775000Y1181000D02*
Y1184000D01*
X1781000Y1175000D02*
X1784000D01*
X1782500Y1173500D02*
Y1176500D01*
X1781000Y1182500D02*
X1784000D01*
X1782500Y1181000D02*
Y1184000D01*
X1555500Y983000D02*
X1558500D01*
X1557000Y981500D02*
Y984500D01*
X1651000Y1040000D02*
X1654000D01*
X1652500Y1038500D02*
Y1041500D01*
X1643500Y1040000D02*
X1646500D01*
X1645000Y1038500D02*
Y1041500D01*
X1651000Y1047500D02*
X1654000D01*
X1652500Y1046000D02*
Y1049000D01*
X1643500Y1047500D02*
X1646500D01*
X1645000Y1046000D02*
Y1049000D01*
X882500Y528000D02*
X885500D01*
X884000Y526500D02*
Y529500D01*
X874500Y498000D02*
X877500D01*
X876000Y496500D02*
Y499500D01*
X1077500Y585000D02*
X1080500D01*
X1079000Y583500D02*
Y586500D01*
X1049500Y573000D02*
X1052500D01*
X1051000Y571500D02*
Y574500D01*
X1044500Y568000D02*
X1047500D01*
X1046000Y566500D02*
Y569500D01*
X1102500Y485000D02*
X1105500D01*
X1104000Y483500D02*
Y486500D01*
X1090500Y485000D02*
X1093500D01*
X1092000Y483500D02*
Y486500D01*
X1079500Y485000D02*
X1082500D01*
X1081000Y483500D02*
Y486500D01*
X1066000Y430000D02*
X1069000D01*
X1067500Y428500D02*
Y431500D01*
X1058500Y430000D02*
X1061500D01*
X1060000Y428500D02*
Y431500D01*
X1066000Y437500D02*
X1069000D01*
X1067500Y436000D02*
Y439000D01*
X1058500Y437500D02*
X1061500D01*
X1060000Y436000D02*
Y439000D01*
X911000Y435000D02*
X914000D01*
X912500Y433500D02*
Y436500D01*
X903500Y435000D02*
X906500D01*
X905000Y433500D02*
Y436500D01*
X911000Y442500D02*
X914000D01*
X912500Y441000D02*
Y444000D01*
X903500Y442500D02*
X906500D01*
X905000Y441000D02*
Y444000D01*
X846000Y460000D02*
X849000D01*
X847500Y458500D02*
Y461500D01*
X838500Y452500D02*
X841500D01*
X840000Y451000D02*
Y454000D01*
X838500Y460000D02*
X841500D01*
X840000Y458500D02*
Y461500D01*
X846000Y452500D02*
X849000D01*
X847500Y451000D02*
Y454000D01*
X843500Y525000D02*
X846500D01*
X845000Y523500D02*
Y526500D01*
X836000Y525000D02*
X839000D01*
X837500Y523500D02*
Y526500D01*
X843500Y532500D02*
X846500D01*
X845000Y531000D02*
Y534000D01*
X836000Y532500D02*
X839000D01*
X837500Y531000D02*
Y534000D01*
X917500Y490000D02*
X920500D01*
X919000Y488500D02*
Y491500D01*
X917500Y522000D02*
X920500D01*
X919000Y520500D02*
Y523500D01*
X917500Y551000D02*
X920500D01*
X919000Y549500D02*
Y552500D01*
X917500Y569000D02*
X920500D01*
X919000Y567500D02*
Y570500D01*
X873500Y591000D02*
X876500D01*
X875000Y589500D02*
Y592500D01*
X902500Y591000D02*
X905500D01*
X904000Y589500D02*
Y592500D01*
X873500Y609000D02*
X876500D01*
X875000Y607500D02*
Y610500D01*
X902159Y609043D02*
X905158D01*
X903659Y607543D02*
Y610543D01*
X901500Y636000D02*
X904500D01*
X903000Y634500D02*
Y637500D01*
X901500Y651000D02*
X904500D01*
X903000Y649500D02*
Y652500D01*
X866500Y651000D02*
X869500D01*
X868000Y649500D02*
Y652500D01*
X933599Y651243D02*
X936599D01*
X935099Y649743D02*
Y652743D01*
X948500Y651000D02*
X951500D01*
X950000Y649500D02*
Y652500D01*
X957500Y490000D02*
X960500D01*
X959000Y488500D02*
Y491500D01*
X929500Y490000D02*
X932500D01*
X931000Y488500D02*
Y491500D01*
X957500Y522000D02*
X960500D01*
X959000Y520500D02*
Y523500D01*
X929500Y522000D02*
X932500D01*
X931000Y520500D02*
Y523500D01*
X957500Y456000D02*
X960500D01*
X959000Y454500D02*
Y457500D01*
X936500Y456000D02*
X939500D01*
X938000Y454500D02*
Y457500D01*
X957500Y552000D02*
X960500D01*
X959000Y550500D02*
Y553500D01*
X929500Y551000D02*
X932500D01*
X931000Y549500D02*
Y552500D01*
X957500Y569000D02*
X960500D01*
X959000Y567500D02*
Y570500D01*
X929500Y569000D02*
X932500D01*
X931000Y567500D02*
Y570500D01*
X917500Y480000D02*
X920500D01*
X919000Y478500D02*
Y481500D01*
X1698500Y500000D02*
X1701500D01*
X1700000Y498500D02*
Y501500D01*
X1598500Y600000D02*
X1601500D01*
X1600000Y598500D02*
Y601500D01*
X1198500Y500000D02*
X1201500D01*
X1200000Y498500D02*
Y501500D01*
X1298500Y500000D02*
X1301500D01*
X1300000Y498500D02*
Y501500D01*
X1398500Y500000D02*
X1401500D01*
X1400000Y498500D02*
Y501500D01*
X1598500Y500000D02*
X1601500D01*
X1600000Y498500D02*
Y501500D01*
X1098500Y400000D02*
X1101500D01*
X1100000Y398500D02*
Y401500D01*
X1198500Y400000D02*
X1201500D01*
X1200000Y398500D02*
Y401500D01*
X1298500Y400000D02*
X1301500D01*
X1300000Y398500D02*
Y401500D01*
X1398500Y400000D02*
X1401500D01*
X1400000Y398500D02*
Y401500D01*
X1598500Y400000D02*
X1601500D01*
X1600000Y398500D02*
Y401500D01*
X1698500Y100000D02*
X1701500D01*
X1700000Y98500D02*
Y101500D01*
X1698500Y200000D02*
X1701500D01*
X1700000Y198500D02*
Y201500D01*
X1698500Y300000D02*
X1701500D01*
X1700000Y298500D02*
Y301500D01*
X1598500Y100000D02*
X1601500D01*
X1600000Y98500D02*
Y101500D01*
X1598500Y200000D02*
X1601500D01*
X1600000Y198500D02*
Y201500D01*
X1598500Y300000D02*
X1601500D01*
X1600000Y298500D02*
Y301500D01*
X1398500Y300000D02*
X1401500D01*
X1400000Y298500D02*
Y301500D01*
X1398500Y200000D02*
X1401500D01*
X1400000Y198500D02*
Y201500D01*
X1398500Y100000D02*
X1401500D01*
X1400000Y98500D02*
Y101500D01*
X1298500Y300000D02*
X1301500D01*
X1300000Y298500D02*
Y301500D01*
X1298500Y200000D02*
X1301500D01*
X1300000Y198500D02*
Y201500D01*
X1298500Y100000D02*
X1301500D01*
X1300000Y98500D02*
Y101500D01*
X1198500Y100000D02*
X1201500D01*
X1200000Y98500D02*
Y101500D01*
X1198500Y200000D02*
X1201500D01*
X1200000Y198500D02*
Y201500D01*
X1198500Y300000D02*
X1201500D01*
X1200000Y298500D02*
Y301500D01*
X1098500Y300000D02*
X1101500D01*
X1100000Y298500D02*
Y301500D01*
X1098500Y200000D02*
X1101500D01*
X1100000Y198500D02*
Y201500D01*
X1098500Y100000D02*
X1101500D01*
X1100000Y98500D02*
Y101500D01*
X998500Y200000D02*
X1001500D01*
X1000000Y198500D02*
Y201500D01*
X998500Y300000D02*
X1001500D01*
X1000000Y298500D02*
Y301500D01*
X898500Y300000D02*
X901500D01*
X900000Y298500D02*
Y301500D01*
X898500Y200000D02*
X901500D01*
X900000Y198500D02*
Y201500D01*
X998500Y100000D02*
X1001500D01*
X1000000Y98500D02*
Y101500D01*
X898500Y100000D02*
X901500D01*
X900000Y98500D02*
Y101500D01*
X798500Y100000D02*
X801500D01*
X800000Y98500D02*
Y101500D01*
X698500Y100000D02*
X701500D01*
X700000Y98500D02*
Y101500D01*
X598500Y100000D02*
X601500D01*
X600000Y98500D02*
Y101500D01*
X498500Y100000D02*
X501500D01*
X500000Y98500D02*
Y101500D01*
X398500Y100000D02*
X401500D01*
X400000Y98500D02*
Y101500D01*
X298500Y100000D02*
X301500D01*
X300000Y98500D02*
Y101500D01*
X198500Y100000D02*
X201500D01*
X200000Y98500D02*
Y101500D01*
X98500Y100000D02*
X101500D01*
X100000Y98500D02*
Y101500D01*
X98500Y200000D02*
X101500D01*
X100000Y198500D02*
Y201500D01*
X98500Y300000D02*
X101500D01*
X100000Y298500D02*
Y301500D01*
X798500Y200000D02*
X801500D01*
X800000Y198500D02*
Y201500D01*
X698500Y200000D02*
X701500D01*
X700000Y198500D02*
Y201500D01*
X598500Y200000D02*
X601500D01*
X600000Y198500D02*
Y201500D01*
X498500Y200000D02*
X501500D01*
X500000Y198500D02*
Y201500D01*
X398500Y200000D02*
X401500D01*
X400000Y198500D02*
Y201500D01*
X198500Y200000D02*
X201500D01*
X200000Y198500D02*
Y201500D01*
X198500Y600000D02*
X201500D01*
X200000Y598500D02*
Y601500D01*
X198500Y500000D02*
X201500D01*
X200000Y498500D02*
Y501500D01*
X198500Y400000D02*
X201500D01*
X200000Y398500D02*
Y401500D01*
X198500Y300000D02*
X201500D01*
X200000Y298500D02*
Y301500D01*
X298500Y400000D02*
X301500D01*
X300000Y398500D02*
Y401500D01*
X298500Y600000D02*
X301500D01*
X300000Y598500D02*
Y601500D01*
X298500Y500000D02*
X301500D01*
X300000Y498500D02*
Y501500D01*
X398500Y600000D02*
X401500D01*
X400000Y598500D02*
Y601500D01*
X398500Y500000D02*
X401500D01*
X400000Y498500D02*
Y501500D01*
X598500Y400000D02*
X601500D01*
X600000Y398500D02*
Y401500D01*
X498500Y400000D02*
X501500D01*
X500000Y398500D02*
Y401500D01*
X398500Y400000D02*
X401500D01*
X400000Y398500D02*
Y401500D01*
X398500Y300000D02*
X401500D01*
X400000Y298500D02*
Y301500D01*
X498500Y300000D02*
X501500D01*
X500000Y298500D02*
Y301500D01*
X598500Y300000D02*
X601500D01*
X600000Y298500D02*
Y301500D01*
X698500Y300000D02*
X701500D01*
X700000Y298500D02*
Y301500D01*
X798500Y300000D02*
X801500D01*
X800000Y298500D02*
Y301500D01*
X798500Y500000D02*
X801500D01*
X800000Y498500D02*
Y501500D01*
X1198500Y600000D02*
X1201500D01*
X1200000Y598500D02*
Y601500D01*
X1298500Y600000D02*
X1301500D01*
X1300000Y598500D02*
Y601500D01*
X1498500Y600000D02*
X1501500D01*
X1500000Y598500D02*
Y601500D01*
X1398500Y600000D02*
X1401500D01*
X1400000Y598500D02*
Y601500D01*
X1498500Y700000D02*
X1501500D01*
X1500000Y698500D02*
Y701500D01*
X1398500Y700000D02*
X1401500D01*
X1400000Y698500D02*
Y701500D01*
X798500Y700000D02*
X801500D01*
X800000Y698500D02*
Y701500D01*
X698500Y700000D02*
X701500D01*
X700000Y698500D02*
Y701500D01*
X598500Y700000D02*
X601500D01*
X600000Y698500D02*
Y701500D01*
X498500Y700000D02*
X501500D01*
X500000Y698500D02*
Y701500D01*
X398500Y700000D02*
X401500D01*
X400000Y698500D02*
Y701500D01*
X298500Y700000D02*
X301500D01*
X300000Y698500D02*
Y701500D01*
X198500Y700000D02*
X201500D01*
X200000Y698500D02*
Y701500D01*
X98500Y700000D02*
X101500D01*
X100000Y698500D02*
Y701500D01*
X1098500Y1100000D02*
X1101500D01*
X1100000Y1098500D02*
Y1101500D01*
X998500Y1100000D02*
X1001500D01*
X1000000Y1098500D02*
Y1101500D01*
X898500Y1100000D02*
X901500D01*
X900000Y1098500D02*
Y1101500D01*
X798500Y1100000D02*
X801500D01*
X800000Y1098500D02*
Y1101500D01*
X498893Y1058276D02*
X501893D01*
X500393Y1056776D02*
Y1059776D01*
X598500Y1100000D02*
X601500D01*
X600000Y1098500D02*
Y1101500D01*
X698500Y1000000D02*
X701500D01*
X700000Y998500D02*
Y1001500D01*
X1198500Y1000000D02*
X1201500D01*
X1200000Y998500D02*
Y1001500D01*
X1298500Y1000000D02*
X1301500D01*
X1300000Y998500D02*
Y1001500D01*
X1498500Y1000000D02*
X1501500D01*
X1500000Y998500D02*
Y1001500D01*
X1598500Y900000D02*
X1601500D01*
X1600000Y898500D02*
Y901500D01*
X1498500Y900000D02*
X1501500D01*
X1500000Y898500D02*
Y901500D01*
X1398500Y900000D02*
X1401500D01*
X1400000Y898500D02*
Y901500D01*
X1298500Y900000D02*
X1301500D01*
X1300000Y898500D02*
Y901500D01*
X1198500Y900000D02*
X1201500D01*
X1200000Y898500D02*
Y901500D01*
X1098500Y900000D02*
X1101500D01*
X1100000Y898500D02*
Y901500D01*
X998500Y900000D02*
X1001500D01*
X1000000Y898500D02*
Y901500D01*
X898500Y900000D02*
X901500D01*
X900000Y898500D02*
Y901500D01*
X798500Y900000D02*
X801500D01*
X800000Y898500D02*
Y901500D01*
X698500Y900000D02*
X701500D01*
X700000Y898500D02*
Y901500D01*
X598500Y900000D02*
X601500D01*
X600000Y898500D02*
Y901500D01*
X498500Y900000D02*
X501500D01*
X500000Y898500D02*
Y901500D01*
X398500Y900000D02*
X401500D01*
X400000Y898500D02*
Y901500D01*
X1698500Y800000D02*
X1701500D01*
X1700000Y798500D02*
Y801500D01*
X1598500Y800000D02*
X1601500D01*
X1600000Y798500D02*
Y801500D01*
X1498500Y800000D02*
X1501500D01*
X1500000Y798500D02*
Y801500D01*
X1398500Y800000D02*
X1401500D01*
X1400000Y798500D02*
Y801500D01*
X1298500Y800000D02*
X1301500D01*
X1300000Y798500D02*
Y801500D01*
X1198500Y800000D02*
X1201500D01*
X1200000Y798500D02*
Y801500D01*
X1098500Y800000D02*
X1101500D01*
X1100000Y798500D02*
Y801500D01*
X998500Y800000D02*
X1001500D01*
X1000000Y798500D02*
Y801500D01*
X898500Y800000D02*
X901500D01*
X900000Y798500D02*
Y801500D01*
X798500Y800000D02*
X801500D01*
X800000Y798500D02*
Y801500D01*
X698500Y800000D02*
X701500D01*
X700000Y798500D02*
Y801500D01*
X598500Y800000D02*
X601500D01*
X600000Y798500D02*
Y801500D01*
X498500Y800000D02*
X501500D01*
X500000Y798500D02*
Y801500D01*
X398500Y800000D02*
X401500D01*
X400000Y798500D02*
Y801500D01*
X298500Y800000D02*
X301500D01*
X300000Y798500D02*
Y801500D01*
X198500Y800000D02*
X201500D01*
X200000Y798500D02*
Y801500D01*
X98500Y800000D02*
X101500D01*
X100000Y798500D02*
Y801500D01*
X238500Y932500D02*
X241500D01*
X240000Y931000D02*
Y934000D01*
X238500Y950000D02*
X241500D01*
X240000Y948500D02*
Y951500D01*
X273500Y972500D02*
X276500D01*
X275000Y971000D02*
Y974000D01*
X366000Y952500D02*
X369000D01*
X367500Y951000D02*
Y954000D01*
X421000Y980000D02*
X424000D01*
X422500Y978500D02*
Y981500D01*
X421000Y962500D02*
X424000D01*
X422500Y961000D02*
Y964000D01*
X1658500Y605000D02*
X1661500D01*
X1660000Y603500D02*
Y606500D01*
X168500Y912500D02*
X171500D01*
X170000Y911000D02*
Y914000D01*
X388500Y900000D02*
X391500D01*
X390000Y898500D02*
Y901500D01*
X326000Y925000D02*
X329000D01*
X327500Y923500D02*
Y926500D01*
X225500Y964000D02*
X228500D01*
X227000Y962500D02*
Y965500D01*
X1626000Y1105000D02*
X1629000D01*
X1627500Y1103500D02*
Y1106500D01*
X254500Y1016250D02*
X257500D01*
X256000Y1014750D02*
Y1017750D01*
X248000Y1016250D02*
X251000D01*
X249500Y1014750D02*
Y1017750D01*
X238250Y1001750D02*
X241250D01*
X239750Y1000250D02*
Y1003250D01*
X238250Y1037000D02*
X241250D01*
X239750Y1035500D02*
Y1038500D01*
X261000Y1029250D02*
X264000D01*
X262500Y1027750D02*
Y1030750D01*
X254500Y1029250D02*
X257500D01*
X256000Y1027750D02*
Y1030750D01*
X261000Y1022750D02*
X264000D01*
X262500Y1021250D02*
Y1024250D01*
X254500Y1022750D02*
X257500D01*
X256000Y1021250D02*
Y1024250D01*
X248000Y1022750D02*
X251000D01*
X249500Y1021250D02*
Y1024250D01*
X316000Y1010000D02*
X319000D01*
X317500Y1008500D02*
Y1011500D01*
X316000Y1045000D02*
X319000D01*
X317500Y1043500D02*
Y1046500D01*
X316000Y1025000D02*
X319000D01*
X317500Y1023500D02*
Y1026500D01*
X271000Y1007500D02*
X274000D01*
X272500Y1006000D02*
Y1009000D01*
X278500Y1007500D02*
X281500D01*
X280000Y1006000D02*
Y1009000D01*
X278500Y1000000D02*
X281500D01*
X280000Y998500D02*
Y1001500D01*
X271000Y1000000D02*
X274000D01*
X272500Y998500D02*
Y1001500D01*
X13500Y1185000D02*
X16500D01*
X15000Y1183500D02*
Y1186500D01*
X13500Y1177500D02*
X16500D01*
X15000Y1176000D02*
Y1179000D01*
X13500Y1090000D02*
X16500D01*
X15000Y1088500D02*
Y1091500D01*
X13500Y1082500D02*
X16500D01*
X15000Y1081000D02*
Y1084000D01*
X13500Y987500D02*
X16500D01*
X15000Y986000D02*
Y989000D01*
X13500Y980000D02*
X16500D01*
X15000Y978500D02*
Y981500D01*
X21000Y1185000D02*
X24000D01*
X22500Y1183500D02*
Y1186500D01*
X181000Y1155000D02*
X184000D01*
X182500Y1153500D02*
Y1156500D01*
X173500Y1155000D02*
X176500D01*
X175000Y1153500D02*
Y1156500D01*
X173500Y1147500D02*
X176500D01*
X175000Y1146000D02*
Y1149000D01*
X181000Y1112500D02*
X184000D01*
X182500Y1111000D02*
Y1114000D01*
X173500Y1112500D02*
X176500D01*
X175000Y1111000D02*
Y1114000D01*
X173500Y1120000D02*
X176500D01*
X175000Y1118500D02*
Y1121500D01*
X138500Y1087500D02*
X141500D01*
X140000Y1086000D02*
Y1089000D01*
X131000Y1087500D02*
X134000D01*
X132500Y1086000D02*
Y1089000D01*
X131000Y1080000D02*
X134000D01*
X132500Y1078500D02*
Y1081500D01*
X21000Y987500D02*
X24000D01*
X22500Y986000D02*
Y989000D01*
X21000Y1082500D02*
X24000D01*
X22500Y1081000D02*
Y1084000D01*
X251000Y1110000D02*
X254000D01*
X252500Y1108500D02*
Y1111500D01*
X251000Y1117500D02*
X254000D01*
X252500Y1116000D02*
Y1119000D01*
X258500Y1117500D02*
X261500D01*
X260000Y1116000D02*
Y1119000D01*
X258500Y1110000D02*
X261500D01*
X260000Y1108500D02*
Y1111500D01*
X258500Y1185000D02*
X261500D01*
X260000Y1183500D02*
Y1186500D01*
X251000Y1185000D02*
X254000D01*
X252500Y1183500D02*
Y1186500D01*
X336000Y1185000D02*
X339000D01*
X337500Y1183500D02*
Y1186500D01*
X343500Y1185000D02*
X346500D01*
X345000Y1183500D02*
Y1186500D01*
X433500Y1177500D02*
X436500D01*
X435000Y1176000D02*
Y1179000D01*
X426000Y1177500D02*
X429000D01*
X427500Y1176000D02*
Y1179000D01*
X426000Y1185000D02*
X429000D01*
X427500Y1183500D02*
Y1186500D01*
X433500Y1185000D02*
X436500D01*
X435000Y1183500D02*
Y1186500D01*
X498500Y1110000D02*
X501500D01*
X500000Y1108500D02*
Y1111500D01*
X491000Y1175000D02*
X494000D01*
X492500Y1173500D02*
Y1176500D01*
X483500Y1175000D02*
X486500D01*
X485000Y1173500D02*
Y1176500D01*
X483500Y1182500D02*
X486500D01*
X485000Y1181000D02*
Y1184000D01*
X491000Y1182500D02*
X494000D01*
X492500Y1181000D02*
Y1184000D01*
X181000Y1147500D02*
X184000D01*
X182500Y1146000D02*
Y1149000D01*
X181000Y1120000D02*
X184000D01*
X182500Y1118500D02*
Y1121500D01*
X178500Y980000D02*
X181500D01*
X180000Y978500D02*
Y981500D01*
X138500Y1080000D02*
X141500D01*
X140000Y1078500D02*
Y1081500D01*
X21000Y980000D02*
X24000D01*
X22500Y978500D02*
Y981500D01*
X21000Y1090000D02*
X24000D01*
X22500Y1088500D02*
Y1091500D01*
X21000Y1177500D02*
X24000D01*
X22500Y1176000D02*
Y1179000D01*
X418500Y1000000D02*
X421500D01*
X420000Y998500D02*
Y1001500D01*
X408500Y1000000D02*
X411500D01*
X410000Y998500D02*
Y1001500D01*
X418500Y950000D02*
X421500D01*
X420000Y948500D02*
Y951500D01*
X398500Y950000D02*
X401500D01*
X400000Y948500D02*
Y951500D01*
X408500Y950000D02*
X411500D01*
X410000Y948500D02*
Y951500D01*
X1393500Y1065000D02*
X1396500D01*
X1395000Y1063500D02*
Y1066500D01*
X395206Y1047648D02*
X398206D01*
X396706Y1046148D02*
Y1049148D01*
X387706Y1047648D02*
X390706D01*
X389206Y1046148D02*
Y1049148D01*
X333500Y1052500D02*
X336500D01*
X335000Y1051000D02*
Y1054000D01*
X273500Y1055000D02*
X276500D01*
X275000Y1053500D02*
Y1056500D01*
X281000Y1055000D02*
X284000D01*
X282500Y1053500D02*
Y1056500D01*
X281000Y1062500D02*
X284000D01*
X282500Y1061000D02*
Y1064000D01*
X273500Y1062500D02*
X276500D01*
X275000Y1061000D02*
Y1064000D01*
X326000Y1052500D02*
X329000D01*
X327500Y1051000D02*
Y1054000D01*
X326000Y1060000D02*
X329000D01*
X327500Y1058500D02*
Y1061500D01*
X333500Y1060000D02*
X336500D01*
X335000Y1058500D02*
Y1061500D01*
X321000Y997500D02*
X324000D01*
X322500Y996000D02*
Y999000D01*
X321000Y1005000D02*
X324000D01*
X322500Y1003500D02*
Y1006500D01*
X328500Y1005000D02*
X331500D01*
X330000Y1003500D02*
Y1006500D01*
X576000Y1075000D02*
X579000D01*
X577500Y1073500D02*
Y1076500D01*
X616000Y1075000D02*
X619000D01*
X617500Y1073500D02*
Y1076500D01*
X1773500Y697500D02*
X1776500D01*
X1775000Y696000D02*
Y699000D01*
X1516000Y697500D02*
X1519000D01*
X1517500Y696000D02*
Y699000D01*
X1516000Y1065000D02*
X1519000D01*
X1517500Y1063500D02*
Y1066500D01*
X1221000Y1065000D02*
X1224000D01*
X1222500Y1063500D02*
Y1066500D01*
X248500Y937500D02*
X251500D01*
X250000Y936000D02*
Y939000D01*
X168500Y890000D02*
X171500D01*
X170000Y888500D02*
Y891500D01*
X1348500Y1090000D02*
X1351500D01*
X1350000Y1088500D02*
Y1091500D01*
X1398500Y1130000D02*
X1401500D01*
X1400000Y1128500D02*
Y1131500D01*
X1628500Y1010000D02*
X1631500D01*
X1630000Y1008500D02*
Y1011500D01*
X1576000Y1037500D02*
X1579000D01*
X1577500Y1036000D02*
Y1039000D01*
X1556000Y1015000D02*
X1559000D01*
X1557500Y1013500D02*
Y1016500D01*
X1711000Y885000D02*
X1714000D01*
X1712500Y883500D02*
Y886500D01*
X1711000Y862500D02*
X1714000D01*
X1712500Y861000D02*
Y864000D01*
X1698500Y837500D02*
X1701500D01*
X1700000Y836000D02*
Y839000D01*
X1733500Y615000D02*
X1736500D01*
X1735000Y613500D02*
Y616500D01*
X1733500Y597500D02*
X1736500D01*
X1735000Y596000D02*
Y599000D01*
X1658500Y595000D02*
X1661500D01*
X1660000Y593500D02*
Y596500D01*
X1696000Y402500D02*
X1699000D01*
X1697500Y401000D02*
Y404000D01*
X1696000Y217500D02*
X1699000D01*
X1697500Y216000D02*
Y219000D01*
X1476000Y85000D02*
X1479000D01*
X1477500Y83500D02*
Y86500D01*
X1423500Y85000D02*
X1426500D01*
X1425000Y83500D02*
Y86500D01*
X1373500Y85000D02*
X1376500D01*
X1375000Y83500D02*
Y86500D01*
X1076000Y577500D02*
X1079000D01*
X1077500Y576000D02*
Y579000D01*
X1026000Y662500D02*
X1029000D01*
X1027500Y661000D02*
Y664000D01*
X1031000Y645000D02*
X1034000D01*
X1032500Y643500D02*
Y646500D01*
X1014827Y625199D02*
X1017828D01*
X1016328Y623699D02*
Y626699D01*
X918500Y587500D02*
X921500D01*
X920000Y586000D02*
Y589000D01*
X163500Y505000D02*
X166500D01*
X165000Y503500D02*
Y506500D01*
X226000Y505000D02*
X229000D01*
X227500Y503500D02*
Y506500D01*
X206000Y510000D02*
X209000D01*
X207500Y508500D02*
Y511500D01*
X1051000Y417500D02*
X1054000D01*
X1052500Y416000D02*
Y419000D01*
X928500Y455000D02*
X931500D01*
X930000Y453500D02*
Y456500D01*
X916000Y472500D02*
X919000D01*
X917500Y471000D02*
Y474000D01*
X886000Y520000D02*
X889000D01*
X887500Y518500D02*
Y521500D01*
X888500Y540000D02*
X891500D01*
X890000Y538500D02*
Y541500D01*
X818500Y497500D02*
X821500D01*
X820000Y496000D02*
Y499000D01*
X821000Y577500D02*
X824000D01*
X822500Y576000D02*
Y579000D01*
X751000Y972500D02*
X754000D01*
X752500Y971000D02*
Y974000D01*
X751000Y1007500D02*
X754000D01*
X752500Y1006000D02*
Y1009000D01*
X751000Y990000D02*
X754000D01*
X752500Y988500D02*
Y991500D01*
X696000Y992500D02*
X699000D01*
X697500Y991000D02*
Y994000D01*
X683500Y1015000D02*
X686500D01*
X685000Y1013500D02*
Y1016500D01*
X603500Y1000000D02*
X606500D01*
X605000Y998500D02*
Y1001500D01*
X568500Y1025000D02*
X571500D01*
X570000Y1023500D02*
Y1026500D01*
X493371Y968711D02*
X496371D01*
X494871Y967211D02*
Y970211D01*
X493456Y986869D02*
X496456D01*
X494956Y985369D02*
Y988369D01*
X493500Y1005000D02*
X496500D01*
X495000Y1003500D02*
Y1006500D01*
X433500Y1120000D02*
X436500D01*
X435000Y1118500D02*
Y1121500D01*
X428500Y1125000D02*
X431500D01*
X430000Y1123500D02*
Y1126500D01*
X413500Y1175000D02*
X416500D01*
X415000Y1173500D02*
Y1176500D01*
X413500Y1095000D02*
X416500D01*
X415000Y1093500D02*
Y1096500D01*
X693500Y955000D02*
X696500D01*
X695000Y953500D02*
Y956500D01*
X551500Y955000D02*
X554500D01*
X553000Y953500D02*
Y956500D01*
X557500Y960000D02*
X560500D01*
X559000Y958500D02*
Y961500D01*
X719500Y985000D02*
X722500D01*
X721000Y983500D02*
Y986500D01*
X226000Y1000000D02*
X229000D01*
X227500Y998500D02*
Y1001500D01*
X243302Y680540D02*
X246302D01*
X244802Y679040D02*
Y682040D01*
X243500Y517500D02*
X246500D01*
X245000Y516000D02*
Y519000D01*
X876000Y517500D02*
X879000D01*
X877500Y516000D02*
Y519000D01*
X896000Y535000D02*
X899000D01*
X897500Y533500D02*
Y536500D01*
X868500Y535000D02*
X871500D01*
X870000Y533500D02*
Y536500D01*
X868500Y512500D02*
X871500D01*
X870000Y511000D02*
Y514000D01*
X893500Y512500D02*
X896500D01*
X895000Y511000D02*
Y514000D01*
X876628Y544783D02*
X879628D01*
X878128Y543283D02*
Y546283D01*
X1038500Y545000D02*
X1041500D01*
X1040000Y543500D02*
Y546500D01*
X328500Y1102500D02*
X331500D01*
X330000Y1101000D02*
Y1104000D01*
X353500Y1102500D02*
X356500D01*
X355000Y1101000D02*
Y1104000D01*
X1643500Y1015000D02*
X1646500D01*
X1645000Y1013500D02*
Y1016500D01*
X1643500Y1030000D02*
X1646500D01*
X1645000Y1028500D02*
Y1031500D01*
X1611000Y1030000D02*
X1614000D01*
X1612500Y1028500D02*
Y1031500D01*
X1713500Y1015000D02*
X1716500D01*
X1715000Y1013500D02*
Y1016500D01*
X1783500Y922500D02*
X1786500D01*
X1785000Y921000D02*
Y924000D01*
X1783500Y967500D02*
X1786500D01*
X1785000Y966000D02*
Y969000D01*
X1741000Y967500D02*
X1744000D01*
X1742500Y966000D02*
Y969000D01*
X1708500Y922500D02*
X1711500D01*
X1710000Y921000D02*
Y924000D01*
X891000Y477500D02*
X894000D01*
X892500Y476000D02*
Y479000D01*
X896000Y472500D02*
X899000D01*
X897500Y471000D02*
Y474000D01*
X131000Y482500D02*
X134000D01*
X132500Y481000D02*
Y484000D01*
X131000Y432500D02*
X134000D01*
X132500Y431000D02*
Y434000D01*
X868500Y432500D02*
X871500D01*
X870000Y431000D02*
Y434000D01*
X868500Y472500D02*
X871500D01*
X870000Y471000D02*
Y474000D01*
X126000Y507500D02*
X129000D01*
X127500Y506000D02*
Y509000D01*
X126000Y427500D02*
X129000D01*
X127500Y426000D02*
Y429000D01*
X876000Y427500D02*
X879000D01*
X877500Y426000D02*
Y429000D01*
X876000Y472500D02*
X879000D01*
X877500Y471000D02*
Y474000D01*
X1573500Y865000D02*
X1576500D01*
X1575000Y863500D02*
Y866500D01*
X1573500Y615000D02*
X1576500D01*
X1575000Y613500D02*
Y616500D01*
X1608500Y615000D02*
X1611500D01*
X1610000Y613500D02*
Y616500D01*
X1608500Y322500D02*
X1611500D01*
X1610000Y321000D02*
Y324000D01*
X896000Y322500D02*
X899000D01*
X897500Y321000D02*
Y324000D01*
X1568500Y887500D02*
X1571500D01*
X1570000Y886000D02*
Y889000D01*
X1568500Y610000D02*
X1571500D01*
X1570000Y608500D02*
Y611500D01*
X1588500Y610000D02*
X1591500D01*
X1590000Y608500D02*
Y611500D01*
X1588500Y327500D02*
X1591500D01*
X1590000Y326000D02*
Y329000D01*
X891000Y327500D02*
X894000D01*
X892500Y326000D02*
Y329000D01*
X1676000Y865000D02*
X1679000D01*
X1677500Y863500D02*
Y866500D01*
X1608500Y865000D02*
X1611500D01*
X1610000Y863500D02*
Y866500D01*
X1588500Y887500D02*
X1591500D01*
X1590000Y886000D02*
Y889000D01*
X1676000Y887500D02*
X1679000D01*
X1677500Y886000D02*
Y889000D01*
X1663500Y1002500D02*
X1666500D01*
X1665000Y1001000D02*
Y1004000D01*
X1663500Y970000D02*
X1666500D01*
X1665000Y968500D02*
Y971500D01*
X1683500Y1002500D02*
X1686500D01*
X1685000Y1001000D02*
Y1004000D01*
X1628500Y1002500D02*
X1631500D01*
X1630000Y1001000D02*
Y1004000D01*
X1683500Y980000D02*
X1686500D01*
X1685000Y978500D02*
Y981500D01*
X1628500Y980000D02*
X1631500D01*
X1630000Y978500D02*
Y981500D01*
X1533500Y1157500D02*
X1536500D01*
X1535000Y1156000D02*
Y1159000D01*
X1586000Y1162500D02*
X1589000D01*
X1587500Y1161000D02*
Y1164000D01*
X1018500Y727500D02*
X1021500D01*
X1020000Y726000D02*
Y729000D01*
X901000Y727500D02*
X904000D01*
X902500Y726000D02*
Y729000D01*
X1048500Y732500D02*
X1051500D01*
X1050000Y731000D02*
Y734000D01*
X906000Y732500D02*
X909000D01*
X907500Y731000D02*
Y734000D01*
X1053500Y742500D02*
X1056500D01*
X1055000Y741000D02*
Y744000D01*
X911000Y742500D02*
X914000D01*
X912500Y741000D02*
Y744000D01*
X911000Y642500D02*
X914000D01*
X912500Y641000D02*
Y644000D01*
X896000Y642500D02*
X899000D01*
X897500Y641000D02*
Y644000D01*
X948500Y677500D02*
X951500D01*
X950000Y676000D02*
Y679000D01*
X1013500Y677500D02*
X1016500D01*
X1015000Y676000D02*
Y679000D01*
X1013500Y640000D02*
X1016500D01*
X1015000Y638500D02*
Y641500D01*
X1023500Y639980D02*
X1026500D01*
X1025000Y638480D02*
Y641480D01*
X1033500Y630000D02*
X1036500D01*
X1035000Y628500D02*
Y631500D01*
X1003500Y630000D02*
X1006500D01*
X1005000Y628500D02*
Y631500D01*
X1003500Y640000D02*
X1006500D01*
X1005000Y638500D02*
Y641500D01*
X948500Y660000D02*
X951500D01*
X950000Y658500D02*
Y661500D01*
X1033500Y620000D02*
X1036500D01*
X1035000Y618500D02*
Y621500D01*
X1008500Y620000D02*
X1011500D01*
X1010000Y618500D02*
Y621500D01*
X1008500Y635000D02*
X1011500D01*
X1010000Y633500D02*
Y636500D01*
X948500Y642500D02*
X951500D01*
X950000Y641000D02*
Y644000D01*
X926000Y687500D02*
X929000D01*
X927500Y686000D02*
Y689000D01*
X758500Y687500D02*
X761500D01*
X760000Y686000D02*
Y689000D01*
X758500Y437500D02*
X761500D01*
X760000Y436000D02*
Y439000D01*
X1051000Y450000D02*
X1054000D01*
X1052500Y448500D02*
Y451500D01*
X933500Y597500D02*
X936500D01*
X935000Y596000D02*
Y599000D01*
X938500Y602500D02*
X941500D01*
X940000Y601000D02*
Y604000D01*
X916000Y610000D02*
X919000D01*
X917500Y608500D02*
Y611500D01*
X943500Y610000D02*
X946500D01*
X945000Y608500D02*
Y611500D01*
X856000Y615000D02*
X859000D01*
X857500Y613500D02*
Y616500D01*
X973500Y615000D02*
X976500D01*
X975000Y613500D02*
Y616500D01*
X861000Y582500D02*
X864000D01*
X862500Y581000D02*
Y584000D01*
X918500Y580000D02*
X921500D01*
X920000Y578500D02*
Y581500D01*
X918500Y445000D02*
X921500D01*
X920000Y443500D02*
Y446500D01*
X973500Y445000D02*
X976500D01*
X975000Y443500D02*
Y446500D01*
X963500Y575000D02*
X966500D01*
X965000Y573500D02*
Y576500D01*
X866000Y577500D02*
X869000D01*
X867500Y576000D02*
Y579000D01*
X1038500Y1155000D02*
X1041500D01*
X1040000Y1153500D02*
Y1156500D01*
X1318500Y1075000D02*
X1321500D01*
X1320000Y1073500D02*
Y1076500D01*
X1273500Y1075000D02*
X1276500D01*
X1275000Y1073500D02*
Y1076500D01*
X1586000Y1075000D02*
X1589000D01*
X1587500Y1073500D02*
Y1076500D01*
X766000Y1075000D02*
X769000D01*
X767500Y1073500D02*
Y1076500D01*
X766000Y505000D02*
X769000D01*
X767500Y503500D02*
Y506500D01*
X896000Y505000D02*
X899000D01*
X897500Y503500D02*
Y506500D01*
X1391000Y85000D02*
X1394000D01*
X1392500Y83500D02*
Y86500D01*
X1391000Y455000D02*
X1394000D01*
X1392500Y453500D02*
Y456500D01*
X1033500Y455000D02*
X1036500D01*
X1035000Y453500D02*
Y456500D01*
X1343500Y85000D02*
X1346500D01*
X1345000Y83500D02*
Y86500D01*
X1343500Y460000D02*
X1346500D01*
X1345000Y458500D02*
Y461500D01*
X1028500Y460000D02*
X1031500D01*
X1030000Y458500D02*
Y461500D01*
X1441000Y85000D02*
X1444000D01*
X1442500Y83500D02*
Y86500D01*
X1441000Y465000D02*
X1444000D01*
X1442500Y463500D02*
Y466500D01*
X1023500Y465000D02*
X1026500D01*
X1025000Y463500D02*
Y466500D01*
X1533500Y595000D02*
X1536500D01*
X1535000Y593500D02*
Y596500D01*
X1048500Y595000D02*
X1051500D01*
X1050000Y593500D02*
Y596500D01*
X1648500Y465000D02*
X1651500D01*
X1650000Y463500D02*
Y466500D01*
X1653500Y442500D02*
X1656500D01*
X1655000Y441000D02*
Y444000D01*
X1648500Y332500D02*
X1651500D01*
X1650000Y331000D02*
Y334000D01*
X933500Y332500D02*
X936500D01*
X935000Y331000D02*
Y334000D01*
X1731890Y455360D02*
X1734890D01*
X1733390Y453860D02*
Y456860D01*
X1693500Y577500D02*
X1696500D01*
X1695000Y576000D02*
Y579000D01*
X1663500Y577500D02*
X1666500D01*
X1665000Y576000D02*
Y579000D01*
X1663500Y392500D02*
X1666500D01*
X1665000Y391000D02*
Y394000D01*
X1028500Y392500D02*
X1031500D01*
X1030000Y391000D02*
Y394000D01*
X1703500Y582500D02*
X1706500D01*
X1705000Y581000D02*
Y584000D01*
X1658500Y582500D02*
X1661500D01*
X1660000Y581000D02*
Y584000D01*
X1658500Y387500D02*
X1661500D01*
X1660000Y386000D02*
Y389000D01*
X1023500Y387500D02*
X1026500D01*
X1025000Y386000D02*
Y389000D01*
X1548500Y687500D02*
X1551500D01*
X1550000Y686000D02*
Y689000D01*
X1548500Y362500D02*
X1551500D01*
X1550000Y361000D02*
Y364000D01*
X968500Y362500D02*
X971500D01*
X970000Y361000D02*
Y364000D01*
X63500Y527500D02*
X66500D01*
X65000Y526000D02*
Y529000D01*
X216000Y527500D02*
X219000D01*
X217500Y526000D02*
Y529000D01*
X63500Y482500D02*
X66500D01*
X65000Y481000D02*
Y484000D01*
X181000Y520000D02*
X184000D01*
X182500Y518500D02*
Y521500D01*
X173500Y620000D02*
X176500D01*
X175000Y618500D02*
Y621500D01*
X963500Y620000D02*
X966500D01*
X965000Y618500D02*
Y621500D01*
X236000Y630000D02*
X239000D01*
X237500Y628500D02*
Y631500D01*
X958500Y630000D02*
X961500D01*
X960000Y628500D02*
Y631500D01*
X968500Y625000D02*
X971500D01*
X970000Y623500D02*
Y626500D01*
X161000Y625000D02*
X164000D01*
X162500Y623500D02*
Y626500D01*
X161000Y605000D02*
X164000D01*
X162500Y603500D02*
Y606500D01*
X1436000Y720000D02*
X1439000D01*
X1437500Y718500D02*
Y721500D01*
X953500Y720000D02*
X956500D01*
X955000Y718500D02*
Y721500D01*
X1528500Y1105000D02*
X1531500D01*
X1530000Y1103500D02*
Y1106500D01*
X1528500Y715000D02*
X1531500D01*
X1530000Y713500D02*
Y716500D01*
X978500Y715000D02*
X981500D01*
X980000Y713500D02*
Y716500D01*
X1726000Y337500D02*
X1729000D01*
X1727500Y336000D02*
Y339000D01*
X881000Y337500D02*
X884000D01*
X882500Y336000D02*
Y339000D01*
X886000Y227500D02*
X889000D01*
X887500Y226000D02*
Y229000D01*
X1723500Y227500D02*
X1726500D01*
X1725000Y226000D02*
Y229000D01*
X891000Y465000D02*
X894000D01*
X892500Y463500D02*
Y466500D01*
X896000Y460000D02*
X899000D01*
X897500Y458500D02*
Y461500D01*
X121000Y742500D02*
X124000D01*
X122500Y741000D02*
Y744000D01*
X121000Y447500D02*
X124000D01*
X122500Y446000D02*
Y449000D01*
X116000Y442500D02*
X119000D01*
X117500Y441000D02*
Y444000D01*
X116000Y717500D02*
X119000D01*
X117500Y716000D02*
Y719000D01*
X106000Y617500D02*
X109000D01*
X107500Y616000D02*
Y619000D01*
X106000Y342500D02*
X109000D01*
X107500Y341000D02*
Y344000D01*
X958500Y342500D02*
X961500D01*
X960000Y341000D02*
Y344000D01*
X111000Y642500D02*
X114000D01*
X112500Y641000D02*
Y644000D01*
X111000Y347500D02*
X114000D01*
X112500Y346000D02*
Y349000D01*
X953500Y347500D02*
X956500D01*
X955000Y346000D02*
Y349000D01*
X301000Y352500D02*
X304000D01*
X302500Y351000D02*
Y354000D01*
X948500Y352500D02*
X951500D01*
X950000Y351000D02*
Y354000D01*
X276354Y357438D02*
X279354D01*
X277854Y355938D02*
Y358937D01*
X943500Y357500D02*
X946500D01*
X945000Y356000D02*
Y359000D01*
X636000Y945000D02*
X639000D01*
X637500Y943500D02*
Y946500D01*
X738500Y945000D02*
X741500D01*
X740000Y943500D02*
Y946500D01*
X738500Y362500D02*
X741500D01*
X740000Y361000D02*
Y364000D01*
X938500Y362500D02*
X941500D01*
X940000Y361000D02*
Y364000D01*
X1161000Y1020000D02*
X1164000D01*
X1162500Y1018500D02*
Y1021500D01*
X1161000Y470000D02*
X1164000D01*
X1162500Y468500D02*
Y471500D01*
X1081000Y470000D02*
X1084000D01*
X1082500Y468500D02*
Y471500D01*
X1156000Y1025000D02*
X1159000D01*
X1157500Y1023500D02*
Y1026500D01*
X1156000Y475000D02*
X1159000D01*
X1157500Y473500D02*
Y476500D01*
X1076000Y475000D02*
X1079000D01*
X1077500Y473500D02*
Y476500D01*
X1151000Y1030000D02*
X1154000D01*
X1152500Y1028500D02*
Y1031500D01*
X1151000Y480000D02*
X1154000D01*
X1152500Y478500D02*
Y481500D01*
X1071000Y480000D02*
X1074000D01*
X1072500Y478500D02*
Y481500D01*
X1146000Y997500D02*
X1149000D01*
X1147500Y996000D02*
Y999000D01*
X731000Y997500D02*
X734000D01*
X732500Y996000D02*
Y999000D01*
X1146000Y490000D02*
X1149000D01*
X1147500Y488500D02*
Y491500D01*
X1071000Y490000D02*
X1074000D01*
X1072500Y488500D02*
Y491500D01*
X721000Y960000D02*
X724000D01*
X722500Y958500D02*
Y961500D01*
X1136000Y960000D02*
X1139000D01*
X1137500Y958500D02*
Y961500D01*
X1136000Y495000D02*
X1139000D01*
X1137500Y493500D02*
Y496500D01*
X1076000Y495000D02*
X1079000D01*
X1077500Y493500D02*
Y496500D01*
X1081000Y500000D02*
X1084000D01*
X1082500Y498500D02*
Y501500D01*
X1086000Y505000D02*
X1089000D01*
X1087500Y503500D02*
Y506500D01*
X1091000Y510000D02*
X1094000D01*
X1092500Y508500D02*
Y511500D01*
X1096000Y515000D02*
X1099000D01*
X1097500Y513500D02*
Y516500D01*
X1101000Y520000D02*
X1104000D01*
X1102500Y518500D02*
Y521500D01*
X1086000Y545000D02*
X1089000D01*
X1087500Y543500D02*
Y546500D01*
X1091000Y540000D02*
X1094000D01*
X1092500Y538500D02*
Y541500D01*
X1096000Y535000D02*
X1099000D01*
X1097500Y533500D02*
Y536500D01*
X1101000Y530000D02*
X1104000D01*
X1102500Y528500D02*
Y531500D01*
X1106000Y525000D02*
X1109000D01*
X1107500Y523500D02*
Y526500D01*
X1131000Y985000D02*
X1134000D01*
X1132500Y983500D02*
Y986500D01*
X1131000Y500000D02*
X1134000D01*
X1132500Y498500D02*
Y501500D01*
X526000Y950000D02*
X529000D01*
X527500Y948500D02*
Y951500D01*
X1126000Y950000D02*
X1129000D01*
X1127500Y948500D02*
Y951500D01*
X1126000Y505000D02*
X1129000D01*
X1127500Y503500D02*
Y506500D01*
X1368500Y510000D02*
X1371500D01*
X1370000Y508500D02*
Y511500D01*
X1496000Y515000D02*
X1499000D01*
X1497500Y513500D02*
Y516500D01*
X1471000Y520000D02*
X1474000D01*
X1472500Y518500D02*
Y521500D01*
X1418500Y525000D02*
X1421500D01*
X1420000Y523500D02*
Y526500D01*
X1121000Y737500D02*
X1124000D01*
X1122500Y736000D02*
Y739000D01*
X1121000Y530000D02*
X1124000D01*
X1122500Y528500D02*
Y531500D01*
X1116000Y172500D02*
X1119000D01*
X1117500Y171000D02*
Y174000D01*
X1116000Y535000D02*
X1119000D01*
X1117500Y533500D02*
Y536500D01*
X1111000Y167500D02*
X1114000D01*
X1112500Y166000D02*
Y169000D01*
X1111000Y540000D02*
X1114000D01*
X1112500Y538500D02*
Y541500D01*
X1106000Y780000D02*
X1109000D01*
X1107500Y778500D02*
Y781500D01*
X1106000Y545000D02*
X1109000D01*
X1107500Y543500D02*
Y546500D01*
X1101000Y710000D02*
X1104000D01*
X1102500Y708500D02*
Y711500D01*
X1101000Y550000D02*
X1104000D01*
X1102500Y548500D02*
Y551500D01*
X1076000Y550000D02*
X1079000D01*
X1077500Y548500D02*
Y551500D01*
X1613500Y1110000D02*
X1616500D01*
X1615000Y1108500D02*
Y1111500D01*
X1523500Y1110000D02*
X1526500D01*
X1525000Y1108500D02*
Y1111500D01*
X1523500Y555000D02*
X1526500D01*
X1525000Y553500D02*
Y556500D01*
X1071000Y555000D02*
X1074000D01*
X1072500Y553500D02*
Y556500D01*
X431000Y367500D02*
X434000D01*
X432500Y366000D02*
Y369000D01*
X1088500Y367500D02*
X1091500D01*
X1090000Y366000D02*
Y369000D01*
X458500Y372500D02*
X461500D01*
X460000Y371000D02*
Y374000D01*
X1083500Y372500D02*
X1086500D01*
X1085000Y371000D02*
Y374000D01*
X473500Y377500D02*
X476500D01*
X475000Y376000D02*
Y379000D01*
X1078500Y377500D02*
X1081500D01*
X1080000Y376000D02*
Y379000D01*
X478500Y572500D02*
X481500D01*
X480000Y571000D02*
Y574000D01*
X876000Y570000D02*
X879000D01*
X877500Y568500D02*
Y571500D01*
X503500Y567500D02*
X506500D01*
X505000Y566000D02*
Y569000D01*
X881000Y565000D02*
X884000D01*
X882500Y563500D02*
Y566500D01*
X528500Y562500D02*
X531500D01*
X530000Y561000D02*
Y564000D01*
X886000Y560000D02*
X889000D01*
X887500Y558500D02*
Y561500D01*
X553500Y557500D02*
X556500D01*
X555000Y556000D02*
Y559000D01*
X891000Y555000D02*
X894000D01*
X892500Y553500D02*
Y556500D01*
X578500Y552500D02*
X581500D01*
X580000Y551000D02*
Y554000D01*
X896000Y550000D02*
X899000D01*
X897500Y548500D02*
Y551500D01*
X426000Y602500D02*
X429000D01*
X427500Y601000D02*
Y604000D01*
X452771Y596999D02*
X455770D01*
X454271Y595499D02*
Y598499D01*
X1318500Y702500D02*
X1321500D01*
X1320000Y701000D02*
Y704000D01*
X983500Y702500D02*
X986500D01*
X985000Y701000D02*
Y704000D01*
X1293500Y697500D02*
X1296500D01*
X1295000Y696000D02*
Y699000D01*
X988500Y697500D02*
X991500D01*
X990000Y696000D02*
Y699000D01*
X1241000Y687500D02*
X1244000D01*
X1242500Y686000D02*
Y689000D01*
X1268100Y692900D02*
X1271100D01*
X1269600Y691400D02*
Y694400D01*
X993500Y692500D02*
X996500D01*
X995000Y691000D02*
Y694000D01*
X998500Y687500D02*
X1001500D01*
X1000000Y686000D02*
Y689000D01*
X1216000Y615000D02*
X1219000D01*
X1217500Y613500D02*
Y616500D01*
X1003500Y615000D02*
X1006500D01*
X1005000Y613500D02*
Y616500D01*
X1191000Y610000D02*
X1194000D01*
X1192500Y608500D02*
Y611500D01*
X1008500Y610000D02*
X1011500D01*
X1010000Y608500D02*
Y611500D01*
X1166000Y605000D02*
X1169000D01*
X1167500Y603500D02*
Y606500D01*
X1013500Y605000D02*
X1016500D01*
X1015000Y603500D02*
Y606500D01*
X1141443Y600466D02*
X1144443D01*
X1142943Y598966D02*
Y601966D01*
X1018500Y600000D02*
X1021500D01*
X1020000Y598500D02*
Y601500D01*
X808500Y382500D02*
X811500D01*
X810000Y381000D02*
Y384000D01*
X783500Y387500D02*
X786500D01*
X785000Y386000D02*
Y389000D01*
X758500Y392500D02*
X761500D01*
X760000Y391000D02*
Y394000D01*
X731000Y397500D02*
X734000D01*
X732500Y396000D02*
Y399000D01*
X708500Y402500D02*
X711500D01*
X710000Y401000D02*
Y404000D01*
X681000Y407500D02*
X684000D01*
X682500Y406000D02*
Y409000D01*
X656000Y412500D02*
X659000D01*
X657500Y411000D02*
Y414000D01*
X628500Y417500D02*
X631500D01*
X630000Y416000D02*
Y419000D01*
X606671Y422818D02*
X609671D01*
X608171Y421318D02*
Y424318D01*
X1018500Y382500D02*
X1021500D01*
X1020000Y381000D02*
Y384000D01*
X1013500Y387500D02*
X1016500D01*
X1015000Y386000D02*
Y389000D01*
X1008500Y392500D02*
X1011500D01*
X1010000Y391000D02*
Y394000D01*
X1003500Y397500D02*
X1006500D01*
X1005000Y396000D02*
Y399000D01*
X998500Y402500D02*
X1001500D01*
X1000000Y401000D02*
Y404000D01*
X993500Y407500D02*
X996500D01*
X995000Y406000D02*
Y409000D01*
X988500Y412500D02*
X991500D01*
X990000Y411000D02*
Y414000D01*
X983500Y417500D02*
X986500D01*
X985000Y416000D02*
Y419000D01*
X978500Y422500D02*
X981500D01*
X980000Y421000D02*
Y424000D01*
X856000Y480000D02*
X859000D01*
X857500Y478500D02*
Y481500D01*
X856000Y547500D02*
X859000D01*
X857500Y546000D02*
Y549000D01*
X283500Y987500D02*
X286500D01*
X285000Y986000D02*
Y989000D01*
X246000Y1040000D02*
X249000D01*
X247500Y1038500D02*
Y1041500D01*
M02*
