G04*
G04 #@! TF.GenerationSoftware,Altium Limited,Altium Designer,21.4.1 (30)*
G04*
G04 Layer_Color=2752767*
%FSLAX44Y44*%
%MOMM*%
G71*
G04*
G04 #@! TF.SameCoordinates,A141D3DD-4A5E-4641-B441-74F08AAE2887*
G04*
G04*
G04 #@! TF.FilePolarity,Positive*
G04*
G01*
G75*
%ADD126C,0.0508*%
%ADD127C,0.0677*%
D126*
X1733468Y1016868D02*
Y1020932D01*
X1737532D01*
Y1016868D01*
X1733468D01*
Y959068D02*
Y963132D01*
X1737532D01*
Y959068D01*
X1733468D01*
X1651068Y1137968D02*
Y1142032D01*
X1655132D01*
Y1137968D01*
X1651068D01*
Y1125268D02*
Y1129332D01*
X1655132D01*
Y1125268D01*
X1651068D01*
X1638368Y1137968D02*
Y1142032D01*
X1642432D01*
Y1137968D01*
X1638368D01*
Y1125268D02*
Y1129332D01*
X1642432D01*
Y1125268D01*
X1638368D01*
X1625668Y1137968D02*
Y1142032D01*
X1629732D01*
Y1137968D01*
X1625668D01*
Y1125268D02*
Y1129332D01*
X1629732D01*
Y1125268D01*
X1625668D01*
X1612968Y1137968D02*
Y1142032D01*
X1617032D01*
Y1137968D01*
X1612968D01*
Y1125268D02*
Y1129332D01*
X1617032D01*
Y1125268D01*
X1612968D01*
X1600268D02*
Y1129332D01*
X1604332D01*
Y1125268D01*
X1600268D01*
X670000Y1097968D02*
X667968Y1102032D01*
X672032D01*
X670000Y1097968D01*
Y1147968D02*
X667968Y1152032D01*
X672032D01*
X670000Y1147968D01*
X1015200Y1042968D02*
X1013168Y1047032D01*
X1017232D01*
X1015200Y1042968D01*
X1370800D02*
X1368768Y1047032D01*
X1372832D01*
X1370800Y1042968D01*
X1345400D02*
X1343368Y1047032D01*
X1347432D01*
X1345400Y1042968D01*
X1320000D02*
X1317968Y1047032D01*
X1322032D01*
X1320000Y1042968D01*
X1294600D02*
X1292568Y1047032D01*
X1296632D01*
X1294600Y1042968D01*
X1269200D02*
X1267168Y1047032D01*
X1271232D01*
X1269200Y1042968D01*
X1243800D02*
X1241768Y1047032D01*
X1245832D01*
X1243800Y1042968D01*
X1218400D02*
X1216368Y1047032D01*
X1220432D01*
X1218400Y1042968D01*
X1193000D02*
X1190968Y1047032D01*
X1195032D01*
X1193000Y1042968D01*
X1167600D02*
X1165568Y1047032D01*
X1169632D01*
X1167600Y1042968D01*
X1142200D02*
X1140168Y1047032D01*
X1144232D01*
X1142200Y1042968D01*
X1116800D02*
X1114768Y1047032D01*
X1118832D01*
X1116800Y1042968D01*
X1091400D02*
X1089368Y1047032D01*
X1093432D01*
X1091400Y1042968D01*
X1066000D02*
X1063968Y1047032D01*
X1068032D01*
X1066000Y1042968D01*
X1040600D02*
X1038568Y1047032D01*
X1042632D01*
X1040600Y1042968D01*
X989800D02*
X987768Y1047032D01*
X991832D01*
X989800Y1042968D01*
X1169600Y1128903D02*
X1170616Y1129919D01*
X1171632D01*
X1170616Y1130935D01*
X1171632Y1131951D01*
X1170616D01*
X1169600Y1132967D01*
X1168584Y1131951D01*
X1167568D01*
X1168584Y1130935D01*
X1167568Y1129919D01*
X1168584D01*
X1169600Y1128903D01*
X1195000Y1154303D02*
X1196016Y1155319D01*
X1197032D01*
X1196016Y1156335D01*
X1197032Y1157351D01*
X1196016D01*
X1195000Y1158367D01*
X1193984Y1157351D01*
X1192968D01*
X1193984Y1156335D01*
X1192968Y1155319D01*
X1193984D01*
X1195000Y1154303D01*
X1220400Y1128903D02*
X1221416Y1129919D01*
X1222432D01*
X1221416Y1130935D01*
X1222432Y1131951D01*
X1221416D01*
X1220400Y1132967D01*
X1219384Y1131951D01*
X1218368D01*
X1219384Y1130935D01*
X1218368Y1129919D01*
X1219384D01*
X1220400Y1128903D01*
X1749600Y665468D02*
X1747568Y669532D01*
X1751632D01*
X1749600Y665468D01*
X1724200D02*
X1722168Y669532D01*
X1726232D01*
X1724200Y665468D01*
X1775000D02*
X1772968Y669532D01*
X1777032D01*
X1775000Y665468D01*
X1750000Y515468D02*
X1747968Y519532D01*
X1752032D01*
X1750000Y515468D01*
Y540468D02*
X1747968Y544532D01*
X1752032D01*
X1750000Y540468D01*
X1747968Y1147968D02*
X1748984Y1150000D01*
X1747968Y1152032D01*
X1750000Y1151016D01*
X1752032Y1152032D01*
X1751016Y1150000D01*
X1752032Y1147968D01*
X1750000Y1148984D01*
X1747968Y1147968D01*
X50000Y577968D02*
X47968Y582032D01*
X52032D01*
X50000Y577968D01*
Y652968D02*
X47968Y657032D01*
X52032D01*
X50000Y652968D01*
Y677968D02*
X47968Y682032D01*
X52032D01*
X50000Y677968D01*
Y727968D02*
X47968Y732032D01*
X52032D01*
X50000Y727968D01*
Y777968D02*
X47968Y782032D01*
X52032D01*
X50000Y777968D01*
Y752968D02*
X47968Y757032D01*
X52032D01*
X50000Y752968D01*
Y702968D02*
X47968Y707032D01*
X52032D01*
X50000Y702968D01*
Y627968D02*
X47968Y632032D01*
X52032D01*
X50000Y627968D01*
Y602968D02*
X47968Y607032D01*
X52032D01*
X50000Y602968D01*
X50000Y480468D02*
X47968Y484532D01*
X52032D01*
X50000Y480468D01*
Y505468D02*
X47968Y509532D01*
X52032D01*
X50000Y505468D01*
X45000Y392968D02*
X42968Y397032D01*
X47032D01*
X45000Y392968D01*
Y317968D02*
X42968Y322032D01*
X47032D01*
X45000Y317968D01*
X50000Y847968D02*
X47968Y852032D01*
X52032D01*
X50000Y847968D01*
Y897968D02*
X47968Y902032D01*
X52032D01*
X50000Y897968D01*
Y947968D02*
X47968Y952032D01*
X52032D01*
X50000Y947968D01*
Y922968D02*
X47968Y927032D01*
X52032D01*
X50000Y922968D01*
Y872968D02*
X47968Y877032D01*
X52032D01*
X50000Y872968D01*
X809600Y147968D02*
X807568Y152032D01*
X811632D01*
X809600Y147968D01*
X784200D02*
X782168Y152032D01*
X786232D01*
X784200Y147968D01*
X758800D02*
X756768Y152032D01*
X760832D01*
X758800Y147968D01*
X733400D02*
X731368Y152032D01*
X735432D01*
X733400Y147968D01*
X708000D02*
X705968Y152032D01*
X710032D01*
X708000Y147968D01*
X682600D02*
X680568Y152032D01*
X684632D01*
X682600Y147968D01*
X657200D02*
X655168Y152032D01*
X659232D01*
X657200Y147968D01*
X631800D02*
X629768Y152032D01*
X633832D01*
X631800Y147968D01*
X606400D02*
X604368Y152032D01*
X608432D01*
X606400Y147968D01*
X581000D02*
X578968Y152032D01*
X583032D01*
X581000Y147968D01*
X555600D02*
X553568Y152032D01*
X557632D01*
X555600Y147968D01*
X530200D02*
X528168Y152032D01*
X532232D01*
X530200Y147968D01*
X504800D02*
X502768Y152032D01*
X506832D01*
X504800Y147968D01*
X479400D02*
X477368Y152032D01*
X481432D01*
X479400Y147968D01*
X454000D02*
X451968Y152032D01*
X456032D01*
X454000Y147968D01*
X428600D02*
X426568Y152032D01*
X430632D01*
X428600Y147968D01*
X403200D02*
X401168Y152032D01*
X405232D01*
X403200Y147968D01*
X377800D02*
X375768Y152032D01*
X379832D01*
X377800Y147968D01*
X352400D02*
X350368Y152032D01*
X354432D01*
X352400Y147968D01*
X327000D02*
X324968Y152032D01*
X329032D01*
X327000Y147968D01*
X301600D02*
X299568Y152032D01*
X303632D01*
X301600Y147968D01*
X276200D02*
X274168Y152032D01*
X278232D01*
X276200Y147968D01*
X250800D02*
X248768Y152032D01*
X252832D01*
X250800Y147968D01*
X225400D02*
X223368Y152032D01*
X227432D01*
X225400Y147968D01*
X200000D02*
X197968Y152032D01*
X202032D01*
X200000Y147968D01*
X682600Y757968D02*
X680568Y762032D01*
X684632D01*
X682600Y757968D01*
X657200D02*
X655168Y762032D01*
X659232D01*
X657200Y757968D01*
X631800D02*
X629768Y762032D01*
X633832D01*
X631800Y757968D01*
X606400D02*
X604368Y762032D01*
X608432D01*
X606400Y757968D01*
X581000D02*
X578968Y762032D01*
X583032D01*
X581000Y757968D01*
X555600D02*
X553568Y762032D01*
X557632D01*
X555600Y757968D01*
X530200D02*
X528168Y762032D01*
X532232D01*
X530200Y757968D01*
X504800D02*
X502768Y762032D01*
X506832D01*
X504800Y757968D01*
X479400D02*
X477368Y762032D01*
X481432D01*
X479400Y757968D01*
X454000D02*
X451968Y762032D01*
X456032D01*
X454000Y757968D01*
X428600D02*
X426568Y762032D01*
X430632D01*
X428600Y757968D01*
X403200D02*
X401168Y762032D01*
X405232D01*
X403200Y757968D01*
X377800D02*
X375768Y762032D01*
X379832D01*
X377800Y757968D01*
X352400D02*
X350368Y762032D01*
X354432D01*
X352400Y757968D01*
X327000D02*
X324968Y762032D01*
X329032D01*
X327000Y757968D01*
X301600D02*
X299568Y762032D01*
X303632D01*
X301600Y757968D01*
X276200D02*
X274168Y762032D01*
X278232D01*
X276200Y757968D01*
X250800D02*
X248768Y762032D01*
X252832D01*
X250800Y757968D01*
X225400D02*
X223368Y762032D01*
X227432D01*
X225400Y757968D01*
X200000D02*
X197968Y762032D01*
X202032D01*
X200000Y757968D01*
X130000Y1147968D02*
X127968Y1152032D01*
X132032D01*
X130000Y1147968D01*
X155000D02*
X152968Y1152032D01*
X157032D01*
X155000Y1147968D01*
X1597968Y42968D02*
X1598984Y45000D01*
X1597968Y47032D01*
X1600000Y46016D01*
X1602032Y47032D01*
X1601016Y45000D01*
X1602032Y42968D01*
X1600000Y43984D01*
X1597968Y42968D01*
X1241568D02*
X1242584Y45000D01*
X1241568Y47032D01*
X1243600Y46016D01*
X1245632Y47032D01*
X1244616Y45000D01*
X1245632Y42968D01*
X1243600Y43984D01*
X1241568Y42968D01*
X1498000Y57968D02*
X1495968Y62032D01*
X1500032D01*
X1498000Y57968D01*
X1472600D02*
X1470568Y62032D01*
X1474632D01*
X1472600Y57968D01*
X1447200D02*
X1445168Y62032D01*
X1449232D01*
X1447200Y57968D01*
X1421800D02*
X1419768Y62032D01*
X1423832D01*
X1421800Y57968D01*
X1396400D02*
X1394368Y62032D01*
X1398432D01*
X1396400Y57968D01*
X1345600D02*
X1343568Y62032D01*
X1347632D01*
X1345600Y57968D01*
X1371000D02*
X1368968Y62032D01*
X1373032D01*
X1371000Y57968D01*
X1241568Y652968D02*
X1242584Y655000D01*
X1241568Y657032D01*
X1243600Y656016D01*
X1245632Y657032D01*
X1244616Y655000D01*
X1245632Y652968D01*
X1243600Y653984D01*
X1241568Y652968D01*
X1597968D02*
X1598984Y655000D01*
X1597968Y657032D01*
X1600000Y656016D01*
X1602032Y657032D01*
X1601016Y655000D01*
X1602032Y652968D01*
X1600000Y653984D01*
X1597968Y652968D01*
X118956Y998946D02*
Y997930D01*
X120988D01*
Y998946D01*
X122004D01*
Y1000978D01*
X120988D01*
Y1001994D01*
X118956D01*
Y1000978D01*
X117940D01*
Y998946D01*
X118956D01*
X88984Y1048984D02*
Y1047968D01*
X91016D01*
Y1048984D01*
X92032D01*
Y1051016D01*
X91016D01*
Y1052032D01*
X88984D01*
Y1051016D01*
X87968D01*
Y1048984D01*
X88984D01*
X150198D02*
Y1047968D01*
X152230D01*
Y1048984D01*
X153246D01*
Y1051016D01*
X152230D01*
Y1052032D01*
X150198D01*
Y1051016D01*
X149182D01*
Y1048984D01*
X150198D01*
X44280Y1047968D02*
X45296Y1050000D01*
X44280Y1052032D01*
X46312Y1051016D01*
X48344Y1052032D01*
X47328Y1050000D01*
X48344Y1047968D01*
X46312Y1048984D01*
X44280Y1047968D01*
X47968Y47968D02*
X48984Y50000D01*
X47968Y52032D01*
X50000Y51016D01*
X52032Y52032D01*
X51016Y50000D01*
X52032Y47968D01*
X50000Y48984D01*
X47968Y47968D01*
Y1147968D02*
X48984Y1150000D01*
X47968Y1152032D01*
X50000Y1151016D01*
X52032Y1152032D01*
X51016Y1150000D01*
X52032Y1147968D01*
X50000Y1148984D01*
X47968Y1147968D01*
X1747968Y47968D02*
X1748984Y50000D01*
X1747968Y52032D01*
X1750000Y51016D01*
X1752032Y52032D01*
X1751016Y50000D01*
X1752032Y47968D01*
X1750000Y48984D01*
X1747968Y47968D01*
X1584468Y1006468D02*
X1585484D01*
X1586500Y1007484D01*
X1587516Y1006468D01*
X1588532D01*
Y1007484D01*
X1587516Y1008500D01*
X1588532Y1009516D01*
Y1010532D01*
X1587516D01*
X1586500Y1009516D01*
X1585484Y1010532D01*
X1584468D01*
Y1009516D01*
X1585484Y1008500D01*
X1584468Y1007484D01*
Y1006468D01*
X1595468D02*
X1596484D01*
X1597500Y1007484D01*
X1598516Y1006468D01*
X1599532D01*
Y1007484D01*
X1598516Y1008500D01*
X1599532Y1009516D01*
Y1010532D01*
X1598516D01*
X1597500Y1009516D01*
X1596484Y1010532D01*
X1595468D01*
Y1009516D01*
X1596484Y1008500D01*
X1595468Y1007484D01*
Y1006468D01*
X1606468D02*
X1607484D01*
X1608500Y1007484D01*
X1609516Y1006468D01*
X1610532D01*
Y1007484D01*
X1609516Y1008500D01*
X1610532Y1009516D01*
Y1010532D01*
X1609516D01*
X1608500Y1009516D01*
X1607484Y1010532D01*
X1606468D01*
Y1009516D01*
X1607484Y1008500D01*
X1606468Y1007484D01*
Y1006468D01*
X1584468Y995468D02*
X1585484D01*
X1586500Y996484D01*
X1587516Y995468D01*
X1588532D01*
Y996484D01*
X1587516Y997500D01*
X1588532Y998516D01*
Y999532D01*
X1587516D01*
X1586500Y998516D01*
X1585484Y999532D01*
X1584468D01*
Y998516D01*
X1585484Y997500D01*
X1584468Y996484D01*
Y995468D01*
X1595468D02*
X1596484D01*
X1597500Y996484D01*
X1598516Y995468D01*
X1599532D01*
Y996484D01*
X1598516Y997500D01*
X1599532Y998516D01*
Y999532D01*
X1598516D01*
X1597500Y998516D01*
X1596484Y999532D01*
X1595468D01*
Y998516D01*
X1596484Y997500D01*
X1595468Y996484D01*
Y995468D01*
X1606468D02*
X1607484D01*
X1608500Y996484D01*
X1609516Y995468D01*
X1610532D01*
Y996484D01*
X1609516Y997500D01*
X1610532Y998516D01*
Y999532D01*
X1609516D01*
X1608500Y998516D01*
X1607484Y999532D01*
X1606468D01*
Y998516D01*
X1607484Y997500D01*
X1606468Y996484D01*
Y995468D01*
X1584468Y984468D02*
X1585484D01*
X1586500Y985484D01*
X1587516Y984468D01*
X1588532D01*
Y985484D01*
X1587516Y986500D01*
X1588532Y987516D01*
Y988532D01*
X1587516D01*
X1586500Y987516D01*
X1585484Y988532D01*
X1584468D01*
Y987516D01*
X1585484Y986500D01*
X1584468Y985484D01*
Y984468D01*
X1595468D02*
X1596484D01*
X1597500Y985484D01*
X1598516Y984468D01*
X1599532D01*
Y985484D01*
X1598516Y986500D01*
X1599532Y987516D01*
Y988532D01*
X1598516D01*
X1597500Y987516D01*
X1596484Y988532D01*
X1595468D01*
Y987516D01*
X1596484Y986500D01*
X1595468Y985484D01*
Y984468D01*
X1606468D02*
X1607484D01*
X1608500Y985484D01*
X1609516Y984468D01*
X1610532D01*
Y985484D01*
X1609516Y986500D01*
X1610532Y987516D01*
Y988532D01*
X1609516D01*
X1608500Y987516D01*
X1607484Y988532D01*
X1606468D01*
Y987516D01*
X1607484Y986500D01*
X1606468Y985484D01*
Y984468D01*
X202968Y1067500D02*
X205000Y1069532D01*
X207032Y1067500D01*
X205000Y1065468D01*
X202968Y1067500D01*
X195468D02*
X197500Y1069532D01*
X199532Y1067500D01*
X197500Y1065468D01*
X195468Y1067500D01*
X1627968Y1017728D02*
X1630000Y1019760D01*
X1632032Y1017728D01*
X1630000Y1015696D01*
X1627968Y1017728D01*
X1730468Y982500D02*
X1732500Y984532D01*
X1734532Y982500D01*
X1732500Y980468D01*
X1730468Y982500D01*
Y992500D02*
X1732500Y994532D01*
X1734532Y992500D01*
X1732500Y990468D01*
X1730468Y992500D01*
X327968Y997500D02*
X330000Y999532D01*
X332032Y997500D01*
X330000Y995468D01*
X327968Y997500D01*
X490468Y1110000D02*
X492500Y1112032D01*
X494532Y1110000D01*
X492500Y1107968D01*
X490468Y1110000D01*
X177968Y987500D02*
X180000Y989532D01*
X182032Y987500D01*
X180000Y985468D01*
X177968Y987500D01*
X170468Y980000D02*
X172500Y982032D01*
X174532Y980000D01*
X172500Y977968D01*
X170468Y980000D01*
Y987500D02*
X172500Y989532D01*
X174532Y987500D01*
X172500Y985468D01*
X170468Y987500D01*
X225468Y197500D02*
X227500Y199532D01*
X229532Y197500D01*
X227500Y195468D01*
X225468Y197500D01*
X410468Y1047500D02*
X412500Y1049532D01*
X414532Y1047500D01*
X412500Y1045468D01*
X410468Y1047500D01*
X402968D02*
X405000Y1049532D01*
X407032Y1047500D01*
X405000Y1045468D01*
X402968Y1047500D01*
X427968Y942500D02*
X430000Y944532D01*
X432032Y942500D01*
X430000Y940468D01*
X427968Y942500D01*
Y950000D02*
X430000Y952032D01*
X432032Y950000D01*
X430000Y947968D01*
X427968Y950000D01*
X417968Y942500D02*
X420000Y944532D01*
X422032Y942500D01*
X420000Y940468D01*
X417968Y942500D01*
X407968D02*
X410000Y944532D01*
X412032Y942500D01*
X410000Y940468D01*
X407968Y942500D01*
X387968D02*
X390000Y944532D01*
X392032Y942500D01*
X390000Y940468D01*
X387968Y942500D01*
Y950000D02*
X390000Y952032D01*
X392032Y950000D01*
X390000Y947968D01*
X387968Y950000D01*
X397968Y942500D02*
X400000Y944532D01*
X402032Y942500D01*
X400000Y940468D01*
X397968Y942500D01*
X194968Y1045000D02*
X197000Y1047032D01*
X199032Y1045000D01*
X197000Y1042968D01*
X194968Y1045000D01*
X200468Y1000000D02*
X202500Y1002032D01*
X204532Y1000000D01*
X202500Y997968D01*
X200468Y1000000D01*
X198863Y1020157D02*
X200895Y1022189D01*
X202927Y1020157D01*
X200895Y1018125D01*
X198863Y1020157D01*
X212968Y977500D02*
X215000Y979532D01*
X217032Y977500D01*
X215000Y975468D01*
X212968Y977500D01*
X205468D02*
X207500Y979532D01*
X209532Y977500D01*
X207500Y975468D01*
X205468Y977500D01*
X282968Y980000D02*
X285000Y982032D01*
X287032Y980000D01*
X285000Y977968D01*
X282968Y980000D01*
X257968Y915000D02*
X260000Y917032D01*
X262032Y915000D01*
X260000Y912968D01*
X257968Y915000D01*
Y955000D02*
X260000Y957032D01*
X262032Y955000D01*
X260000Y952968D01*
X257968Y955000D01*
X297968D02*
X300000Y957032D01*
X302032Y955000D01*
X300000Y952968D01*
X297968Y955000D01*
X197968Y915000D02*
X200000Y917032D01*
X202032Y915000D01*
X200000Y912968D01*
X197968Y915000D01*
Y875000D02*
X200000Y877032D01*
X202032Y875000D01*
X200000Y872968D01*
X197968Y875000D01*
X297968Y915000D02*
X300000Y917032D01*
X302032Y915000D01*
X300000Y912968D01*
X297968Y915000D01*
Y875000D02*
X300000Y877032D01*
X302032Y875000D01*
X300000Y872968D01*
X297968Y875000D01*
X322968Y1067500D02*
X325000Y1069532D01*
X327032Y1067500D01*
X325000Y1065468D01*
X322968Y1067500D01*
X317968Y1072500D02*
X320000Y1074532D01*
X322032Y1072500D01*
X320000Y1070468D01*
X317968Y1072500D01*
X370468Y1052500D02*
X372500Y1054532D01*
X374532Y1052500D01*
X372500Y1050468D01*
X370468Y1052500D01*
Y990000D02*
X372500Y992032D01*
X374532Y990000D01*
X372500Y987968D01*
X370468Y990000D01*
Y997500D02*
X372500Y999532D01*
X374532Y997500D01*
X372500Y995468D01*
X370468Y997500D01*
Y1005000D02*
X372500Y1007032D01*
X374532Y1005000D01*
X372500Y1002968D01*
X370468Y1005000D01*
Y1012500D02*
X372500Y1014532D01*
X374532Y1012500D01*
X372500Y1010468D01*
X370468Y1012500D01*
Y1045000D02*
X372500Y1047032D01*
X374532Y1045000D01*
X372500Y1042968D01*
X370468Y1045000D01*
Y1037500D02*
X372500Y1039532D01*
X374532Y1037500D01*
X372500Y1035468D01*
X370468Y1037500D01*
X22968Y100000D02*
X25000Y102032D01*
X27032Y100000D01*
X25000Y97968D01*
X22968Y100000D01*
Y200000D02*
X25000Y202032D01*
X27032Y200000D01*
X25000Y197968D01*
X22968Y200000D01*
Y300000D02*
X25000Y302032D01*
X27032Y300000D01*
X25000Y297968D01*
X22968Y300000D01*
Y400000D02*
X25000Y402032D01*
X27032Y400000D01*
X25000Y397968D01*
X22968Y400000D01*
Y500000D02*
X25000Y502032D01*
X27032Y500000D01*
X25000Y497968D01*
X22968Y500000D01*
Y600000D02*
X25000Y602032D01*
X27032Y600000D01*
X25000Y597968D01*
X22968Y600000D01*
Y625000D02*
X25000Y627032D01*
X27032Y625000D01*
X25000Y622968D01*
X22968Y625000D01*
Y700000D02*
X25000Y702032D01*
X27032Y700000D01*
X25000Y697968D01*
X22968Y700000D01*
Y800000D02*
X25000Y802032D01*
X27032Y800000D01*
X25000Y797968D01*
X22968Y800000D01*
Y875000D02*
X25000Y877032D01*
X27032Y875000D01*
X25000Y872968D01*
X22968Y875000D01*
Y950000D02*
X25000Y952032D01*
X27032Y950000D01*
X25000Y947968D01*
X22968Y950000D01*
X97968D02*
X100000Y952032D01*
X102032Y950000D01*
X100000Y947968D01*
X97968Y950000D01*
Y875000D02*
X100000Y877032D01*
X102032Y875000D01*
X100000Y872968D01*
X97968Y875000D01*
X522968Y1100000D02*
X525000Y1102032D01*
X527032Y1100000D01*
X525000Y1097968D01*
X522968Y1100000D01*
Y1175000D02*
X525000Y1177032D01*
X527032Y1175000D01*
X525000Y1172968D01*
X522968Y1175000D01*
X597968D02*
X600000Y1177032D01*
X602032Y1175000D01*
X600000Y1172968D01*
X597968Y1175000D01*
X697968D02*
X700000Y1177032D01*
X702032Y1175000D01*
X700000Y1172968D01*
X697968Y1175000D01*
X797968D02*
X800000Y1177032D01*
X802032Y1175000D01*
X800000Y1172968D01*
X797968Y1175000D01*
X897968D02*
X900000Y1177032D01*
X902032Y1175000D01*
X900000Y1172968D01*
X897968Y1175000D01*
X997968D02*
X1000000Y1177032D01*
X1002032Y1175000D01*
X1000000Y1172968D01*
X997968Y1175000D01*
X1097968D02*
X1100000Y1177032D01*
X1102032Y1175000D01*
X1100000Y1172968D01*
X1097968Y1175000D01*
X1172968Y1100000D02*
X1175000Y1102032D01*
X1177032Y1100000D01*
X1175000Y1097968D01*
X1172968Y1100000D01*
Y1175000D02*
X1175000Y1177032D01*
X1177032Y1175000D01*
X1175000Y1172968D01*
X1172968Y1175000D01*
X1247968Y1100000D02*
X1250000Y1102032D01*
X1252032Y1100000D01*
X1250000Y1097968D01*
X1247968Y1100000D01*
Y1175000D02*
X1250000Y1177032D01*
X1252032Y1175000D01*
X1250000Y1172968D01*
X1247968Y1175000D01*
X1397968Y1100000D02*
X1400000Y1102032D01*
X1402032Y1100000D01*
X1400000Y1097968D01*
X1397968Y1100000D01*
X1322968D02*
X1325000Y1102032D01*
X1327032Y1100000D01*
X1325000Y1097968D01*
X1322968Y1100000D01*
Y1175000D02*
X1325000Y1177032D01*
X1327032Y1175000D01*
X1325000Y1172968D01*
X1322968Y1175000D01*
X1397968D02*
X1400000Y1177032D01*
X1402032Y1175000D01*
X1400000Y1172968D01*
X1397968Y1175000D01*
X1472968D02*
X1475000Y1177032D01*
X1477032Y1175000D01*
X1475000Y1172968D01*
X1472968Y1175000D01*
X1547968Y1100000D02*
X1550000Y1102032D01*
X1552032Y1100000D01*
X1550000Y1097968D01*
X1547968Y1100000D01*
Y1175000D02*
X1550000Y1177032D01*
X1552032Y1175000D01*
X1550000Y1172968D01*
X1547968Y1175000D01*
X1622968D02*
X1625000Y1177032D01*
X1627032Y1175000D01*
X1625000Y1172968D01*
X1622968Y1175000D01*
X1697968D02*
X1700000Y1177032D01*
X1702032Y1175000D01*
X1700000Y1172968D01*
X1697968Y1175000D01*
Y1100000D02*
X1700000Y1102032D01*
X1702032Y1100000D01*
X1700000Y1097968D01*
X1697968Y1100000D01*
X1772968D02*
X1775000Y1102032D01*
X1777032Y1100000D01*
X1775000Y1097968D01*
X1772968Y1100000D01*
Y900000D02*
X1775000Y902032D01*
X1777032Y900000D01*
X1775000Y897968D01*
X1772968Y900000D01*
Y800000D02*
X1775000Y802032D01*
X1777032Y800000D01*
X1775000Y797968D01*
X1772968Y800000D01*
Y600000D02*
X1775000Y602032D01*
X1777032Y600000D01*
X1775000Y597968D01*
X1772968Y600000D01*
Y500000D02*
X1775000Y502032D01*
X1777032Y500000D01*
X1775000Y497968D01*
X1772968Y500000D01*
Y400000D02*
X1775000Y402032D01*
X1777032Y400000D01*
X1775000Y397968D01*
X1772968Y400000D01*
Y300000D02*
X1775000Y302032D01*
X1777032Y300000D01*
X1775000Y297968D01*
X1772968Y300000D01*
Y100000D02*
X1775000Y102032D01*
X1777032Y100000D01*
X1775000Y97968D01*
X1772968Y100000D01*
Y25000D02*
X1775000Y27032D01*
X1777032Y25000D01*
X1775000Y22968D01*
X1772968Y25000D01*
X1697968D02*
X1700000Y27032D01*
X1702032Y25000D01*
X1700000Y22968D01*
X1697968Y25000D01*
X1597968D02*
X1600000Y27032D01*
X1602032Y25000D01*
X1600000Y22968D01*
X1597968Y25000D01*
X1497968D02*
X1500000Y27032D01*
X1502032Y25000D01*
X1500000Y22968D01*
X1497968Y25000D01*
X1397968D02*
X1400000Y27032D01*
X1402032Y25000D01*
X1400000Y22968D01*
X1397968Y25000D01*
X1297968D02*
X1300000Y27032D01*
X1302032Y25000D01*
X1300000Y22968D01*
X1297968Y25000D01*
X1197968D02*
X1200000Y27032D01*
X1202032Y25000D01*
X1200000Y22968D01*
X1197968Y25000D01*
X1097968D02*
X1100000Y27032D01*
X1102032Y25000D01*
X1100000Y22968D01*
X1097968Y25000D01*
X997968D02*
X1000000Y27032D01*
X1002032Y25000D01*
X1000000Y22968D01*
X997968Y25000D01*
X897968D02*
X900000Y27032D01*
X902032Y25000D01*
X900000Y22968D01*
X897968Y25000D01*
X797968D02*
X800000Y27032D01*
X802032Y25000D01*
X800000Y22968D01*
X797968Y25000D01*
X697968D02*
X700000Y27032D01*
X702032Y25000D01*
X700000Y22968D01*
X697968Y25000D01*
X597968D02*
X600000Y27032D01*
X602032Y25000D01*
X600000Y22968D01*
X597968Y25000D01*
X497968D02*
X500000Y27032D01*
X502032Y25000D01*
X500000Y22968D01*
X497968Y25000D01*
X397968D02*
X400000Y27032D01*
X402032Y25000D01*
X400000Y22968D01*
X397968Y25000D01*
X297968D02*
X300000Y27032D01*
X302032Y25000D01*
X300000Y22968D01*
X297968Y25000D01*
X197968D02*
X200000Y27032D01*
X202032Y25000D01*
X200000Y22968D01*
X197968Y25000D01*
X97968D02*
X100000Y27032D01*
X102032Y25000D01*
X100000Y22968D01*
X97968Y25000D01*
X22968D02*
X25000Y27032D01*
X27032Y25000D01*
X25000Y22968D01*
X22968Y25000D01*
X1772968Y1175000D02*
X1775000Y1177032D01*
X1777032Y1175000D01*
X1775000Y1172968D01*
X1772968Y1175000D01*
Y1182500D02*
X1775000Y1184532D01*
X1777032Y1182500D01*
X1775000Y1180468D01*
X1772968Y1182500D01*
X1780468Y1175000D02*
X1782500Y1177032D01*
X1784532Y1175000D01*
X1782500Y1172968D01*
X1780468Y1175000D01*
Y1182500D02*
X1782500Y1184532D01*
X1784532Y1182500D01*
X1782500Y1180468D01*
X1780468Y1182500D01*
X1554968Y983000D02*
X1557000Y985032D01*
X1559032Y983000D01*
X1557000Y980968D01*
X1554968Y983000D01*
X1650468Y1040000D02*
X1652500Y1042032D01*
X1654532Y1040000D01*
X1652500Y1037968D01*
X1650468Y1040000D01*
X1642968D02*
X1645000Y1042032D01*
X1647032Y1040000D01*
X1645000Y1037968D01*
X1642968Y1040000D01*
X1650468Y1047500D02*
X1652500Y1049532D01*
X1654532Y1047500D01*
X1652500Y1045468D01*
X1650468Y1047500D01*
X1642968D02*
X1645000Y1049532D01*
X1647032Y1047500D01*
X1645000Y1045468D01*
X1642968Y1047500D01*
X881968Y528000D02*
X884000Y530032D01*
X886032Y528000D01*
X884000Y525968D01*
X881968Y528000D01*
X873968Y498000D02*
X876000Y500032D01*
X878032Y498000D01*
X876000Y495968D01*
X873968Y498000D01*
X1076968Y585000D02*
X1079000Y587032D01*
X1081032Y585000D01*
X1079000Y582968D01*
X1076968Y585000D01*
X1048968Y573000D02*
X1051000Y575032D01*
X1053032Y573000D01*
X1051000Y570968D01*
X1048968Y573000D01*
X1043968Y568000D02*
X1046000Y570032D01*
X1048032Y568000D01*
X1046000Y565968D01*
X1043968Y568000D01*
X1101968Y485000D02*
X1104000Y487032D01*
X1106032Y485000D01*
X1104000Y482968D01*
X1101968Y485000D01*
X1089968D02*
X1092000Y487032D01*
X1094032Y485000D01*
X1092000Y482968D01*
X1089968Y485000D01*
X1078968D02*
X1081000Y487032D01*
X1083032Y485000D01*
X1081000Y482968D01*
X1078968Y485000D01*
X1065468Y430000D02*
X1067500Y432032D01*
X1069532Y430000D01*
X1067500Y427968D01*
X1065468Y430000D01*
X1057968D02*
X1060000Y432032D01*
X1062032Y430000D01*
X1060000Y427968D01*
X1057968Y430000D01*
X1065468Y437500D02*
X1067500Y439532D01*
X1069532Y437500D01*
X1067500Y435468D01*
X1065468Y437500D01*
X1057968D02*
X1060000Y439532D01*
X1062032Y437500D01*
X1060000Y435468D01*
X1057968Y437500D01*
X910468Y435000D02*
X912500Y437032D01*
X914532Y435000D01*
X912500Y432968D01*
X910468Y435000D01*
X902968D02*
X905000Y437032D01*
X907032Y435000D01*
X905000Y432968D01*
X902968Y435000D01*
X910468Y442500D02*
X912500Y444532D01*
X914532Y442500D01*
X912500Y440468D01*
X910468Y442500D01*
X902968D02*
X905000Y444532D01*
X907032Y442500D01*
X905000Y440468D01*
X902968Y442500D01*
X845468Y460000D02*
X847500Y462032D01*
X849532Y460000D01*
X847500Y457968D01*
X845468Y460000D01*
X837968Y452500D02*
X840000Y454532D01*
X842032Y452500D01*
X840000Y450468D01*
X837968Y452500D01*
Y460000D02*
X840000Y462032D01*
X842032Y460000D01*
X840000Y457968D01*
X837968Y460000D01*
X845468Y452500D02*
X847500Y454532D01*
X849532Y452500D01*
X847500Y450468D01*
X845468Y452500D01*
X842968Y525000D02*
X845000Y527032D01*
X847032Y525000D01*
X845000Y522968D01*
X842968Y525000D01*
X835468D02*
X837500Y527032D01*
X839532Y525000D01*
X837500Y522968D01*
X835468Y525000D01*
X842968Y532500D02*
X845000Y534532D01*
X847032Y532500D01*
X845000Y530468D01*
X842968Y532500D01*
X835468D02*
X837500Y534532D01*
X839532Y532500D01*
X837500Y530468D01*
X835468Y532500D01*
X916968Y490000D02*
X919000Y492032D01*
X921032Y490000D01*
X919000Y487968D01*
X916968Y490000D01*
Y522000D02*
X919000Y524032D01*
X921032Y522000D01*
X919000Y519968D01*
X916968Y522000D01*
Y551000D02*
X919000Y553032D01*
X921032Y551000D01*
X919000Y548968D01*
X916968Y551000D01*
Y569000D02*
X919000Y571032D01*
X921032Y569000D01*
X919000Y566968D01*
X916968Y569000D01*
X872968Y591000D02*
X875000Y593032D01*
X877032Y591000D01*
X875000Y588968D01*
X872968Y591000D01*
X901968D02*
X904000Y593032D01*
X906032Y591000D01*
X904000Y588968D01*
X901968Y591000D01*
X872968Y609000D02*
X875000Y611032D01*
X877032Y609000D01*
X875000Y606968D01*
X872968Y609000D01*
X901627Y609043D02*
X903659Y611075D01*
X905691Y609043D01*
X903659Y607011D01*
X901627Y609043D01*
X900968Y636000D02*
X903000Y638032D01*
X905032Y636000D01*
X903000Y633968D01*
X900968Y636000D01*
Y651000D02*
X903000Y653032D01*
X905032Y651000D01*
X903000Y648968D01*
X900968Y651000D01*
X865968D02*
X868000Y653032D01*
X870032Y651000D01*
X868000Y648968D01*
X865968Y651000D01*
X933067Y651243D02*
X935099Y653275D01*
X937131Y651243D01*
X935099Y649211D01*
X933067Y651243D01*
X947968Y651000D02*
X950000Y653032D01*
X952032Y651000D01*
X950000Y648968D01*
X947968Y651000D01*
X956968Y490000D02*
X959000Y492032D01*
X961032Y490000D01*
X959000Y487968D01*
X956968Y490000D01*
X928968D02*
X931000Y492032D01*
X933032Y490000D01*
X931000Y487968D01*
X928968Y490000D01*
X956968Y522000D02*
X959000Y524032D01*
X961032Y522000D01*
X959000Y519968D01*
X956968Y522000D01*
X928968D02*
X931000Y524032D01*
X933032Y522000D01*
X931000Y519968D01*
X928968Y522000D01*
X956968Y456000D02*
X959000Y458032D01*
X961032Y456000D01*
X959000Y453968D01*
X956968Y456000D01*
X935968D02*
X938000Y458032D01*
X940032Y456000D01*
X938000Y453968D01*
X935968Y456000D01*
X956968Y552000D02*
X959000Y554032D01*
X961032Y552000D01*
X959000Y549968D01*
X956968Y552000D01*
X928968Y551000D02*
X931000Y553032D01*
X933032Y551000D01*
X931000Y548968D01*
X928968Y551000D01*
X956968Y569000D02*
X959000Y571032D01*
X961032Y569000D01*
X959000Y566968D01*
X956968Y569000D01*
X928968D02*
X931000Y571032D01*
X933032Y569000D01*
X931000Y566968D01*
X928968Y569000D01*
X916968Y480000D02*
X919000Y482032D01*
X921032Y480000D01*
X919000Y477968D01*
X916968Y480000D01*
X1697968Y500000D02*
X1700000Y502032D01*
X1702032Y500000D01*
X1700000Y497968D01*
X1697968Y500000D01*
X1597968Y600000D02*
X1600000Y602032D01*
X1602032Y600000D01*
X1600000Y597968D01*
X1597968Y600000D01*
X1197968Y500000D02*
X1200000Y502032D01*
X1202032Y500000D01*
X1200000Y497968D01*
X1197968Y500000D01*
X1297968D02*
X1300000Y502032D01*
X1302032Y500000D01*
X1300000Y497968D01*
X1297968Y500000D01*
X1397968D02*
X1400000Y502032D01*
X1402032Y500000D01*
X1400000Y497968D01*
X1397968Y500000D01*
X1597968D02*
X1600000Y502032D01*
X1602032Y500000D01*
X1600000Y497968D01*
X1597968Y500000D01*
X1097968Y400000D02*
X1100000Y402032D01*
X1102032Y400000D01*
X1100000Y397968D01*
X1097968Y400000D01*
X1197968D02*
X1200000Y402032D01*
X1202032Y400000D01*
X1200000Y397968D01*
X1197968Y400000D01*
X1297968D02*
X1300000Y402032D01*
X1302032Y400000D01*
X1300000Y397968D01*
X1297968Y400000D01*
X1397968D02*
X1400000Y402032D01*
X1402032Y400000D01*
X1400000Y397968D01*
X1397968Y400000D01*
X1597968D02*
X1600000Y402032D01*
X1602032Y400000D01*
X1600000Y397968D01*
X1597968Y400000D01*
X1697968Y100000D02*
X1700000Y102032D01*
X1702032Y100000D01*
X1700000Y97968D01*
X1697968Y100000D01*
Y200000D02*
X1700000Y202032D01*
X1702032Y200000D01*
X1700000Y197968D01*
X1697968Y200000D01*
Y300000D02*
X1700000Y302032D01*
X1702032Y300000D01*
X1700000Y297968D01*
X1697968Y300000D01*
X1597968Y100000D02*
X1600000Y102032D01*
X1602032Y100000D01*
X1600000Y97968D01*
X1597968Y100000D01*
Y200000D02*
X1600000Y202032D01*
X1602032Y200000D01*
X1600000Y197968D01*
X1597968Y200000D01*
Y300000D02*
X1600000Y302032D01*
X1602032Y300000D01*
X1600000Y297968D01*
X1597968Y300000D01*
X1397968D02*
X1400000Y302032D01*
X1402032Y300000D01*
X1400000Y297968D01*
X1397968Y300000D01*
Y200000D02*
X1400000Y202032D01*
X1402032Y200000D01*
X1400000Y197968D01*
X1397968Y200000D01*
Y100000D02*
X1400000Y102032D01*
X1402032Y100000D01*
X1400000Y97968D01*
X1397968Y100000D01*
X1297968Y300000D02*
X1300000Y302032D01*
X1302032Y300000D01*
X1300000Y297968D01*
X1297968Y300000D01*
Y200000D02*
X1300000Y202032D01*
X1302032Y200000D01*
X1300000Y197968D01*
X1297968Y200000D01*
Y100000D02*
X1300000Y102032D01*
X1302032Y100000D01*
X1300000Y97968D01*
X1297968Y100000D01*
X1197968D02*
X1200000Y102032D01*
X1202032Y100000D01*
X1200000Y97968D01*
X1197968Y100000D01*
Y200000D02*
X1200000Y202032D01*
X1202032Y200000D01*
X1200000Y197968D01*
X1197968Y200000D01*
Y300000D02*
X1200000Y302032D01*
X1202032Y300000D01*
X1200000Y297968D01*
X1197968Y300000D01*
X1097968D02*
X1100000Y302032D01*
X1102032Y300000D01*
X1100000Y297968D01*
X1097968Y300000D01*
Y200000D02*
X1100000Y202032D01*
X1102032Y200000D01*
X1100000Y197968D01*
X1097968Y200000D01*
Y100000D02*
X1100000Y102032D01*
X1102032Y100000D01*
X1100000Y97968D01*
X1097968Y100000D01*
X997968Y200000D02*
X1000000Y202032D01*
X1002032Y200000D01*
X1000000Y197968D01*
X997968Y200000D01*
Y300000D02*
X1000000Y302032D01*
X1002032Y300000D01*
X1000000Y297968D01*
X997968Y300000D01*
X897968D02*
X900000Y302032D01*
X902032Y300000D01*
X900000Y297968D01*
X897968Y300000D01*
Y200000D02*
X900000Y202032D01*
X902032Y200000D01*
X900000Y197968D01*
X897968Y200000D01*
X997968Y100000D02*
X1000000Y102032D01*
X1002032Y100000D01*
X1000000Y97968D01*
X997968Y100000D01*
X897968D02*
X900000Y102032D01*
X902032Y100000D01*
X900000Y97968D01*
X897968Y100000D01*
X797968D02*
X800000Y102032D01*
X802032Y100000D01*
X800000Y97968D01*
X797968Y100000D01*
X697968D02*
X700000Y102032D01*
X702032Y100000D01*
X700000Y97968D01*
X697968Y100000D01*
X597968D02*
X600000Y102032D01*
X602032Y100000D01*
X600000Y97968D01*
X597968Y100000D01*
X497968D02*
X500000Y102032D01*
X502032Y100000D01*
X500000Y97968D01*
X497968Y100000D01*
X397968D02*
X400000Y102032D01*
X402032Y100000D01*
X400000Y97968D01*
X397968Y100000D01*
X297968D02*
X300000Y102032D01*
X302032Y100000D01*
X300000Y97968D01*
X297968Y100000D01*
X197968D02*
X200000Y102032D01*
X202032Y100000D01*
X200000Y97968D01*
X197968Y100000D01*
X97968D02*
X100000Y102032D01*
X102032Y100000D01*
X100000Y97968D01*
X97968Y100000D01*
Y200000D02*
X100000Y202032D01*
X102032Y200000D01*
X100000Y197968D01*
X97968Y200000D01*
Y300000D02*
X100000Y302032D01*
X102032Y300000D01*
X100000Y297968D01*
X97968Y300000D01*
X797968Y200000D02*
X800000Y202032D01*
X802032Y200000D01*
X800000Y197968D01*
X797968Y200000D01*
X697968D02*
X700000Y202032D01*
X702032Y200000D01*
X700000Y197968D01*
X697968Y200000D01*
X597968D02*
X600000Y202032D01*
X602032Y200000D01*
X600000Y197968D01*
X597968Y200000D01*
X497968D02*
X500000Y202032D01*
X502032Y200000D01*
X500000Y197968D01*
X497968Y200000D01*
X397968D02*
X400000Y202032D01*
X402032Y200000D01*
X400000Y197968D01*
X397968Y200000D01*
X197968D02*
X200000Y202032D01*
X202032Y200000D01*
X200000Y197968D01*
X197968Y200000D01*
Y600000D02*
X200000Y602032D01*
X202032Y600000D01*
X200000Y597968D01*
X197968Y600000D01*
Y500000D02*
X200000Y502032D01*
X202032Y500000D01*
X200000Y497968D01*
X197968Y500000D01*
Y400000D02*
X200000Y402032D01*
X202032Y400000D01*
X200000Y397968D01*
X197968Y400000D01*
Y300000D02*
X200000Y302032D01*
X202032Y300000D01*
X200000Y297968D01*
X197968Y300000D01*
X297968Y400000D02*
X300000Y402032D01*
X302032Y400000D01*
X300000Y397968D01*
X297968Y400000D01*
Y600000D02*
X300000Y602032D01*
X302032Y600000D01*
X300000Y597968D01*
X297968Y600000D01*
Y500000D02*
X300000Y502032D01*
X302032Y500000D01*
X300000Y497968D01*
X297968Y500000D01*
X397968Y600000D02*
X400000Y602032D01*
X402032Y600000D01*
X400000Y597968D01*
X397968Y600000D01*
Y500000D02*
X400000Y502032D01*
X402032Y500000D01*
X400000Y497968D01*
X397968Y500000D01*
X597968Y400000D02*
X600000Y402032D01*
X602032Y400000D01*
X600000Y397968D01*
X597968Y400000D01*
X497968D02*
X500000Y402032D01*
X502032Y400000D01*
X500000Y397968D01*
X497968Y400000D01*
X397968D02*
X400000Y402032D01*
X402032Y400000D01*
X400000Y397968D01*
X397968Y400000D01*
Y300000D02*
X400000Y302032D01*
X402032Y300000D01*
X400000Y297968D01*
X397968Y300000D01*
X497968D02*
X500000Y302032D01*
X502032Y300000D01*
X500000Y297968D01*
X497968Y300000D01*
X597968D02*
X600000Y302032D01*
X602032Y300000D01*
X600000Y297968D01*
X597968Y300000D01*
X697968D02*
X700000Y302032D01*
X702032Y300000D01*
X700000Y297968D01*
X697968Y300000D01*
X797968D02*
X800000Y302032D01*
X802032Y300000D01*
X800000Y297968D01*
X797968Y300000D01*
Y500000D02*
X800000Y502032D01*
X802032Y500000D01*
X800000Y497968D01*
X797968Y500000D01*
X1197968Y600000D02*
X1200000Y602032D01*
X1202032Y600000D01*
X1200000Y597968D01*
X1197968Y600000D01*
X1297968D02*
X1300000Y602032D01*
X1302032Y600000D01*
X1300000Y597968D01*
X1297968Y600000D01*
X1497968D02*
X1500000Y602032D01*
X1502032Y600000D01*
X1500000Y597968D01*
X1497968Y600000D01*
X1397968D02*
X1400000Y602032D01*
X1402032Y600000D01*
X1400000Y597968D01*
X1397968Y600000D01*
X1497968Y700000D02*
X1500000Y702032D01*
X1502032Y700000D01*
X1500000Y697968D01*
X1497968Y700000D01*
X1397968D02*
X1400000Y702032D01*
X1402032Y700000D01*
X1400000Y697968D01*
X1397968Y700000D01*
X797968D02*
X800000Y702032D01*
X802032Y700000D01*
X800000Y697968D01*
X797968Y700000D01*
X697968D02*
X700000Y702032D01*
X702032Y700000D01*
X700000Y697968D01*
X697968Y700000D01*
X597968D02*
X600000Y702032D01*
X602032Y700000D01*
X600000Y697968D01*
X597968Y700000D01*
X497968D02*
X500000Y702032D01*
X502032Y700000D01*
X500000Y697968D01*
X497968Y700000D01*
X397968D02*
X400000Y702032D01*
X402032Y700000D01*
X400000Y697968D01*
X397968Y700000D01*
X297968D02*
X300000Y702032D01*
X302032Y700000D01*
X300000Y697968D01*
X297968Y700000D01*
X197968D02*
X200000Y702032D01*
X202032Y700000D01*
X200000Y697968D01*
X197968Y700000D01*
X97968D02*
X100000Y702032D01*
X102032Y700000D01*
X100000Y697968D01*
X97968Y700000D01*
X1097968Y1100000D02*
X1100000Y1102032D01*
X1102032Y1100000D01*
X1100000Y1097968D01*
X1097968Y1100000D01*
X997968D02*
X1000000Y1102032D01*
X1002032Y1100000D01*
X1000000Y1097968D01*
X997968Y1100000D01*
X897968D02*
X900000Y1102032D01*
X902032Y1100000D01*
X900000Y1097968D01*
X897968Y1100000D01*
X797968D02*
X800000Y1102032D01*
X802032Y1100000D01*
X800000Y1097968D01*
X797968Y1100000D01*
X498361Y1058276D02*
X500393Y1060308D01*
X502425Y1058276D01*
X500393Y1056244D01*
X498361Y1058276D01*
X597968Y1100000D02*
X600000Y1102032D01*
X602032Y1100000D01*
X600000Y1097968D01*
X597968Y1100000D01*
X697968Y1000000D02*
X700000Y1002032D01*
X702032Y1000000D01*
X700000Y997968D01*
X697968Y1000000D01*
X1197968D02*
X1200000Y1002032D01*
X1202032Y1000000D01*
X1200000Y997968D01*
X1197968Y1000000D01*
X1297968D02*
X1300000Y1002032D01*
X1302032Y1000000D01*
X1300000Y997968D01*
X1297968Y1000000D01*
X1497968D02*
X1500000Y1002032D01*
X1502032Y1000000D01*
X1500000Y997968D01*
X1497968Y1000000D01*
X1597968Y900000D02*
X1600000Y902032D01*
X1602032Y900000D01*
X1600000Y897968D01*
X1597968Y900000D01*
X1497968D02*
X1500000Y902032D01*
X1502032Y900000D01*
X1500000Y897968D01*
X1497968Y900000D01*
X1397968D02*
X1400000Y902032D01*
X1402032Y900000D01*
X1400000Y897968D01*
X1397968Y900000D01*
X1297968D02*
X1300000Y902032D01*
X1302032Y900000D01*
X1300000Y897968D01*
X1297968Y900000D01*
X1197968D02*
X1200000Y902032D01*
X1202032Y900000D01*
X1200000Y897968D01*
X1197968Y900000D01*
X1097968D02*
X1100000Y902032D01*
X1102032Y900000D01*
X1100000Y897968D01*
X1097968Y900000D01*
X997968D02*
X1000000Y902032D01*
X1002032Y900000D01*
X1000000Y897968D01*
X997968Y900000D01*
X897968D02*
X900000Y902032D01*
X902032Y900000D01*
X900000Y897968D01*
X897968Y900000D01*
X797968D02*
X800000Y902032D01*
X802032Y900000D01*
X800000Y897968D01*
X797968Y900000D01*
X697968D02*
X700000Y902032D01*
X702032Y900000D01*
X700000Y897968D01*
X697968Y900000D01*
X597968D02*
X600000Y902032D01*
X602032Y900000D01*
X600000Y897968D01*
X597968Y900000D01*
X497968D02*
X500000Y902032D01*
X502032Y900000D01*
X500000Y897968D01*
X497968Y900000D01*
X397968D02*
X400000Y902032D01*
X402032Y900000D01*
X400000Y897968D01*
X397968Y900000D01*
X1697968Y800000D02*
X1700000Y802032D01*
X1702032Y800000D01*
X1700000Y797968D01*
X1697968Y800000D01*
X1597968D02*
X1600000Y802032D01*
X1602032Y800000D01*
X1600000Y797968D01*
X1597968Y800000D01*
X1497968D02*
X1500000Y802032D01*
X1502032Y800000D01*
X1500000Y797968D01*
X1497968Y800000D01*
X1397968D02*
X1400000Y802032D01*
X1402032Y800000D01*
X1400000Y797968D01*
X1397968Y800000D01*
X1297968D02*
X1300000Y802032D01*
X1302032Y800000D01*
X1300000Y797968D01*
X1297968Y800000D01*
X1197968D02*
X1200000Y802032D01*
X1202032Y800000D01*
X1200000Y797968D01*
X1197968Y800000D01*
X1097968D02*
X1100000Y802032D01*
X1102032Y800000D01*
X1100000Y797968D01*
X1097968Y800000D01*
X997968D02*
X1000000Y802032D01*
X1002032Y800000D01*
X1000000Y797968D01*
X997968Y800000D01*
X897968D02*
X900000Y802032D01*
X902032Y800000D01*
X900000Y797968D01*
X897968Y800000D01*
X797968D02*
X800000Y802032D01*
X802032Y800000D01*
X800000Y797968D01*
X797968Y800000D01*
X697968D02*
X700000Y802032D01*
X702032Y800000D01*
X700000Y797968D01*
X697968Y800000D01*
X597968D02*
X600000Y802032D01*
X602032Y800000D01*
X600000Y797968D01*
X597968Y800000D01*
X497968D02*
X500000Y802032D01*
X502032Y800000D01*
X500000Y797968D01*
X497968Y800000D01*
X397968D02*
X400000Y802032D01*
X402032Y800000D01*
X400000Y797968D01*
X397968Y800000D01*
X297968D02*
X300000Y802032D01*
X302032Y800000D01*
X300000Y797968D01*
X297968Y800000D01*
X197968D02*
X200000Y802032D01*
X202032Y800000D01*
X200000Y797968D01*
X197968Y800000D01*
X97968D02*
X100000Y802032D01*
X102032Y800000D01*
X100000Y797968D01*
X97968Y800000D01*
X237968Y932500D02*
X240000Y934532D01*
X242032Y932500D01*
X240000Y930468D01*
X237968Y932500D01*
Y950000D02*
X240000Y952032D01*
X242032Y950000D01*
X240000Y947968D01*
X237968Y950000D01*
X272968Y972500D02*
X275000Y974532D01*
X277032Y972500D01*
X275000Y970468D01*
X272968Y972500D01*
X365468Y952500D02*
X367500Y954532D01*
X369532Y952500D01*
X367500Y950468D01*
X365468Y952500D01*
X420468Y980000D02*
X422500Y982032D01*
X424532Y980000D01*
X422500Y977968D01*
X420468Y980000D01*
Y962500D02*
X422500Y964532D01*
X424532Y962500D01*
X422500Y960468D01*
X420468Y962500D01*
X1657968Y605000D02*
X1660000Y607032D01*
X1662032Y605000D01*
X1660000Y602968D01*
X1657968Y605000D01*
X167968Y912500D02*
X170000Y914532D01*
X172032Y912500D01*
X170000Y910468D01*
X167968Y912500D01*
X387968Y900000D02*
X390000Y902032D01*
X392032Y900000D01*
X390000Y897968D01*
X387968Y900000D01*
X325468Y925000D02*
X327500Y927032D01*
X329532Y925000D01*
X327500Y922968D01*
X325468Y925000D01*
X224968Y964000D02*
X227000Y966032D01*
X229032Y964000D01*
X227000Y961968D01*
X224968Y964000D01*
X1625468Y1105000D02*
X1627500Y1107032D01*
X1629532Y1105000D01*
X1627500Y1102968D01*
X1625468Y1105000D01*
X253968Y1016250D02*
X256000Y1018282D01*
X258032Y1016250D01*
X256000Y1014218D01*
X253968Y1016250D01*
X247468D02*
X249500Y1018282D01*
X251532Y1016250D01*
X249500Y1014218D01*
X247468Y1016250D01*
X237718Y1001750D02*
X239750Y1003782D01*
X241782Y1001750D01*
X239750Y999718D01*
X237718Y1001750D01*
Y1037000D02*
X239750Y1039032D01*
X241782Y1037000D01*
X239750Y1034968D01*
X237718Y1037000D01*
X260468Y1029250D02*
X262500Y1031282D01*
X264532Y1029250D01*
X262500Y1027218D01*
X260468Y1029250D01*
X253968D02*
X256000Y1031282D01*
X258032Y1029250D01*
X256000Y1027218D01*
X253968Y1029250D01*
X260468Y1022750D02*
X262500Y1024782D01*
X264532Y1022750D01*
X262500Y1020718D01*
X260468Y1022750D01*
X253968D02*
X256000Y1024782D01*
X258032Y1022750D01*
X256000Y1020718D01*
X253968Y1022750D01*
X247468D02*
X249500Y1024782D01*
X251532Y1022750D01*
X249500Y1020718D01*
X247468Y1022750D01*
X315468Y1010000D02*
X317500Y1012032D01*
X319532Y1010000D01*
X317500Y1007968D01*
X315468Y1010000D01*
Y1045000D02*
X317500Y1047032D01*
X319532Y1045000D01*
X317500Y1042968D01*
X315468Y1045000D01*
Y1025000D02*
X317500Y1027032D01*
X319532Y1025000D01*
X317500Y1022968D01*
X315468Y1025000D01*
X270468Y1007500D02*
X272500Y1009532D01*
X274532Y1007500D01*
X272500Y1005468D01*
X270468Y1007500D01*
X277968D02*
X280000Y1009532D01*
X282032Y1007500D01*
X280000Y1005468D01*
X277968Y1007500D01*
Y1000000D02*
X280000Y1002032D01*
X282032Y1000000D01*
X280000Y997968D01*
X277968Y1000000D01*
X270468D02*
X272500Y1002032D01*
X274532Y1000000D01*
X272500Y997968D01*
X270468Y1000000D01*
X12968Y1185000D02*
X15000Y1187032D01*
X17032Y1185000D01*
X15000Y1182968D01*
X12968Y1185000D01*
Y1177500D02*
X15000Y1179532D01*
X17032Y1177500D01*
X15000Y1175468D01*
X12968Y1177500D01*
Y1090000D02*
X15000Y1092032D01*
X17032Y1090000D01*
X15000Y1087968D01*
X12968Y1090000D01*
Y1082500D02*
X15000Y1084532D01*
X17032Y1082500D01*
X15000Y1080468D01*
X12968Y1082500D01*
Y987500D02*
X15000Y989532D01*
X17032Y987500D01*
X15000Y985468D01*
X12968Y987500D01*
Y980000D02*
X15000Y982032D01*
X17032Y980000D01*
X15000Y977968D01*
X12968Y980000D01*
X20468Y1185000D02*
X22500Y1187032D01*
X24532Y1185000D01*
X22500Y1182968D01*
X20468Y1185000D01*
X180468Y1155000D02*
X182500Y1157032D01*
X184532Y1155000D01*
X182500Y1152968D01*
X180468Y1155000D01*
X172968D02*
X175000Y1157032D01*
X177032Y1155000D01*
X175000Y1152968D01*
X172968Y1155000D01*
Y1147500D02*
X175000Y1149532D01*
X177032Y1147500D01*
X175000Y1145468D01*
X172968Y1147500D01*
X180468Y1112500D02*
X182500Y1114532D01*
X184532Y1112500D01*
X182500Y1110468D01*
X180468Y1112500D01*
X172968D02*
X175000Y1114532D01*
X177032Y1112500D01*
X175000Y1110468D01*
X172968Y1112500D01*
Y1120000D02*
X175000Y1122032D01*
X177032Y1120000D01*
X175000Y1117968D01*
X172968Y1120000D01*
X137968Y1087500D02*
X140000Y1089532D01*
X142032Y1087500D01*
X140000Y1085468D01*
X137968Y1087500D01*
X130468D02*
X132500Y1089532D01*
X134532Y1087500D01*
X132500Y1085468D01*
X130468Y1087500D01*
Y1080000D02*
X132500Y1082032D01*
X134532Y1080000D01*
X132500Y1077968D01*
X130468Y1080000D01*
X20468Y987500D02*
X22500Y989532D01*
X24532Y987500D01*
X22500Y985468D01*
X20468Y987500D01*
Y1082500D02*
X22500Y1084532D01*
X24532Y1082500D01*
X22500Y1080468D01*
X20468Y1082500D01*
X250468Y1110000D02*
X252500Y1112032D01*
X254532Y1110000D01*
X252500Y1107968D01*
X250468Y1110000D01*
Y1117500D02*
X252500Y1119532D01*
X254532Y1117500D01*
X252500Y1115468D01*
X250468Y1117500D01*
X257968D02*
X260000Y1119532D01*
X262032Y1117500D01*
X260000Y1115468D01*
X257968Y1117500D01*
Y1110000D02*
X260000Y1112032D01*
X262032Y1110000D01*
X260000Y1107968D01*
X257968Y1110000D01*
Y1185000D02*
X260000Y1187032D01*
X262032Y1185000D01*
X260000Y1182968D01*
X257968Y1185000D01*
X250468D02*
X252500Y1187032D01*
X254532Y1185000D01*
X252500Y1182968D01*
X250468Y1185000D01*
X335468D02*
X337500Y1187032D01*
X339532Y1185000D01*
X337500Y1182968D01*
X335468Y1185000D01*
X342968D02*
X345000Y1187032D01*
X347032Y1185000D01*
X345000Y1182968D01*
X342968Y1185000D01*
X432968Y1177500D02*
X435000Y1179532D01*
X437032Y1177500D01*
X435000Y1175468D01*
X432968Y1177500D01*
X425468D02*
X427500Y1179532D01*
X429532Y1177500D01*
X427500Y1175468D01*
X425468Y1177500D01*
Y1185000D02*
X427500Y1187032D01*
X429532Y1185000D01*
X427500Y1182968D01*
X425468Y1185000D01*
X432968D02*
X435000Y1187032D01*
X437032Y1185000D01*
X435000Y1182968D01*
X432968Y1185000D01*
X497968Y1110000D02*
X500000Y1112032D01*
X502032Y1110000D01*
X500000Y1107968D01*
X497968Y1110000D01*
X490468Y1175000D02*
X492500Y1177032D01*
X494532Y1175000D01*
X492500Y1172968D01*
X490468Y1175000D01*
X482968D02*
X485000Y1177032D01*
X487032Y1175000D01*
X485000Y1172968D01*
X482968Y1175000D01*
Y1182500D02*
X485000Y1184532D01*
X487032Y1182500D01*
X485000Y1180468D01*
X482968Y1182500D01*
X490468D02*
X492500Y1184532D01*
X494532Y1182500D01*
X492500Y1180468D01*
X490468Y1182500D01*
X180468Y1147500D02*
X182500Y1149532D01*
X184532Y1147500D01*
X182500Y1145468D01*
X180468Y1147500D01*
Y1120000D02*
X182500Y1122032D01*
X184532Y1120000D01*
X182500Y1117968D01*
X180468Y1120000D01*
X177968Y980000D02*
X180000Y982032D01*
X182032Y980000D01*
X180000Y977968D01*
X177968Y980000D01*
X137968Y1080000D02*
X140000Y1082032D01*
X142032Y1080000D01*
X140000Y1077968D01*
X137968Y1080000D01*
X20468Y980000D02*
X22500Y982032D01*
X24532Y980000D01*
X22500Y977968D01*
X20468Y980000D01*
Y1090000D02*
X22500Y1092032D01*
X24532Y1090000D01*
X22500Y1087968D01*
X20468Y1090000D01*
Y1177500D02*
X22500Y1179532D01*
X24532Y1177500D01*
X22500Y1175468D01*
X20468Y1177500D01*
X417968Y1000000D02*
X420000Y1002032D01*
X422032Y1000000D01*
X420000Y997968D01*
X417968Y1000000D01*
X407968D02*
X410000Y1002032D01*
X412032Y1000000D01*
X410000Y997968D01*
X407968Y1000000D01*
X417968Y950000D02*
X420000Y952032D01*
X422032Y950000D01*
X420000Y947968D01*
X417968Y950000D01*
X397968D02*
X400000Y952032D01*
X402032Y950000D01*
X400000Y947968D01*
X397968Y950000D01*
X407968D02*
X410000Y952032D01*
X412032Y950000D01*
X410000Y947968D01*
X407968Y950000D01*
X1392968Y1065000D02*
X1395000Y1067032D01*
X1397032Y1065000D01*
X1395000Y1062968D01*
X1392968Y1065000D01*
X394674Y1047648D02*
X396706Y1049680D01*
X398738Y1047648D01*
X396706Y1045616D01*
X394674Y1047648D01*
X387174D02*
X389206Y1049680D01*
X391238Y1047648D01*
X389206Y1045616D01*
X387174Y1047648D01*
X332968Y1052500D02*
X335000Y1054532D01*
X337032Y1052500D01*
X335000Y1050468D01*
X332968Y1052500D01*
X272968Y1055000D02*
X275000Y1057032D01*
X277032Y1055000D01*
X275000Y1052968D01*
X272968Y1055000D01*
X280468D02*
X282500Y1057032D01*
X284532Y1055000D01*
X282500Y1052968D01*
X280468Y1055000D01*
Y1062500D02*
X282500Y1064532D01*
X284532Y1062500D01*
X282500Y1060468D01*
X280468Y1062500D01*
X272968D02*
X275000Y1064532D01*
X277032Y1062500D01*
X275000Y1060468D01*
X272968Y1062500D01*
X325468Y1052500D02*
X327500Y1054532D01*
X329532Y1052500D01*
X327500Y1050468D01*
X325468Y1052500D01*
Y1060000D02*
X327500Y1062032D01*
X329532Y1060000D01*
X327500Y1057968D01*
X325468Y1060000D01*
X332968D02*
X335000Y1062032D01*
X337032Y1060000D01*
X335000Y1057968D01*
X332968Y1060000D01*
X320468Y997500D02*
X322500Y999532D01*
X324532Y997500D01*
X322500Y995468D01*
X320468Y997500D01*
Y1005000D02*
X322500Y1007032D01*
X324532Y1005000D01*
X322500Y1002968D01*
X320468Y1005000D01*
X327968D02*
X330000Y1007032D01*
X332032Y1005000D01*
X330000Y1002968D01*
X327968Y1005000D01*
X575468Y1075000D02*
X577500Y1077032D01*
X579532Y1075000D01*
X577500Y1072968D01*
X575468Y1075000D01*
X615468D02*
X617500Y1077032D01*
X619532Y1075000D01*
X617500Y1072968D01*
X615468Y1075000D01*
X1772968Y697500D02*
X1775000Y699532D01*
X1777032Y697500D01*
X1775000Y695468D01*
X1772968Y697500D01*
X1515468D02*
X1517500Y699532D01*
X1519532Y697500D01*
X1517500Y695468D01*
X1515468Y697500D01*
Y1065000D02*
X1517500Y1067032D01*
X1519532Y1065000D01*
X1517500Y1062968D01*
X1515468Y1065000D01*
X1220468D02*
X1222500Y1067032D01*
X1224532Y1065000D01*
X1222500Y1062968D01*
X1220468Y1065000D01*
X247968Y937500D02*
X250000Y939532D01*
X252032Y937500D01*
X250000Y935468D01*
X247968Y937500D01*
X167968Y890000D02*
X170000Y892032D01*
X172032Y890000D01*
X170000Y887968D01*
X167968Y890000D01*
X1347968Y1090000D02*
X1350000Y1092032D01*
X1352032Y1090000D01*
X1350000Y1087968D01*
X1347968Y1090000D01*
X1397968Y1130000D02*
X1400000Y1132032D01*
X1402032Y1130000D01*
X1400000Y1127968D01*
X1397968Y1130000D01*
X1627968Y1010000D02*
X1630000Y1012032D01*
X1632032Y1010000D01*
X1630000Y1007968D01*
X1627968Y1010000D01*
X1575468Y1037500D02*
X1577500Y1039532D01*
X1579532Y1037500D01*
X1577500Y1035468D01*
X1575468Y1037500D01*
X1555468Y1015000D02*
X1557500Y1017032D01*
X1559532Y1015000D01*
X1557500Y1012968D01*
X1555468Y1015000D01*
X1710468Y885000D02*
X1712500Y887032D01*
X1714532Y885000D01*
X1712500Y882968D01*
X1710468Y885000D01*
Y862500D02*
X1712500Y864532D01*
X1714532Y862500D01*
X1712500Y860468D01*
X1710468Y862500D01*
X1697968Y837500D02*
X1700000Y839532D01*
X1702032Y837500D01*
X1700000Y835468D01*
X1697968Y837500D01*
X1732968Y615000D02*
X1735000Y617032D01*
X1737032Y615000D01*
X1735000Y612968D01*
X1732968Y615000D01*
Y597500D02*
X1735000Y599532D01*
X1737032Y597500D01*
X1735000Y595468D01*
X1732968Y597500D01*
X1657968Y595000D02*
X1660000Y597032D01*
X1662032Y595000D01*
X1660000Y592968D01*
X1657968Y595000D01*
X1695468Y402500D02*
X1697500Y404532D01*
X1699532Y402500D01*
X1697500Y400468D01*
X1695468Y402500D01*
Y217500D02*
X1697500Y219532D01*
X1699532Y217500D01*
X1697500Y215468D01*
X1695468Y217500D01*
X1475468Y85000D02*
X1477500Y87032D01*
X1479532Y85000D01*
X1477500Y82968D01*
X1475468Y85000D01*
X1422968D02*
X1425000Y87032D01*
X1427032Y85000D01*
X1425000Y82968D01*
X1422968Y85000D01*
X1372968D02*
X1375000Y87032D01*
X1377032Y85000D01*
X1375000Y82968D01*
X1372968Y85000D01*
X1075468Y577500D02*
X1077500Y579532D01*
X1079532Y577500D01*
X1077500Y575468D01*
X1075468Y577500D01*
X1025468Y662500D02*
X1027500Y664532D01*
X1029532Y662500D01*
X1027500Y660468D01*
X1025468Y662500D01*
X1030468Y645000D02*
X1032500Y647032D01*
X1034532Y645000D01*
X1032500Y642968D01*
X1030468Y645000D01*
X1014296Y625199D02*
X1016328Y627231D01*
X1018360Y625199D01*
X1016328Y623167D01*
X1014296Y625199D01*
X917968Y587500D02*
X920000Y589532D01*
X922032Y587500D01*
X920000Y585468D01*
X917968Y587500D01*
X162968Y505000D02*
X165000Y507032D01*
X167032Y505000D01*
X165000Y502968D01*
X162968Y505000D01*
X225468D02*
X227500Y507032D01*
X229532Y505000D01*
X227500Y502968D01*
X225468Y505000D01*
X205468Y510000D02*
X207500Y512032D01*
X209532Y510000D01*
X207500Y507968D01*
X205468Y510000D01*
X1050468Y417500D02*
X1052500Y419532D01*
X1054532Y417500D01*
X1052500Y415468D01*
X1050468Y417500D01*
X927968Y455000D02*
X930000Y457032D01*
X932032Y455000D01*
X930000Y452968D01*
X927968Y455000D01*
X915468Y472500D02*
X917500Y474532D01*
X919532Y472500D01*
X917500Y470468D01*
X915468Y472500D01*
X885468Y520000D02*
X887500Y522032D01*
X889532Y520000D01*
X887500Y517968D01*
X885468Y520000D01*
X887968Y540000D02*
X890000Y542032D01*
X892032Y540000D01*
X890000Y537968D01*
X887968Y540000D01*
X817968Y497500D02*
X820000Y499532D01*
X822032Y497500D01*
X820000Y495468D01*
X817968Y497500D01*
X820468Y577500D02*
X822500Y579532D01*
X824532Y577500D01*
X822500Y575468D01*
X820468Y577500D01*
X750468Y972500D02*
X752500Y974532D01*
X754532Y972500D01*
X752500Y970468D01*
X750468Y972500D01*
Y1007500D02*
X752500Y1009532D01*
X754532Y1007500D01*
X752500Y1005468D01*
X750468Y1007500D01*
Y990000D02*
X752500Y992032D01*
X754532Y990000D01*
X752500Y987968D01*
X750468Y990000D01*
X695468Y992500D02*
X697500Y994532D01*
X699532Y992500D01*
X697500Y990468D01*
X695468Y992500D01*
X682968Y1015000D02*
X685000Y1017032D01*
X687032Y1015000D01*
X685000Y1012968D01*
X682968Y1015000D01*
X602968Y1000000D02*
X605000Y1002032D01*
X607032Y1000000D01*
X605000Y997968D01*
X602968Y1000000D01*
X567968Y1025000D02*
X570000Y1027032D01*
X572032Y1025000D01*
X570000Y1022968D01*
X567968Y1025000D01*
X492839Y968711D02*
X494871Y970743D01*
X496903Y968711D01*
X494871Y966679D01*
X492839Y968711D01*
X492924Y986869D02*
X494956Y988901D01*
X496988Y986869D01*
X494956Y984837D01*
X492924Y986869D01*
X492968Y1005000D02*
X495000Y1007032D01*
X497032Y1005000D01*
X495000Y1002968D01*
X492968Y1005000D01*
X432968Y1120000D02*
X435000Y1122032D01*
X437032Y1120000D01*
X435000Y1117968D01*
X432968Y1120000D01*
X427968Y1125000D02*
X430000Y1127032D01*
X432032Y1125000D01*
X430000Y1122968D01*
X427968Y1125000D01*
X412968Y1175000D02*
X415000Y1177032D01*
X417032Y1175000D01*
X415000Y1172968D01*
X412968Y1175000D01*
Y1095000D02*
X415000Y1097032D01*
X417032Y1095000D01*
X415000Y1092968D01*
X412968Y1095000D01*
X692968Y955000D02*
X695000Y957032D01*
X697032Y955000D01*
X695000Y952968D01*
X692968Y955000D01*
X550968D02*
X553000Y957032D01*
X555032Y955000D01*
X553000Y952968D01*
X550968Y955000D01*
X556968Y960000D02*
X559000Y962032D01*
X561032Y960000D01*
X559000Y957968D01*
X556968Y960000D01*
X718968Y985000D02*
X721000Y987032D01*
X723032Y985000D01*
X721000Y982968D01*
X718968Y985000D01*
X225468Y1000000D02*
X227500Y1002032D01*
X229532Y1000000D01*
X227500Y997968D01*
X225468Y1000000D01*
X242770Y680540D02*
X244802Y682572D01*
X246834Y680540D01*
X244802Y678508D01*
X242770Y680540D01*
X242968Y517500D02*
X245000Y519532D01*
X247032Y517500D01*
X245000Y515468D01*
X242968Y517500D01*
X875468D02*
X877500Y519532D01*
X879532Y517500D01*
X877500Y515468D01*
X875468Y517500D01*
X895468Y535000D02*
X897500Y537032D01*
X899532Y535000D01*
X897500Y532968D01*
X895468Y535000D01*
X867968D02*
X870000Y537032D01*
X872032Y535000D01*
X870000Y532968D01*
X867968Y535000D01*
Y512500D02*
X870000Y514532D01*
X872032Y512500D01*
X870000Y510468D01*
X867968Y512500D01*
X892968D02*
X895000Y514532D01*
X897032Y512500D01*
X895000Y510468D01*
X892968Y512500D01*
X876096Y544783D02*
X878128Y546815D01*
X880160Y544783D01*
X878128Y542751D01*
X876096Y544783D01*
X1037968Y545000D02*
X1040000Y547032D01*
X1042032Y545000D01*
X1040000Y542968D01*
X1037968Y545000D01*
X327968Y1102500D02*
X330000Y1104532D01*
X332032Y1102500D01*
X330000Y1100468D01*
X327968Y1102500D01*
X352968D02*
X355000Y1104532D01*
X357032Y1102500D01*
X355000Y1100468D01*
X352968Y1102500D01*
X1642968Y1015000D02*
X1645000Y1017032D01*
X1647032Y1015000D01*
X1645000Y1012968D01*
X1642968Y1015000D01*
Y1030000D02*
X1645000Y1032032D01*
X1647032Y1030000D01*
X1645000Y1027968D01*
X1642968Y1030000D01*
X1610468D02*
X1612500Y1032032D01*
X1614532Y1030000D01*
X1612500Y1027968D01*
X1610468Y1030000D01*
X1712968Y1015000D02*
X1715000Y1017032D01*
X1717032Y1015000D01*
X1715000Y1012968D01*
X1712968Y1015000D01*
X1782968Y922500D02*
X1785000Y924532D01*
X1787032Y922500D01*
X1785000Y920468D01*
X1782968Y922500D01*
Y967500D02*
X1785000Y969532D01*
X1787032Y967500D01*
X1785000Y965468D01*
X1782968Y967500D01*
X1740468D02*
X1742500Y969532D01*
X1744532Y967500D01*
X1742500Y965468D01*
X1740468Y967500D01*
X1707968Y922500D02*
X1710000Y924532D01*
X1712032Y922500D01*
X1710000Y920468D01*
X1707968Y922500D01*
X890468Y477500D02*
X892500Y479532D01*
X894532Y477500D01*
X892500Y475468D01*
X890468Y477500D01*
X895468Y472500D02*
X897500Y474532D01*
X899532Y472500D01*
X897500Y470468D01*
X895468Y472500D01*
X130468Y482500D02*
X132500Y484532D01*
X134532Y482500D01*
X132500Y480468D01*
X130468Y482500D01*
Y432500D02*
X132500Y434532D01*
X134532Y432500D01*
X132500Y430468D01*
X130468Y432500D01*
X867968D02*
X870000Y434532D01*
X872032Y432500D01*
X870000Y430468D01*
X867968Y432500D01*
Y472500D02*
X870000Y474532D01*
X872032Y472500D01*
X870000Y470468D01*
X867968Y472500D01*
X125468Y507500D02*
X127500Y509532D01*
X129532Y507500D01*
X127500Y505468D01*
X125468Y507500D01*
Y427500D02*
X127500Y429532D01*
X129532Y427500D01*
X127500Y425468D01*
X125468Y427500D01*
X875468D02*
X877500Y429532D01*
X879532Y427500D01*
X877500Y425468D01*
X875468Y427500D01*
Y472500D02*
X877500Y474532D01*
X879532Y472500D01*
X877500Y470468D01*
X875468Y472500D01*
X1572968Y865000D02*
X1575000Y867032D01*
X1577032Y865000D01*
X1575000Y862968D01*
X1572968Y865000D01*
Y615000D02*
X1575000Y617032D01*
X1577032Y615000D01*
X1575000Y612968D01*
X1572968Y615000D01*
X1607968D02*
X1610000Y617032D01*
X1612032Y615000D01*
X1610000Y612968D01*
X1607968Y615000D01*
Y322500D02*
X1610000Y324532D01*
X1612032Y322500D01*
X1610000Y320468D01*
X1607968Y322500D01*
X895468D02*
X897500Y324532D01*
X899532Y322500D01*
X897500Y320468D01*
X895468Y322500D01*
X1567968Y887500D02*
X1570000Y889532D01*
X1572032Y887500D01*
X1570000Y885468D01*
X1567968Y887500D01*
Y610000D02*
X1570000Y612032D01*
X1572032Y610000D01*
X1570000Y607968D01*
X1567968Y610000D01*
X1587968D02*
X1590000Y612032D01*
X1592032Y610000D01*
X1590000Y607968D01*
X1587968Y610000D01*
Y327500D02*
X1590000Y329532D01*
X1592032Y327500D01*
X1590000Y325468D01*
X1587968Y327500D01*
X890468D02*
X892500Y329532D01*
X894532Y327500D01*
X892500Y325468D01*
X890468Y327500D01*
X1675468Y865000D02*
X1677500Y867032D01*
X1679532Y865000D01*
X1677500Y862968D01*
X1675468Y865000D01*
X1607968D02*
X1610000Y867032D01*
X1612032Y865000D01*
X1610000Y862968D01*
X1607968Y865000D01*
X1587968Y887500D02*
X1590000Y889532D01*
X1592032Y887500D01*
X1590000Y885468D01*
X1587968Y887500D01*
X1675468D02*
X1677500Y889532D01*
X1679532Y887500D01*
X1677500Y885468D01*
X1675468Y887500D01*
X1662968Y1002500D02*
X1665000Y1004532D01*
X1667032Y1002500D01*
X1665000Y1000468D01*
X1662968Y1002500D01*
Y970000D02*
X1665000Y972032D01*
X1667032Y970000D01*
X1665000Y967968D01*
X1662968Y970000D01*
X1682968Y1002500D02*
X1685000Y1004532D01*
X1687032Y1002500D01*
X1685000Y1000468D01*
X1682968Y1002500D01*
X1627968D02*
X1630000Y1004532D01*
X1632032Y1002500D01*
X1630000Y1000468D01*
X1627968Y1002500D01*
X1682968Y980000D02*
X1685000Y982032D01*
X1687032Y980000D01*
X1685000Y977968D01*
X1682968Y980000D01*
X1627968D02*
X1630000Y982032D01*
X1632032Y980000D01*
X1630000Y977968D01*
X1627968Y980000D01*
X1532968Y1157500D02*
X1535000Y1159532D01*
X1537032Y1157500D01*
X1535000Y1155468D01*
X1532968Y1157500D01*
X1585468Y1162500D02*
X1587500Y1164532D01*
X1589532Y1162500D01*
X1587500Y1160468D01*
X1585468Y1162500D01*
X1017968Y727500D02*
X1020000Y729532D01*
X1022032Y727500D01*
X1020000Y725468D01*
X1017968Y727500D01*
X900468D02*
X902500Y729532D01*
X904532Y727500D01*
X902500Y725468D01*
X900468Y727500D01*
X1047968Y732500D02*
X1050000Y734532D01*
X1052032Y732500D01*
X1050000Y730468D01*
X1047968Y732500D01*
X905468D02*
X907500Y734532D01*
X909532Y732500D01*
X907500Y730468D01*
X905468Y732500D01*
X1052968Y742500D02*
X1055000Y744532D01*
X1057032Y742500D01*
X1055000Y740468D01*
X1052968Y742500D01*
X910468D02*
X912500Y744532D01*
X914532Y742500D01*
X912500Y740468D01*
X910468Y742500D01*
Y642500D02*
X912500Y644532D01*
X914532Y642500D01*
X912500Y640468D01*
X910468Y642500D01*
X895468D02*
X897500Y644532D01*
X899532Y642500D01*
X897500Y640468D01*
X895468Y642500D01*
X947968Y677500D02*
X950000Y679532D01*
X952032Y677500D01*
X950000Y675468D01*
X947968Y677500D01*
X1012968D02*
X1015000Y679532D01*
X1017032Y677500D01*
X1015000Y675468D01*
X1012968Y677500D01*
Y640000D02*
X1015000Y642032D01*
X1017032Y640000D01*
X1015000Y637968D01*
X1012968Y640000D01*
X1022968Y639980D02*
X1025000Y642012D01*
X1027032Y639980D01*
X1025000Y637948D01*
X1022968Y639980D01*
X1032968Y630000D02*
X1035000Y632032D01*
X1037032Y630000D01*
X1035000Y627968D01*
X1032968Y630000D01*
X1002968D02*
X1005000Y632032D01*
X1007032Y630000D01*
X1005000Y627968D01*
X1002968Y630000D01*
Y640000D02*
X1005000Y642032D01*
X1007032Y640000D01*
X1005000Y637968D01*
X1002968Y640000D01*
X947968Y660000D02*
X950000Y662032D01*
X952032Y660000D01*
X950000Y657968D01*
X947968Y660000D01*
X1032968Y620000D02*
X1035000Y622032D01*
X1037032Y620000D01*
X1035000Y617968D01*
X1032968Y620000D01*
X1007968D02*
X1010000Y622032D01*
X1012032Y620000D01*
X1010000Y617968D01*
X1007968Y620000D01*
Y635000D02*
X1010000Y637032D01*
X1012032Y635000D01*
X1010000Y632968D01*
X1007968Y635000D01*
X947968Y642500D02*
X950000Y644532D01*
X952032Y642500D01*
X950000Y640468D01*
X947968Y642500D01*
X925468Y687500D02*
X927500Y689532D01*
X929532Y687500D01*
X927500Y685468D01*
X925468Y687500D01*
X757968D02*
X760000Y689532D01*
X762032Y687500D01*
X760000Y685468D01*
X757968Y687500D01*
Y437500D02*
X760000Y439532D01*
X762032Y437500D01*
X760000Y435468D01*
X757968Y437500D01*
X1050468Y450000D02*
X1052500Y452032D01*
X1054532Y450000D01*
X1052500Y447968D01*
X1050468Y450000D01*
X932968Y597500D02*
X935000Y599532D01*
X937032Y597500D01*
X935000Y595468D01*
X932968Y597500D01*
X937968Y602500D02*
X940000Y604532D01*
X942032Y602500D01*
X940000Y600468D01*
X937968Y602500D01*
X915468Y610000D02*
X917500Y612032D01*
X919532Y610000D01*
X917500Y607968D01*
X915468Y610000D01*
X942968D02*
X945000Y612032D01*
X947032Y610000D01*
X945000Y607968D01*
X942968Y610000D01*
X855468Y615000D02*
X857500Y617032D01*
X859532Y615000D01*
X857500Y612968D01*
X855468Y615000D01*
X972968D02*
X975000Y617032D01*
X977032Y615000D01*
X975000Y612968D01*
X972968Y615000D01*
X860468Y582500D02*
X862500Y584532D01*
X864532Y582500D01*
X862500Y580468D01*
X860468Y582500D01*
X917968Y580000D02*
X920000Y582032D01*
X922032Y580000D01*
X920000Y577968D01*
X917968Y580000D01*
Y445000D02*
X920000Y447032D01*
X922032Y445000D01*
X920000Y442968D01*
X917968Y445000D01*
X972968D02*
X975000Y447032D01*
X977032Y445000D01*
X975000Y442968D01*
X972968Y445000D01*
X962968Y575000D02*
X965000Y577032D01*
X967032Y575000D01*
X965000Y572968D01*
X962968Y575000D01*
X865468Y577500D02*
X867500Y579532D01*
X869532Y577500D01*
X867500Y575468D01*
X865468Y577500D01*
X1037968Y1155000D02*
X1040000Y1157032D01*
X1042032Y1155000D01*
X1040000Y1152968D01*
X1037968Y1155000D01*
X1317968Y1075000D02*
X1320000Y1077032D01*
X1322032Y1075000D01*
X1320000Y1072968D01*
X1317968Y1075000D01*
X1272968D02*
X1275000Y1077032D01*
X1277032Y1075000D01*
X1275000Y1072968D01*
X1272968Y1075000D01*
X1585468D02*
X1587500Y1077032D01*
X1589532Y1075000D01*
X1587500Y1072968D01*
X1585468Y1075000D01*
X765468D02*
X767500Y1077032D01*
X769532Y1075000D01*
X767500Y1072968D01*
X765468Y1075000D01*
Y505000D02*
X767500Y507032D01*
X769532Y505000D01*
X767500Y502968D01*
X765468Y505000D01*
X895468D02*
X897500Y507032D01*
X899532Y505000D01*
X897500Y502968D01*
X895468Y505000D01*
X1390468Y85000D02*
X1392500Y87032D01*
X1394532Y85000D01*
X1392500Y82968D01*
X1390468Y85000D01*
Y455000D02*
X1392500Y457032D01*
X1394532Y455000D01*
X1392500Y452968D01*
X1390468Y455000D01*
X1032968D02*
X1035000Y457032D01*
X1037032Y455000D01*
X1035000Y452968D01*
X1032968Y455000D01*
X1342968Y85000D02*
X1345000Y87032D01*
X1347032Y85000D01*
X1345000Y82968D01*
X1342968Y85000D01*
Y460000D02*
X1345000Y462032D01*
X1347032Y460000D01*
X1345000Y457968D01*
X1342968Y460000D01*
X1027968D02*
X1030000Y462032D01*
X1032032Y460000D01*
X1030000Y457968D01*
X1027968Y460000D01*
X1440468Y85000D02*
X1442500Y87032D01*
X1444532Y85000D01*
X1442500Y82968D01*
X1440468Y85000D01*
Y465000D02*
X1442500Y467032D01*
X1444532Y465000D01*
X1442500Y462968D01*
X1440468Y465000D01*
X1022968D02*
X1025000Y467032D01*
X1027032Y465000D01*
X1025000Y462968D01*
X1022968Y465000D01*
X1532968Y595000D02*
X1535000Y597032D01*
X1537032Y595000D01*
X1535000Y592968D01*
X1532968Y595000D01*
X1047968D02*
X1050000Y597032D01*
X1052032Y595000D01*
X1050000Y592968D01*
X1047968Y595000D01*
X1647968Y465000D02*
X1650000Y467032D01*
X1652032Y465000D01*
X1650000Y462968D01*
X1647968Y465000D01*
X1652968Y442500D02*
X1655000Y444532D01*
X1657032Y442500D01*
X1655000Y440468D01*
X1652968Y442500D01*
X1647968Y332500D02*
X1650000Y334532D01*
X1652032Y332500D01*
X1650000Y330468D01*
X1647968Y332500D01*
X932968D02*
X935000Y334532D01*
X937032Y332500D01*
X935000Y330468D01*
X932968Y332500D01*
X1731358Y455360D02*
X1733390Y457392D01*
X1735422Y455360D01*
X1733390Y453328D01*
X1731358Y455360D01*
X1692968Y577500D02*
X1695000Y579532D01*
X1697032Y577500D01*
X1695000Y575468D01*
X1692968Y577500D01*
X1662968D02*
X1665000Y579532D01*
X1667032Y577500D01*
X1665000Y575468D01*
X1662968Y577500D01*
Y392500D02*
X1665000Y394532D01*
X1667032Y392500D01*
X1665000Y390468D01*
X1662968Y392500D01*
X1027968D02*
X1030000Y394532D01*
X1032032Y392500D01*
X1030000Y390468D01*
X1027968Y392500D01*
X1702968Y582500D02*
X1705000Y584532D01*
X1707032Y582500D01*
X1705000Y580468D01*
X1702968Y582500D01*
X1657968D02*
X1660000Y584532D01*
X1662032Y582500D01*
X1660000Y580468D01*
X1657968Y582500D01*
Y387500D02*
X1660000Y389532D01*
X1662032Y387500D01*
X1660000Y385468D01*
X1657968Y387500D01*
X1022968D02*
X1025000Y389532D01*
X1027032Y387500D01*
X1025000Y385468D01*
X1022968Y387500D01*
X1547968Y687500D02*
X1550000Y689532D01*
X1552032Y687500D01*
X1550000Y685468D01*
X1547968Y687500D01*
Y362500D02*
X1550000Y364532D01*
X1552032Y362500D01*
X1550000Y360468D01*
X1547968Y362500D01*
X967968D02*
X970000Y364532D01*
X972032Y362500D01*
X970000Y360468D01*
X967968Y362500D01*
X62968Y527500D02*
X65000Y529532D01*
X67032Y527500D01*
X65000Y525468D01*
X62968Y527500D01*
X215468D02*
X217500Y529532D01*
X219532Y527500D01*
X217500Y525468D01*
X215468Y527500D01*
X62968Y482500D02*
X65000Y484532D01*
X67032Y482500D01*
X65000Y480468D01*
X62968Y482500D01*
X180468Y520000D02*
X182500Y522032D01*
X184532Y520000D01*
X182500Y517968D01*
X180468Y520000D01*
X172968Y620000D02*
X175000Y622032D01*
X177032Y620000D01*
X175000Y617968D01*
X172968Y620000D01*
X962968D02*
X965000Y622032D01*
X967032Y620000D01*
X965000Y617968D01*
X962968Y620000D01*
X235468Y630000D02*
X237500Y632032D01*
X239532Y630000D01*
X237500Y627968D01*
X235468Y630000D01*
X957968D02*
X960000Y632032D01*
X962032Y630000D01*
X960000Y627968D01*
X957968Y630000D01*
X967968Y625000D02*
X970000Y627032D01*
X972032Y625000D01*
X970000Y622968D01*
X967968Y625000D01*
X160468D02*
X162500Y627032D01*
X164532Y625000D01*
X162500Y622968D01*
X160468Y625000D01*
Y605000D02*
X162500Y607032D01*
X164532Y605000D01*
X162500Y602968D01*
X160468Y605000D01*
X1435468Y720000D02*
X1437500Y722032D01*
X1439532Y720000D01*
X1437500Y717968D01*
X1435468Y720000D01*
X952968D02*
X955000Y722032D01*
X957032Y720000D01*
X955000Y717968D01*
X952968Y720000D01*
X1527968Y1105000D02*
X1530000Y1107032D01*
X1532032Y1105000D01*
X1530000Y1102968D01*
X1527968Y1105000D01*
Y715000D02*
X1530000Y717032D01*
X1532032Y715000D01*
X1530000Y712968D01*
X1527968Y715000D01*
X977968D02*
X980000Y717032D01*
X982032Y715000D01*
X980000Y712968D01*
X977968Y715000D01*
X1725468Y337500D02*
X1727500Y339532D01*
X1729532Y337500D01*
X1727500Y335468D01*
X1725468Y337500D01*
X880468D02*
X882500Y339532D01*
X884532Y337500D01*
X882500Y335468D01*
X880468Y337500D01*
X885468Y227500D02*
X887500Y229532D01*
X889532Y227500D01*
X887500Y225468D01*
X885468Y227500D01*
X1722968D02*
X1725000Y229532D01*
X1727032Y227500D01*
X1725000Y225468D01*
X1722968Y227500D01*
X890468Y465000D02*
X892500Y467032D01*
X894532Y465000D01*
X892500Y462968D01*
X890468Y465000D01*
X895468Y460000D02*
X897500Y462032D01*
X899532Y460000D01*
X897500Y457968D01*
X895468Y460000D01*
X120468Y742500D02*
X122500Y744532D01*
X124532Y742500D01*
X122500Y740468D01*
X120468Y742500D01*
Y447500D02*
X122500Y449532D01*
X124532Y447500D01*
X122500Y445468D01*
X120468Y447500D01*
X115468Y442500D02*
X117500Y444532D01*
X119532Y442500D01*
X117500Y440468D01*
X115468Y442500D01*
Y717500D02*
X117500Y719532D01*
X119532Y717500D01*
X117500Y715468D01*
X115468Y717500D01*
X105468Y617500D02*
X107500Y619532D01*
X109532Y617500D01*
X107500Y615468D01*
X105468Y617500D01*
Y342500D02*
X107500Y344532D01*
X109532Y342500D01*
X107500Y340468D01*
X105468Y342500D01*
X957968D02*
X960000Y344532D01*
X962032Y342500D01*
X960000Y340468D01*
X957968Y342500D01*
X110468Y642500D02*
X112500Y644532D01*
X114532Y642500D01*
X112500Y640468D01*
X110468Y642500D01*
Y347500D02*
X112500Y349532D01*
X114532Y347500D01*
X112500Y345468D01*
X110468Y347500D01*
X952968D02*
X955000Y349532D01*
X957032Y347500D01*
X955000Y345468D01*
X952968Y347500D01*
X300468Y352500D02*
X302500Y354532D01*
X304532Y352500D01*
X302500Y350468D01*
X300468Y352500D01*
X947968D02*
X950000Y354532D01*
X952032Y352500D01*
X950000Y350468D01*
X947968Y352500D01*
X275822Y357438D02*
X277854Y359469D01*
X279886Y357438D01*
X277854Y355406D01*
X275822Y357438D01*
X942968Y357500D02*
X945000Y359532D01*
X947032Y357500D01*
X945000Y355468D01*
X942968Y357500D01*
X635468Y945000D02*
X637500Y947032D01*
X639532Y945000D01*
X637500Y942968D01*
X635468Y945000D01*
X737968D02*
X740000Y947032D01*
X742032Y945000D01*
X740000Y942968D01*
X737968Y945000D01*
Y362500D02*
X740000Y364532D01*
X742032Y362500D01*
X740000Y360468D01*
X737968Y362500D01*
X937968D02*
X940000Y364532D01*
X942032Y362500D01*
X940000Y360468D01*
X937968Y362500D01*
X1160468Y1020000D02*
X1162500Y1022032D01*
X1164532Y1020000D01*
X1162500Y1017968D01*
X1160468Y1020000D01*
Y470000D02*
X1162500Y472032D01*
X1164532Y470000D01*
X1162500Y467968D01*
X1160468Y470000D01*
X1080468D02*
X1082500Y472032D01*
X1084532Y470000D01*
X1082500Y467968D01*
X1080468Y470000D01*
X1155468Y1025000D02*
X1157500Y1027032D01*
X1159532Y1025000D01*
X1157500Y1022968D01*
X1155468Y1025000D01*
Y475000D02*
X1157500Y477032D01*
X1159532Y475000D01*
X1157500Y472968D01*
X1155468Y475000D01*
X1075468D02*
X1077500Y477032D01*
X1079532Y475000D01*
X1077500Y472968D01*
X1075468Y475000D01*
X1150468Y1030000D02*
X1152500Y1032032D01*
X1154532Y1030000D01*
X1152500Y1027968D01*
X1150468Y1030000D01*
Y480000D02*
X1152500Y482032D01*
X1154532Y480000D01*
X1152500Y477968D01*
X1150468Y480000D01*
X1070468D02*
X1072500Y482032D01*
X1074532Y480000D01*
X1072500Y477968D01*
X1070468Y480000D01*
X1145468Y997500D02*
X1147500Y999532D01*
X1149532Y997500D01*
X1147500Y995468D01*
X1145468Y997500D01*
X730468D02*
X732500Y999532D01*
X734532Y997500D01*
X732500Y995468D01*
X730468Y997500D01*
X1145468Y490000D02*
X1147500Y492032D01*
X1149532Y490000D01*
X1147500Y487968D01*
X1145468Y490000D01*
X1070468D02*
X1072500Y492032D01*
X1074532Y490000D01*
X1072500Y487968D01*
X1070468Y490000D01*
X720468Y960000D02*
X722500Y962032D01*
X724532Y960000D01*
X722500Y957968D01*
X720468Y960000D01*
X1135468D02*
X1137500Y962032D01*
X1139532Y960000D01*
X1137500Y957968D01*
X1135468Y960000D01*
Y495000D02*
X1137500Y497032D01*
X1139532Y495000D01*
X1137500Y492968D01*
X1135468Y495000D01*
X1075468D02*
X1077500Y497032D01*
X1079532Y495000D01*
X1077500Y492968D01*
X1075468Y495000D01*
X1080468Y500000D02*
X1082500Y502032D01*
X1084532Y500000D01*
X1082500Y497968D01*
X1080468Y500000D01*
X1085468Y505000D02*
X1087500Y507032D01*
X1089532Y505000D01*
X1087500Y502968D01*
X1085468Y505000D01*
X1090468Y510000D02*
X1092500Y512032D01*
X1094532Y510000D01*
X1092500Y507968D01*
X1090468Y510000D01*
X1095468Y515000D02*
X1097500Y517032D01*
X1099532Y515000D01*
X1097500Y512968D01*
X1095468Y515000D01*
X1100468Y520000D02*
X1102500Y522032D01*
X1104532Y520000D01*
X1102500Y517968D01*
X1100468Y520000D01*
X1085468Y545000D02*
X1087500Y547032D01*
X1089532Y545000D01*
X1087500Y542968D01*
X1085468Y545000D01*
X1090468Y540000D02*
X1092500Y542032D01*
X1094532Y540000D01*
X1092500Y537968D01*
X1090468Y540000D01*
X1095468Y535000D02*
X1097500Y537032D01*
X1099532Y535000D01*
X1097500Y532968D01*
X1095468Y535000D01*
X1100468Y530000D02*
X1102500Y532032D01*
X1104532Y530000D01*
X1102500Y527968D01*
X1100468Y530000D01*
X1105468Y525000D02*
X1107500Y527032D01*
X1109532Y525000D01*
X1107500Y522968D01*
X1105468Y525000D01*
X1130468Y985000D02*
X1132500Y987032D01*
X1134532Y985000D01*
X1132500Y982968D01*
X1130468Y985000D01*
Y500000D02*
X1132500Y502032D01*
X1134532Y500000D01*
X1132500Y497968D01*
X1130468Y500000D01*
X525468Y950000D02*
X527500Y952032D01*
X529532Y950000D01*
X527500Y947968D01*
X525468Y950000D01*
X1125468D02*
X1127500Y952032D01*
X1129532Y950000D01*
X1127500Y947968D01*
X1125468Y950000D01*
Y505000D02*
X1127500Y507032D01*
X1129532Y505000D01*
X1127500Y502968D01*
X1125468Y505000D01*
X1367968Y510000D02*
X1370000Y512032D01*
X1372032Y510000D01*
X1370000Y507968D01*
X1367968Y510000D01*
X1495468Y515000D02*
X1497500Y517032D01*
X1499532Y515000D01*
X1497500Y512968D01*
X1495468Y515000D01*
X1470468Y520000D02*
X1472500Y522032D01*
X1474532Y520000D01*
X1472500Y517968D01*
X1470468Y520000D01*
X1417968Y525000D02*
X1420000Y527032D01*
X1422032Y525000D01*
X1420000Y522968D01*
X1417968Y525000D01*
X1120468Y737500D02*
X1122500Y739532D01*
X1124532Y737500D01*
X1122500Y735468D01*
X1120468Y737500D01*
Y530000D02*
X1122500Y532032D01*
X1124532Y530000D01*
X1122500Y527968D01*
X1120468Y530000D01*
X1115468Y172500D02*
X1117500Y174532D01*
X1119532Y172500D01*
X1117500Y170468D01*
X1115468Y172500D01*
Y535000D02*
X1117500Y537032D01*
X1119532Y535000D01*
X1117500Y532968D01*
X1115468Y535000D01*
X1110468Y167500D02*
X1112500Y169532D01*
X1114532Y167500D01*
X1112500Y165468D01*
X1110468Y167500D01*
Y540000D02*
X1112500Y542032D01*
X1114532Y540000D01*
X1112500Y537968D01*
X1110468Y540000D01*
X1105468Y780000D02*
X1107500Y782032D01*
X1109532Y780000D01*
X1107500Y777968D01*
X1105468Y780000D01*
Y545000D02*
X1107500Y547032D01*
X1109532Y545000D01*
X1107500Y542968D01*
X1105468Y545000D01*
X1100468Y710000D02*
X1102500Y712032D01*
X1104532Y710000D01*
X1102500Y707968D01*
X1100468Y710000D01*
Y550000D02*
X1102500Y552032D01*
X1104532Y550000D01*
X1102500Y547968D01*
X1100468Y550000D01*
X1075468D02*
X1077500Y552032D01*
X1079532Y550000D01*
X1077500Y547968D01*
X1075468Y550000D01*
X1612968Y1110000D02*
X1615000Y1112032D01*
X1617032Y1110000D01*
X1615000Y1107968D01*
X1612968Y1110000D01*
X1522968D02*
X1525000Y1112032D01*
X1527032Y1110000D01*
X1525000Y1107968D01*
X1522968Y1110000D01*
Y555000D02*
X1525000Y557032D01*
X1527032Y555000D01*
X1525000Y552968D01*
X1522968Y555000D01*
X1070468D02*
X1072500Y557032D01*
X1074532Y555000D01*
X1072500Y552968D01*
X1070468Y555000D01*
X430468Y367500D02*
X432500Y369532D01*
X434532Y367500D01*
X432500Y365468D01*
X430468Y367500D01*
X1087968D02*
X1090000Y369532D01*
X1092032Y367500D01*
X1090000Y365468D01*
X1087968Y367500D01*
X457968Y372500D02*
X460000Y374532D01*
X462032Y372500D01*
X460000Y370468D01*
X457968Y372500D01*
X1082968D02*
X1085000Y374532D01*
X1087032Y372500D01*
X1085000Y370468D01*
X1082968Y372500D01*
X472968Y377500D02*
X475000Y379532D01*
X477032Y377500D01*
X475000Y375468D01*
X472968Y377500D01*
X1077968D02*
X1080000Y379532D01*
X1082032Y377500D01*
X1080000Y375468D01*
X1077968Y377500D01*
X477968Y572500D02*
X480000Y574532D01*
X482032Y572500D01*
X480000Y570468D01*
X477968Y572500D01*
X875468Y570000D02*
X877500Y572032D01*
X879532Y570000D01*
X877500Y567968D01*
X875468Y570000D01*
X502968Y567500D02*
X505000Y569532D01*
X507032Y567500D01*
X505000Y565468D01*
X502968Y567500D01*
X880468Y565000D02*
X882500Y567032D01*
X884532Y565000D01*
X882500Y562968D01*
X880468Y565000D01*
X527968Y562500D02*
X530000Y564532D01*
X532032Y562500D01*
X530000Y560468D01*
X527968Y562500D01*
X885468Y560000D02*
X887500Y562032D01*
X889532Y560000D01*
X887500Y557968D01*
X885468Y560000D01*
X552968Y557500D02*
X555000Y559532D01*
X557032Y557500D01*
X555000Y555468D01*
X552968Y557500D01*
X890468Y555000D02*
X892500Y557032D01*
X894532Y555000D01*
X892500Y552968D01*
X890468Y555000D01*
X577968Y552500D02*
X580000Y554532D01*
X582032Y552500D01*
X580000Y550468D01*
X577968Y552500D01*
X895468Y550000D02*
X897500Y552032D01*
X899532Y550000D01*
X897500Y547968D01*
X895468Y550000D01*
X425468Y602500D02*
X427500Y604532D01*
X429532Y602500D01*
X427500Y600468D01*
X425468Y602500D01*
X452239Y596999D02*
X454271Y599031D01*
X456302Y596999D01*
X454271Y594967D01*
X452239Y596999D01*
X1317968Y702500D02*
X1320000Y704532D01*
X1322032Y702500D01*
X1320000Y700468D01*
X1317968Y702500D01*
X982968D02*
X985000Y704532D01*
X987032Y702500D01*
X985000Y700468D01*
X982968Y702500D01*
X1292968Y697500D02*
X1295000Y699532D01*
X1297032Y697500D01*
X1295000Y695468D01*
X1292968Y697500D01*
X987968D02*
X990000Y699532D01*
X992032Y697500D01*
X990000Y695468D01*
X987968Y697500D01*
X1240468Y687500D02*
X1242500Y689532D01*
X1244532Y687500D01*
X1242500Y685468D01*
X1240468Y687500D01*
X1267568Y692900D02*
X1269600Y694932D01*
X1271632Y692900D01*
X1269600Y690868D01*
X1267568Y692900D01*
X992968Y692500D02*
X995000Y694532D01*
X997032Y692500D01*
X995000Y690468D01*
X992968Y692500D01*
X997968Y687500D02*
X1000000Y689532D01*
X1002032Y687500D01*
X1000000Y685468D01*
X997968Y687500D01*
X1215468Y615000D02*
X1217500Y617032D01*
X1219532Y615000D01*
X1217500Y612968D01*
X1215468Y615000D01*
X1002968D02*
X1005000Y617032D01*
X1007032Y615000D01*
X1005000Y612968D01*
X1002968Y615000D01*
X1190468Y610000D02*
X1192500Y612032D01*
X1194532Y610000D01*
X1192500Y607968D01*
X1190468Y610000D01*
X1007968D02*
X1010000Y612032D01*
X1012032Y610000D01*
X1010000Y607968D01*
X1007968Y610000D01*
X1165468Y605000D02*
X1167500Y607032D01*
X1169532Y605000D01*
X1167500Y602968D01*
X1165468Y605000D01*
X1012968D02*
X1015000Y607032D01*
X1017032Y605000D01*
X1015000Y602968D01*
X1012968Y605000D01*
X1140911Y600466D02*
X1142943Y602498D01*
X1144975Y600466D01*
X1142943Y598434D01*
X1140911Y600466D01*
X1017968Y600000D02*
X1020000Y602032D01*
X1022032Y600000D01*
X1020000Y597968D01*
X1017968Y600000D01*
X807968Y382500D02*
X810000Y384532D01*
X812032Y382500D01*
X810000Y380468D01*
X807968Y382500D01*
X782968Y387500D02*
X785000Y389532D01*
X787032Y387500D01*
X785000Y385468D01*
X782968Y387500D01*
X757968Y392500D02*
X760000Y394532D01*
X762032Y392500D01*
X760000Y390468D01*
X757968Y392500D01*
X730468Y397500D02*
X732500Y399532D01*
X734532Y397500D01*
X732500Y395468D01*
X730468Y397500D01*
X707968Y402500D02*
X710000Y404532D01*
X712032Y402500D01*
X710000Y400468D01*
X707968Y402500D01*
X680468Y407500D02*
X682500Y409532D01*
X684532Y407500D01*
X682500Y405468D01*
X680468Y407500D01*
X655468Y412500D02*
X657500Y414532D01*
X659532Y412500D01*
X657500Y410468D01*
X655468Y412500D01*
X627968Y417500D02*
X630000Y419532D01*
X632032Y417500D01*
X630000Y415468D01*
X627968Y417500D01*
X606139Y422818D02*
X608171Y424850D01*
X610203Y422818D01*
X608171Y420786D01*
X606139Y422818D01*
X1017968Y382500D02*
X1020000Y384532D01*
X1022032Y382500D01*
X1020000Y380468D01*
X1017968Y382500D01*
X1012968Y387500D02*
X1015000Y389532D01*
X1017032Y387500D01*
X1015000Y385468D01*
X1012968Y387500D01*
X1007968Y392500D02*
X1010000Y394532D01*
X1012032Y392500D01*
X1010000Y390468D01*
X1007968Y392500D01*
X1002968Y397500D02*
X1005000Y399532D01*
X1007032Y397500D01*
X1005000Y395468D01*
X1002968Y397500D01*
X997968Y402500D02*
X1000000Y404532D01*
X1002032Y402500D01*
X1000000Y400468D01*
X997968Y402500D01*
X992968Y407500D02*
X995000Y409532D01*
X997032Y407500D01*
X995000Y405468D01*
X992968Y407500D01*
X987968Y412500D02*
X990000Y414532D01*
X992032Y412500D01*
X990000Y410468D01*
X987968Y412500D01*
X982968Y417500D02*
X985000Y419532D01*
X987032Y417500D01*
X985000Y415468D01*
X982968Y417500D01*
X977968Y422500D02*
X980000Y424532D01*
X982032Y422500D01*
X980000Y420468D01*
X977968Y422500D01*
X855468Y480000D02*
X857500Y482032D01*
X859532Y480000D01*
X857500Y477968D01*
X855468Y480000D01*
Y547500D02*
X857500Y549532D01*
X859532Y547500D01*
X857500Y545468D01*
X855468Y547500D01*
X282968Y987500D02*
X285000Y989532D01*
X287032Y987500D01*
X285000Y985468D01*
X282968Y987500D01*
X245468Y1040000D02*
X247500Y1042032D01*
X249532Y1040000D01*
X247500Y1037968D01*
X245468Y1040000D01*
D127*
X1604332Y1140000D02*
X1602928Y1141933D01*
X1600656Y1141194D01*
Y1138806D01*
X1602928Y1138067D01*
X1604332Y1140000D01*
M02*
