G04*
G04 #@! TF.GenerationSoftware,Altium Limited,Altium Designer,21.4.1 (30)*
G04*
G04 Layer_Color=16711935*
%FSLAX44Y44*%
%MOMM*%
G71*
G04*
G04 #@! TF.SameCoordinates,A141D3DD-4A5E-4641-B441-74F08AAE2887*
G04*
G04*
G04 #@! TF.FilePolarity,Positive*
G04*
G01*
G75*
%ADD14C,0.2540*%
D14*
X1800000Y1175000D02*
X1799863Y1177613D01*
X1799454Y1180198D01*
X1798776Y1182725D01*
X1797839Y1185168D01*
X1796651Y1187500D01*
X1795225Y1189695D01*
X1793579Y1191728D01*
X1791728Y1193579D01*
X1789695Y1195225D01*
X1787500Y1196651D01*
X1785168Y1197839D01*
X1782725Y1198776D01*
X1780198Y1199454D01*
X1777613Y1199863D01*
X1775000Y1200000D01*
Y0D02*
X1777613Y137D01*
X1780198Y546D01*
X1782725Y1224D01*
X1785168Y2161D01*
X1787500Y3349D01*
X1789695Y4775D01*
X1791728Y6421D01*
X1793579Y8272D01*
X1795225Y10305D01*
X1796651Y12500D01*
X1797839Y14832D01*
X1798776Y17275D01*
X1799454Y19802D01*
X1799863Y22387D01*
X1800000Y25000D01*
X0D02*
X137Y22387D01*
X546Y19802D01*
X1224Y17275D01*
X2161Y14832D01*
X3349Y12500D01*
X4775Y10305D01*
X6421Y8272D01*
X8272Y6421D01*
X10305Y4775D01*
X12500Y3349D01*
X14832Y2161D01*
X17275Y1224D01*
X19802Y546D01*
X22387Y137D01*
X25000Y0D01*
Y1200000D02*
X22387Y1199863D01*
X19802Y1199454D01*
X17275Y1198776D01*
X14832Y1197839D01*
X12500Y1196651D01*
X10305Y1195225D01*
X8272Y1193579D01*
X6421Y1191728D01*
X4775Y1189695D01*
X3349Y1187500D01*
X2161Y1185168D01*
X1224Y1182725D01*
X546Y1180198D01*
X137Y1177613D01*
X0Y1175000D01*
X25000Y1200000D02*
X1775000D01*
X0Y25000D02*
Y1175000D01*
X25000Y0D02*
X1775000D01*
X1800000Y25000D02*
Y1175000D01*
M02*
