G04*
G04 #@! TF.GenerationSoftware,Altium Limited,Altium Designer,21.4.1 (30)*
G04*
G04 Layer_Color=255*
%FSLAX44Y44*%
%MOMM*%
G71*
G04*
G04 #@! TF.SameCoordinates,A141D3DD-4A5E-4641-B441-74F08AAE2887*
G04*
G04*
G04 #@! TF.FilePolarity,Positive*
G04*
G01*
G75*
%ADD31R,1.0000X0.9000*%
%ADD36R,0.8500X0.9500*%
%ADD109C,1.0000*%
%ADD110P,2.3369X8X112.5*%
%ADD111C,1.8000*%
%ADD112R,1.8000X1.8000*%
%ADD113R,1.2220X1.2220*%
%ADD114C,1.2220*%
%ADD115R,1.5240X1.5240*%
%ADD116C,1.5240*%
%ADD117C,3.0000*%
%ADD118C,2.0000*%
%ADD119R,1.5240X1.5240*%
G04:AMPARAMS|DCode=120|XSize=5mm|YSize=3.5mm|CornerRadius=0mm|HoleSize=0mm|Usage=FLASHONLY|Rotation=0.000|XOffset=0mm|YOffset=0mm|HoleType=Round|Shape=Octagon|*
%AMOCTAGOND120*
4,1,8,2.5000,-0.8750,2.5000,0.8750,1.6250,1.7500,-1.6250,1.7500,-2.5000,0.8750,-2.5000,-0.8750,-1.6250,-1.7500,1.6250,-1.7500,2.5000,-0.8750,0.0*
%
%ADD120OCTAGOND120*%

G04:AMPARAMS|DCode=121|XSize=5mm|YSize=3.5mm|CornerRadius=0mm|HoleSize=0mm|Usage=FLASHONLY|Rotation=270.000|XOffset=0mm|YOffset=0mm|HoleType=Round|Shape=Octagon|*
%AMOCTAGOND121*
4,1,8,-0.8750,-2.5000,0.8750,-2.5000,1.7500,-1.6250,1.7500,1.6250,0.8750,2.5000,-0.8750,2.5000,-1.7500,1.6250,-1.7500,-1.6250,-0.8750,-2.5000,0.0*
%
%ADD121OCTAGOND121*%

D31*
X1665000Y948250D02*
D03*
Y961750D02*
D03*
X1685000Y948250D02*
D03*
Y961750D02*
D03*
X857369Y525789D02*
D03*
Y539289D02*
D03*
X857500Y456750D02*
D03*
Y470250D02*
D03*
D36*
X1416500Y85000D02*
D03*
X1403500D02*
D03*
X1366500D02*
D03*
X1353500D02*
D03*
X1466500D02*
D03*
X1453500D02*
D03*
X1742500Y477500D02*
D03*
X1753000D02*
D03*
Y455000D02*
D03*
X1742500D02*
D03*
X1655000Y1085000D02*
D03*
X1644500D02*
D03*
X112500Y457500D02*
D03*
X102000D02*
D03*
Y482500D02*
D03*
X112500D02*
D03*
X102000Y507500D02*
D03*
X112500D02*
D03*
D109*
X1653100Y1140000D02*
D03*
Y1127300D02*
D03*
X1640400Y1140000D02*
D03*
Y1127300D02*
D03*
X1627700Y1140000D02*
D03*
Y1127300D02*
D03*
X1615000Y1140000D02*
D03*
Y1127300D02*
D03*
X1602300D02*
D03*
Y1140000D02*
D03*
D110*
X670000Y1100000D02*
D03*
Y1150000D02*
D03*
D111*
X1015200Y1045000D02*
D03*
X1370800D02*
D03*
X1345400D02*
D03*
X1320000D02*
D03*
X1294600D02*
D03*
X1269200D02*
D03*
X1243800D02*
D03*
X1218400D02*
D03*
X1193000D02*
D03*
X1167600D02*
D03*
X1142200D02*
D03*
X1116800D02*
D03*
X1091400D02*
D03*
X1066000D02*
D03*
X1040600D02*
D03*
X1749600Y667500D02*
D03*
X1775000D02*
D03*
X809600Y150000D02*
D03*
X784200D02*
D03*
X758800D02*
D03*
X733400D02*
D03*
X708000D02*
D03*
X682600D02*
D03*
X657200D02*
D03*
X631800D02*
D03*
X606400D02*
D03*
X581000D02*
D03*
X555600D02*
D03*
X530200D02*
D03*
X504800D02*
D03*
X479400D02*
D03*
X454000D02*
D03*
X428600D02*
D03*
X403200D02*
D03*
X377800D02*
D03*
X352400D02*
D03*
X327000D02*
D03*
X301600D02*
D03*
X276200D02*
D03*
X250800D02*
D03*
X225400D02*
D03*
X682600Y760000D02*
D03*
X657200D02*
D03*
X631800D02*
D03*
X606400D02*
D03*
X581000D02*
D03*
X555600D02*
D03*
X530200D02*
D03*
X504800D02*
D03*
X479400D02*
D03*
X454000D02*
D03*
X428600D02*
D03*
X403200D02*
D03*
X377800D02*
D03*
X352400D02*
D03*
X327000D02*
D03*
X301600D02*
D03*
X276200D02*
D03*
X250800D02*
D03*
X225400D02*
D03*
X200000D02*
D03*
X1498000Y60000D02*
D03*
X1472600D02*
D03*
X1447200D02*
D03*
X1421800D02*
D03*
X1396400D02*
D03*
X1371000D02*
D03*
D112*
X989800Y1045000D02*
D03*
X1724200Y667500D02*
D03*
X200000Y150000D02*
D03*
X1345600Y60000D02*
D03*
D113*
X1169600Y1130935D02*
D03*
D114*
X1195000Y1156335D02*
D03*
X1220400Y1130935D02*
D03*
D115*
X1750000Y517500D02*
D03*
X50000Y780000D02*
D03*
X50000Y507500D02*
D03*
X50000Y950000D02*
D03*
D116*
X1750000Y542500D02*
D03*
X50000Y580000D02*
D03*
Y655000D02*
D03*
Y680000D02*
D03*
Y730000D02*
D03*
Y755000D02*
D03*
Y705000D02*
D03*
Y630000D02*
D03*
Y605000D02*
D03*
X50000Y482500D02*
D03*
X50000Y850000D02*
D03*
Y900000D02*
D03*
Y925000D02*
D03*
Y875000D02*
D03*
X130000Y1150000D02*
D03*
D117*
X1750000D02*
D03*
X1600000Y45000D02*
D03*
X1243600D02*
D03*
Y655000D02*
D03*
X1600000D02*
D03*
X50000Y50000D02*
D03*
Y1150000D02*
D03*
X1750000Y50000D02*
D03*
D118*
X45000Y395000D02*
D03*
Y320000D02*
D03*
D119*
X155000Y1150000D02*
D03*
D120*
X119972Y999962D02*
D03*
D121*
X90000Y1050000D02*
D03*
X151214D02*
D03*
M02*
